<?xml version="1.0" encoding="utf-8" standalone="no"?>
<!DOCTYPE svg PUBLIC "-//W3C//DTD SVG 1.1//EN"
  "http://www.w3.org/Graphics/SVG/1.1/DTD/svg11.dtd">
<svg xmlns:xlink="http://www.w3.org/1999/xlink" width="479.071875pt" height="298.943016pt" viewBox="0 0 479.071875 298.943016" xmlns="http://www.w3.org/2000/svg" version="1.1">
 <metadata>
  <rdf:RDF xmlns:dc="http://purl.org/dc/elements/1.1/" xmlns:cc="http://creativecommons.org/ns#" xmlns:rdf="http://www.w3.org/1999/02/22-rdf-syntax-ns#">
   <cc:Work>
    <dc:type rdf:resource="http://purl.org/dc/dcmitype/StillImage"/>
    <dc:date>2025-12-09T18:13:32.198303</dc:date>
    <dc:format>image/svg+xml</dc:format>
    <dc:creator>
     <cc:Agent>
      <dc:title>Matplotlib v3.10.7, https://matplotlib.org/</dc:title>
     </cc:Agent>
    </dc:creator>
   </cc:Work>
  </rdf:RDF>
 </metadata>
 <defs>
  <style type="text/css">*{stroke-linejoin: round; stroke-linecap: butt}</style>
 </defs>
 <g id="figure_1">
  <g id="patch_1">
   <path d="M 0 298.943016 
L 479.071875 298.943016 
L 479.071875 0 
L 0 0 
z
" style="fill: #ffffff"/>
  </g>
  <g id="axes_1">
   <g id="patch_2">
    <path d="M 63.526875 243.48075 
L 471.871875 243.48075 
L 471.871875 45.55275 
L 63.526875 45.55275 
z
" style="fill: #ffffff"/>
   </g>
   <g id="matplotlib.axis_1">
    <g id="xtick_1">
     <g id="text_1">
      <!-- 0 -->
      <g style="fill: #262626" transform="translate(126.996602 267.791141) scale(0.165 -0.165)">
       <defs>
        <path id="ArialMT-30" d="M 266 2259 
Q 266 3072 433 3567 
Q 600 4063 929 4331 
Q 1259 4600 1759 4600 
Q 2128 4600 2406 4451 
Q 2684 4303 2865 4023 
Q 3047 3744 3150 3342 
Q 3253 2941 3253 2259 
Q 3253 1453 3087 958 
Q 2922 463 2592 192 
Q 2263 -78 1759 -78 
Q 1097 -78 719 397 
Q 266 969 266 2259 
z
M 844 2259 
Q 844 1131 1108 757 
Q 1372 384 1759 384 
Q 2147 384 2411 759 
Q 2675 1134 2675 2259 
Q 2675 3391 2411 3762 
Q 2147 4134 1753 4134 
Q 1366 4134 1134 3806 
Q 844 3388 844 2259 
z
" transform="scale(0.015625)"/>
       </defs>
       <use xlink:href="#ArialMT-30"/>
      </g>
     </g>
    </g>
    <g id="xtick_2">
     <g id="text_2">
      <!-- 1 -->
      <g style="fill: #262626" transform="translate(263.111602 267.791141) scale(0.165 -0.165)">
       <defs>
        <path id="ArialMT-31" d="M 2384 0 
L 1822 0 
L 1822 3584 
Q 1619 3391 1289 3197 
Q 959 3003 697 2906 
L 697 3450 
Q 1169 3672 1522 3987 
Q 1875 4303 2022 4600 
L 2384 4600 
L 2384 0 
z
" transform="scale(0.015625)"/>
       </defs>
       <use xlink:href="#ArialMT-31"/>
      </g>
     </g>
    </g>
    <g id="xtick_3">
     <g id="text_3">
      <!-- 2 -->
      <g style="fill: #262626" transform="translate(399.226602 267.791141) scale(0.165 -0.165)">
       <defs>
        <path id="ArialMT-32" d="M 3222 541 
L 3222 0 
L 194 0 
Q 188 203 259 391 
Q 375 700 629 1000 
Q 884 1300 1366 1694 
Q 2113 2306 2375 2664 
Q 2638 3022 2638 3341 
Q 2638 3675 2398 3904 
Q 2159 4134 1775 4134 
Q 1369 4134 1125 3890 
Q 881 3647 878 3216 
L 300 3275 
Q 359 3922 746 4261 
Q 1134 4600 1788 4600 
Q 2447 4600 2831 4234 
Q 3216 3869 3216 3328 
Q 3216 3053 3103 2787 
Q 2991 2522 2730 2228 
Q 2469 1934 1863 1422 
Q 1356 997 1212 845 
Q 1069 694 975 541 
L 3222 541 
z
" transform="scale(0.015625)"/>
       </defs>
       <use xlink:href="#ArialMT-32"/>
      </g>
     </g>
    </g>
    <g id="text_4">
     <!-- Layer -->
     <g style="fill: #262626" transform="translate(245.188125 287.954578) scale(0.18 -0.18)">
      <defs>
       <path id="ArialMT-4c" d="M 469 0 
L 469 4581 
L 1075 4581 
L 1075 541 
L 3331 541 
L 3331 0 
L 469 0 
z
" transform="scale(0.015625)"/>
       <path id="ArialMT-61" d="M 2588 409 
Q 2275 144 1986 34 
Q 1697 -75 1366 -75 
Q 819 -75 525 192 
Q 231 459 231 875 
Q 231 1119 342 1320 
Q 453 1522 633 1644 
Q 813 1766 1038 1828 
Q 1203 1872 1538 1913 
Q 2219 1994 2541 2106 
Q 2544 2222 2544 2253 
Q 2544 2597 2384 2738 
Q 2169 2928 1744 2928 
Q 1347 2928 1158 2789 
Q 969 2650 878 2297 
L 328 2372 
Q 403 2725 575 2942 
Q 747 3159 1072 3276 
Q 1397 3394 1825 3394 
Q 2250 3394 2515 3294 
Q 2781 3194 2906 3042 
Q 3031 2891 3081 2659 
Q 3109 2516 3109 2141 
L 3109 1391 
Q 3109 606 3145 398 
Q 3181 191 3288 0 
L 2700 0 
Q 2613 175 2588 409 
z
M 2541 1666 
Q 2234 1541 1622 1453 
Q 1275 1403 1131 1340 
Q 988 1278 909 1158 
Q 831 1038 831 891 
Q 831 666 1001 516 
Q 1172 366 1500 366 
Q 1825 366 2078 508 
Q 2331 650 2450 897 
Q 2541 1088 2541 1459 
L 2541 1666 
z
" transform="scale(0.015625)"/>
       <path id="ArialMT-79" d="M 397 -1278 
L 334 -750 
Q 519 -800 656 -800 
Q 844 -800 956 -737 
Q 1069 -675 1141 -563 
Q 1194 -478 1313 -144 
Q 1328 -97 1363 -6 
L 103 3319 
L 709 3319 
L 1400 1397 
Q 1534 1031 1641 628 
Q 1738 1016 1872 1384 
L 2581 3319 
L 3144 3319 
L 1881 -56 
Q 1678 -603 1566 -809 
Q 1416 -1088 1222 -1217 
Q 1028 -1347 759 -1347 
Q 597 -1347 397 -1278 
z
" transform="scale(0.015625)"/>
       <path id="ArialMT-65" d="M 2694 1069 
L 3275 997 
Q 3138 488 2766 206 
Q 2394 -75 1816 -75 
Q 1088 -75 661 373 
Q 234 822 234 1631 
Q 234 2469 665 2931 
Q 1097 3394 1784 3394 
Q 2450 3394 2872 2941 
Q 3294 2488 3294 1666 
Q 3294 1616 3291 1516 
L 816 1516 
Q 847 969 1125 678 
Q 1403 388 1819 388 
Q 2128 388 2347 550 
Q 2566 713 2694 1069 
z
M 847 1978 
L 2700 1978 
Q 2663 2397 2488 2606 
Q 2219 2931 1791 2931 
Q 1403 2931 1139 2672 
Q 875 2413 847 1978 
z
" transform="scale(0.015625)"/>
       <path id="ArialMT-72" d="M 416 0 
L 416 3319 
L 922 3319 
L 922 2816 
Q 1116 3169 1280 3281 
Q 1444 3394 1641 3394 
Q 1925 3394 2219 3213 
L 2025 2691 
Q 1819 2813 1613 2813 
Q 1428 2813 1281 2702 
Q 1134 2591 1072 2394 
Q 978 2094 978 1738 
L 978 0 
L 416 0 
z
" transform="scale(0.015625)"/>
      </defs>
      <use xlink:href="#ArialMT-4c"/>
      <use xlink:href="#ArialMT-61" transform="translate(55.615234 0)"/>
      <use xlink:href="#ArialMT-79" transform="translate(111.230469 0)"/>
      <use xlink:href="#ArialMT-65" transform="translate(161.230469 0)"/>
      <use xlink:href="#ArialMT-72" transform="translate(216.845703 0)"/>
     </g>
    </g>
   </g>
   <g id="matplotlib.axis_2">
    <g id="ytick_1">
     <g id="line2d_1">
      <path d="M 63.526875 197.605703 
L 471.871875 197.605703 
" clip-path="url(#p7825ea558d)" style="fill: none; stroke: #cccccc; stroke-width: 1.5; stroke-linecap: round"/>
     </g>
     <g id="text_5">
      <!-- 0.2 -->
      <g style="fill: #262626" transform="translate(28.091875 203.510899) scale(0.165 -0.165)">
       <defs>
        <path id="ArialMT-2e" d="M 581 0 
L 581 641 
L 1222 641 
L 1222 0 
L 581 0 
z
" transform="scale(0.015625)"/>
       </defs>
       <use xlink:href="#ArialMT-30"/>
       <use xlink:href="#ArialMT-2e" transform="translate(55.615234 0)"/>
       <use xlink:href="#ArialMT-32" transform="translate(83.398438 0)"/>
      </g>
     </g>
    </g>
    <g id="ytick_2">
     <g id="line2d_2">
      <path d="M 63.526875 139.16455 
L 471.871875 139.16455 
" clip-path="url(#p7825ea558d)" style="fill: none; stroke: #cccccc; stroke-width: 1.5; stroke-linecap: round"/>
     </g>
     <g id="text_6">
      <!-- 0.4 -->
      <g style="fill: #262626" transform="translate(28.091875 145.069745) scale(0.165 -0.165)">
       <defs>
        <path id="ArialMT-34" d="M 2069 0 
L 2069 1097 
L 81 1097 
L 81 1613 
L 2172 4581 
L 2631 4581 
L 2631 1613 
L 3250 1613 
L 3250 1097 
L 2631 1097 
L 2631 0 
L 2069 0 
z
M 2069 1613 
L 2069 3678 
L 634 1613 
L 2069 1613 
z
" transform="scale(0.015625)"/>
       </defs>
       <use xlink:href="#ArialMT-30"/>
       <use xlink:href="#ArialMT-2e" transform="translate(55.615234 0)"/>
       <use xlink:href="#ArialMT-34" transform="translate(83.398438 0)"/>
      </g>
     </g>
    </g>
    <g id="ytick_3">
     <g id="line2d_3">
      <path d="M 63.526875 80.723396 
L 471.871875 80.723396 
" clip-path="url(#p7825ea558d)" style="fill: none; stroke: #cccccc; stroke-width: 1.5; stroke-linecap: round"/>
     </g>
     <g id="text_7">
      <!-- 0.6 -->
      <g style="fill: #262626" transform="translate(28.091875 86.628591) scale(0.165 -0.165)">
       <defs>
        <path id="ArialMT-36" d="M 3184 3459 
L 2625 3416 
Q 2550 3747 2413 3897 
Q 2184 4138 1850 4138 
Q 1581 4138 1378 3988 
Q 1113 3794 959 3422 
Q 806 3050 800 2363 
Q 1003 2672 1297 2822 
Q 1591 2972 1913 2972 
Q 2475 2972 2870 2558 
Q 3266 2144 3266 1488 
Q 3266 1056 3080 686 
Q 2894 316 2569 119 
Q 2244 -78 1831 -78 
Q 1128 -78 684 439 
Q 241 956 241 2144 
Q 241 3472 731 4075 
Q 1159 4600 1884 4600 
Q 2425 4600 2770 4297 
Q 3116 3994 3184 3459 
z
M 888 1484 
Q 888 1194 1011 928 
Q 1134 663 1356 523 
Q 1578 384 1822 384 
Q 2178 384 2434 671 
Q 2691 959 2691 1453 
Q 2691 1928 2437 2201 
Q 2184 2475 1800 2475 
Q 1419 2475 1153 2201 
Q 888 1928 888 1484 
z
" transform="scale(0.015625)"/>
       </defs>
       <use xlink:href="#ArialMT-30"/>
       <use xlink:href="#ArialMT-2e" transform="translate(55.615234 0)"/>
       <use xlink:href="#ArialMT-36" transform="translate(83.398438 0)"/>
      </g>
     </g>
    </g>
    <g id="text_8">
     <!-- Vector norm (mean |v|) -->
     <g style="fill: #262626" transform="translate(20.303438 235.717687) rotate(-90) scale(0.18 -0.18)">
      <defs>
       <path id="ArialMT-56" d="M 1803 0 
L 28 4581 
L 684 4581 
L 1875 1253 
Q 2019 853 2116 503 
Q 2222 878 2363 1253 
L 3600 4581 
L 4219 4581 
L 2425 0 
L 1803 0 
z
" transform="scale(0.015625)"/>
       <path id="ArialMT-63" d="M 2588 1216 
L 3141 1144 
Q 3050 572 2676 248 
Q 2303 -75 1759 -75 
Q 1078 -75 664 370 
Q 250 816 250 1647 
Q 250 2184 428 2587 
Q 606 2991 970 3192 
Q 1334 3394 1763 3394 
Q 2303 3394 2647 3120 
Q 2991 2847 3088 2344 
L 2541 2259 
Q 2463 2594 2264 2762 
Q 2066 2931 1784 2931 
Q 1359 2931 1093 2626 
Q 828 2322 828 1663 
Q 828 994 1084 691 
Q 1341 388 1753 388 
Q 2084 388 2306 591 
Q 2528 794 2588 1216 
z
" transform="scale(0.015625)"/>
       <path id="ArialMT-74" d="M 1650 503 
L 1731 6 
Q 1494 -44 1306 -44 
Q 1000 -44 831 53 
Q 663 150 594 308 
Q 525 466 525 972 
L 525 2881 
L 113 2881 
L 113 3319 
L 525 3319 
L 525 4141 
L 1084 4478 
L 1084 3319 
L 1650 3319 
L 1650 2881 
L 1084 2881 
L 1084 941 
Q 1084 700 1114 631 
Q 1144 563 1211 522 
Q 1278 481 1403 481 
Q 1497 481 1650 503 
z
" transform="scale(0.015625)"/>
       <path id="ArialMT-6f" d="M 213 1659 
Q 213 2581 725 3025 
Q 1153 3394 1769 3394 
Q 2453 3394 2887 2945 
Q 3322 2497 3322 1706 
Q 3322 1066 3130 698 
Q 2938 331 2570 128 
Q 2203 -75 1769 -75 
Q 1072 -75 642 372 
Q 213 819 213 1659 
z
M 791 1659 
Q 791 1022 1069 705 
Q 1347 388 1769 388 
Q 2188 388 2466 706 
Q 2744 1025 2744 1678 
Q 2744 2294 2464 2611 
Q 2184 2928 1769 2928 
Q 1347 2928 1069 2612 
Q 791 2297 791 1659 
z
" transform="scale(0.015625)"/>
       <path id="ArialMT-20" transform="scale(0.015625)"/>
       <path id="ArialMT-6e" d="M 422 0 
L 422 3319 
L 928 3319 
L 928 2847 
Q 1294 3394 1984 3394 
Q 2284 3394 2536 3286 
Q 2788 3178 2913 3003 
Q 3038 2828 3088 2588 
Q 3119 2431 3119 2041 
L 3119 0 
L 2556 0 
L 2556 2019 
Q 2556 2363 2490 2533 
Q 2425 2703 2258 2804 
Q 2091 2906 1866 2906 
Q 1506 2906 1245 2678 
Q 984 2450 984 1813 
L 984 0 
L 422 0 
z
" transform="scale(0.015625)"/>
       <path id="ArialMT-6d" d="M 422 0 
L 422 3319 
L 925 3319 
L 925 2853 
Q 1081 3097 1340 3245 
Q 1600 3394 1931 3394 
Q 2300 3394 2536 3241 
Q 2772 3088 2869 2813 
Q 3263 3394 3894 3394 
Q 4388 3394 4653 3120 
Q 4919 2847 4919 2278 
L 4919 0 
L 4359 0 
L 4359 2091 
Q 4359 2428 4304 2576 
Q 4250 2725 4106 2815 
Q 3963 2906 3769 2906 
Q 3419 2906 3187 2673 
Q 2956 2441 2956 1928 
L 2956 0 
L 2394 0 
L 2394 2156 
Q 2394 2531 2256 2718 
Q 2119 2906 1806 2906 
Q 1569 2906 1367 2781 
Q 1166 2656 1075 2415 
Q 984 2175 984 1722 
L 984 0 
L 422 0 
z
" transform="scale(0.015625)"/>
       <path id="ArialMT-28" d="M 1497 -1347 
Q 1031 -759 709 28 
Q 388 816 388 1659 
Q 388 2403 628 3084 
Q 909 3875 1497 4659 
L 1900 4659 
Q 1522 4009 1400 3731 
Q 1209 3300 1100 2831 
Q 966 2247 966 1656 
Q 966 153 1900 -1347 
L 1497 -1347 
z
" transform="scale(0.015625)"/>
       <path id="ArialMT-7c" d="M 588 -1347 
L 588 4659 
L 1078 4659 
L 1078 -1347 
L 588 -1347 
z
" transform="scale(0.015625)"/>
       <path id="ArialMT-76" d="M 1344 0 
L 81 3319 
L 675 3319 
L 1388 1331 
Q 1503 1009 1600 663 
Q 1675 925 1809 1294 
L 2547 3319 
L 3125 3319 
L 1869 0 
L 1344 0 
z
" transform="scale(0.015625)"/>
       <path id="ArialMT-29" d="M 791 -1347 
L 388 -1347 
Q 1322 153 1322 1656 
Q 1322 2244 1188 2822 
Q 1081 3291 891 3722 
Q 769 4003 388 4659 
L 791 4659 
Q 1378 3875 1659 3084 
Q 1900 2403 1900 1659 
Q 1900 816 1576 28 
Q 1253 -759 791 -1347 
z
" transform="scale(0.015625)"/>
      </defs>
      <use xlink:href="#ArialMT-56"/>
      <use xlink:href="#ArialMT-65" transform="translate(61.199219 0)"/>
      <use xlink:href="#ArialMT-63" transform="translate(116.814453 0)"/>
      <use xlink:href="#ArialMT-74" transform="translate(166.814453 0)"/>
      <use xlink:href="#ArialMT-6f" transform="translate(194.597656 0)"/>
      <use xlink:href="#ArialMT-72" transform="translate(250.212891 0)"/>
      <use xlink:href="#ArialMT-20" transform="translate(283.513672 0)"/>
      <use xlink:href="#ArialMT-6e" transform="translate(311.296875 0)"/>
      <use xlink:href="#ArialMT-6f" transform="translate(366.912109 0)"/>
      <use xlink:href="#ArialMT-72" transform="translate(422.527344 0)"/>
      <use xlink:href="#ArialMT-6d" transform="translate(455.828125 0)"/>
      <use xlink:href="#ArialMT-20" transform="translate(539.128906 0)"/>
      <use xlink:href="#ArialMT-28" transform="translate(566.912109 0)"/>
      <use xlink:href="#ArialMT-6d" transform="translate(600.212891 0)"/>
      <use xlink:href="#ArialMT-65" transform="translate(683.513672 0)"/>
      <use xlink:href="#ArialMT-61" transform="translate(739.128906 0)"/>
      <use xlink:href="#ArialMT-6e" transform="translate(794.744141 0)"/>
      <use xlink:href="#ArialMT-20" transform="translate(850.359375 0)"/>
      <use xlink:href="#ArialMT-7c" transform="translate(878.142578 0)"/>
      <use xlink:href="#ArialMT-76" transform="translate(904.119141 0)"/>
      <use xlink:href="#ArialMT-7c" transform="translate(954.119141 0)"/>
      <use xlink:href="#ArialMT-29" transform="translate(980.095703 0)"/>
     </g>
    </g>
   </g>
   <g id="FillBetweenPolyCollection_1">
    <defs>
     <path id="md1c3dba3e9" d="M 184.678335 -76.230447 
L 78.490415 -76.230447 
L 77.826037 -76.367291 
L 77.464687 -76.504135 
L 77.412346 -76.640978 
L 77.669639 -76.777822 
L 78.231803 -76.914666 
L 79.088801 -77.051509 
L 80.225585 -77.188353 
L 81.622491 -77.325196 
L 83.255756 -77.46204 
L 85.098122 -77.598884 
L 87.119529 -77.735727 
L 89.287844 -77.872571 
L 91.569613 -78.009414 
L 93.93081 -78.146258 
L 96.337556 -78.283102 
L 98.756781 -78.419945 
L 101.156821 -78.556789 
L 103.50793 -78.693632 
L 105.782693 -78.830476 
L 107.956344 -78.96732 
L 110.006989 -79.104163 
L 111.915729 -79.241007 
L 113.666704 -79.377851 
L 115.247051 -79.514694 
L 116.646819 -79.651538 
L 117.858818 -79.788381 
L 118.878449 -79.925225 
L 119.703513 -80.062069 
L 120.334014 -80.198912 
L 120.771971 -80.335756 
L 121.021243 -80.472599 
L 121.08738 -80.609443 
L 120.97749 -80.746287 
L 120.700141 -80.88313 
L 120.265271 -81.019974 
L 119.684129 -81.156817 
L 118.969213 -81.293661 
L 118.134216 -81.430505 
L 117.19396 -81.567348 
L 116.164314 -81.704192 
L 115.062086 -81.841036 
L 113.904881 -81.977879 
L 112.710921 -82.114723 
L 111.498821 -82.251566 
L 110.287325 -82.38841 
L 109.095 -82.525254 
L 107.939892 -82.662097 
L 106.839158 -82.798941 
L 105.808675 -82.935784 
L 104.862649 -83.072628 
L 104.013227 -83.209472 
L 103.270133 -83.346315 
L 102.640342 -83.483159 
L 102.127806 -83.620002 
L 101.733241 -83.756846 
L 101.454005 -83.89369 
L 101.284045 -84.030533 
L 101.213952 -84.167377 
L 101.231108 -84.304221 
L 101.319936 -84.441064 
L 101.46224 -84.577908 
L 101.637642 -84.714751 
L 101.824097 -84.851595 
L 101.998477 -84.988439 
L 102.137208 -85.125282 
L 102.216947 -85.262126 
L 102.215278 -85.398969 
L 102.111402 -85.535813 
L 101.886811 -85.672657 
L 101.525921 -85.8095 
L 101.016637 -85.946344 
L 100.350844 -86.083187 
L 99.5248 -86.220031 
L 98.539416 -86.356875 
L 97.400413 -86.493718 
L 96.118346 -86.630562 
L 94.708497 -86.767406 
L 93.19062 -86.904249 
L 91.588559 -87.041093 
L 89.929741 -87.177936 
L 88.244546 -87.31478 
L 86.565585 -87.451624 
L 84.926899 -87.588467 
L 83.363099 -87.725311 
L 81.908481 -87.862154 
L 80.596132 -87.998998 
L 79.457067 -88.135842 
L 78.519417 -88.272685 
L 77.807698 -88.409529 
L 77.342178 -88.546372 
L 77.138375 -88.683216 
L 77.206687 -88.82006 
L 77.552179 -88.956903 
L 78.174518 -89.093747 
L 79.06807 -89.230591 
L 80.222142 -89.367434 
L 81.621361 -89.504278 
L 83.246178 -89.641121 
L 85.073466 -89.777965 
L 178.095284 -89.777965 
L 178.095284 -89.777965 
L 179.922572 -89.641121 
L 181.547389 -89.504278 
L 182.946608 -89.367434 
L 184.10068 -89.230591 
L 184.994232 -89.093747 
L 185.616571 -88.956903 
L 185.962063 -88.82006 
L 186.030375 -88.683216 
L 185.826572 -88.546372 
L 185.361052 -88.409529 
L 184.649333 -88.272685 
L 183.711683 -88.135842 
L 182.572618 -87.998998 
L 181.260269 -87.862154 
L 179.805651 -87.725311 
L 178.241851 -87.588467 
L 176.603165 -87.451624 
L 174.924204 -87.31478 
L 173.239009 -87.177936 
L 171.580191 -87.041093 
L 169.97813 -86.904249 
L 168.460253 -86.767406 
L 167.050404 -86.630562 
L 165.768337 -86.493718 
L 164.629334 -86.356875 
L 163.64395 -86.220031 
L 162.817906 -86.083187 
L 162.152113 -85.946344 
L 161.642829 -85.8095 
L 161.281939 -85.672657 
L 161.057348 -85.535813 
L 160.953472 -85.398969 
L 160.951803 -85.262126 
L 161.031542 -85.125282 
L 161.170273 -84.988439 
L 161.344653 -84.851595 
L 161.531108 -84.714751 
L 161.70651 -84.577908 
L 161.848814 -84.441064 
L 161.937642 -84.304221 
L 161.954798 -84.167377 
L 161.884705 -84.030533 
L 161.714745 -83.89369 
L 161.435509 -83.756846 
L 161.040944 -83.620002 
L 160.528408 -83.483159 
L 159.898617 -83.346315 
L 159.155523 -83.209472 
L 158.306101 -83.072628 
L 157.360075 -82.935784 
L 156.329592 -82.798941 
L 155.228858 -82.662097 
L 154.07375 -82.525254 
L 152.881425 -82.38841 
L 151.669929 -82.251566 
L 150.457829 -82.114723 
L 149.263869 -81.977879 
L 148.106664 -81.841036 
L 147.004436 -81.704192 
L 145.97479 -81.567348 
L 145.034534 -81.430505 
L 144.199537 -81.293661 
L 143.484621 -81.156817 
L 142.903479 -81.019974 
L 142.468609 -80.88313 
L 142.19126 -80.746287 
L 142.08137 -80.609443 
L 142.147507 -80.472599 
L 142.396779 -80.335756 
L 142.834736 -80.198912 
L 143.465237 -80.062069 
L 144.290301 -79.925225 
L 145.309932 -79.788381 
L 146.521931 -79.651538 
L 147.921699 -79.514694 
L 149.502046 -79.377851 
L 151.253021 -79.241007 
L 153.161761 -79.104163 
L 155.212406 -78.96732 
L 157.386057 -78.830476 
L 159.66082 -78.693632 
L 162.011929 -78.556789 
L 164.411969 -78.419945 
L 166.831194 -78.283102 
L 169.23794 -78.146258 
L 171.599137 -78.009414 
L 173.880906 -77.872571 
L 176.049221 -77.735727 
L 178.070628 -77.598884 
L 179.912994 -77.46204 
L 181.546259 -77.325196 
L 182.943165 -77.188353 
L 184.079949 -77.051509 
L 184.936947 -76.914666 
L 185.499111 -76.777822 
L 185.756404 -76.640978 
L 185.704063 -76.504135 
L 185.342713 -76.367291 
L 184.678335 -76.230447 
z
" style="stroke: #656565; stroke-width: 1.875"/>
    </defs>
    <g clip-path="url(#p7825ea558d)">
     <use xlink:href="#md1c3dba3e9" x="0" y="298.943016" style="fill: #f06292; stroke: #656565; stroke-width: 1.875"/>
    </g>
   </g>
   <g id="FillBetweenPolyCollection_2">
    <defs>
     <path id="ma90e1c552c" d="M 271.700919 -64.458993 
L 263.697831 -64.458993 
L 263.059232 -64.497248 
L 262.351768 -64.535504 
L 261.55603 -64.573759 
L 260.646836 -64.612015 
L 259.594745 -64.65027 
L 258.368309 -64.688526 
L 256.936798 -64.726781 
L 255.273036 -64.765037 
L 253.356093 -64.803292 
L 251.173657 -64.841547 
L 248.724041 -64.879803 
L 246.017869 -64.918058 
L 243.079438 -64.956314 
L 239.947677 -64.994569 
L 236.676476 -65.032825 
L 233.334056 -65.07108 
L 230.000987 -65.109336 
L 226.766632 -65.147591 
L 223.723953 -65.185847 
L 220.96297 -65.224102 
L 218.563434 -65.262357 
L 216.587539 -65.300613 
L 215.073588 -65.338868 
L 214.03154 -65.377124 
L 213.441177 -65.415379 
L 213.253375 -65.453635 
L 213.394587 -65.49189 
L 213.774209 -65.530146 
L 214.294072 -65.568401 
L 214.858921 -65.606657 
L 215.386492 -65.644912 
L 215.815794 -65.683167 
L 216.112401 -65.721423 
L 216.270052 -65.759678 
L 216.308456 -65.797934 
L 216.267831 -65.836189 
L 216.201245 -65.874445 
L 216.166078 -65.9127 
L 216.215942 -65.950956 
L 216.394136 -65.989211 
L 216.729265 -66.027466 
L 217.23321 -66.065722 
L 217.901227 -66.103977 
L 218.71372 -66.142233 
L 219.639178 -66.180488 
L 220.637818 -66.218744 
L 221.665602 -66.256999 
L 222.678421 -66.295255 
L 223.636257 -66.33351 
L 224.507135 -66.371766 
L 225.270586 -66.410021 
L 225.920266 -66.448276 
L 226.465385 -66.486532 
L 226.930615 -66.524787 
L 227.354347 -66.563043 
L 227.785345 -66.601298 
L 228.278081 -66.639554 
L 228.887253 -66.677809 
L 229.662121 -66.716065 
L 230.641361 -66.75432 
L 231.849096 -66.792576 
L 233.292615 -66.830831 
L 234.962055 -66.869086 
L 236.832061 -66.907342 
L 238.865094 -66.945597 
L 241.01584 -66.983853 
L 243.235974 -67.022108 
L 245.478546 -67.060364 
L 247.701362 -67.098619 
L 249.869 -67.136875 
L 251.953419 -67.17513 
L 253.933401 -67.213386 
L 255.79328 -67.251641 
L 257.521479 -67.289896 
L 259.109279 -67.328152 
L 260.550117 -67.366407 
L 261.83945 -67.404663 
L 262.975062 -67.442918 
L 263.957575 -67.481174 
L 264.790869 -67.519429 
L 265.482224 -67.557685 
L 266.042047 -67.59594 
L 266.483212 -67.634196 
L 266.820122 -67.672451 
L 267.06766 -67.710706 
L 267.240219 -67.748962 
L 267.350954 -67.787217 
L 267.41136 -67.825473 
L 267.431193 -67.863728 
L 267.418695 -67.901984 
L 267.381018 -67.940239 
L 267.324729 -67.978495 
L 267.256255 -68.01675 
L 267.182148 -68.055006 
L 267.109104 -68.093261 
L 267.043716 -68.131516 
L 266.992012 -68.169772 
L 266.958894 -68.208027 
L 266.947589 -68.246283 
L 268.451161 -68.246283 
L 268.451161 -68.246283 
L 268.439856 -68.208027 
L 268.406738 -68.169772 
L 268.355034 -68.131516 
L 268.289646 -68.093261 
L 268.216602 -68.055006 
L 268.142495 -68.01675 
L 268.074021 -67.978495 
L 268.017732 -67.940239 
L 267.980055 -67.901984 
L 267.967557 -67.863728 
L 267.98739 -67.825473 
L 268.047796 -67.787217 
L 268.158531 -67.748962 
L 268.33109 -67.710706 
L 268.578628 -67.672451 
L 268.915538 -67.634196 
L 269.356703 -67.59594 
L 269.916526 -67.557685 
L 270.607881 -67.519429 
L 271.441175 -67.481174 
L 272.423688 -67.442918 
L 273.5593 -67.404663 
L 274.848633 -67.366407 
L 276.289471 -67.328152 
L 277.877271 -67.289896 
L 279.60547 -67.251641 
L 281.465349 -67.213386 
L 283.445331 -67.17513 
L 285.52975 -67.136875 
L 287.697388 -67.098619 
L 289.920204 -67.060364 
L 292.162776 -67.022108 
L 294.38291 -66.983853 
L 296.533656 -66.945597 
L 298.566689 -66.907342 
L 300.436695 -66.869086 
L 302.106135 -66.830831 
L 303.549654 -66.792576 
L 304.757389 -66.75432 
L 305.736629 -66.716065 
L 306.511497 -66.677809 
L 307.120669 -66.639554 
L 307.613405 -66.601298 
L 308.044403 -66.563043 
L 308.468135 -66.524787 
L 308.933365 -66.486532 
L 309.478484 -66.448276 
L 310.128164 -66.410021 
L 310.891615 -66.371766 
L 311.762493 -66.33351 
L 312.720329 -66.295255 
L 313.733148 -66.256999 
L 314.760932 -66.218744 
L 315.759572 -66.180488 
L 316.68503 -66.142233 
L 317.497523 -66.103977 
L 318.16554 -66.065722 
L 318.669485 -66.027466 
L 319.004614 -65.989211 
L 319.182808 -65.950956 
L 319.232672 -65.9127 
L 319.197505 -65.874445 
L 319.130919 -65.836189 
L 319.090294 -65.797934 
L 319.128698 -65.759678 
L 319.286349 -65.721423 
L 319.582956 -65.683167 
L 320.012258 -65.644912 
L 320.539829 -65.606657 
L 321.104678 -65.568401 
L 321.624541 -65.530146 
L 322.004163 -65.49189 
L 322.145375 -65.453635 
L 321.957573 -65.415379 
L 321.36721 -65.377124 
L 320.325162 -65.338868 
L 318.811211 -65.300613 
L 316.835316 -65.262357 
L 314.43578 -65.224102 
L 311.674797 -65.185847 
L 308.632118 -65.147591 
L 305.397763 -65.109336 
L 302.064694 -65.07108 
L 298.722274 -65.032825 
L 295.451073 -64.994569 
L 292.319312 -64.956314 
L 289.380881 -64.918058 
L 286.674709 -64.879803 
L 284.225093 -64.841547 
L 282.042657 -64.803292 
L 280.125714 -64.765037 
L 278.461952 -64.726781 
L 277.030441 -64.688526 
L 275.804005 -64.65027 
L 274.751914 -64.612015 
L 273.84272 -64.573759 
L 273.046982 -64.535504 
L 272.339518 -64.497248 
L 271.700919 -64.458993 
z
" style="stroke: #656565; stroke-width: 1.875"/>
    </defs>
    <g clip-path="url(#p7825ea558d)">
     <use xlink:href="#ma90e1c552c" x="0" y="298.943016" style="fill: #f06292; stroke: #656565; stroke-width: 1.875"/>
    </g>
   </g>
   <g id="FillBetweenPolyCollection_3">
    <defs>
     <path id="m5fd68748dd" d="M 457.668046 -69.279597 
L 349.960704 -69.279597 
L 349.575933 -71.048424 
L 349.380849 -72.817252 
L 349.368375 -74.58608 
L 349.5286 -76.354907 
L 349.849077 -78.123735 
L 350.315207 -79.892563 
L 350.910664 -81.661391 
L 351.617882 -83.430218 
L 352.418559 -85.199046 
L 353.294176 -86.967874 
L 354.226512 -88.736701 
L 355.198128 -90.505529 
L 356.192824 -92.274357 
L 357.196026 -94.043184 
L 358.195118 -95.812012 
L 359.179691 -97.58084 
L 360.141716 -99.349667 
L 361.075622 -101.118495 
L 361.978293 -102.887323 
L 362.848978 -104.656151 
L 363.689133 -106.424978 
L 364.502179 -108.193806 
L 365.293217 -109.962634 
L 366.068692 -111.731461 
L 366.836024 -113.500289 
L 367.603233 -115.269117 
L 368.378549 -117.037944 
L 369.170046 -118.806772 
L 369.985296 -120.5756 
L 370.831054 -122.344427 
L 371.713002 -124.113255 
L 372.635532 -125.882083 
L 373.601593 -127.650911 
L 374.612592 -129.419738 
L 375.668362 -131.188566 
L 376.767173 -132.957394 
L 377.905809 -134.726221 
L 379.07968 -136.495049 
L 380.282976 -138.263877 
L 381.50885 -140.032704 
L 382.749616 -141.801532 
L 383.996972 -143.57036 
L 385.242206 -145.339188 
L 386.476412 -147.108015 
L 387.690683 -148.876843 
L 388.876289 -150.645671 
L 390.024826 -152.414498 
L 391.128338 -154.183326 
L 392.179409 -155.952154 
L 393.171222 -157.720981 
L 394.097588 -159.489809 
L 394.952946 -161.258637 
L 395.732332 -163.027464 
L 396.431336 -164.796292 
L 397.046028 -166.56512 
L 397.572888 -168.333948 
L 398.00871 -170.102775 
L 398.350526 -171.871603 
L 398.595516 -173.640431 
L 398.740941 -175.409258 
L 398.784083 -177.178086 
L 398.722212 -178.946914 
L 398.552566 -180.715741 
L 398.272367 -182.484569 
L 397.87886 -184.253397 
L 397.369378 -186.022224 
L 396.741437 -187.791052 
L 395.992863 -189.55988 
L 395.121934 -191.328708 
L 394.127544 -193.097535 
L 393.009391 -194.866363 
L 391.768162 -196.635191 
L 390.405727 -198.404018 
L 388.92533 -200.172846 
L 387.331763 -201.941674 
L 385.63152 -203.710501 
L 383.832927 -205.479329 
L 381.94623 -207.248157 
L 379.983639 -209.016984 
L 377.959329 -210.785812 
L 375.889383 -212.55464 
L 373.791672 -214.323468 
L 371.685688 -216.092295 
L 369.592308 -217.861123 
L 367.533512 -219.629951 
L 365.53204 -221.398778 
L 363.61102 -223.167606 
L 361.793546 -224.936434 
L 360.102243 -226.705261 
L 358.558816 -228.474089 
L 357.183604 -230.242917 
L 355.99514 -232.011744 
L 355.009746 -233.780572 
L 354.241171 -235.5494 
L 353.700271 -237.318228 
L 353.394762 -239.087055 
L 353.329039 -240.855883 
L 353.504075 -242.624711 
L 353.917397 -244.393538 
L 453.711353 -244.393538 
L 453.711353 -244.393538 
L 454.124675 -242.624711 
L 454.299711 -240.855883 
L 454.233988 -239.087055 
L 453.928479 -237.318228 
L 453.387579 -235.5494 
L 452.619004 -233.780572 
L 451.63361 -232.011744 
L 450.445146 -230.242917 
L 449.069934 -228.474089 
L 447.526507 -226.705261 
L 445.835204 -224.936434 
L 444.01773 -223.167606 
L 442.09671 -221.398778 
L 440.095238 -219.629951 
L 438.036442 -217.861123 
L 435.943062 -216.092295 
L 433.837078 -214.323468 
L 431.739367 -212.55464 
L 429.669421 -210.785812 
L 427.645111 -209.016984 
L 425.68252 -207.248157 
L 423.795823 -205.479329 
L 421.99723 -203.710501 
L 420.296987 -201.941674 
L 418.70342 -200.172846 
L 417.223023 -198.404018 
L 415.860588 -196.635191 
L 414.619359 -194.866363 
L 413.501206 -193.097535 
L 412.506816 -191.328708 
L 411.635887 -189.55988 
L 410.887313 -187.791052 
L 410.259372 -186.022224 
L 409.74989 -184.253397 
L 409.356383 -182.484569 
L 409.076184 -180.715741 
L 408.906538 -178.946914 
L 408.844667 -177.178086 
L 408.887809 -175.409258 
L 409.033234 -173.640431 
L 409.278224 -171.871603 
L 409.62004 -170.102775 
L 410.055862 -168.333948 
L 410.582722 -166.56512 
L 411.197414 -164.796292 
L 411.896418 -163.027464 
L 412.675804 -161.258637 
L 413.531162 -159.489809 
L 414.457528 -157.720981 
L 415.449341 -155.952154 
L 416.500412 -154.183326 
L 417.603924 -152.414498 
L 418.752461 -150.645671 
L 419.938067 -148.876843 
L 421.152338 -147.108015 
L 422.386544 -145.339188 
L 423.631778 -143.57036 
L 424.879134 -141.801532 
L 426.1199 -140.032704 
L 427.345774 -138.263877 
L 428.54907 -136.495049 
L 429.722941 -134.726221 
L 430.861577 -132.957394 
L 431.960388 -131.188566 
L 433.016158 -129.419738 
L 434.027157 -127.650911 
L 434.993218 -125.882083 
L 435.915748 -124.113255 
L 436.797696 -122.344427 
L 437.643454 -120.5756 
L 438.458704 -118.806772 
L 439.250201 -117.037944 
L 440.025517 -115.269117 
L 440.792726 -113.500289 
L 441.560058 -111.731461 
L 442.335533 -109.962634 
L 443.126571 -108.193806 
L 443.939617 -106.424978 
L 444.779772 -104.656151 
L 445.650457 -102.887323 
L 446.553128 -101.118495 
L 447.487034 -99.349667 
L 448.449059 -97.58084 
L 449.433632 -95.812012 
L 450.432724 -94.043184 
L 451.435926 -92.274357 
L 452.430622 -90.505529 
L 453.402238 -88.736701 
L 454.334574 -86.967874 
L 455.210191 -85.199046 
L 456.010868 -83.430218 
L 456.718086 -81.661391 
L 457.313543 -79.892563 
L 457.779673 -78.123735 
L 458.10015 -76.354907 
L 458.260375 -74.58608 
L 458.247901 -72.817252 
L 458.052817 -71.048424 
L 457.668046 -69.279597 
z
" style="stroke: #656565; stroke-width: 1.875"/>
    </defs>
    <g clip-path="url(#p7825ea558d)">
     <use xlink:href="#m5fd68748dd" x="0" y="298.943016" style="fill: #f06292; stroke: #656565; stroke-width: 1.875"/>
    </g>
   </g>
   <g id="line2d_4">
    <path d="M 131.584375 222.712568 
L 131.584375 209.165051 
" clip-path="url(#p7825ea558d)" style="fill: none; stroke: #656565; stroke-width: 2.8125; stroke-linecap: round"/>
   </g>
   <g id="line2d_5">
    <path d="M 131.584375 222.315777 
L 131.584375 210.288479 
" clip-path="url(#p7825ea558d)" style="fill: none; stroke: #656565; stroke-width: 8.4375; stroke-linecap: round"/>
   </g>
   <g id="line2d_6">
    <path d="M 131.584375 215.13174 
" clip-path="url(#p7825ea558d)" style="fill: none; stroke: #656565; stroke-width: 2.25; stroke-linecap: round"/>
    <defs>
     <path id="mef0f5a47d5" d="M 3.515625 0 
L -3.515625 -0 
" style="stroke: #ffffff; stroke-width: 1.6875"/>
    </defs>
    <g clip-path="url(#p7825ea558d)">
     <use xlink:href="#mef0f5a47d5" x="131.584375" y="215.13174" style="fill: #ffffff; stroke: #ffffff; stroke-width: 1.6875"/>
    </g>
   </g>
   <g id="line2d_7">
    <path d="M 267.699375 234.484023 
L 267.699375 231.596159 
" clip-path="url(#p7825ea558d)" style="fill: none; stroke: #656565; stroke-width: 2.8125; stroke-linecap: round"/>
   </g>
   <g id="line2d_8">
    <path d="M 267.699375 233.50968 
L 267.699375 232.481946 
" clip-path="url(#p7825ea558d)" style="fill: none; stroke: #656565; stroke-width: 8.4375; stroke-linecap: round"/>
   </g>
   <g id="line2d_9">
    <path d="M 267.699375 233.011311 
" clip-path="url(#p7825ea558d)" style="fill: none; stroke: #656565; stroke-width: 2.25; stroke-linecap: round"/>
    <g clip-path="url(#p7825ea558d)">
     <use xlink:href="#mef0f5a47d5" x="267.699375" y="233.011311" style="fill: #ffffff; stroke: #ffffff; stroke-width: 1.6875"/>
    </g>
   </g>
   <g id="line2d_10">
    <path d="M 403.814375 229.663419 
L 403.814375 54.549477 
" clip-path="url(#p7825ea558d)" style="fill: none; stroke: #656565; stroke-width: 2.8125; stroke-linecap: round"/>
   </g>
   <g id="line2d_11">
    <path d="M 403.814375 229.433033 
L 403.814375 58.729702 
" clip-path="url(#p7825ea558d)" style="fill: none; stroke: #656565; stroke-width: 8.4375; stroke-linecap: round"/>
   </g>
   <g id="line2d_12">
    <path d="M 403.814375 176.680202 
" clip-path="url(#p7825ea558d)" style="fill: none; stroke: #656565; stroke-width: 2.25; stroke-linecap: round"/>
    <g clip-path="url(#p7825ea558d)">
     <use xlink:href="#mef0f5a47d5" x="403.814375" y="176.680202" style="fill: #ffffff; stroke: #ffffff; stroke-width: 1.6875"/>
    </g>
   </g>
   <g id="patch_3">
    <path d="M 63.526875 243.48075 
L 63.526875 45.55275 
" style="fill: none; stroke: #cccccc; stroke-width: 1.875; stroke-linejoin: miter; stroke-linecap: square"/>
   </g>
   <g id="patch_4">
    <path d="M 471.871875 243.48075 
L 471.871875 45.55275 
" style="fill: none; stroke: #cccccc; stroke-width: 1.875; stroke-linejoin: miter; stroke-linecap: square"/>
   </g>
   <g id="patch_5">
    <path d="M 63.526875 243.48075 
L 471.871875 243.48075 
" style="fill: none; stroke: #cccccc; stroke-width: 1.875; stroke-linejoin: miter; stroke-linecap: square"/>
   </g>
   <g id="patch_6">
    <path d="M 63.526875 45.55275 
L 471.871875 45.55275 
" style="fill: none; stroke: #cccccc; stroke-width: 1.875; stroke-linejoin: miter; stroke-linecap: square"/>
   </g>
   <g id="text_9">
    <!-- Layer vector norms: Strawberry with -->
    <g style="fill: #262626" transform="translate(123.664219 20.303437) scale(0.18 -0.18)">
     <defs>
      <path id="ArialMT-73" d="M 197 991 
L 753 1078 
Q 800 744 1014 566 
Q 1228 388 1613 388 
Q 2000 388 2187 545 
Q 2375 703 2375 916 
Q 2375 1106 2209 1216 
Q 2094 1291 1634 1406 
Q 1016 1563 777 1677 
Q 538 1791 414 1992 
Q 291 2194 291 2438 
Q 291 2659 392 2848 
Q 494 3038 669 3163 
Q 800 3259 1026 3326 
Q 1253 3394 1513 3394 
Q 1903 3394 2198 3281 
Q 2494 3169 2634 2976 
Q 2775 2784 2828 2463 
L 2278 2388 
Q 2241 2644 2061 2787 
Q 1881 2931 1553 2931 
Q 1166 2931 1000 2803 
Q 834 2675 834 2503 
Q 834 2394 903 2306 
Q 972 2216 1119 2156 
Q 1203 2125 1616 2013 
Q 2213 1853 2448 1751 
Q 2684 1650 2818 1456 
Q 2953 1263 2953 975 
Q 2953 694 2789 445 
Q 2625 197 2315 61 
Q 2006 -75 1616 -75 
Q 969 -75 630 194 
Q 291 463 197 991 
z
" transform="scale(0.015625)"/>
      <path id="ArialMT-3a" d="M 578 2678 
L 578 3319 
L 1219 3319 
L 1219 2678 
L 578 2678 
z
M 578 0 
L 578 641 
L 1219 641 
L 1219 0 
L 578 0 
z
" transform="scale(0.015625)"/>
      <path id="ArialMT-53" d="M 288 1472 
L 859 1522 
Q 900 1178 1048 958 
Q 1197 738 1509 602 
Q 1822 466 2213 466 
Q 2559 466 2825 569 
Q 3091 672 3220 851 
Q 3350 1031 3350 1244 
Q 3350 1459 3225 1620 
Q 3100 1781 2813 1891 
Q 2628 1963 1997 2114 
Q 1366 2266 1113 2400 
Q 784 2572 623 2826 
Q 463 3081 463 3397 
Q 463 3744 659 4045 
Q 856 4347 1234 4503 
Q 1613 4659 2075 4659 
Q 2584 4659 2973 4495 
Q 3363 4331 3572 4012 
Q 3781 3694 3797 3291 
L 3216 3247 
Q 3169 3681 2898 3903 
Q 2628 4125 2100 4125 
Q 1550 4125 1298 3923 
Q 1047 3722 1047 3438 
Q 1047 3191 1225 3031 
Q 1400 2872 2139 2705 
Q 2878 2538 3153 2413 
Q 3553 2228 3743 1945 
Q 3934 1663 3934 1294 
Q 3934 928 3725 604 
Q 3516 281 3123 101 
Q 2731 -78 2241 -78 
Q 1619 -78 1198 103 
Q 778 284 539 648 
Q 300 1013 288 1472 
z
" transform="scale(0.015625)"/>
      <path id="ArialMT-77" d="M 1034 0 
L 19 3319 
L 600 3319 
L 1128 1403 
L 1325 691 
Q 1338 744 1497 1375 
L 2025 3319 
L 2603 3319 
L 3100 1394 
L 3266 759 
L 3456 1400 
L 4025 3319 
L 4572 3319 
L 3534 0 
L 2950 0 
L 2422 1988 
L 2294 2553 
L 1622 0 
L 1034 0 
z
" transform="scale(0.015625)"/>
      <path id="ArialMT-62" d="M 941 0 
L 419 0 
L 419 4581 
L 981 4581 
L 981 2947 
Q 1338 3394 1891 3394 
Q 2197 3394 2470 3270 
Q 2744 3147 2920 2923 
Q 3097 2700 3197 2384 
Q 3297 2069 3297 1709 
Q 3297 856 2875 390 
Q 2453 -75 1863 -75 
Q 1275 -75 941 416 
L 941 0 
z
M 934 1684 
Q 934 1088 1097 822 
Q 1363 388 1816 388 
Q 2184 388 2453 708 
Q 2722 1028 2722 1663 
Q 2722 2313 2464 2622 
Q 2206 2931 1841 2931 
Q 1472 2931 1203 2611 
Q 934 2291 934 1684 
z
" transform="scale(0.015625)"/>
      <path id="ArialMT-69" d="M 425 3934 
L 425 4581 
L 988 4581 
L 988 3934 
L 425 3934 
z
M 425 0 
L 425 3319 
L 988 3319 
L 988 0 
L 425 0 
z
" transform="scale(0.015625)"/>
      <path id="ArialMT-68" d="M 422 0 
L 422 4581 
L 984 4581 
L 984 2938 
Q 1378 3394 1978 3394 
Q 2347 3394 2619 3248 
Q 2891 3103 3008 2847 
Q 3125 2591 3125 2103 
L 3125 0 
L 2563 0 
L 2563 2103 
Q 2563 2525 2380 2717 
Q 2197 2909 1863 2909 
Q 1613 2909 1392 2779 
Q 1172 2650 1078 2428 
Q 984 2206 984 1816 
L 984 0 
L 422 0 
z
" transform="scale(0.015625)"/>
     </defs>
     <use xlink:href="#ArialMT-4c"/>
     <use xlink:href="#ArialMT-61" transform="translate(55.615234 0)"/>
     <use xlink:href="#ArialMT-79" transform="translate(111.230469 0)"/>
     <use xlink:href="#ArialMT-65" transform="translate(161.230469 0)"/>
     <use xlink:href="#ArialMT-72" transform="translate(216.845703 0)"/>
     <use xlink:href="#ArialMT-20" transform="translate(250.146484 0)"/>
     <use xlink:href="#ArialMT-76" transform="translate(277.929688 0)"/>
     <use xlink:href="#ArialMT-65" transform="translate(327.929688 0)"/>
     <use xlink:href="#ArialMT-63" transform="translate(383.544922 0)"/>
     <use xlink:href="#ArialMT-74" transform="translate(433.544922 0)"/>
     <use xlink:href="#ArialMT-6f" transform="translate(461.328125 0)"/>
     <use xlink:href="#ArialMT-72" transform="translate(516.943359 0)"/>
     <use xlink:href="#ArialMT-20" transform="translate(550.244141 0)"/>
     <use xlink:href="#ArialMT-6e" transform="translate(578.027344 0)"/>
     <use xlink:href="#ArialMT-6f" transform="translate(633.642578 0)"/>
     <use xlink:href="#ArialMT-72" transform="translate(689.257812 0)"/>
     <use xlink:href="#ArialMT-6d" transform="translate(722.558594 0)"/>
     <use xlink:href="#ArialMT-73" transform="translate(805.859375 0)"/>
     <use xlink:href="#ArialMT-3a" transform="translate(855.859375 0)"/>
     <use xlink:href="#ArialMT-20" transform="translate(883.642578 0)"/>
     <use xlink:href="#ArialMT-53" transform="translate(911.425781 0)"/>
     <use xlink:href="#ArialMT-74" transform="translate(978.125 0)"/>
     <use xlink:href="#ArialMT-72" transform="translate(1005.908203 0)"/>
     <use xlink:href="#ArialMT-61" transform="translate(1039.208984 0)"/>
     <use xlink:href="#ArialMT-77" transform="translate(1094.824219 0)"/>
     <use xlink:href="#ArialMT-62" transform="translate(1167.041016 0)"/>
     <use xlink:href="#ArialMT-65" transform="translate(1222.65625 0)"/>
     <use xlink:href="#ArialMT-72" transform="translate(1278.271484 0)"/>
     <use xlink:href="#ArialMT-72" transform="translate(1311.572266 0)"/>
     <use xlink:href="#ArialMT-79" transform="translate(1344.873047 0)"/>
     <use xlink:href="#ArialMT-20" transform="translate(1394.873047 0)"/>
     <use xlink:href="#ArialMT-77" transform="translate(1422.65625 0)"/>
     <use xlink:href="#ArialMT-69" transform="translate(1494.873047 0)"/>
     <use xlink:href="#ArialMT-74" transform="translate(1517.089844 0)"/>
     <use xlink:href="#ArialMT-68" transform="translate(1544.873047 0)"/>
    </g>
    <!-- augmentation with layerwise loss -->
    <g style="fill: #262626" transform="translate(136.143281 39.55275) scale(0.18 -0.18)">
     <defs>
      <path id="ArialMT-75" d="M 2597 0 
L 2597 488 
Q 2209 -75 1544 -75 
Q 1250 -75 995 37 
Q 741 150 617 320 
Q 494 491 444 738 
Q 409 903 409 1263 
L 409 3319 
L 972 3319 
L 972 1478 
Q 972 1038 1006 884 
Q 1059 663 1231 536 
Q 1403 409 1656 409 
Q 1909 409 2131 539 
Q 2353 669 2445 892 
Q 2538 1116 2538 1541 
L 2538 3319 
L 3100 3319 
L 3100 0 
L 2597 0 
z
" transform="scale(0.015625)"/>
      <path id="ArialMT-67" d="M 319 -275 
L 866 -356 
Q 900 -609 1056 -725 
Q 1266 -881 1628 -881 
Q 2019 -881 2231 -725 
Q 2444 -569 2519 -288 
Q 2563 -116 2559 434 
Q 2191 0 1641 0 
Q 956 0 581 494 
Q 206 988 206 1678 
Q 206 2153 378 2554 
Q 550 2956 876 3175 
Q 1203 3394 1644 3394 
Q 2231 3394 2613 2919 
L 2613 3319 
L 3131 3319 
L 3131 450 
Q 3131 -325 2973 -648 
Q 2816 -972 2473 -1159 
Q 2131 -1347 1631 -1347 
Q 1038 -1347 672 -1080 
Q 306 -813 319 -275 
z
M 784 1719 
Q 784 1066 1043 766 
Q 1303 466 1694 466 
Q 2081 466 2343 764 
Q 2606 1063 2606 1700 
Q 2606 2309 2336 2618 
Q 2066 2928 1684 2928 
Q 1309 2928 1046 2623 
Q 784 2319 784 1719 
z
" transform="scale(0.015625)"/>
      <path id="ArialMT-6c" d="M 409 0 
L 409 4581 
L 972 4581 
L 972 0 
L 409 0 
z
" transform="scale(0.015625)"/>
     </defs>
     <use xlink:href="#ArialMT-61"/>
     <use xlink:href="#ArialMT-75" transform="translate(55.615234 0)"/>
     <use xlink:href="#ArialMT-67" transform="translate(111.230469 0)"/>
     <use xlink:href="#ArialMT-6d" transform="translate(166.845703 0)"/>
     <use xlink:href="#ArialMT-65" transform="translate(250.146484 0)"/>
     <use xlink:href="#ArialMT-6e" transform="translate(305.761719 0)"/>
     <use xlink:href="#ArialMT-74" transform="translate(361.376953 0)"/>
     <use xlink:href="#ArialMT-61" transform="translate(389.160156 0)"/>
     <use xlink:href="#ArialMT-74" transform="translate(444.775391 0)"/>
     <use xlink:href="#ArialMT-69" transform="translate(472.558594 0)"/>
     <use xlink:href="#ArialMT-6f" transform="translate(494.775391 0)"/>
     <use xlink:href="#ArialMT-6e" transform="translate(550.390625 0)"/>
     <use xlink:href="#ArialMT-20" transform="translate(606.005859 0)"/>
     <use xlink:href="#ArialMT-77" transform="translate(633.789062 0)"/>
     <use xlink:href="#ArialMT-69" transform="translate(706.005859 0)"/>
     <use xlink:href="#ArialMT-74" transform="translate(728.222656 0)"/>
     <use xlink:href="#ArialMT-68" transform="translate(756.005859 0)"/>
     <use xlink:href="#ArialMT-20" transform="translate(811.621094 0)"/>
     <use xlink:href="#ArialMT-6c" transform="translate(839.404297 0)"/>
     <use xlink:href="#ArialMT-61" transform="translate(861.621094 0)"/>
     <use xlink:href="#ArialMT-79" transform="translate(917.236328 0)"/>
     <use xlink:href="#ArialMT-65" transform="translate(967.236328 0)"/>
     <use xlink:href="#ArialMT-72" transform="translate(1022.851562 0)"/>
     <use xlink:href="#ArialMT-77" transform="translate(1056.152344 0)"/>
     <use xlink:href="#ArialMT-69" transform="translate(1128.369141 0)"/>
     <use xlink:href="#ArialMT-73" transform="translate(1150.585938 0)"/>
     <use xlink:href="#ArialMT-65" transform="translate(1200.585938 0)"/>
     <use xlink:href="#ArialMT-20" transform="translate(1256.201172 0)"/>
     <use xlink:href="#ArialMT-6c" transform="translate(1283.984375 0)"/>
     <use xlink:href="#ArialMT-6f" transform="translate(1306.201172 0)"/>
     <use xlink:href="#ArialMT-73" transform="translate(1361.816406 0)"/>
     <use xlink:href="#ArialMT-73" transform="translate(1411.816406 0)"/>
    </g>
   </g>
  </g>
 </g>
 <defs>
  <clipPath id="p7825ea558d">
   <rect x="63.526875" y="45.55275" width="408.345" height="197.928"/>
  </clipPath>
 </defs>
</svg>
