<?xml version="1.0" encoding="utf-8" standalone="no"?>
<!DOCTYPE svg PUBLIC "-//W3C//DTD SVG 1.1//EN"
  "http://www.w3.org/Graphics/SVG/1.1/DTD/svg11.dtd">
<svg xmlns:xlink="http://www.w3.org/1999/xlink" width="479.406563pt" height="298.986328pt" viewBox="0 0 479.406563 298.986328" xmlns="http://www.w3.org/2000/svg" version="1.1">
 <metadata>
  <rdf:RDF xmlns:dc="http://purl.org/dc/elements/1.1/" xmlns:cc="http://creativecommons.org/ns#" xmlns:rdf="http://www.w3.org/1999/02/22-rdf-syntax-ns#">
   <cc:Work>
    <dc:type rdf:resource="http://purl.org/dc/dcmitype/StillImage"/>
    <dc:date>2025-12-09T18:13:05.727019</dc:date>
    <dc:format>image/svg+xml</dc:format>
    <dc:creator>
     <cc:Agent>
      <dc:title>Matplotlib v3.10.7, https://matplotlib.org/</dc:title>
     </cc:Agent>
    </dc:creator>
   </cc:Work>
  </rdf:RDF>
 </metadata>
 <defs>
  <style type="text/css">*{stroke-linejoin: round; stroke-linecap: butt}</style>
 </defs>
 <g id="figure_1">
  <g id="patch_1">
   <path d="M 0 298.986328 
L 479.406563 298.986328 
L 479.406563 0 
L 0 0 
z
" style="fill: #ffffff"/>
  </g>
  <g id="axes_1">
   <g id="patch_2">
    <path d="M 63.096563 243.524063 
L 472.206563 243.524063 
L 472.206563 26.084062 
L 63.096563 26.084062 
z
" style="fill: #ffffff"/>
   </g>
   <g id="matplotlib.axis_1">
    <g id="xtick_1">
     <g id="text_1">
      <!-- 0 -->
      <g style="fill: #262626" transform="translate(126.693789 267.834453) scale(0.165 -0.165)">
       <defs>
        <path id="ArialMT-30" d="M 266 2259 
Q 266 3072 433 3567 
Q 600 4063 929 4331 
Q 1259 4600 1759 4600 
Q 2128 4600 2406 4451 
Q 2684 4303 2865 4023 
Q 3047 3744 3150 3342 
Q 3253 2941 3253 2259 
Q 3253 1453 3087 958 
Q 2922 463 2592 192 
Q 2263 -78 1759 -78 
Q 1097 -78 719 397 
Q 266 969 266 2259 
z
M 844 2259 
Q 844 1131 1108 757 
Q 1372 384 1759 384 
Q 2147 384 2411 759 
Q 2675 1134 2675 2259 
Q 2675 3391 2411 3762 
Q 2147 4134 1753 4134 
Q 1366 4134 1134 3806 
Q 844 3388 844 2259 
z
" transform="scale(0.015625)"/>
       </defs>
       <use xlink:href="#ArialMT-30"/>
      </g>
     </g>
    </g>
    <g id="xtick_2">
     <g id="text_2">
      <!-- 1 -->
      <g style="fill: #262626" transform="translate(263.063789 267.834453) scale(0.165 -0.165)">
       <defs>
        <path id="ArialMT-31" d="M 2384 0 
L 1822 0 
L 1822 3584 
Q 1619 3391 1289 3197 
Q 959 3003 697 2906 
L 697 3450 
Q 1169 3672 1522 3987 
Q 1875 4303 2022 4600 
L 2384 4600 
L 2384 0 
z
" transform="scale(0.015625)"/>
       </defs>
       <use xlink:href="#ArialMT-31"/>
      </g>
     </g>
    </g>
    <g id="xtick_3">
     <g id="text_3">
      <!-- 2 -->
      <g style="fill: #262626" transform="translate(399.433789 267.834453) scale(0.165 -0.165)">
       <defs>
        <path id="ArialMT-32" d="M 3222 541 
L 3222 0 
L 194 0 
Q 188 203 259 391 
Q 375 700 629 1000 
Q 884 1300 1366 1694 
Q 2113 2306 2375 2664 
Q 2638 3022 2638 3341 
Q 2638 3675 2398 3904 
Q 2159 4134 1775 4134 
Q 1369 4134 1125 3890 
Q 881 3647 878 3216 
L 300 3275 
Q 359 3922 746 4261 
Q 1134 4600 1788 4600 
Q 2447 4600 2831 4234 
Q 3216 3869 3216 3328 
Q 3216 3053 3103 2787 
Q 2991 2522 2730 2228 
Q 2469 1934 1863 1422 
Q 1356 997 1212 845 
Q 1069 694 975 541 
L 3222 541 
z
" transform="scale(0.015625)"/>
       </defs>
       <use xlink:href="#ArialMT-32"/>
      </g>
     </g>
    </g>
    <g id="text_4">
     <!-- Layer -->
     <g style="fill: #262626" transform="translate(245.140313 287.997891) scale(0.18 -0.18)">
      <defs>
       <path id="ArialMT-4c" d="M 469 0 
L 469 4581 
L 1075 4581 
L 1075 541 
L 3331 541 
L 3331 0 
L 469 0 
z
" transform="scale(0.015625)"/>
       <path id="ArialMT-61" d="M 2588 409 
Q 2275 144 1986 34 
Q 1697 -75 1366 -75 
Q 819 -75 525 192 
Q 231 459 231 875 
Q 231 1119 342 1320 
Q 453 1522 633 1644 
Q 813 1766 1038 1828 
Q 1203 1872 1538 1913 
Q 2219 1994 2541 2106 
Q 2544 2222 2544 2253 
Q 2544 2597 2384 2738 
Q 2169 2928 1744 2928 
Q 1347 2928 1158 2789 
Q 969 2650 878 2297 
L 328 2372 
Q 403 2725 575 2942 
Q 747 3159 1072 3276 
Q 1397 3394 1825 3394 
Q 2250 3394 2515 3294 
Q 2781 3194 2906 3042 
Q 3031 2891 3081 2659 
Q 3109 2516 3109 2141 
L 3109 1391 
Q 3109 606 3145 398 
Q 3181 191 3288 0 
L 2700 0 
Q 2613 175 2588 409 
z
M 2541 1666 
Q 2234 1541 1622 1453 
Q 1275 1403 1131 1340 
Q 988 1278 909 1158 
Q 831 1038 831 891 
Q 831 666 1001 516 
Q 1172 366 1500 366 
Q 1825 366 2078 508 
Q 2331 650 2450 897 
Q 2541 1088 2541 1459 
L 2541 1666 
z
" transform="scale(0.015625)"/>
       <path id="ArialMT-79" d="M 397 -1278 
L 334 -750 
Q 519 -800 656 -800 
Q 844 -800 956 -737 
Q 1069 -675 1141 -563 
Q 1194 -478 1313 -144 
Q 1328 -97 1363 -6 
L 103 3319 
L 709 3319 
L 1400 1397 
Q 1534 1031 1641 628 
Q 1738 1016 1872 1384 
L 2581 3319 
L 3144 3319 
L 1881 -56 
Q 1678 -603 1566 -809 
Q 1416 -1088 1222 -1217 
Q 1028 -1347 759 -1347 
Q 597 -1347 397 -1278 
z
" transform="scale(0.015625)"/>
       <path id="ArialMT-65" d="M 2694 1069 
L 3275 997 
Q 3138 488 2766 206 
Q 2394 -75 1816 -75 
Q 1088 -75 661 373 
Q 234 822 234 1631 
Q 234 2469 665 2931 
Q 1097 3394 1784 3394 
Q 2450 3394 2872 2941 
Q 3294 2488 3294 1666 
Q 3294 1616 3291 1516 
L 816 1516 
Q 847 969 1125 678 
Q 1403 388 1819 388 
Q 2128 388 2347 550 
Q 2566 713 2694 1069 
z
M 847 1978 
L 2700 1978 
Q 2663 2397 2488 2606 
Q 2219 2931 1791 2931 
Q 1403 2931 1139 2672 
Q 875 2413 847 1978 
z
" transform="scale(0.015625)"/>
       <path id="ArialMT-72" d="M 416 0 
L 416 3319 
L 922 3319 
L 922 2816 
Q 1116 3169 1280 3281 
Q 1444 3394 1641 3394 
Q 1925 3394 2219 3213 
L 2025 2691 
Q 1819 2813 1613 2813 
Q 1428 2813 1281 2702 
Q 1134 2591 1072 2394 
Q 978 2094 978 1738 
L 978 0 
L 416 0 
z
" transform="scale(0.015625)"/>
      </defs>
      <use xlink:href="#ArialMT-4c"/>
      <use xlink:href="#ArialMT-61" transform="translate(55.615234 0)"/>
      <use xlink:href="#ArialMT-79" transform="translate(111.230469 0)"/>
      <use xlink:href="#ArialMT-65" transform="translate(161.230469 0)"/>
      <use xlink:href="#ArialMT-72" transform="translate(216.845703 0)"/>
     </g>
    </g>
   </g>
   <g id="matplotlib.axis_2">
    <g id="ytick_1">
     <g id="line2d_1">
      <path d="M 63.096563 208.128888 
L 472.206563 208.128888 
" clip-path="url(#p8f42c928f1)" style="fill: none; stroke: #cccccc; stroke-width: 1.5; stroke-linecap: round"/>
     </g>
     <g id="text_5">
      <!-- 0.5 -->
      <g style="fill: #262626" transform="translate(27.661563 214.034083) scale(0.165 -0.165)">
       <defs>
        <path id="ArialMT-2e" d="M 581 0 
L 581 641 
L 1222 641 
L 1222 0 
L 581 0 
z
" transform="scale(0.015625)"/>
        <path id="ArialMT-35" d="M 266 1200 
L 856 1250 
Q 922 819 1161 601 
Q 1400 384 1738 384 
Q 2144 384 2425 690 
Q 2706 997 2706 1503 
Q 2706 1984 2436 2262 
Q 2166 2541 1728 2541 
Q 1456 2541 1237 2417 
Q 1019 2294 894 2097 
L 366 2166 
L 809 4519 
L 3088 4519 
L 3088 3981 
L 1259 3981 
L 1013 2750 
Q 1425 3038 1878 3038 
Q 2478 3038 2890 2622 
Q 3303 2206 3303 1553 
Q 3303 931 2941 478 
Q 2500 -78 1738 -78 
Q 1113 -78 717 272 
Q 322 622 266 1200 
z
" transform="scale(0.015625)"/>
       </defs>
       <use xlink:href="#ArialMT-30"/>
       <use xlink:href="#ArialMT-2e" transform="translate(55.615234 0)"/>
       <use xlink:href="#ArialMT-35" transform="translate(83.398438 0)"/>
      </g>
     </g>
    </g>
    <g id="ytick_2">
     <g id="line2d_2">
      <path d="M 63.096563 146.080595 
L 472.206563 146.080595 
" clip-path="url(#p8f42c928f1)" style="fill: none; stroke: #cccccc; stroke-width: 1.5; stroke-linecap: round"/>
     </g>
     <g id="text_6">
      <!-- 1.0 -->
      <g style="fill: #262626" transform="translate(27.661563 151.985791) scale(0.165 -0.165)">
       <use xlink:href="#ArialMT-31"/>
       <use xlink:href="#ArialMT-2e" transform="translate(55.615234 0)"/>
       <use xlink:href="#ArialMT-30" transform="translate(83.398438 0)"/>
      </g>
     </g>
    </g>
    <g id="ytick_3">
     <g id="line2d_3">
      <path d="M 63.096563 84.032303 
L 472.206563 84.032303 
" clip-path="url(#p8f42c928f1)" style="fill: none; stroke: #cccccc; stroke-width: 1.5; stroke-linecap: round"/>
     </g>
     <g id="text_7">
      <!-- 1.5 -->
      <g style="fill: #262626" transform="translate(27.661563 89.937498) scale(0.165 -0.165)">
       <use xlink:href="#ArialMT-31"/>
       <use xlink:href="#ArialMT-2e" transform="translate(55.615234 0)"/>
       <use xlink:href="#ArialMT-35" transform="translate(83.398438 0)"/>
      </g>
     </g>
    </g>
    <g id="text_8">
     <!-- Relative equivariance error -->
     <g style="fill: #262626" transform="translate(20.084063 242.348437) rotate(-90) scale(0.18 -0.18)">
      <defs>
       <path id="ArialMT-52" d="M 503 0 
L 503 4581 
L 2534 4581 
Q 3147 4581 3465 4457 
Q 3784 4334 3975 4021 
Q 4166 3709 4166 3331 
Q 4166 2844 3850 2509 
Q 3534 2175 2875 2084 
Q 3116 1969 3241 1856 
Q 3506 1613 3744 1247 
L 4541 0 
L 3778 0 
L 3172 953 
Q 2906 1366 2734 1584 
Q 2563 1803 2427 1890 
Q 2291 1978 2150 2013 
Q 2047 2034 1813 2034 
L 1109 2034 
L 1109 0 
L 503 0 
z
M 1109 2559 
L 2413 2559 
Q 2828 2559 3062 2645 
Q 3297 2731 3419 2920 
Q 3541 3109 3541 3331 
Q 3541 3656 3305 3865 
Q 3069 4075 2559 4075 
L 1109 4075 
L 1109 2559 
z
" transform="scale(0.015625)"/>
       <path id="ArialMT-6c" d="M 409 0 
L 409 4581 
L 972 4581 
L 972 0 
L 409 0 
z
" transform="scale(0.015625)"/>
       <path id="ArialMT-74" d="M 1650 503 
L 1731 6 
Q 1494 -44 1306 -44 
Q 1000 -44 831 53 
Q 663 150 594 308 
Q 525 466 525 972 
L 525 2881 
L 113 2881 
L 113 3319 
L 525 3319 
L 525 4141 
L 1084 4478 
L 1084 3319 
L 1650 3319 
L 1650 2881 
L 1084 2881 
L 1084 941 
Q 1084 700 1114 631 
Q 1144 563 1211 522 
Q 1278 481 1403 481 
Q 1497 481 1650 503 
z
" transform="scale(0.015625)"/>
       <path id="ArialMT-69" d="M 425 3934 
L 425 4581 
L 988 4581 
L 988 3934 
L 425 3934 
z
M 425 0 
L 425 3319 
L 988 3319 
L 988 0 
L 425 0 
z
" transform="scale(0.015625)"/>
       <path id="ArialMT-76" d="M 1344 0 
L 81 3319 
L 675 3319 
L 1388 1331 
Q 1503 1009 1600 663 
Q 1675 925 1809 1294 
L 2547 3319 
L 3125 3319 
L 1869 0 
L 1344 0 
z
" transform="scale(0.015625)"/>
       <path id="ArialMT-20" transform="scale(0.015625)"/>
       <path id="ArialMT-71" d="M 2538 -1272 
L 2538 353 
Q 2406 169 2170 47 
Q 1934 -75 1669 -75 
Q 1078 -75 651 397 
Q 225 869 225 1691 
Q 225 2191 398 2587 
Q 572 2984 901 3189 
Q 1231 3394 1625 3394 
Q 2241 3394 2594 2875 
L 2594 3319 
L 3100 3319 
L 3100 -1272 
L 2538 -1272 
z
M 803 1669 
Q 803 1028 1072 708 
Q 1341 388 1716 388 
Q 2075 388 2334 692 
Q 2594 997 2594 1619 
Q 2594 2281 2320 2615 
Q 2047 2950 1678 2950 
Q 1313 2950 1058 2639 
Q 803 2328 803 1669 
z
" transform="scale(0.015625)"/>
       <path id="ArialMT-75" d="M 2597 0 
L 2597 488 
Q 2209 -75 1544 -75 
Q 1250 -75 995 37 
Q 741 150 617 320 
Q 494 491 444 738 
Q 409 903 409 1263 
L 409 3319 
L 972 3319 
L 972 1478 
Q 972 1038 1006 884 
Q 1059 663 1231 536 
Q 1403 409 1656 409 
Q 1909 409 2131 539 
Q 2353 669 2445 892 
Q 2538 1116 2538 1541 
L 2538 3319 
L 3100 3319 
L 3100 0 
L 2597 0 
z
" transform="scale(0.015625)"/>
       <path id="ArialMT-6e" d="M 422 0 
L 422 3319 
L 928 3319 
L 928 2847 
Q 1294 3394 1984 3394 
Q 2284 3394 2536 3286 
Q 2788 3178 2913 3003 
Q 3038 2828 3088 2588 
Q 3119 2431 3119 2041 
L 3119 0 
L 2556 0 
L 2556 2019 
Q 2556 2363 2490 2533 
Q 2425 2703 2258 2804 
Q 2091 2906 1866 2906 
Q 1506 2906 1245 2678 
Q 984 2450 984 1813 
L 984 0 
L 422 0 
z
" transform="scale(0.015625)"/>
       <path id="ArialMT-63" d="M 2588 1216 
L 3141 1144 
Q 3050 572 2676 248 
Q 2303 -75 1759 -75 
Q 1078 -75 664 370 
Q 250 816 250 1647 
Q 250 2184 428 2587 
Q 606 2991 970 3192 
Q 1334 3394 1763 3394 
Q 2303 3394 2647 3120 
Q 2991 2847 3088 2344 
L 2541 2259 
Q 2463 2594 2264 2762 
Q 2066 2931 1784 2931 
Q 1359 2931 1093 2626 
Q 828 2322 828 1663 
Q 828 994 1084 691 
Q 1341 388 1753 388 
Q 2084 388 2306 591 
Q 2528 794 2588 1216 
z
" transform="scale(0.015625)"/>
       <path id="ArialMT-6f" d="M 213 1659 
Q 213 2581 725 3025 
Q 1153 3394 1769 3394 
Q 2453 3394 2887 2945 
Q 3322 2497 3322 1706 
Q 3322 1066 3130 698 
Q 2938 331 2570 128 
Q 2203 -75 1769 -75 
Q 1072 -75 642 372 
Q 213 819 213 1659 
z
M 791 1659 
Q 791 1022 1069 705 
Q 1347 388 1769 388 
Q 2188 388 2466 706 
Q 2744 1025 2744 1678 
Q 2744 2294 2464 2611 
Q 2184 2928 1769 2928 
Q 1347 2928 1069 2612 
Q 791 2297 791 1659 
z
" transform="scale(0.015625)"/>
      </defs>
      <use xlink:href="#ArialMT-52"/>
      <use xlink:href="#ArialMT-65" transform="translate(72.216797 0)"/>
      <use xlink:href="#ArialMT-6c" transform="translate(127.832031 0)"/>
      <use xlink:href="#ArialMT-61" transform="translate(150.048828 0)"/>
      <use xlink:href="#ArialMT-74" transform="translate(205.664062 0)"/>
      <use xlink:href="#ArialMT-69" transform="translate(233.447266 0)"/>
      <use xlink:href="#ArialMT-76" transform="translate(255.664062 0)"/>
      <use xlink:href="#ArialMT-65" transform="translate(305.664062 0)"/>
      <use xlink:href="#ArialMT-20" transform="translate(361.279297 0)"/>
      <use xlink:href="#ArialMT-65" transform="translate(389.0625 0)"/>
      <use xlink:href="#ArialMT-71" transform="translate(444.677734 0)"/>
      <use xlink:href="#ArialMT-75" transform="translate(500.292969 0)"/>
      <use xlink:href="#ArialMT-69" transform="translate(555.908203 0)"/>
      <use xlink:href="#ArialMT-76" transform="translate(578.125 0)"/>
      <use xlink:href="#ArialMT-61" transform="translate(628.125 0)"/>
      <use xlink:href="#ArialMT-72" transform="translate(683.740234 0)"/>
      <use xlink:href="#ArialMT-69" transform="translate(717.041016 0)"/>
      <use xlink:href="#ArialMT-61" transform="translate(739.257812 0)"/>
      <use xlink:href="#ArialMT-6e" transform="translate(794.873047 0)"/>
      <use xlink:href="#ArialMT-63" transform="translate(850.488281 0)"/>
      <use xlink:href="#ArialMT-65" transform="translate(900.488281 0)"/>
      <use xlink:href="#ArialMT-20" transform="translate(956.103516 0)"/>
      <use xlink:href="#ArialMT-65" transform="translate(983.886719 0)"/>
      <use xlink:href="#ArialMT-72" transform="translate(1039.501953 0)"/>
      <use xlink:href="#ArialMT-72" transform="translate(1072.802734 0)"/>
      <use xlink:href="#ArialMT-6f" transform="translate(1106.103516 0)"/>
      <use xlink:href="#ArialMT-72" transform="translate(1161.71875 0)"/>
     </g>
    </g>
   </g>
   <g id="FillBetweenPolyCollection_1">
    <defs>
     <path id="mfaa00f745e" d="M 140.591584 -65.345902 
L 121.971541 -65.345902 
L 119.314368 -67.315189 
L 116.661534 -69.284476 
L 114.271607 -71.253763 
L 112.3813 -73.223051 
L 111.148176 -75.192338 
L 110.613451 -77.161625 
L 110.697741 -79.130912 
L 111.227635 -81.100199 
L 111.97936 -83.069486 
L 112.72471 -85.038774 
L 113.271541 -87.008061 
L 113.496994 -88.977348 
L 113.370418 -90.946635 
L 112.957946 -92.915922 
L 112.400999 -94.885209 
L 111.870856 -96.854497 
L 111.514968 -98.823784 
L 111.416889 -100.793071 
L 111.584455 -102.762358 
L 111.964894 -104.731645 
L 112.472212 -106.700932 
L 113.01019 -108.67022 
L 113.483081 -110.639507 
L 113.797467 -112.608794 
L 113.864064 -114.578081 
L 113.605122 -116.547368 
L 112.965884 -118.516655 
L 111.924365 -120.485943 
L 110.495541 -122.45523 
L 108.731469 -124.424517 
L 106.721808 -126.393804 
L 104.595723 -128.363091 
L 102.518123 -130.332378 
L 100.667947 -132.301666 
L 99.191631 -134.270953 
L 98.14155 -136.24024 
L 97.427867 -138.209527 
L 96.817979 -140.178814 
L 96.001542 -142.148101 
L 94.70615 -144.117389 
L 92.817572 -146.086676 
L 90.448951 -148.055963 
L 87.923085 -150.02525 
L 85.671147 -151.994537 
L 84.088969 -153.963824 
L 83.408809 -155.933112 
L 83.633358 -157.902399 
L 84.547934 -159.871686 
L 85.794467 -161.840973 
L 86.973348 -163.81026 
L 87.741206 -165.779547 
L 87.885403 -167.748835 
L 87.366268 -169.718122 
L 86.320242 -171.687409 
L 85.017561 -173.656696 
L 83.777355 -175.625983 
L 82.862312 -177.59527 
L 82.39228 -179.564557 
L 82.314787 -181.533845 
L 82.445413 -183.503132 
L 82.555443 -185.472419 
L 82.461566 -187.441706 
L 82.077179 -189.410993 
L 81.412384 -191.38028 
L 80.53968 -193.349568 
L 79.555738 -195.318855 
L 78.561972 -197.288142 
L 77.667827 -199.257429 
L 77.004754 -201.226716 
L 76.733563 -203.196003 
L 77.032669 -205.165291 
L 78.064924 -207.134578 
L 79.931185 -209.103865 
L 82.626083 -211.073152 
L 86.013104 -213.042439 
L 89.831245 -215.011726 
L 93.735348 -216.981014 
L 97.360938 -218.950301 
L 100.396948 -220.919588 
L 102.648644 -222.888875 
L 104.076299 -224.858162 
L 104.799118 -226.827449 
L 105.058399 -228.796737 
L 105.143339 -230.766024 
L 105.299309 -232.735311 
L 105.653734 -234.704598 
L 106.194377 -236.673885 
L 106.81142 -238.643172 
L 107.379747 -240.61246 
L 107.835522 -242.581747 
L 108.208459 -244.551034 
L 108.602282 -246.520321 
L 109.146837 -248.489608 
L 109.954619 -250.458895 
L 111.099908 -252.428183 
L 112.616515 -254.39747 
L 114.498888 -256.366757 
L 116.697058 -258.336044 
L 119.109772 -260.305331 
L 143.453353 -260.305331 
L 143.453353 -260.305331 
L 145.866067 -258.336044 
L 148.064237 -256.366757 
L 149.94661 -254.39747 
L 151.463217 -252.428183 
L 152.608506 -250.458895 
L 153.416288 -248.489608 
L 153.960843 -246.520321 
L 154.354666 -244.551034 
L 154.727603 -242.581747 
L 155.183378 -240.61246 
L 155.751705 -238.643172 
L 156.368748 -236.673885 
L 156.909391 -234.704598 
L 157.263816 -232.735311 
L 157.419786 -230.766024 
L 157.504726 -228.796737 
L 157.764007 -226.827449 
L 158.486826 -224.858162 
L 159.914481 -222.888875 
L 162.166177 -220.919588 
L 165.202187 -218.950301 
L 168.827777 -216.981014 
L 172.73188 -215.011726 
L 176.550021 -213.042439 
L 179.937042 -211.073152 
L 182.63194 -209.103865 
L 184.498201 -207.134578 
L 185.530456 -205.165291 
L 185.829563 -203.196003 
L 185.558371 -201.226716 
L 184.895298 -199.257429 
L 184.001153 -197.288142 
L 183.007387 -195.318855 
L 182.023445 -193.349568 
L 181.150741 -191.38028 
L 180.485946 -189.410993 
L 180.101559 -187.441706 
L 180.007682 -185.472419 
L 180.117712 -183.503132 
L 180.248338 -181.533845 
L 180.170845 -179.564557 
L 179.700813 -177.59527 
L 178.78577 -175.625983 
L 177.545564 -173.656696 
L 176.242883 -171.687409 
L 175.196857 -169.718122 
L 174.677722 -167.748835 
L 174.821919 -165.779547 
L 175.589777 -163.81026 
L 176.768658 -161.840973 
L 178.015191 -159.871686 
L 178.929767 -157.902399 
L 179.154316 -155.933112 
L 178.474156 -153.963824 
L 176.891978 -151.994537 
L 174.64004 -150.02525 
L 172.114174 -148.055963 
L 169.745553 -146.086676 
L 167.856975 -144.117389 
L 166.561583 -142.148101 
L 165.745146 -140.178814 
L 165.135258 -138.209527 
L 164.421575 -136.24024 
L 163.371494 -134.270953 
L 161.895178 -132.301666 
L 160.045002 -130.332378 
L 157.967402 -128.363091 
L 155.841317 -126.393804 
L 153.831656 -124.424517 
L 152.067584 -122.45523 
L 150.63876 -120.485943 
L 149.597241 -118.516655 
L 148.958003 -116.547368 
L 148.699061 -114.578081 
L 148.765658 -112.608794 
L 149.080044 -110.639507 
L 149.552935 -108.67022 
L 150.090913 -106.700932 
L 150.598231 -104.731645 
L 150.97867 -102.762358 
L 151.146236 -100.793071 
L 151.048157 -98.823784 
L 150.692269 -96.854497 
L 150.162126 -94.885209 
L 149.605179 -92.915922 
L 149.192707 -90.946635 
L 149.066131 -88.977348 
L 149.291584 -87.008061 
L 149.838415 -85.038774 
L 150.583765 -83.069486 
L 151.33549 -81.100199 
L 151.865384 -79.130912 
L 151.949674 -77.161625 
L 151.414949 -75.192338 
L 150.181825 -73.223051 
L 148.291518 -71.253763 
L 145.901591 -69.284476 
L 143.248757 -67.315189 
L 140.591584 -65.345902 
z
" style="stroke: #868686; stroke-width: 1.875"/>
    </defs>
    <g clip-path="url(#p8f42c928f1)">
     <use xlink:href="#mfaa00f745e" x="0" y="298.986328" style="fill: #f5e6c8; stroke: #868686; stroke-width: 1.875"/>
    </g>
   </g>
   <g id="FillBetweenPolyCollection_2">
    <defs>
     <path id="m7a6ceaac2f" d="M 272.307018 -67.283894 
L 262.996107 -67.283894 
L 262.380582 -69.040724 
L 262.040755 -70.797554 
L 261.935386 -72.554385 
L 261.936123 -74.311215 
L 261.882624 -76.068045 
L 261.651016 -77.824875 
L 261.199934 -79.581706 
L 260.574741 -81.338536 
L 259.876949 -83.095366 
L 259.222723 -84.852196 
L 258.711248 -86.609027 
L 258.407652 -88.365857 
L 258.33226 -90.122687 
L 258.449119 -91.879517 
L 258.658381 -93.636348 
L 258.805573 -95.393178 
L 258.715654 -97.150008 
L 258.243648 -98.906838 
L 257.320013 -100.663669 
L 255.969779 -102.420499 
L 254.29992 -104.177329 
L 252.467402 -105.93416 
L 250.647181 -107.69099 
L 249.011487 -109.44782 
L 247.717632 -111.20465 
L 246.894009 -112.961481 
L 246.61854 -114.718311 
L 246.89463 -116.475141 
L 247.636435 -118.231971 
L 248.672662 -119.988802 
L 249.770111 -121.745632 
L 250.672153 -123.502462 
L 251.146199 -125.259292 
L 251.033899 -127.016123 
L 250.293405 -128.772953 
L 249.016599 -130.529783 
L 247.40531 -132.286613 
L 245.706614 -134.043444 
L 244.132087 -135.800274 
L 242.800468 -137.557104 
L 241.731449 -139.313934 
L 240.884661 -141.070765 
L 240.207634 -142.827595 
L 239.654971 -144.584425 
L 239.1706 -146.341255 
L 238.660464 -148.098086 
L 237.993128 -149.854916 
L 237.040963 -151.611746 
L 235.736845 -153.368577 
L 234.1048 -155.125407 
L 232.243028 -156.882237 
L 230.276155 -158.639067 
L 228.316209 -160.395898 
L 226.459914 -162.152728 
L 224.815819 -163.909558 
L 223.528207 -165.666388 
L 222.76608 -167.423219 
L 222.671531 -169.180049 
L 223.292635 -170.936879 
L 224.540894 -172.693709 
L 226.20243 -174.45054 
L 228.00114 -176.20737 
L 229.680492 -177.9642 
L 231.060785 -179.72103 
L 232.049106 -181.477861 
L 232.614467 -183.234691 
L 232.762469 -184.991521 
L 232.534887 -186.748351 
L 232.029407 -188.505182 
L 231.410529 -190.262012 
L 230.884489 -192.018842 
L 230.635397 -193.775672 
L 230.746291 -195.532503 
L 231.139757 -197.289333 
L 231.566201 -199.046163 
L 231.652326 -200.802994 
L 231.005053 -202.559824 
L 229.347613 -204.316654 
L 226.645566 -206.073484 
L 223.170331 -207.830315 
L 219.460646 -209.587145 
L 216.182553 -211.343975 
L 213.938403 -213.100805 
L 213.103563 -214.857636 
L 213.754624 -216.614466 
L 215.70399 -218.371296 
L 218.605735 -220.128126 
L 222.077094 -221.884957 
L 225.793012 -223.641787 
L 229.538101 -225.398617 
L 233.218859 -227.155447 
L 236.843393 -228.912278 
L 240.475448 -230.669108 
L 244.17439 -232.425938 
L 247.941125 -234.182768 
L 251.692214 -235.939599 
L 255.273689 -237.696429 
L 258.506967 -239.453259 
L 261.244042 -241.210089 
L 274.059083 -241.210089 
L 274.059083 -241.210089 
L 276.796158 -239.453259 
L 280.029436 -237.696429 
L 283.610911 -235.939599 
L 287.362 -234.182768 
L 291.128735 -232.425938 
L 294.827677 -230.669108 
L 298.459732 -228.912278 
L 302.084266 -227.155447 
L 305.765024 -225.398617 
L 309.510113 -223.641787 
L 313.226031 -221.884957 
L 316.69739 -220.128126 
L 319.599135 -218.371296 
L 321.548501 -216.614466 
L 322.199563 -214.857636 
L 321.364722 -213.100805 
L 319.120572 -211.343975 
L 315.842479 -209.587145 
L 312.132794 -207.830315 
L 308.657559 -206.073484 
L 305.955512 -204.316654 
L 304.298072 -202.559824 
L 303.650799 -200.802994 
L 303.736924 -199.046163 
L 304.163368 -197.289333 
L 304.556834 -195.532503 
L 304.667728 -193.775672 
L 304.418636 -192.018842 
L 303.892596 -190.262012 
L 303.273718 -188.505182 
L 302.768238 -186.748351 
L 302.540656 -184.991521 
L 302.688658 -183.234691 
L 303.254019 -181.477861 
L 304.24234 -179.72103 
L 305.622633 -177.9642 
L 307.301985 -176.20737 
L 309.100695 -174.45054 
L 310.762231 -172.693709 
L 312.01049 -170.936879 
L 312.631594 -169.180049 
L 312.537045 -167.423219 
L 311.774918 -165.666388 
L 310.487306 -163.909558 
L 308.843211 -162.152728 
L 306.986916 -160.395898 
L 305.02697 -158.639067 
L 303.060097 -156.882237 
L 301.198325 -155.125407 
L 299.56628 -153.368577 
L 298.262162 -151.611746 
L 297.309997 -149.854916 
L 296.642661 -148.098086 
L 296.132525 -146.341255 
L 295.648154 -144.584425 
L 295.095491 -142.827595 
L 294.418464 -141.070765 
L 293.571676 -139.313934 
L 292.502657 -137.557104 
L 291.171038 -135.800274 
L 289.596511 -134.043444 
L 287.897815 -132.286613 
L 286.286526 -130.529783 
L 285.00972 -128.772953 
L 284.269226 -127.016123 
L 284.156926 -125.259292 
L 284.630972 -123.502462 
L 285.533014 -121.745632 
L 286.630463 -119.988802 
L 287.66669 -118.231971 
L 288.408495 -116.475141 
L 288.684585 -114.718311 
L 288.409116 -112.961481 
L 287.585493 -111.20465 
L 286.291638 -109.44782 
L 284.655944 -107.69099 
L 282.835723 -105.93416 
L 281.003205 -104.177329 
L 279.333346 -102.420499 
L 277.983112 -100.663669 
L 277.059477 -98.906838 
L 276.587471 -97.150008 
L 276.497552 -95.393178 
L 276.644744 -93.636348 
L 276.854006 -91.879517 
L 276.970865 -90.122687 
L 276.895473 -88.365857 
L 276.591877 -86.609027 
L 276.080402 -84.852196 
L 275.426176 -83.095366 
L 274.728384 -81.338536 
L 274.103191 -79.581706 
L 273.652109 -77.824875 
L 273.420501 -76.068045 
L 273.367002 -74.311215 
L 273.367739 -72.554385 
L 273.26237 -70.797554 
L 272.922543 -69.040724 
L 272.307018 -67.283894 
z
" style="stroke: #868686; stroke-width: 1.875"/>
    </defs>
    <g clip-path="url(#p8f42c928f1)">
     <use xlink:href="#m7a6ceaac2f" x="0" y="298.986328" style="fill: #f5e6c8; stroke: #868686; stroke-width: 1.875"/>
    </g>
   </g>
   <g id="FillBetweenPolyCollection_3">
    <defs>
     <path id="m4a92889486" d="M 410.610339 -74.443072 
L 397.432786 -74.443072 
L 396.729767 -76.347876 
L 396.290143 -78.252679 
L 396.072539 -80.157483 
L 395.991907 -82.062287 
L 395.955288 -83.96709 
L 395.891113 -85.871894 
L 395.760055 -87.776697 
L 395.5492 -89.681501 
L 395.260962 -91.586305 
L 394.907256 -93.491108 
L 394.510024 -95.395912 
L 394.100604 -97.300715 
L 393.71047 -99.205519 
L 393.354562 -101.110323 
L 393.017969 -103.015126 
L 392.658128 -104.91993 
L 392.225529 -106.824734 
L 391.692263 -108.729537 
L 391.070047 -110.634341 
L 390.404514 -112.539144 
L 389.748113 -114.443948 
L 389.129373 -116.348752 
L 388.54007 -118.253555 
L 387.950179 -120.158359 
L 387.34091 -122.063162 
L 386.732215 -123.967966 
L 386.183115 -125.87277 
L 385.76032 -127.777573 
L 385.491936 -129.682377 
L 385.334585 -131.58718 
L 385.176503 -133.491984 
L 384.878944 -135.396788 
L 384.335526 -137.301591 
L 383.517618 -139.206395 
L 382.481351 -141.111198 
L 381.334747 -143.016002 
L 380.187833 -144.920806 
L 379.118076 -146.825609 
L 378.170579 -148.730413 
L 377.385674 -150.635216 
L 376.825142 -152.54002 
L 376.568435 -154.444824 
L 376.672466 -156.349627 
L 377.116822 -158.254431 
L 377.770575 -160.159235 
L 378.407148 -162.064038 
L 378.766339 -163.968842 
L 378.634711 -165.873645 
L 377.904115 -167.778449 
L 376.580118 -169.683253 
L 374.740982 -171.588056 
L 372.476855 -173.49286 
L 369.850178 -175.397663 
L 366.904381 -177.302467 
L 363.716818 -179.207271 
L 360.462483 -181.112074 
L 357.44488 -183.016878 
L 355.064468 -184.921681 
L 353.724883 -186.826485 
L 353.707679 -188.731289 
L 355.064034 -190.636092 
L 357.569469 -192.540896 
L 360.765288 -194.445699 
L 364.076686 -196.350503 
L 366.966447 -198.255307 
L 369.069349 -200.16011 
L 370.262226 -202.064914 
L 370.652588 -203.969717 
L 370.500564 -205.874521 
L 370.110341 -207.779325 
L 369.731547 -209.684128 
L 369.500005 -211.588932 
L 369.427878 -213.493735 
L 369.432964 -215.398539 
L 369.383087 -217.303343 
L 369.130763 -219.208146 
L 368.527808 -221.11295 
L 367.431387 -223.017754 
L 365.725549 -224.922557 
L 363.371532 -226.827361 
L 360.46986 -228.732164 
L 357.291131 -230.636968 
L 354.236898 -232.541772 
L 351.73179 -234.446575 
L 350.096924 -236.351379 
L 349.473563 -238.256182 
L 349.836031 -240.160986 
L 351.073945 -242.06579 
L 353.080602 -243.970593 
L 355.789486 -245.875397 
L 359.147431 -247.7802 
L 363.061615 -249.685004 
L 367.371111 -251.589808 
L 371.866978 -253.494611 
L 376.344667 -255.399415 
L 380.651072 -257.304218 
L 384.697943 -259.209022 
L 388.440754 -261.113826 
L 391.844698 -263.018629 
L 416.198427 -263.018629 
L 416.198427 -263.018629 
L 419.602371 -261.113826 
L 423.345182 -259.209022 
L 427.392053 -257.304218 
L 431.698458 -255.399415 
L 436.176147 -253.494611 
L 440.672014 -251.589808 
L 444.98151 -249.685004 
L 448.895694 -247.7802 
L 452.253639 -245.875397 
L 454.962523 -243.970593 
L 456.96918 -242.06579 
L 458.207094 -240.160986 
L 458.569563 -238.256182 
L 457.946201 -236.351379 
L 456.311335 -234.446575 
L 453.806227 -232.541772 
L 450.751994 -230.636968 
L 447.573265 -228.732164 
L 444.671593 -226.827361 
L 442.317576 -224.922557 
L 440.611738 -223.017754 
L 439.515317 -221.11295 
L 438.912362 -219.208146 
L 438.660038 -217.303343 
L 438.610161 -215.398539 
L 438.615247 -213.493735 
L 438.54312 -211.588932 
L 438.311578 -209.684128 
L 437.932784 -207.779325 
L 437.542561 -205.874521 
L 437.390537 -203.969717 
L 437.780899 -202.064914 
L 438.973776 -200.16011 
L 441.076678 -198.255307 
L 443.966439 -196.350503 
L 447.277837 -194.445699 
L 450.473656 -192.540896 
L 452.979091 -190.636092 
L 454.335446 -188.731289 
L 454.318242 -186.826485 
L 452.978657 -184.921681 
L 450.598245 -183.016878 
L 447.580642 -181.112074 
L 444.326307 -179.207271 
L 441.138744 -177.302467 
L 438.192947 -175.397663 
L 435.56627 -173.49286 
L 433.302143 -171.588056 
L 431.463007 -169.683253 
L 430.13901 -167.778449 
L 429.408414 -165.873645 
L 429.276786 -163.968842 
L 429.635977 -162.064038 
L 430.27255 -160.159235 
L 430.926303 -158.254431 
L 431.370659 -156.349627 
L 431.47469 -154.444824 
L 431.217983 -152.54002 
L 430.657451 -150.635216 
L 429.872546 -148.730413 
L 428.925049 -146.825609 
L 427.855292 -144.920806 
L 426.708378 -143.016002 
L 425.561774 -141.111198 
L 424.525507 -139.206395 
L 423.707599 -137.301591 
L 423.164181 -135.396788 
L 422.866622 -133.491984 
L 422.70854 -131.58718 
L 422.551189 -129.682377 
L 422.282805 -127.777573 
L 421.86001 -125.87277 
L 421.31091 -123.967966 
L 420.702215 -122.063162 
L 420.092946 -120.158359 
L 419.503055 -118.253555 
L 418.913752 -116.348752 
L 418.295012 -114.443948 
L 417.638611 -112.539144 
L 416.973078 -110.634341 
L 416.350862 -108.729537 
L 415.817596 -106.824734 
L 415.384997 -104.91993 
L 415.025156 -103.015126 
L 414.688563 -101.110323 
L 414.332655 -99.205519 
L 413.942521 -97.300715 
L 413.533101 -95.395912 
L 413.135869 -93.491108 
L 412.782163 -91.586305 
L 412.493925 -89.681501 
L 412.28307 -87.776697 
L 412.152012 -85.871894 
L 412.087837 -83.96709 
L 412.051218 -82.062287 
L 411.970586 -80.157483 
L 411.752982 -78.252679 
L 411.313358 -76.347876 
L 410.610339 -74.443072 
z
" style="stroke: #868686; stroke-width: 1.875"/>
    </defs>
    <g clip-path="url(#p8f42c928f1)">
     <use xlink:href="#m4a92889486" x="0" y="298.986328" style="fill: #f5e6c8; stroke: #868686; stroke-width: 1.875"/>
    </g>
   </g>
   <g id="line2d_4">
    <path d="M 131.281563 233.640426 
L 131.281563 38.680997 
" clip-path="url(#p8f42c928f1)" style="fill: none; stroke: #868686; stroke-width: 2.8125; stroke-linecap: round"/>
   </g>
   <g id="line2d_5">
    <path d="M 131.281563 160.682578 
L 131.281563 92.374129 
" clip-path="url(#p8f42c928f1)" style="fill: none; stroke: #868686; stroke-width: 8.4375; stroke-linecap: round"/>
   </g>
   <g id="line2d_6">
    <path d="M 131.281563 122.408067 
" clip-path="url(#p8f42c928f1)" style="fill: none; stroke: #868686; stroke-width: 2.25; stroke-linecap: round"/>
    <defs>
     <path id="m7d18ad7b29" d="M 3.515625 0 
L -3.515625 -0 
" style="stroke: #ffffff; stroke-width: 1.6875"/>
    </defs>
    <g clip-path="url(#p8f42c928f1)">
     <use xlink:href="#m7d18ad7b29" x="131.281563" y="122.408067" style="fill: #ffffff; stroke: #ffffff; stroke-width: 1.6875"/>
    </g>
   </g>
   <g id="line2d_7">
    <path d="M 267.651563 231.702434 
L 267.651563 57.776239 
" clip-path="url(#p8f42c928f1)" style="fill: none; stroke: #868686; stroke-width: 2.8125; stroke-linecap: round"/>
   </g>
   <g id="line2d_8">
    <path d="M 267.651563 152.676061 
L 267.651563 88.485715 
" clip-path="url(#p8f42c928f1)" style="fill: none; stroke: #868686; stroke-width: 8.4375; stroke-linecap: round"/>
   </g>
   <g id="line2d_9">
    <path d="M 267.651563 122.470398 
" clip-path="url(#p8f42c928f1)" style="fill: none; stroke: #868686; stroke-width: 2.25; stroke-linecap: round"/>
    <g clip-path="url(#p8f42c928f1)">
     <use xlink:href="#m7d18ad7b29" x="267.651563" y="122.470398" style="fill: #ffffff; stroke: #ffffff; stroke-width: 1.6875"/>
    </g>
   </g>
   <g id="line2d_10">
    <path d="M 404.021563 224.543256 
L 404.021563 35.967699 
" clip-path="url(#p8f42c928f1)" style="fill: none; stroke: #868686; stroke-width: 2.8125; stroke-linecap: round"/>
   </g>
   <g id="line2d_11">
    <path d="M 404.021563 141.511373 
L 404.021563 65.492452 
" clip-path="url(#p8f42c928f1)" style="fill: none; stroke: #868686; stroke-width: 8.4375; stroke-linecap: round"/>
   </g>
   <g id="line2d_12">
    <path d="M 404.021563 106.51469 
" clip-path="url(#p8f42c928f1)" style="fill: none; stroke: #868686; stroke-width: 2.25; stroke-linecap: round"/>
    <g clip-path="url(#p8f42c928f1)">
     <use xlink:href="#m7d18ad7b29" x="404.021563" y="106.51469" style="fill: #ffffff; stroke: #ffffff; stroke-width: 1.6875"/>
    </g>
   </g>
   <g id="patch_3">
    <path d="M 63.096563 243.524063 
L 63.096563 26.084062 
" style="fill: none; stroke: #cccccc; stroke-width: 1.875; stroke-linejoin: miter; stroke-linecap: square"/>
   </g>
   <g id="patch_4">
    <path d="M 472.206563 243.524063 
L 472.206563 26.084062 
" style="fill: none; stroke: #cccccc; stroke-width: 1.875; stroke-linejoin: miter; stroke-linecap: square"/>
   </g>
   <g id="patch_5">
    <path d="M 63.096563 243.524063 
L 472.206563 243.524063 
" style="fill: none; stroke: #cccccc; stroke-width: 1.875; stroke-linejoin: miter; stroke-linecap: square"/>
   </g>
   <g id="patch_6">
    <path d="M 63.096563 26.084062 
L 472.206563 26.084062 
" style="fill: none; stroke: #cccccc; stroke-width: 1.875; stroke-linejoin: miter; stroke-linecap: square"/>
   </g>
   <g id="text_9">
    <!-- Equivariance over rotations: Vanilla -->
    <g style="fill: #262626" transform="translate(127.245938 20.084062) scale(0.18 -0.18)">
     <defs>
      <path id="ArialMT-45" d="M 506 0 
L 506 4581 
L 3819 4581 
L 3819 4041 
L 1113 4041 
L 1113 2638 
L 3647 2638 
L 3647 2100 
L 1113 2100 
L 1113 541 
L 3925 541 
L 3925 0 
L 506 0 
z
" transform="scale(0.015625)"/>
      <path id="ArialMT-73" d="M 197 991 
L 753 1078 
Q 800 744 1014 566 
Q 1228 388 1613 388 
Q 2000 388 2187 545 
Q 2375 703 2375 916 
Q 2375 1106 2209 1216 
Q 2094 1291 1634 1406 
Q 1016 1563 777 1677 
Q 538 1791 414 1992 
Q 291 2194 291 2438 
Q 291 2659 392 2848 
Q 494 3038 669 3163 
Q 800 3259 1026 3326 
Q 1253 3394 1513 3394 
Q 1903 3394 2198 3281 
Q 2494 3169 2634 2976 
Q 2775 2784 2828 2463 
L 2278 2388 
Q 2241 2644 2061 2787 
Q 1881 2931 1553 2931 
Q 1166 2931 1000 2803 
Q 834 2675 834 2503 
Q 834 2394 903 2306 
Q 972 2216 1119 2156 
Q 1203 2125 1616 2013 
Q 2213 1853 2448 1751 
Q 2684 1650 2818 1456 
Q 2953 1263 2953 975 
Q 2953 694 2789 445 
Q 2625 197 2315 61 
Q 2006 -75 1616 -75 
Q 969 -75 630 194 
Q 291 463 197 991 
z
" transform="scale(0.015625)"/>
      <path id="ArialMT-3a" d="M 578 2678 
L 578 3319 
L 1219 3319 
L 1219 2678 
L 578 2678 
z
M 578 0 
L 578 641 
L 1219 641 
L 1219 0 
L 578 0 
z
" transform="scale(0.015625)"/>
      <path id="ArialMT-56" d="M 1803 0 
L 28 4581 
L 684 4581 
L 1875 1253 
Q 2019 853 2116 503 
Q 2222 878 2363 1253 
L 3600 4581 
L 4219 4581 
L 2425 0 
L 1803 0 
z
" transform="scale(0.015625)"/>
     </defs>
     <use xlink:href="#ArialMT-45"/>
     <use xlink:href="#ArialMT-71" transform="translate(66.699219 0)"/>
     <use xlink:href="#ArialMT-75" transform="translate(122.314453 0)"/>
     <use xlink:href="#ArialMT-69" transform="translate(177.929688 0)"/>
     <use xlink:href="#ArialMT-76" transform="translate(200.146484 0)"/>
     <use xlink:href="#ArialMT-61" transform="translate(250.146484 0)"/>
     <use xlink:href="#ArialMT-72" transform="translate(305.761719 0)"/>
     <use xlink:href="#ArialMT-69" transform="translate(339.0625 0)"/>
     <use xlink:href="#ArialMT-61" transform="translate(361.279297 0)"/>
     <use xlink:href="#ArialMT-6e" transform="translate(416.894531 0)"/>
     <use xlink:href="#ArialMT-63" transform="translate(472.509766 0)"/>
     <use xlink:href="#ArialMT-65" transform="translate(522.509766 0)"/>
     <use xlink:href="#ArialMT-20" transform="translate(578.125 0)"/>
     <use xlink:href="#ArialMT-6f" transform="translate(605.908203 0)"/>
     <use xlink:href="#ArialMT-76" transform="translate(661.523438 0)"/>
     <use xlink:href="#ArialMT-65" transform="translate(711.523438 0)"/>
     <use xlink:href="#ArialMT-72" transform="translate(767.138672 0)"/>
     <use xlink:href="#ArialMT-20" transform="translate(800.439453 0)"/>
     <use xlink:href="#ArialMT-72" transform="translate(828.222656 0)"/>
     <use xlink:href="#ArialMT-6f" transform="translate(861.523438 0)"/>
     <use xlink:href="#ArialMT-74" transform="translate(917.138672 0)"/>
     <use xlink:href="#ArialMT-61" transform="translate(944.921875 0)"/>
     <use xlink:href="#ArialMT-74" transform="translate(1000.537109 0)"/>
     <use xlink:href="#ArialMT-69" transform="translate(1028.320312 0)"/>
     <use xlink:href="#ArialMT-6f" transform="translate(1050.537109 0)"/>
     <use xlink:href="#ArialMT-6e" transform="translate(1106.152344 0)"/>
     <use xlink:href="#ArialMT-73" transform="translate(1161.767578 0)"/>
     <use xlink:href="#ArialMT-3a" transform="translate(1211.767578 0)"/>
     <use xlink:href="#ArialMT-20" transform="translate(1239.550781 0)"/>
     <use xlink:href="#ArialMT-56" transform="translate(1267.333984 0)"/>
     <use xlink:href="#ArialMT-61" transform="translate(1326.658203 0)"/>
     <use xlink:href="#ArialMT-6e" transform="translate(1382.273438 0)"/>
     <use xlink:href="#ArialMT-69" transform="translate(1437.888672 0)"/>
     <use xlink:href="#ArialMT-6c" transform="translate(1460.105469 0)"/>
     <use xlink:href="#ArialMT-6c" transform="translate(1482.322266 0)"/>
     <use xlink:href="#ArialMT-61" transform="translate(1504.539062 0)"/>
    </g>
   </g>
  </g>
 </g>
 <defs>
  <clipPath id="p8f42c928f1">
   <rect x="63.096563" y="26.084062" width="409.11" height="217.44"/>
  </clipPath>
 </defs>
</svg>
