<?xml version="1.0" encoding="utf-8" standalone="no"?>
<!DOCTYPE svg PUBLIC "-//W3C//DTD SVG 1.1//EN"
  "http://www.w3.org/Graphics/SVG/1.1/DTD/svg11.dtd">
<svg xmlns:xlink="http://www.w3.org/1999/xlink" width="479.406563pt" height="298.919953pt" viewBox="0 0 479.406563 298.919953" xmlns="http://www.w3.org/2000/svg" version="1.1">
 <metadata>
  <rdf:RDF xmlns:dc="http://purl.org/dc/elements/1.1/" xmlns:cc="http://creativecommons.org/ns#" xmlns:rdf="http://www.w3.org/1999/02/22-rdf-syntax-ns#">
   <cc:Work>
    <dc:type rdf:resource="http://purl.org/dc/dcmitype/StillImage"/>
    <dc:date>2025-12-09T18:13:18.929187</dc:date>
    <dc:format>image/svg+xml</dc:format>
    <dc:creator>
     <cc:Agent>
      <dc:title>Matplotlib v3.10.7, https://matplotlib.org/</dc:title>
     </cc:Agent>
    </dc:creator>
   </cc:Work>
  </rdf:RDF>
 </metadata>
 <defs>
  <style type="text/css">*{stroke-linejoin: round; stroke-linecap: butt}</style>
 </defs>
 <g id="figure_1">
  <g id="patch_1">
   <path d="M 0 298.919953 
L 479.406563 298.919953 
L 479.406563 0 
L 0 0 
z
" style="fill: #ffffff"/>
  </g>
  <g id="axes_1">
   <g id="patch_2">
    <path d="M 63.096563 243.457688 
L 472.206563 243.457688 
L 472.206563 45.385687 
L 63.096563 45.385687 
z
" style="fill: #ffffff"/>
   </g>
   <g id="matplotlib.axis_1">
    <g id="xtick_1">
     <g id="text_1">
      <!-- 0 -->
      <g style="fill: #262626" transform="translate(126.693789 267.768078) scale(0.165 -0.165)">
       <defs>
        <path id="ArialMT-30" d="M 266 2259 
Q 266 3072 433 3567 
Q 600 4063 929 4331 
Q 1259 4600 1759 4600 
Q 2128 4600 2406 4451 
Q 2684 4303 2865 4023 
Q 3047 3744 3150 3342 
Q 3253 2941 3253 2259 
Q 3253 1453 3087 958 
Q 2922 463 2592 192 
Q 2263 -78 1759 -78 
Q 1097 -78 719 397 
Q 266 969 266 2259 
z
M 844 2259 
Q 844 1131 1108 757 
Q 1372 384 1759 384 
Q 2147 384 2411 759 
Q 2675 1134 2675 2259 
Q 2675 3391 2411 3762 
Q 2147 4134 1753 4134 
Q 1366 4134 1134 3806 
Q 844 3388 844 2259 
z
" transform="scale(0.015625)"/>
       </defs>
       <use xlink:href="#ArialMT-30"/>
      </g>
     </g>
    </g>
    <g id="xtick_2">
     <g id="text_2">
      <!-- 1 -->
      <g style="fill: #262626" transform="translate(263.063789 267.768078) scale(0.165 -0.165)">
       <defs>
        <path id="ArialMT-31" d="M 2384 0 
L 1822 0 
L 1822 3584 
Q 1619 3391 1289 3197 
Q 959 3003 697 2906 
L 697 3450 
Q 1169 3672 1522 3987 
Q 1875 4303 2022 4600 
L 2384 4600 
L 2384 0 
z
" transform="scale(0.015625)"/>
       </defs>
       <use xlink:href="#ArialMT-31"/>
      </g>
     </g>
    </g>
    <g id="xtick_3">
     <g id="text_3">
      <!-- 2 -->
      <g style="fill: #262626" transform="translate(399.433789 267.768078) scale(0.165 -0.165)">
       <defs>
        <path id="ArialMT-32" d="M 3222 541 
L 3222 0 
L 194 0 
Q 188 203 259 391 
Q 375 700 629 1000 
Q 884 1300 1366 1694 
Q 2113 2306 2375 2664 
Q 2638 3022 2638 3341 
Q 2638 3675 2398 3904 
Q 2159 4134 1775 4134 
Q 1369 4134 1125 3890 
Q 881 3647 878 3216 
L 300 3275 
Q 359 3922 746 4261 
Q 1134 4600 1788 4600 
Q 2447 4600 2831 4234 
Q 3216 3869 3216 3328 
Q 3216 3053 3103 2787 
Q 2991 2522 2730 2228 
Q 2469 1934 1863 1422 
Q 1356 997 1212 845 
Q 1069 694 975 541 
L 3222 541 
z
" transform="scale(0.015625)"/>
       </defs>
       <use xlink:href="#ArialMT-32"/>
      </g>
     </g>
    </g>
    <g id="text_4">
     <!-- Layer -->
     <g style="fill: #262626" transform="translate(245.140313 287.931516) scale(0.18 -0.18)">
      <defs>
       <path id="ArialMT-4c" d="M 469 0 
L 469 4581 
L 1075 4581 
L 1075 541 
L 3331 541 
L 3331 0 
L 469 0 
z
" transform="scale(0.015625)"/>
       <path id="ArialMT-61" d="M 2588 409 
Q 2275 144 1986 34 
Q 1697 -75 1366 -75 
Q 819 -75 525 192 
Q 231 459 231 875 
Q 231 1119 342 1320 
Q 453 1522 633 1644 
Q 813 1766 1038 1828 
Q 1203 1872 1538 1913 
Q 2219 1994 2541 2106 
Q 2544 2222 2544 2253 
Q 2544 2597 2384 2738 
Q 2169 2928 1744 2928 
Q 1347 2928 1158 2789 
Q 969 2650 878 2297 
L 328 2372 
Q 403 2725 575 2942 
Q 747 3159 1072 3276 
Q 1397 3394 1825 3394 
Q 2250 3394 2515 3294 
Q 2781 3194 2906 3042 
Q 3031 2891 3081 2659 
Q 3109 2516 3109 2141 
L 3109 1391 
Q 3109 606 3145 398 
Q 3181 191 3288 0 
L 2700 0 
Q 2613 175 2588 409 
z
M 2541 1666 
Q 2234 1541 1622 1453 
Q 1275 1403 1131 1340 
Q 988 1278 909 1158 
Q 831 1038 831 891 
Q 831 666 1001 516 
Q 1172 366 1500 366 
Q 1825 366 2078 508 
Q 2331 650 2450 897 
Q 2541 1088 2541 1459 
L 2541 1666 
z
" transform="scale(0.015625)"/>
       <path id="ArialMT-79" d="M 397 -1278 
L 334 -750 
Q 519 -800 656 -800 
Q 844 -800 956 -737 
Q 1069 -675 1141 -563 
Q 1194 -478 1313 -144 
Q 1328 -97 1363 -6 
L 103 3319 
L 709 3319 
L 1400 1397 
Q 1534 1031 1641 628 
Q 1738 1016 1872 1384 
L 2581 3319 
L 3144 3319 
L 1881 -56 
Q 1678 -603 1566 -809 
Q 1416 -1088 1222 -1217 
Q 1028 -1347 759 -1347 
Q 597 -1347 397 -1278 
z
" transform="scale(0.015625)"/>
       <path id="ArialMT-65" d="M 2694 1069 
L 3275 997 
Q 3138 488 2766 206 
Q 2394 -75 1816 -75 
Q 1088 -75 661 373 
Q 234 822 234 1631 
Q 234 2469 665 2931 
Q 1097 3394 1784 3394 
Q 2450 3394 2872 2941 
Q 3294 2488 3294 1666 
Q 3294 1616 3291 1516 
L 816 1516 
Q 847 969 1125 678 
Q 1403 388 1819 388 
Q 2128 388 2347 550 
Q 2566 713 2694 1069 
z
M 847 1978 
L 2700 1978 
Q 2663 2397 2488 2606 
Q 2219 2931 1791 2931 
Q 1403 2931 1139 2672 
Q 875 2413 847 1978 
z
" transform="scale(0.015625)"/>
       <path id="ArialMT-72" d="M 416 0 
L 416 3319 
L 922 3319 
L 922 2816 
Q 1116 3169 1280 3281 
Q 1444 3394 1641 3394 
Q 1925 3394 2219 3213 
L 2025 2691 
Q 1819 2813 1613 2813 
Q 1428 2813 1281 2702 
Q 1134 2591 1072 2394 
Q 978 2094 978 1738 
L 978 0 
L 416 0 
z
" transform="scale(0.015625)"/>
      </defs>
      <use xlink:href="#ArialMT-4c"/>
      <use xlink:href="#ArialMT-61" transform="translate(55.615234 0)"/>
      <use xlink:href="#ArialMT-79" transform="translate(111.230469 0)"/>
      <use xlink:href="#ArialMT-65" transform="translate(161.230469 0)"/>
      <use xlink:href="#ArialMT-72" transform="translate(216.845703 0)"/>
     </g>
    </g>
   </g>
   <g id="matplotlib.axis_2">
    <g id="ytick_1">
     <g id="line2d_1">
      <path d="M 63.096563 203.429844 
L 472.206563 203.429844 
" clip-path="url(#pd6f2ddb517)" style="fill: none; stroke: #cccccc; stroke-width: 1.5; stroke-linecap: round"/>
     </g>
     <g id="text_5">
      <!-- 0.5 -->
      <g style="fill: #262626" transform="translate(27.661563 209.335039) scale(0.165 -0.165)">
       <defs>
        <path id="ArialMT-2e" d="M 581 0 
L 581 641 
L 1222 641 
L 1222 0 
L 581 0 
z
" transform="scale(0.015625)"/>
        <path id="ArialMT-35" d="M 266 1200 
L 856 1250 
Q 922 819 1161 601 
Q 1400 384 1738 384 
Q 2144 384 2425 690 
Q 2706 997 2706 1503 
Q 2706 1984 2436 2262 
Q 2166 2541 1728 2541 
Q 1456 2541 1237 2417 
Q 1019 2294 894 2097 
L 366 2166 
L 809 4519 
L 3088 4519 
L 3088 3981 
L 1259 3981 
L 1013 2750 
Q 1425 3038 1878 3038 
Q 2478 3038 2890 2622 
Q 3303 2206 3303 1553 
Q 3303 931 2941 478 
Q 2500 -78 1738 -78 
Q 1113 -78 717 272 
Q 322 622 266 1200 
z
" transform="scale(0.015625)"/>
       </defs>
       <use xlink:href="#ArialMT-30"/>
       <use xlink:href="#ArialMT-2e" transform="translate(55.615234 0)"/>
       <use xlink:href="#ArialMT-35" transform="translate(83.398438 0)"/>
      </g>
     </g>
    </g>
    <g id="ytick_2">
     <g id="line2d_2">
      <path d="M 63.096563 151.65748 
L 472.206563 151.65748 
" clip-path="url(#pd6f2ddb517)" style="fill: none; stroke: #cccccc; stroke-width: 1.5; stroke-linecap: round"/>
     </g>
     <g id="text_6">
      <!-- 1.0 -->
      <g style="fill: #262626" transform="translate(27.661563 157.562675) scale(0.165 -0.165)">
       <use xlink:href="#ArialMT-31"/>
       <use xlink:href="#ArialMT-2e" transform="translate(55.615234 0)"/>
       <use xlink:href="#ArialMT-30" transform="translate(83.398438 0)"/>
      </g>
     </g>
    </g>
    <g id="ytick_3">
     <g id="line2d_3">
      <path d="M 63.096563 99.885115 
L 472.206563 99.885115 
" clip-path="url(#pd6f2ddb517)" style="fill: none; stroke: #cccccc; stroke-width: 1.5; stroke-linecap: round"/>
     </g>
     <g id="text_7">
      <!-- 1.5 -->
      <g style="fill: #262626" transform="translate(27.661563 105.790311) scale(0.165 -0.165)">
       <use xlink:href="#ArialMT-31"/>
       <use xlink:href="#ArialMT-2e" transform="translate(55.615234 0)"/>
       <use xlink:href="#ArialMT-35" transform="translate(83.398438 0)"/>
      </g>
     </g>
    </g>
    <g id="ytick_4">
     <g id="line2d_4">
      <path d="M 63.096563 48.112751 
L 472.206563 48.112751 
" clip-path="url(#pd6f2ddb517)" style="fill: none; stroke: #cccccc; stroke-width: 1.5; stroke-linecap: round"/>
     </g>
     <g id="text_8">
      <!-- 2.0 -->
      <g style="fill: #262626" transform="translate(27.661563 54.017947) scale(0.165 -0.165)">
       <use xlink:href="#ArialMT-32"/>
       <use xlink:href="#ArialMT-2e" transform="translate(55.615234 0)"/>
       <use xlink:href="#ArialMT-30" transform="translate(83.398438 0)"/>
      </g>
     </g>
    </g>
    <g id="text_9">
     <!-- Relative equivariance error -->
     <g style="fill: #262626" transform="translate(20.084063 251.966062) rotate(-90) scale(0.18 -0.18)">
      <defs>
       <path id="ArialMT-52" d="M 503 0 
L 503 4581 
L 2534 4581 
Q 3147 4581 3465 4457 
Q 3784 4334 3975 4021 
Q 4166 3709 4166 3331 
Q 4166 2844 3850 2509 
Q 3534 2175 2875 2084 
Q 3116 1969 3241 1856 
Q 3506 1613 3744 1247 
L 4541 0 
L 3778 0 
L 3172 953 
Q 2906 1366 2734 1584 
Q 2563 1803 2427 1890 
Q 2291 1978 2150 2013 
Q 2047 2034 1813 2034 
L 1109 2034 
L 1109 0 
L 503 0 
z
M 1109 2559 
L 2413 2559 
Q 2828 2559 3062 2645 
Q 3297 2731 3419 2920 
Q 3541 3109 3541 3331 
Q 3541 3656 3305 3865 
Q 3069 4075 2559 4075 
L 1109 4075 
L 1109 2559 
z
" transform="scale(0.015625)"/>
       <path id="ArialMT-6c" d="M 409 0 
L 409 4581 
L 972 4581 
L 972 0 
L 409 0 
z
" transform="scale(0.015625)"/>
       <path id="ArialMT-74" d="M 1650 503 
L 1731 6 
Q 1494 -44 1306 -44 
Q 1000 -44 831 53 
Q 663 150 594 308 
Q 525 466 525 972 
L 525 2881 
L 113 2881 
L 113 3319 
L 525 3319 
L 525 4141 
L 1084 4478 
L 1084 3319 
L 1650 3319 
L 1650 2881 
L 1084 2881 
L 1084 941 
Q 1084 700 1114 631 
Q 1144 563 1211 522 
Q 1278 481 1403 481 
Q 1497 481 1650 503 
z
" transform="scale(0.015625)"/>
       <path id="ArialMT-69" d="M 425 3934 
L 425 4581 
L 988 4581 
L 988 3934 
L 425 3934 
z
M 425 0 
L 425 3319 
L 988 3319 
L 988 0 
L 425 0 
z
" transform="scale(0.015625)"/>
       <path id="ArialMT-76" d="M 1344 0 
L 81 3319 
L 675 3319 
L 1388 1331 
Q 1503 1009 1600 663 
Q 1675 925 1809 1294 
L 2547 3319 
L 3125 3319 
L 1869 0 
L 1344 0 
z
" transform="scale(0.015625)"/>
       <path id="ArialMT-20" transform="scale(0.015625)"/>
       <path id="ArialMT-71" d="M 2538 -1272 
L 2538 353 
Q 2406 169 2170 47 
Q 1934 -75 1669 -75 
Q 1078 -75 651 397 
Q 225 869 225 1691 
Q 225 2191 398 2587 
Q 572 2984 901 3189 
Q 1231 3394 1625 3394 
Q 2241 3394 2594 2875 
L 2594 3319 
L 3100 3319 
L 3100 -1272 
L 2538 -1272 
z
M 803 1669 
Q 803 1028 1072 708 
Q 1341 388 1716 388 
Q 2075 388 2334 692 
Q 2594 997 2594 1619 
Q 2594 2281 2320 2615 
Q 2047 2950 1678 2950 
Q 1313 2950 1058 2639 
Q 803 2328 803 1669 
z
" transform="scale(0.015625)"/>
       <path id="ArialMT-75" d="M 2597 0 
L 2597 488 
Q 2209 -75 1544 -75 
Q 1250 -75 995 37 
Q 741 150 617 320 
Q 494 491 444 738 
Q 409 903 409 1263 
L 409 3319 
L 972 3319 
L 972 1478 
Q 972 1038 1006 884 
Q 1059 663 1231 536 
Q 1403 409 1656 409 
Q 1909 409 2131 539 
Q 2353 669 2445 892 
Q 2538 1116 2538 1541 
L 2538 3319 
L 3100 3319 
L 3100 0 
L 2597 0 
z
" transform="scale(0.015625)"/>
       <path id="ArialMT-6e" d="M 422 0 
L 422 3319 
L 928 3319 
L 928 2847 
Q 1294 3394 1984 3394 
Q 2284 3394 2536 3286 
Q 2788 3178 2913 3003 
Q 3038 2828 3088 2588 
Q 3119 2431 3119 2041 
L 3119 0 
L 2556 0 
L 2556 2019 
Q 2556 2363 2490 2533 
Q 2425 2703 2258 2804 
Q 2091 2906 1866 2906 
Q 1506 2906 1245 2678 
Q 984 2450 984 1813 
L 984 0 
L 422 0 
z
" transform="scale(0.015625)"/>
       <path id="ArialMT-63" d="M 2588 1216 
L 3141 1144 
Q 3050 572 2676 248 
Q 2303 -75 1759 -75 
Q 1078 -75 664 370 
Q 250 816 250 1647 
Q 250 2184 428 2587 
Q 606 2991 970 3192 
Q 1334 3394 1763 3394 
Q 2303 3394 2647 3120 
Q 2991 2847 3088 2344 
L 2541 2259 
Q 2463 2594 2264 2762 
Q 2066 2931 1784 2931 
Q 1359 2931 1093 2626 
Q 828 2322 828 1663 
Q 828 994 1084 691 
Q 1341 388 1753 388 
Q 2084 388 2306 591 
Q 2528 794 2588 1216 
z
" transform="scale(0.015625)"/>
       <path id="ArialMT-6f" d="M 213 1659 
Q 213 2581 725 3025 
Q 1153 3394 1769 3394 
Q 2453 3394 2887 2945 
Q 3322 2497 3322 1706 
Q 3322 1066 3130 698 
Q 2938 331 2570 128 
Q 2203 -75 1769 -75 
Q 1072 -75 642 372 
Q 213 819 213 1659 
z
M 791 1659 
Q 791 1022 1069 705 
Q 1347 388 1769 388 
Q 2188 388 2466 706 
Q 2744 1025 2744 1678 
Q 2744 2294 2464 2611 
Q 2184 2928 1769 2928 
Q 1347 2928 1069 2612 
Q 791 2297 791 1659 
z
" transform="scale(0.015625)"/>
      </defs>
      <use xlink:href="#ArialMT-52"/>
      <use xlink:href="#ArialMT-65" transform="translate(72.216797 0)"/>
      <use xlink:href="#ArialMT-6c" transform="translate(127.832031 0)"/>
      <use xlink:href="#ArialMT-61" transform="translate(150.048828 0)"/>
      <use xlink:href="#ArialMT-74" transform="translate(205.664062 0)"/>
      <use xlink:href="#ArialMT-69" transform="translate(233.447266 0)"/>
      <use xlink:href="#ArialMT-76" transform="translate(255.664062 0)"/>
      <use xlink:href="#ArialMT-65" transform="translate(305.664062 0)"/>
      <use xlink:href="#ArialMT-20" transform="translate(361.279297 0)"/>
      <use xlink:href="#ArialMT-65" transform="translate(389.0625 0)"/>
      <use xlink:href="#ArialMT-71" transform="translate(444.677734 0)"/>
      <use xlink:href="#ArialMT-75" transform="translate(500.292969 0)"/>
      <use xlink:href="#ArialMT-69" transform="translate(555.908203 0)"/>
      <use xlink:href="#ArialMT-76" transform="translate(578.125 0)"/>
      <use xlink:href="#ArialMT-61" transform="translate(628.125 0)"/>
      <use xlink:href="#ArialMT-72" transform="translate(683.740234 0)"/>
      <use xlink:href="#ArialMT-69" transform="translate(717.041016 0)"/>
      <use xlink:href="#ArialMT-61" transform="translate(739.257812 0)"/>
      <use xlink:href="#ArialMT-6e" transform="translate(794.873047 0)"/>
      <use xlink:href="#ArialMT-63" transform="translate(850.488281 0)"/>
      <use xlink:href="#ArialMT-65" transform="translate(900.488281 0)"/>
      <use xlink:href="#ArialMT-20" transform="translate(956.103516 0)"/>
      <use xlink:href="#ArialMT-65" transform="translate(983.886719 0)"/>
      <use xlink:href="#ArialMT-72" transform="translate(1039.501953 0)"/>
      <use xlink:href="#ArialMT-72" transform="translate(1072.802734 0)"/>
      <use xlink:href="#ArialMT-6f" transform="translate(1106.103516 0)"/>
      <use xlink:href="#ArialMT-72" transform="translate(1161.71875 0)"/>
     </g>
    </g>
   </g>
   <g id="FillBetweenPolyCollection_1">
    <defs>
     <path id="m0e49cf22fb" d="M 134.022869 -64.465538 
L 128.540256 -64.465538 
L 127.652373 -65.741225 
L 126.875923 -67.016911 
L 126.333371 -68.292598 
L 126.073571 -69.568284 
L 126.047856 -70.843971 
L 126.122995 -72.119657 
L 126.124017 -73.395344 
L 125.892416 -74.67103 
L 125.342559 -75.946716 
L 124.497711 -77.222403 
L 123.491088 -78.498089 
L 122.52921 -79.773776 
L 121.827215 -81.049462 
L 121.532225 -82.325149 
L 121.654839 -83.600835 
L 122.034536 -84.876522 
L 122.363951 -86.152208 
L 122.277498 -87.427895 
L 121.476046 -88.703581 
L 119.835108 -89.979268 
L 117.449528 -91.254954 
L 114.600341 -92.53064 
L 111.666285 -93.806327 
L 109.021057 -95.082013 
L 106.951466 -96.3577 
L 105.611923 -97.633386 
L 105.013637 -98.909073 
L 105.041082 -100.184759 
L 105.489822 -101.460446 
L 106.119153 -102.736132 
L 106.707643 -104.011819 
L 107.095497 -105.287505 
L 107.201022 -106.563191 
L 107.007795 -107.838878 
L 106.529532 -109.114564 
L 105.769011 -110.390251 
L 104.69358 -111.665937 
L 103.245882 -112.941624 
L 101.388902 -114.21731 
L 99.158291 -115.492997 
L 96.684062 -116.768683 
L 94.16152 -118.04437 
L 91.786128 -119.320056 
L 89.691136 -120.595742 
L 87.922266 -121.871429 
L 86.457085 -123.147115 
L 85.249372 -124.422802 
L 84.268333 -125.698488 
L 83.51165 -126.974175 
L 82.990625 -128.249861 
L 82.70195 -129.525548 
L 82.605665 -130.801234 
L 82.623363 -132.076921 
L 82.660214 -133.352607 
L 82.643084 -134.628294 
L 82.55663 -135.90398 
L 82.454495 -137.179666 
L 82.430415 -138.455353 
L 82.55543 -139.731039 
L 82.811916 -141.006726 
L 83.065808 -142.282412 
L 83.10374 -143.558099 
L 82.725776 -144.833785 
L 81.848238 -146.109472 
L 80.560633 -147.385158 
L 79.10627 -148.660845 
L 77.801367 -149.936531 
L 76.940264 -151.212217 
L 76.733563 -152.487904 
L 77.296578 -153.76359 
L 78.671794 -155.039277 
L 80.853195 -156.314963 
L 83.788334 -157.59065 
L 87.35632 -158.866336 
L 91.341593 -160.142023 
L 95.431928 -161.417709 
L 99.259267 -162.693396 
L 102.47859 -163.969082 
L 104.856325 -165.244769 
L 106.33075 -166.520455 
L 107.018781 -167.796141 
L 107.169091 -169.071828 
L 107.084732 -170.347514 
L 107.046004 -171.623201 
L 107.25606 -172.898887 
L 107.817687 -174.174574 
L 108.739862 -175.45026 
L 109.967838 -176.725947 
L 111.425978 -178.001633 
L 113.056807 -179.27732 
L 114.838663 -180.553006 
L 116.77358 -181.828692 
L 118.854048 -183.104379 
L 121.030763 -184.380065 
L 123.202997 -185.655752 
L 125.238663 -186.931438 
L 127.012848 -188.207125 
L 128.443929 -189.482811 
L 129.510504 -190.758498 
L 133.052621 -190.758498 
L 133.052621 -190.758498 
L 134.119196 -189.482811 
L 135.550277 -188.207125 
L 137.324462 -186.931438 
L 139.360128 -185.655752 
L 141.532362 -184.380065 
L 143.709077 -183.104379 
L 145.789545 -181.828692 
L 147.724462 -180.553006 
L 149.506318 -179.27732 
L 151.137147 -178.001633 
L 152.595287 -176.725947 
L 153.823263 -175.45026 
L 154.745438 -174.174574 
L 155.307065 -172.898887 
L 155.517121 -171.623201 
L 155.478393 -170.347514 
L 155.394034 -169.071828 
L 155.544344 -167.796141 
L 156.232375 -166.520455 
L 157.7068 -165.244769 
L 160.084535 -163.969082 
L 163.303858 -162.693396 
L 167.131197 -161.417709 
L 171.221532 -160.142023 
L 175.206805 -158.866336 
L 178.774791 -157.59065 
L 181.70993 -156.314963 
L 183.891331 -155.039277 
L 185.266547 -153.76359 
L 185.829563 -152.487904 
L 185.622861 -151.212217 
L 184.761758 -149.936531 
L 183.456855 -148.660845 
L 182.002492 -147.385158 
L 180.714887 -146.109472 
L 179.837349 -144.833785 
L 179.459385 -143.558099 
L 179.497317 -142.282412 
L 179.751209 -141.006726 
L 180.007695 -139.731039 
L 180.13271 -138.455353 
L 180.10863 -137.179666 
L 180.006495 -135.90398 
L 179.920041 -134.628294 
L 179.902911 -133.352607 
L 179.939762 -132.076921 
L 179.95746 -130.801234 
L 179.861175 -129.525548 
L 179.5725 -128.249861 
L 179.051475 -126.974175 
L 178.294792 -125.698488 
L 177.313753 -124.422802 
L 176.10604 -123.147115 
L 174.640859 -121.871429 
L 172.871989 -120.595742 
L 170.776997 -119.320056 
L 168.401605 -118.04437 
L 165.879063 -116.768683 
L 163.404834 -115.492997 
L 161.174223 -114.21731 
L 159.317243 -112.941624 
L 157.869545 -111.665937 
L 156.794114 -110.390251 
L 156.033593 -109.114564 
L 155.55533 -107.838878 
L 155.362103 -106.563191 
L 155.467628 -105.287505 
L 155.855482 -104.011819 
L 156.443972 -102.736132 
L 157.073303 -101.460446 
L 157.522043 -100.184759 
L 157.549488 -98.909073 
L 156.951202 -97.633386 
L 155.611659 -96.3577 
L 153.542068 -95.082013 
L 150.89684 -93.806327 
L 147.962784 -92.53064 
L 145.113597 -91.254954 
L 142.728017 -89.979268 
L 141.087079 -88.703581 
L 140.285627 -87.427895 
L 140.199174 -86.152208 
L 140.528589 -84.876522 
L 140.908286 -83.600835 
L 141.0309 -82.325149 
L 140.73591 -81.049462 
L 140.033915 -79.773776 
L 139.072037 -78.498089 
L 138.065414 -77.222403 
L 137.220566 -75.946716 
L 136.670709 -74.67103 
L 136.439108 -73.395344 
L 136.44013 -72.119657 
L 136.515269 -70.843971 
L 136.489554 -69.568284 
L 136.229754 -68.292598 
L 135.687202 -67.016911 
L 134.910752 -65.741225 
L 134.022869 -64.465538 
z
" style="stroke: #656565; stroke-width: 1.875"/>
    </defs>
    <g clip-path="url(#pd6f2ddb517)">
     <use xlink:href="#m0e49cf22fb" x="0" y="298.919953" style="fill: #f06292; stroke: #656565; stroke-width: 1.875"/>
    </g>
   </g>
   <g id="FillBetweenPolyCollection_2">
    <defs>
     <path id="md6180529c3" d="M 270.860675 -78.447311 
L 264.44245 -78.447311 
L 264.150008 -79.887846 
L 264.260071 -81.328381 
L 264.737074 -82.768916 
L 265.43092 -84.209452 
L 266.152634 -85.649987 
L 266.756045 -87.090522 
L 267.178465 -88.531058 
L 267.430758 -89.971593 
L 267.560598 -91.412128 
L 267.618504 -92.852664 
L 267.640937 -94.293199 
L 267.648369 -95.733734 
L 267.6499 -97.17427 
L 267.647804 -98.614805 
L 267.639146 -100.05534 
L 267.613899 -101.495875 
L 267.55035 -102.936411 
L 267.410743 -104.376946 
L 267.14318 -105.817481 
L 266.696391 -107.258017 
L 266.04718 -108.698552 
L 265.22675 -110.139087 
L 264.323201 -111.579623 
L 263.447711 -113.020158 
L 262.680171 -114.460693 
L 262.033163 -115.901229 
L 261.466128 -117.341764 
L 260.944501 -118.782299 
L 260.499267 -120.222835 
L 260.234269 -121.66337 
L 260.264428 -123.103905 
L 260.62458 -124.54444 
L 261.218014 -125.984976 
L 261.846228 -127.425511 
L 262.299277 -128.866046 
L 262.444458 -130.306582 
L 262.261085 -131.747117 
L 261.814576 -133.187652 
L 261.204935 -134.628188 
L 260.533398 -136.068723 
L 259.902638 -137.509258 
L 259.425675 -138.949794 
L 259.206606 -140.390329 
L 259.288677 -141.830864 
L 259.609444 -143.271399 
L 260.00868 -144.711935 
L 260.292403 -146.15247 
L 260.309347 -147.593005 
L 259.991195 -149.033541 
L 259.345489 -150.474076 
L 258.428397 -151.914611 
L 257.326779 -153.355147 
L 256.152639 -154.795682 
L 255.035651 -156.236217 
L 254.10827 -157.676753 
L 253.488624 -159.117288 
L 253.257641 -160.557823 
L 253.420719 -161.998359 
L 253.868781 -163.438894 
L 254.382387 -164.879429 
L 254.702239 -166.319964 
L 254.625778 -167.7605 
L 254.056911 -169.201035 
L 252.978285 -170.64157 
L 251.385257 -172.082106 
L 249.244038 -173.522641 
L 246.506573 -174.963176 
L 243.177919 -176.403712 
L 239.409564 -177.844247 
L 235.567472 -179.284782 
L 232.202921 -180.725318 
L 229.88345 -182.165853 
L 228.936007 -183.606388 
L 229.244473 -185.046923 
L 230.235547 -186.487459 
L 231.076185 -187.927994 
L 230.986911 -189.368529 
L 229.530518 -190.809065 
L 226.761763 -192.2496 
L 223.181786 -193.690135 
L 219.518342 -195.130671 
L 216.436753 -196.571206 
L 214.326231 -198.011741 
L 213.258097 -199.452277 
L 213.103563 -200.892812 
L 213.709066 -202.333347 
L 215.014172 -203.773882 
L 217.056654 -205.214418 
L 219.893649 -206.654953 
L 223.518346 -208.095488 
L 227.833522 -209.536024 
L 232.677173 -210.976559 
L 237.85006 -212.417094 
L 243.116671 -213.85763 
L 248.205129 -215.298165 
L 252.8439 -216.7387 
L 256.828011 -218.179236 
L 260.065955 -219.619771 
L 262.573468 -221.060306 
L 272.729657 -221.060306 
L 272.729657 -221.060306 
L 275.23717 -219.619771 
L 278.475114 -218.179236 
L 282.459225 -216.7387 
L 287.097996 -215.298165 
L 292.186454 -213.85763 
L 297.453065 -212.417094 
L 302.625952 -210.976559 
L 307.469603 -209.536024 
L 311.784779 -208.095488 
L 315.409476 -206.654953 
L 318.246471 -205.214418 
L 320.288953 -203.773882 
L 321.594059 -202.333347 
L 322.199563 -200.892812 
L 322.045028 -199.452277 
L 320.976894 -198.011741 
L 318.866372 -196.571206 
L 315.784783 -195.130671 
L 312.121339 -193.690135 
L 308.541362 -192.2496 
L 305.772607 -190.809065 
L 304.316214 -189.368529 
L 304.22694 -187.927994 
L 305.067578 -186.487459 
L 306.058652 -185.046923 
L 306.367118 -183.606388 
L 305.419675 -182.165853 
L 303.100204 -180.725318 
L 299.735653 -179.284782 
L 295.893561 -177.844247 
L 292.125206 -176.403712 
L 288.796552 -174.963176 
L 286.059087 -173.522641 
L 283.917868 -172.082106 
L 282.32484 -170.64157 
L 281.246214 -169.201035 
L 280.677347 -167.7605 
L 280.600886 -166.319964 
L 280.920738 -164.879429 
L 281.434344 -163.438894 
L 281.882406 -161.998359 
L 282.045484 -160.557823 
L 281.814501 -159.117288 
L 281.194855 -157.676753 
L 280.267474 -156.236217 
L 279.150486 -154.795682 
L 277.976346 -153.355147 
L 276.874728 -151.914611 
L 275.957636 -150.474076 
L 275.31193 -149.033541 
L 274.993778 -147.593005 
L 275.010722 -146.15247 
L 275.294445 -144.711935 
L 275.693681 -143.271399 
L 276.014448 -141.830864 
L 276.096519 -140.390329 
L 275.87745 -138.949794 
L 275.400487 -137.509258 
L 274.769727 -136.068723 
L 274.09819 -134.628188 
L 273.488549 -133.187652 
L 273.04204 -131.747117 
L 272.858667 -130.306582 
L 273.003848 -128.866046 
L 273.456897 -127.425511 
L 274.085111 -125.984976 
L 274.678545 -124.54444 
L 275.038697 -123.103905 
L 275.068856 -121.66337 
L 274.803858 -120.222835 
L 274.358624 -118.782299 
L 273.836997 -117.341764 
L 273.269962 -115.901229 
L 272.622954 -114.460693 
L 271.855414 -113.020158 
L 270.979924 -111.579623 
L 270.076375 -110.139087 
L 269.255945 -108.698552 
L 268.606734 -107.258017 
L 268.159945 -105.817481 
L 267.892382 -104.376946 
L 267.752775 -102.936411 
L 267.689226 -101.495875 
L 267.663979 -100.05534 
L 267.655321 -98.614805 
L 267.653225 -97.17427 
L 267.654756 -95.733734 
L 267.662188 -94.293199 
L 267.684621 -92.852664 
L 267.742527 -91.412128 
L 267.872367 -89.971593 
L 268.12466 -88.531058 
L 268.54708 -87.090522 
L 269.150491 -85.649987 
L 269.872205 -84.209452 
L 270.566051 -82.768916 
L 271.043054 -81.328381 
L 271.153117 -79.887846 
L 270.860675 -78.447311 
z
" style="stroke: #656565; stroke-width: 1.875"/>
    </defs>
    <g clip-path="url(#pd6f2ddb517)">
     <use xlink:href="#md6180529c3" x="0" y="298.919953" style="fill: #f06292; stroke: #656565; stroke-width: 1.875"/>
    </g>
   </g>
   <g id="FillBetweenPolyCollection_3">
    <defs>
     <path id="m48fbcf06bf" d="M 408.14141 -79.343595 
L 399.901715 -79.343595 
L 399.263529 -81.012154 
L 398.945932 -82.680714 
L 398.970047 -84.349274 
L 399.240295 -86.017833 
L 399.577502 -87.686393 
L 399.794322 -89.354952 
L 399.775921 -91.023512 
L 399.523705 -92.692071 
L 399.140082 -94.360631 
L 398.765531 -96.029191 
L 398.50456 -97.69775 
L 398.379411 -99.36631 
L 398.330262 -101.034869 
L 398.253046 -102.703429 
L 398.047975 -104.371989 
L 397.651769 -106.040548 
L 397.041382 -107.709108 
L 396.216845 -109.377667 
L 395.184219 -111.046227 
L 393.957211 -112.714786 
L 392.577638 -114.383346 
L 391.134019 -116.051906 
L 389.753948 -117.720465 
L 388.566058 -119.389025 
L 387.654723 -121.057584 
L 387.038613 -122.726144 
L 386.684448 -124.394703 
L 386.539424 -126.063263 
L 386.556667 -127.731823 
L 386.702906 -129.400382 
L 386.956094 -131.068942 
L 387.302603 -132.737501 
L 387.731684 -134.406061 
L 388.219094 -136.07462 
L 388.703133 -137.74318 
L 389.072005 -139.41174 
L 389.180253 -141.080299 
L 388.890939 -142.748859 
L 388.120119 -144.417418 
L 386.861992 -146.085978 
L 385.192998 -147.754537 
L 383.266385 -149.423097 
L 381.300122 -151.091657 
L 379.544035 -152.760216 
L 378.213422 -154.428776 
L 377.403685 -156.097335 
L 377.031058 -157.765895 
L 376.84622 -159.434455 
L 376.530173 -161.103014 
L 375.827994 -162.771574 
L 374.645891 -164.440133 
L 373.056538 -166.108693 
L 371.216006 -167.777252 
L 369.250861 -169.445812 
L 367.187366 -171.114372 
L 364.961107 -172.782931 
L 362.493 -174.451491 
L 359.7808 -176.12005 
L 356.95118 -177.78861 
L 354.244131 -179.457169 
L 351.943209 -181.125729 
L 350.296838 -182.794289 
L 349.473563 -184.462848 
L 349.557144 -186.131408 
L 350.549011 -187.799967 
L 352.345577 -189.468527 
L 354.699148 -191.137086 
L 357.210743 -192.805646 
L 359.397168 -194.474206 
L 360.825021 -196.142765 
L 361.254883 -197.811325 
L 360.728129 -199.479884 
L 359.55654 -201.148444 
L 358.216118 -202.817003 
L 357.181372 -204.485563 
L 356.759101 -206.154123 
L 356.986417 -207.822682 
L 357.638333 -209.491242 
L 358.346831 -211.159801 
L 358.784001 -212.828361 
L 358.830211 -214.496921 
L 358.649034 -216.16548 
L 358.626827 -217.83404 
L 359.19842 -219.502599 
L 360.64496 -221.171159 
L 362.973325 -222.839718 
L 365.940342 -224.508278 
L 369.192852 -226.176838 
L 372.425265 -227.845397 
L 375.464007 -229.513957 
L 378.259664 -231.182516 
L 380.834746 -232.851076 
L 383.243875 -234.519635 
L 385.562085 -236.188195 
L 387.877073 -237.856755 
L 390.260639 -239.525314 
L 392.725243 -241.193874 
L 395.197058 -242.862433 
L 397.531485 -244.530993 
L 410.51164 -244.530993 
L 410.51164 -244.530993 
L 412.846067 -242.862433 
L 415.317882 -241.193874 
L 417.782486 -239.525314 
L 420.166052 -237.856755 
L 422.48104 -236.188195 
L 424.79925 -234.519635 
L 427.208379 -232.851076 
L 429.783461 -231.182516 
L 432.579118 -229.513957 
L 435.61786 -227.845397 
L 438.850273 -226.176838 
L 442.102783 -224.508278 
L 445.0698 -222.839718 
L 447.398165 -221.171159 
L 448.844705 -219.502599 
L 449.416298 -217.83404 
L 449.394091 -216.16548 
L 449.212914 -214.496921 
L 449.259124 -212.828361 
L 449.696294 -211.159801 
L 450.404792 -209.491242 
L 451.056708 -207.822682 
L 451.284024 -206.154123 
L 450.861753 -204.485563 
L 449.827007 -202.817003 
L 448.486585 -201.148444 
L 447.314996 -199.479884 
L 446.788242 -197.811325 
L 447.218104 -196.142765 
L 448.645957 -194.474206 
L 450.832382 -192.805646 
L 453.343977 -191.137086 
L 455.697548 -189.468527 
L 457.494114 -187.799967 
L 458.485981 -186.131408 
L 458.569563 -184.462848 
L 457.746287 -182.794289 
L 456.099916 -181.125729 
L 453.798994 -179.457169 
L 451.091945 -177.78861 
L 448.262325 -176.12005 
L 445.550125 -174.451491 
L 443.082018 -172.782931 
L 440.855759 -171.114372 
L 438.792264 -169.445812 
L 436.827119 -167.777252 
L 434.986587 -166.108693 
L 433.397234 -164.440133 
L 432.215131 -162.771574 
L 431.512952 -161.103014 
L 431.196905 -159.434455 
L 431.012067 -157.765895 
L 430.63944 -156.097335 
L 429.829703 -154.428776 
L 428.49909 -152.760216 
L 426.743003 -151.091657 
L 424.77674 -149.423097 
L 422.850127 -147.754537 
L 421.181133 -146.085978 
L 419.923006 -144.417418 
L 419.152186 -142.748859 
L 418.862872 -141.080299 
L 418.97112 -139.41174 
L 419.339992 -137.74318 
L 419.824031 -136.07462 
L 420.311441 -134.406061 
L 420.740522 -132.737501 
L 421.087031 -131.068942 
L 421.340219 -129.400382 
L 421.486458 -127.731823 
L 421.503701 -126.063263 
L 421.358677 -124.394703 
L 421.004512 -122.726144 
L 420.388402 -121.057584 
L 419.477067 -119.389025 
L 418.289177 -117.720465 
L 416.909106 -116.051906 
L 415.465487 -114.383346 
L 414.085914 -112.714786 
L 412.858906 -111.046227 
L 411.82628 -109.377667 
L 411.001743 -107.709108 
L 410.391356 -106.040548 
L 409.99515 -104.371989 
L 409.790079 -102.703429 
L 409.712863 -101.034869 
L 409.663714 -99.36631 
L 409.538565 -97.69775 
L 409.277594 -96.029191 
L 408.903043 -94.360631 
L 408.51942 -92.692071 
L 408.267204 -91.023512 
L 408.248803 -89.354952 
L 408.465623 -87.686393 
L 408.80283 -86.017833 
L 409.073078 -84.349274 
L 409.097193 -82.680714 
L 408.779596 -81.012154 
L 408.14141 -79.343595 
z
" style="stroke: #656565; stroke-width: 1.875"/>
    </defs>
    <g clip-path="url(#pd6f2ddb517)">
     <use xlink:href="#m48fbcf06bf" x="0" y="298.919953" style="fill: #f06292; stroke: #656565; stroke-width: 1.875"/>
    </g>
   </g>
   <g id="line2d_5">
    <path d="M 131.281563 234.454415 
L 131.281563 108.161455 
" clip-path="url(#pd6f2ddb517)" style="fill: none; stroke: #656565; stroke-width: 2.8125; stroke-linecap: round"/>
   </g>
   <g id="line2d_6">
    <path d="M 131.281563 180.600903 
L 131.281563 144.675752 
" clip-path="url(#pd6f2ddb517)" style="fill: none; stroke: #656565; stroke-width: 8.4375; stroke-linecap: round"/>
   </g>
   <g id="line2d_7">
    <path d="M 131.281563 161.852469 
" clip-path="url(#pd6f2ddb517)" style="fill: none; stroke: #656565; stroke-width: 2.25; stroke-linecap: round"/>
    <defs>
     <path id="m85e7c6d7c8" d="M 3.515625 0 
L -3.515625 -0 
" style="stroke: #ffffff; stroke-width: 1.6875"/>
    </defs>
    <g clip-path="url(#pd6f2ddb517)">
     <use xlink:href="#m85e7c6d7c8" x="131.281563" y="161.852469" style="fill: #ffffff; stroke: #ffffff; stroke-width: 1.6875"/>
    </g>
   </g>
   <g id="line2d_8">
    <path d="M 267.651563 170.089112 
L 267.651563 77.859647 
" clip-path="url(#pd6f2ddb517)" style="fill: none; stroke: #656565; stroke-width: 2.8125; stroke-linecap: round"/>
   </g>
   <g id="line2d_9">
    <path d="M 267.651563 125.910017 
L 267.651563 96.450219 
" clip-path="url(#pd6f2ddb517)" style="fill: none; stroke: #656565; stroke-width: 8.4375; stroke-linecap: round"/>
   </g>
   <g id="line2d_10">
    <path d="M 267.651563 107.650923 
" clip-path="url(#pd6f2ddb517)" style="fill: none; stroke: #656565; stroke-width: 2.25; stroke-linecap: round"/>
    <g clip-path="url(#pd6f2ddb517)">
     <use xlink:href="#m85e7c6d7c8" x="267.651563" y="107.650923" style="fill: #ffffff; stroke: #ffffff; stroke-width: 1.6875"/>
    </g>
   </g>
   <g id="line2d_11">
    <path d="M 404.021563 214.168336 
L 404.021563 54.38896 
" clip-path="url(#pd6f2ddb517)" style="fill: none; stroke: #656565; stroke-width: 2.8125; stroke-linecap: round"/>
   </g>
   <g id="line2d_12">
    <path d="M 404.021563 139.13349 
L 404.021563 89.109005 
" clip-path="url(#pd6f2ddb517)" style="fill: none; stroke: #656565; stroke-width: 8.4375; stroke-linecap: round"/>
   </g>
   <g id="line2d_13">
    <path d="M 404.021563 111.798479 
" clip-path="url(#pd6f2ddb517)" style="fill: none; stroke: #656565; stroke-width: 2.25; stroke-linecap: round"/>
    <g clip-path="url(#pd6f2ddb517)">
     <use xlink:href="#m85e7c6d7c8" x="404.021563" y="111.798479" style="fill: #ffffff; stroke: #ffffff; stroke-width: 1.6875"/>
    </g>
   </g>
   <g id="patch_3">
    <path d="M 63.096563 243.457687 
L 63.096563 45.385687 
" style="fill: none; stroke: #cccccc; stroke-width: 1.875; stroke-linejoin: miter; stroke-linecap: square"/>
   </g>
   <g id="patch_4">
    <path d="M 472.206563 243.457687 
L 472.206563 45.385687 
" style="fill: none; stroke: #cccccc; stroke-width: 1.875; stroke-linejoin: miter; stroke-linecap: square"/>
   </g>
   <g id="patch_5">
    <path d="M 63.096563 243.457688 
L 472.206563 243.457688 
" style="fill: none; stroke: #cccccc; stroke-width: 1.875; stroke-linejoin: miter; stroke-linecap: square"/>
   </g>
   <g id="patch_6">
    <path d="M 63.096563 45.385687 
L 472.206563 45.385687 
" style="fill: none; stroke: #cccccc; stroke-width: 1.875; stroke-linejoin: miter; stroke-linecap: square"/>
   </g>
   <g id="text_10">
    <!-- Equivariance over rotations: -->
    <g style="fill: #262626" transform="translate(156.099375 20.084062) scale(0.18 -0.18)">
     <defs>
      <path id="ArialMT-45" d="M 506 0 
L 506 4581 
L 3819 4581 
L 3819 4041 
L 1113 4041 
L 1113 2638 
L 3647 2638 
L 3647 2100 
L 1113 2100 
L 1113 541 
L 3925 541 
L 3925 0 
L 506 0 
z
" transform="scale(0.015625)"/>
      <path id="ArialMT-73" d="M 197 991 
L 753 1078 
Q 800 744 1014 566 
Q 1228 388 1613 388 
Q 2000 388 2187 545 
Q 2375 703 2375 916 
Q 2375 1106 2209 1216 
Q 2094 1291 1634 1406 
Q 1016 1563 777 1677 
Q 538 1791 414 1992 
Q 291 2194 291 2438 
Q 291 2659 392 2848 
Q 494 3038 669 3163 
Q 800 3259 1026 3326 
Q 1253 3394 1513 3394 
Q 1903 3394 2198 3281 
Q 2494 3169 2634 2976 
Q 2775 2784 2828 2463 
L 2278 2388 
Q 2241 2644 2061 2787 
Q 1881 2931 1553 2931 
Q 1166 2931 1000 2803 
Q 834 2675 834 2503 
Q 834 2394 903 2306 
Q 972 2216 1119 2156 
Q 1203 2125 1616 2013 
Q 2213 1853 2448 1751 
Q 2684 1650 2818 1456 
Q 2953 1263 2953 975 
Q 2953 694 2789 445 
Q 2625 197 2315 61 
Q 2006 -75 1616 -75 
Q 969 -75 630 194 
Q 291 463 197 991 
z
" transform="scale(0.015625)"/>
      <path id="ArialMT-3a" d="M 578 2678 
L 578 3319 
L 1219 3319 
L 1219 2678 
L 578 2678 
z
M 578 0 
L 578 641 
L 1219 641 
L 1219 0 
L 578 0 
z
" transform="scale(0.015625)"/>
     </defs>
     <use xlink:href="#ArialMT-45"/>
     <use xlink:href="#ArialMT-71" transform="translate(66.699219 0)"/>
     <use xlink:href="#ArialMT-75" transform="translate(122.314453 0)"/>
     <use xlink:href="#ArialMT-69" transform="translate(177.929688 0)"/>
     <use xlink:href="#ArialMT-76" transform="translate(200.146484 0)"/>
     <use xlink:href="#ArialMT-61" transform="translate(250.146484 0)"/>
     <use xlink:href="#ArialMT-72" transform="translate(305.761719 0)"/>
     <use xlink:href="#ArialMT-69" transform="translate(339.0625 0)"/>
     <use xlink:href="#ArialMT-61" transform="translate(361.279297 0)"/>
     <use xlink:href="#ArialMT-6e" transform="translate(416.894531 0)"/>
     <use xlink:href="#ArialMT-63" transform="translate(472.509766 0)"/>
     <use xlink:href="#ArialMT-65" transform="translate(522.509766 0)"/>
     <use xlink:href="#ArialMT-20" transform="translate(578.125 0)"/>
     <use xlink:href="#ArialMT-6f" transform="translate(605.908203 0)"/>
     <use xlink:href="#ArialMT-76" transform="translate(661.523438 0)"/>
     <use xlink:href="#ArialMT-65" transform="translate(711.523438 0)"/>
     <use xlink:href="#ArialMT-72" transform="translate(767.138672 0)"/>
     <use xlink:href="#ArialMT-20" transform="translate(800.439453 0)"/>
     <use xlink:href="#ArialMT-72" transform="translate(828.222656 0)"/>
     <use xlink:href="#ArialMT-6f" transform="translate(861.523438 0)"/>
     <use xlink:href="#ArialMT-74" transform="translate(917.138672 0)"/>
     <use xlink:href="#ArialMT-61" transform="translate(944.921875 0)"/>
     <use xlink:href="#ArialMT-74" transform="translate(1000.537109 0)"/>
     <use xlink:href="#ArialMT-69" transform="translate(1028.320312 0)"/>
     <use xlink:href="#ArialMT-6f" transform="translate(1050.537109 0)"/>
     <use xlink:href="#ArialMT-6e" transform="translate(1106.152344 0)"/>
     <use xlink:href="#ArialMT-73" transform="translate(1161.767578 0)"/>
     <use xlink:href="#ArialMT-3a" transform="translate(1211.767578 0)"/>
    </g>
    <!-- Strawberry with augmentation -->
    <g style="fill: #262626" transform="translate(148.602656 39.385687) scale(0.18 -0.18)">
     <defs>
      <path id="ArialMT-53" d="M 288 1472 
L 859 1522 
Q 900 1178 1048 958 
Q 1197 738 1509 602 
Q 1822 466 2213 466 
Q 2559 466 2825 569 
Q 3091 672 3220 851 
Q 3350 1031 3350 1244 
Q 3350 1459 3225 1620 
Q 3100 1781 2813 1891 
Q 2628 1963 1997 2114 
Q 1366 2266 1113 2400 
Q 784 2572 623 2826 
Q 463 3081 463 3397 
Q 463 3744 659 4045 
Q 856 4347 1234 4503 
Q 1613 4659 2075 4659 
Q 2584 4659 2973 4495 
Q 3363 4331 3572 4012 
Q 3781 3694 3797 3291 
L 3216 3247 
Q 3169 3681 2898 3903 
Q 2628 4125 2100 4125 
Q 1550 4125 1298 3923 
Q 1047 3722 1047 3438 
Q 1047 3191 1225 3031 
Q 1400 2872 2139 2705 
Q 2878 2538 3153 2413 
Q 3553 2228 3743 1945 
Q 3934 1663 3934 1294 
Q 3934 928 3725 604 
Q 3516 281 3123 101 
Q 2731 -78 2241 -78 
Q 1619 -78 1198 103 
Q 778 284 539 648 
Q 300 1013 288 1472 
z
" transform="scale(0.015625)"/>
      <path id="ArialMT-77" d="M 1034 0 
L 19 3319 
L 600 3319 
L 1128 1403 
L 1325 691 
Q 1338 744 1497 1375 
L 2025 3319 
L 2603 3319 
L 3100 1394 
L 3266 759 
L 3456 1400 
L 4025 3319 
L 4572 3319 
L 3534 0 
L 2950 0 
L 2422 1988 
L 2294 2553 
L 1622 0 
L 1034 0 
z
" transform="scale(0.015625)"/>
      <path id="ArialMT-62" d="M 941 0 
L 419 0 
L 419 4581 
L 981 4581 
L 981 2947 
Q 1338 3394 1891 3394 
Q 2197 3394 2470 3270 
Q 2744 3147 2920 2923 
Q 3097 2700 3197 2384 
Q 3297 2069 3297 1709 
Q 3297 856 2875 390 
Q 2453 -75 1863 -75 
Q 1275 -75 941 416 
L 941 0 
z
M 934 1684 
Q 934 1088 1097 822 
Q 1363 388 1816 388 
Q 2184 388 2453 708 
Q 2722 1028 2722 1663 
Q 2722 2313 2464 2622 
Q 2206 2931 1841 2931 
Q 1472 2931 1203 2611 
Q 934 2291 934 1684 
z
" transform="scale(0.015625)"/>
      <path id="ArialMT-68" d="M 422 0 
L 422 4581 
L 984 4581 
L 984 2938 
Q 1378 3394 1978 3394 
Q 2347 3394 2619 3248 
Q 2891 3103 3008 2847 
Q 3125 2591 3125 2103 
L 3125 0 
L 2563 0 
L 2563 2103 
Q 2563 2525 2380 2717 
Q 2197 2909 1863 2909 
Q 1613 2909 1392 2779 
Q 1172 2650 1078 2428 
Q 984 2206 984 1816 
L 984 0 
L 422 0 
z
" transform="scale(0.015625)"/>
      <path id="ArialMT-67" d="M 319 -275 
L 866 -356 
Q 900 -609 1056 -725 
Q 1266 -881 1628 -881 
Q 2019 -881 2231 -725 
Q 2444 -569 2519 -288 
Q 2563 -116 2559 434 
Q 2191 0 1641 0 
Q 956 0 581 494 
Q 206 988 206 1678 
Q 206 2153 378 2554 
Q 550 2956 876 3175 
Q 1203 3394 1644 3394 
Q 2231 3394 2613 2919 
L 2613 3319 
L 3131 3319 
L 3131 450 
Q 3131 -325 2973 -648 
Q 2816 -972 2473 -1159 
Q 2131 -1347 1631 -1347 
Q 1038 -1347 672 -1080 
Q 306 -813 319 -275 
z
M 784 1719 
Q 784 1066 1043 766 
Q 1303 466 1694 466 
Q 2081 466 2343 764 
Q 2606 1063 2606 1700 
Q 2606 2309 2336 2618 
Q 2066 2928 1684 2928 
Q 1309 2928 1046 2623 
Q 784 2319 784 1719 
z
" transform="scale(0.015625)"/>
      <path id="ArialMT-6d" d="M 422 0 
L 422 3319 
L 925 3319 
L 925 2853 
Q 1081 3097 1340 3245 
Q 1600 3394 1931 3394 
Q 2300 3394 2536 3241 
Q 2772 3088 2869 2813 
Q 3263 3394 3894 3394 
Q 4388 3394 4653 3120 
Q 4919 2847 4919 2278 
L 4919 0 
L 4359 0 
L 4359 2091 
Q 4359 2428 4304 2576 
Q 4250 2725 4106 2815 
Q 3963 2906 3769 2906 
Q 3419 2906 3187 2673 
Q 2956 2441 2956 1928 
L 2956 0 
L 2394 0 
L 2394 2156 
Q 2394 2531 2256 2718 
Q 2119 2906 1806 2906 
Q 1569 2906 1367 2781 
Q 1166 2656 1075 2415 
Q 984 2175 984 1722 
L 984 0 
L 422 0 
z
" transform="scale(0.015625)"/>
     </defs>
     <use xlink:href="#ArialMT-53"/>
     <use xlink:href="#ArialMT-74" transform="translate(66.699219 0)"/>
     <use xlink:href="#ArialMT-72" transform="translate(94.482422 0)"/>
     <use xlink:href="#ArialMT-61" transform="translate(127.783203 0)"/>
     <use xlink:href="#ArialMT-77" transform="translate(183.398438 0)"/>
     <use xlink:href="#ArialMT-62" transform="translate(255.615234 0)"/>
     <use xlink:href="#ArialMT-65" transform="translate(311.230469 0)"/>
     <use xlink:href="#ArialMT-72" transform="translate(366.845703 0)"/>
     <use xlink:href="#ArialMT-72" transform="translate(400.146484 0)"/>
     <use xlink:href="#ArialMT-79" transform="translate(433.447266 0)"/>
     <use xlink:href="#ArialMT-20" transform="translate(483.447266 0)"/>
     <use xlink:href="#ArialMT-77" transform="translate(511.230469 0)"/>
     <use xlink:href="#ArialMT-69" transform="translate(583.447266 0)"/>
     <use xlink:href="#ArialMT-74" transform="translate(605.664062 0)"/>
     <use xlink:href="#ArialMT-68" transform="translate(633.447266 0)"/>
     <use xlink:href="#ArialMT-20" transform="translate(689.0625 0)"/>
     <use xlink:href="#ArialMT-61" transform="translate(716.845703 0)"/>
     <use xlink:href="#ArialMT-75" transform="translate(772.460938 0)"/>
     <use xlink:href="#ArialMT-67" transform="translate(828.076172 0)"/>
     <use xlink:href="#ArialMT-6d" transform="translate(883.691406 0)"/>
     <use xlink:href="#ArialMT-65" transform="translate(966.992188 0)"/>
     <use xlink:href="#ArialMT-6e" transform="translate(1022.607422 0)"/>
     <use xlink:href="#ArialMT-74" transform="translate(1078.222656 0)"/>
     <use xlink:href="#ArialMT-61" transform="translate(1106.005859 0)"/>
     <use xlink:href="#ArialMT-74" transform="translate(1161.621094 0)"/>
     <use xlink:href="#ArialMT-69" transform="translate(1189.404297 0)"/>
     <use xlink:href="#ArialMT-6f" transform="translate(1211.621094 0)"/>
     <use xlink:href="#ArialMT-6e" transform="translate(1267.236328 0)"/>
    </g>
   </g>
  </g>
 </g>
 <defs>
  <clipPath id="pd6f2ddb517">
   <rect x="63.096563" y="45.385687" width="409.11" height="198.072"/>
  </clipPath>
 </defs>
</svg>
