<?xml version="1.0" encoding="utf-8" standalone="no"?>
<!DOCTYPE svg PUBLIC "-//W3C//DTD SVG 1.1//EN"
  "http://www.w3.org/Graphics/SVG/1.1/DTD/svg11.dtd">
<svg xmlns:xlink="http://www.w3.org/1999/xlink" width="479.406563pt" height="298.837266pt" viewBox="0 0 479.406563 298.837266" xmlns="http://www.w3.org/2000/svg" version="1.1">
 <metadata>
  <rdf:RDF xmlns:dc="http://purl.org/dc/elements/1.1/" xmlns:cc="http://creativecommons.org/ns#" xmlns:rdf="http://www.w3.org/1999/02/22-rdf-syntax-ns#">
   <cc:Work>
    <dc:type rdf:resource="http://purl.org/dc/dcmitype/StillImage"/>
    <dc:date>2025-12-09T18:13:32.116264</dc:date>
    <dc:format>image/svg+xml</dc:format>
    <dc:creator>
     <cc:Agent>
      <dc:title>Matplotlib v3.10.7, https://matplotlib.org/</dc:title>
     </cc:Agent>
    </dc:creator>
   </cc:Work>
  </rdf:RDF>
 </metadata>
 <defs>
  <style type="text/css">*{stroke-linejoin: round; stroke-linecap: butt}</style>
 </defs>
 <g id="figure_1">
  <g id="patch_1">
   <path d="M 0 298.837266 
L 479.406563 298.837266 
L 479.406563 0 
L 0 0 
z
" style="fill: #ffffff"/>
  </g>
  <g id="axes_1">
   <g id="patch_2">
    <path d="M 63.096563 243.375 
L 472.206563 243.375 
L 472.206563 64.635 
L 63.096563 64.635 
z
" style="fill: #ffffff"/>
   </g>
   <g id="matplotlib.axis_1">
    <g id="xtick_1">
     <g id="text_1">
      <!-- 0 -->
      <g style="fill: #262626" transform="translate(126.693789 267.685391) scale(0.165 -0.165)">
       <defs>
        <path id="ArialMT-30" d="M 266 2259 
Q 266 3072 433 3567 
Q 600 4063 929 4331 
Q 1259 4600 1759 4600 
Q 2128 4600 2406 4451 
Q 2684 4303 2865 4023 
Q 3047 3744 3150 3342 
Q 3253 2941 3253 2259 
Q 3253 1453 3087 958 
Q 2922 463 2592 192 
Q 2263 -78 1759 -78 
Q 1097 -78 719 397 
Q 266 969 266 2259 
z
M 844 2259 
Q 844 1131 1108 757 
Q 1372 384 1759 384 
Q 2147 384 2411 759 
Q 2675 1134 2675 2259 
Q 2675 3391 2411 3762 
Q 2147 4134 1753 4134 
Q 1366 4134 1134 3806 
Q 844 3388 844 2259 
z
" transform="scale(0.015625)"/>
       </defs>
       <use xlink:href="#ArialMT-30"/>
      </g>
     </g>
    </g>
    <g id="xtick_2">
     <g id="text_2">
      <!-- 1 -->
      <g style="fill: #262626" transform="translate(263.063789 267.685391) scale(0.165 -0.165)">
       <defs>
        <path id="ArialMT-31" d="M 2384 0 
L 1822 0 
L 1822 3584 
Q 1619 3391 1289 3197 
Q 959 3003 697 2906 
L 697 3450 
Q 1169 3672 1522 3987 
Q 1875 4303 2022 4600 
L 2384 4600 
L 2384 0 
z
" transform="scale(0.015625)"/>
       </defs>
       <use xlink:href="#ArialMT-31"/>
      </g>
     </g>
    </g>
    <g id="xtick_3">
     <g id="text_3">
      <!-- 2 -->
      <g style="fill: #262626" transform="translate(399.433789 267.685391) scale(0.165 -0.165)">
       <defs>
        <path id="ArialMT-32" d="M 3222 541 
L 3222 0 
L 194 0 
Q 188 203 259 391 
Q 375 700 629 1000 
Q 884 1300 1366 1694 
Q 2113 2306 2375 2664 
Q 2638 3022 2638 3341 
Q 2638 3675 2398 3904 
Q 2159 4134 1775 4134 
Q 1369 4134 1125 3890 
Q 881 3647 878 3216 
L 300 3275 
Q 359 3922 746 4261 
Q 1134 4600 1788 4600 
Q 2447 4600 2831 4234 
Q 3216 3869 3216 3328 
Q 3216 3053 3103 2787 
Q 2991 2522 2730 2228 
Q 2469 1934 1863 1422 
Q 1356 997 1212 845 
Q 1069 694 975 541 
L 3222 541 
z
" transform="scale(0.015625)"/>
       </defs>
       <use xlink:href="#ArialMT-32"/>
      </g>
     </g>
    </g>
    <g id="text_4">
     <!-- Layer -->
     <g style="fill: #262626" transform="translate(245.140313 287.848828) scale(0.18 -0.18)">
      <defs>
       <path id="ArialMT-4c" d="M 469 0 
L 469 4581 
L 1075 4581 
L 1075 541 
L 3331 541 
L 3331 0 
L 469 0 
z
" transform="scale(0.015625)"/>
       <path id="ArialMT-61" d="M 2588 409 
Q 2275 144 1986 34 
Q 1697 -75 1366 -75 
Q 819 -75 525 192 
Q 231 459 231 875 
Q 231 1119 342 1320 
Q 453 1522 633 1644 
Q 813 1766 1038 1828 
Q 1203 1872 1538 1913 
Q 2219 1994 2541 2106 
Q 2544 2222 2544 2253 
Q 2544 2597 2384 2738 
Q 2169 2928 1744 2928 
Q 1347 2928 1158 2789 
Q 969 2650 878 2297 
L 328 2372 
Q 403 2725 575 2942 
Q 747 3159 1072 3276 
Q 1397 3394 1825 3394 
Q 2250 3394 2515 3294 
Q 2781 3194 2906 3042 
Q 3031 2891 3081 2659 
Q 3109 2516 3109 2141 
L 3109 1391 
Q 3109 606 3145 398 
Q 3181 191 3288 0 
L 2700 0 
Q 2613 175 2588 409 
z
M 2541 1666 
Q 2234 1541 1622 1453 
Q 1275 1403 1131 1340 
Q 988 1278 909 1158 
Q 831 1038 831 891 
Q 831 666 1001 516 
Q 1172 366 1500 366 
Q 1825 366 2078 508 
Q 2331 650 2450 897 
Q 2541 1088 2541 1459 
L 2541 1666 
z
" transform="scale(0.015625)"/>
       <path id="ArialMT-79" d="M 397 -1278 
L 334 -750 
Q 519 -800 656 -800 
Q 844 -800 956 -737 
Q 1069 -675 1141 -563 
Q 1194 -478 1313 -144 
Q 1328 -97 1363 -6 
L 103 3319 
L 709 3319 
L 1400 1397 
Q 1534 1031 1641 628 
Q 1738 1016 1872 1384 
L 2581 3319 
L 3144 3319 
L 1881 -56 
Q 1678 -603 1566 -809 
Q 1416 -1088 1222 -1217 
Q 1028 -1347 759 -1347 
Q 597 -1347 397 -1278 
z
" transform="scale(0.015625)"/>
       <path id="ArialMT-65" d="M 2694 1069 
L 3275 997 
Q 3138 488 2766 206 
Q 2394 -75 1816 -75 
Q 1088 -75 661 373 
Q 234 822 234 1631 
Q 234 2469 665 2931 
Q 1097 3394 1784 3394 
Q 2450 3394 2872 2941 
Q 3294 2488 3294 1666 
Q 3294 1616 3291 1516 
L 816 1516 
Q 847 969 1125 678 
Q 1403 388 1819 388 
Q 2128 388 2347 550 
Q 2566 713 2694 1069 
z
M 847 1978 
L 2700 1978 
Q 2663 2397 2488 2606 
Q 2219 2931 1791 2931 
Q 1403 2931 1139 2672 
Q 875 2413 847 1978 
z
" transform="scale(0.015625)"/>
       <path id="ArialMT-72" d="M 416 0 
L 416 3319 
L 922 3319 
L 922 2816 
Q 1116 3169 1280 3281 
Q 1444 3394 1641 3394 
Q 1925 3394 2219 3213 
L 2025 2691 
Q 1819 2813 1613 2813 
Q 1428 2813 1281 2702 
Q 1134 2591 1072 2394 
Q 978 2094 978 1738 
L 978 0 
L 416 0 
z
" transform="scale(0.015625)"/>
      </defs>
      <use xlink:href="#ArialMT-4c"/>
      <use xlink:href="#ArialMT-61" transform="translate(55.615234 0)"/>
      <use xlink:href="#ArialMT-79" transform="translate(111.230469 0)"/>
      <use xlink:href="#ArialMT-65" transform="translate(161.230469 0)"/>
      <use xlink:href="#ArialMT-72" transform="translate(216.845703 0)"/>
     </g>
    </g>
   </g>
   <g id="matplotlib.axis_2">
    <g id="ytick_1">
     <g id="line2d_1">
      <path d="M 63.096563 236.089063 
L 472.206563 236.089063 
" clip-path="url(#p4e81f62f91)" style="fill: none; stroke: #cccccc; stroke-width: 1.5; stroke-linecap: round"/>
     </g>
     <g id="text_5">
      <!-- 0.0 -->
      <g style="fill: #262626" transform="translate(27.661563 241.994258) scale(0.165 -0.165)">
       <defs>
        <path id="ArialMT-2e" d="M 581 0 
L 581 641 
L 1222 641 
L 1222 0 
L 581 0 
z
" transform="scale(0.015625)"/>
       </defs>
       <use xlink:href="#ArialMT-30"/>
       <use xlink:href="#ArialMT-2e" transform="translate(55.615234 0)"/>
       <use xlink:href="#ArialMT-30" transform="translate(83.398438 0)"/>
      </g>
     </g>
    </g>
    <g id="ytick_2">
     <g id="line2d_2">
      <path d="M 63.096563 192.705224 
L 472.206563 192.705224 
" clip-path="url(#p4e81f62f91)" style="fill: none; stroke: #cccccc; stroke-width: 1.5; stroke-linecap: round"/>
     </g>
     <g id="text_6">
      <!-- 0.5 -->
      <g style="fill: #262626" transform="translate(27.661563 198.610419) scale(0.165 -0.165)">
       <defs>
        <path id="ArialMT-35" d="M 266 1200 
L 856 1250 
Q 922 819 1161 601 
Q 1400 384 1738 384 
Q 2144 384 2425 690 
Q 2706 997 2706 1503 
Q 2706 1984 2436 2262 
Q 2166 2541 1728 2541 
Q 1456 2541 1237 2417 
Q 1019 2294 894 2097 
L 366 2166 
L 809 4519 
L 3088 4519 
L 3088 3981 
L 1259 3981 
L 1013 2750 
Q 1425 3038 1878 3038 
Q 2478 3038 2890 2622 
Q 3303 2206 3303 1553 
Q 3303 931 2941 478 
Q 2500 -78 1738 -78 
Q 1113 -78 717 272 
Q 322 622 266 1200 
z
" transform="scale(0.015625)"/>
       </defs>
       <use xlink:href="#ArialMT-30"/>
       <use xlink:href="#ArialMT-2e" transform="translate(55.615234 0)"/>
       <use xlink:href="#ArialMT-35" transform="translate(83.398438 0)"/>
      </g>
     </g>
    </g>
    <g id="ytick_3">
     <g id="line2d_3">
      <path d="M 63.096563 149.321385 
L 472.206563 149.321385 
" clip-path="url(#p4e81f62f91)" style="fill: none; stroke: #cccccc; stroke-width: 1.5; stroke-linecap: round"/>
     </g>
     <g id="text_7">
      <!-- 1.0 -->
      <g style="fill: #262626" transform="translate(27.661563 155.22658) scale(0.165 -0.165)">
       <use xlink:href="#ArialMT-31"/>
       <use xlink:href="#ArialMT-2e" transform="translate(55.615234 0)"/>
       <use xlink:href="#ArialMT-30" transform="translate(83.398438 0)"/>
      </g>
     </g>
    </g>
    <g id="ytick_4">
     <g id="line2d_4">
      <path d="M 63.096563 105.937545 
L 472.206563 105.937545 
" clip-path="url(#p4e81f62f91)" style="fill: none; stroke: #cccccc; stroke-width: 1.5; stroke-linecap: round"/>
     </g>
     <g id="text_8">
      <!-- 1.5 -->
      <g style="fill: #262626" transform="translate(27.661563 111.842741) scale(0.165 -0.165)">
       <use xlink:href="#ArialMT-31"/>
       <use xlink:href="#ArialMT-2e" transform="translate(55.615234 0)"/>
       <use xlink:href="#ArialMT-35" transform="translate(83.398438 0)"/>
      </g>
     </g>
    </g>
    <g id="text_9">
     <!-- Relative equivariance error -->
     <g style="fill: #262626" transform="translate(20.084063 261.549375) rotate(-90) scale(0.18 -0.18)">
      <defs>
       <path id="ArialMT-52" d="M 503 0 
L 503 4581 
L 2534 4581 
Q 3147 4581 3465 4457 
Q 3784 4334 3975 4021 
Q 4166 3709 4166 3331 
Q 4166 2844 3850 2509 
Q 3534 2175 2875 2084 
Q 3116 1969 3241 1856 
Q 3506 1613 3744 1247 
L 4541 0 
L 3778 0 
L 3172 953 
Q 2906 1366 2734 1584 
Q 2563 1803 2427 1890 
Q 2291 1978 2150 2013 
Q 2047 2034 1813 2034 
L 1109 2034 
L 1109 0 
L 503 0 
z
M 1109 2559 
L 2413 2559 
Q 2828 2559 3062 2645 
Q 3297 2731 3419 2920 
Q 3541 3109 3541 3331 
Q 3541 3656 3305 3865 
Q 3069 4075 2559 4075 
L 1109 4075 
L 1109 2559 
z
" transform="scale(0.015625)"/>
       <path id="ArialMT-6c" d="M 409 0 
L 409 4581 
L 972 4581 
L 972 0 
L 409 0 
z
" transform="scale(0.015625)"/>
       <path id="ArialMT-74" d="M 1650 503 
L 1731 6 
Q 1494 -44 1306 -44 
Q 1000 -44 831 53 
Q 663 150 594 308 
Q 525 466 525 972 
L 525 2881 
L 113 2881 
L 113 3319 
L 525 3319 
L 525 4141 
L 1084 4478 
L 1084 3319 
L 1650 3319 
L 1650 2881 
L 1084 2881 
L 1084 941 
Q 1084 700 1114 631 
Q 1144 563 1211 522 
Q 1278 481 1403 481 
Q 1497 481 1650 503 
z
" transform="scale(0.015625)"/>
       <path id="ArialMT-69" d="M 425 3934 
L 425 4581 
L 988 4581 
L 988 3934 
L 425 3934 
z
M 425 0 
L 425 3319 
L 988 3319 
L 988 0 
L 425 0 
z
" transform="scale(0.015625)"/>
       <path id="ArialMT-76" d="M 1344 0 
L 81 3319 
L 675 3319 
L 1388 1331 
Q 1503 1009 1600 663 
Q 1675 925 1809 1294 
L 2547 3319 
L 3125 3319 
L 1869 0 
L 1344 0 
z
" transform="scale(0.015625)"/>
       <path id="ArialMT-20" transform="scale(0.015625)"/>
       <path id="ArialMT-71" d="M 2538 -1272 
L 2538 353 
Q 2406 169 2170 47 
Q 1934 -75 1669 -75 
Q 1078 -75 651 397 
Q 225 869 225 1691 
Q 225 2191 398 2587 
Q 572 2984 901 3189 
Q 1231 3394 1625 3394 
Q 2241 3394 2594 2875 
L 2594 3319 
L 3100 3319 
L 3100 -1272 
L 2538 -1272 
z
M 803 1669 
Q 803 1028 1072 708 
Q 1341 388 1716 388 
Q 2075 388 2334 692 
Q 2594 997 2594 1619 
Q 2594 2281 2320 2615 
Q 2047 2950 1678 2950 
Q 1313 2950 1058 2639 
Q 803 2328 803 1669 
z
" transform="scale(0.015625)"/>
       <path id="ArialMT-75" d="M 2597 0 
L 2597 488 
Q 2209 -75 1544 -75 
Q 1250 -75 995 37 
Q 741 150 617 320 
Q 494 491 444 738 
Q 409 903 409 1263 
L 409 3319 
L 972 3319 
L 972 1478 
Q 972 1038 1006 884 
Q 1059 663 1231 536 
Q 1403 409 1656 409 
Q 1909 409 2131 539 
Q 2353 669 2445 892 
Q 2538 1116 2538 1541 
L 2538 3319 
L 3100 3319 
L 3100 0 
L 2597 0 
z
" transform="scale(0.015625)"/>
       <path id="ArialMT-6e" d="M 422 0 
L 422 3319 
L 928 3319 
L 928 2847 
Q 1294 3394 1984 3394 
Q 2284 3394 2536 3286 
Q 2788 3178 2913 3003 
Q 3038 2828 3088 2588 
Q 3119 2431 3119 2041 
L 3119 0 
L 2556 0 
L 2556 2019 
Q 2556 2363 2490 2533 
Q 2425 2703 2258 2804 
Q 2091 2906 1866 2906 
Q 1506 2906 1245 2678 
Q 984 2450 984 1813 
L 984 0 
L 422 0 
z
" transform="scale(0.015625)"/>
       <path id="ArialMT-63" d="M 2588 1216 
L 3141 1144 
Q 3050 572 2676 248 
Q 2303 -75 1759 -75 
Q 1078 -75 664 370 
Q 250 816 250 1647 
Q 250 2184 428 2587 
Q 606 2991 970 3192 
Q 1334 3394 1763 3394 
Q 2303 3394 2647 3120 
Q 2991 2847 3088 2344 
L 2541 2259 
Q 2463 2594 2264 2762 
Q 2066 2931 1784 2931 
Q 1359 2931 1093 2626 
Q 828 2322 828 1663 
Q 828 994 1084 691 
Q 1341 388 1753 388 
Q 2084 388 2306 591 
Q 2528 794 2588 1216 
z
" transform="scale(0.015625)"/>
       <path id="ArialMT-6f" d="M 213 1659 
Q 213 2581 725 3025 
Q 1153 3394 1769 3394 
Q 2453 3394 2887 2945 
Q 3322 2497 3322 1706 
Q 3322 1066 3130 698 
Q 2938 331 2570 128 
Q 2203 -75 1769 -75 
Q 1072 -75 642 372 
Q 213 819 213 1659 
z
M 791 1659 
Q 791 1022 1069 705 
Q 1347 388 1769 388 
Q 2188 388 2466 706 
Q 2744 1025 2744 1678 
Q 2744 2294 2464 2611 
Q 2184 2928 1769 2928 
Q 1347 2928 1069 2612 
Q 791 2297 791 1659 
z
" transform="scale(0.015625)"/>
      </defs>
      <use xlink:href="#ArialMT-52"/>
      <use xlink:href="#ArialMT-65" transform="translate(72.216797 0)"/>
      <use xlink:href="#ArialMT-6c" transform="translate(127.832031 0)"/>
      <use xlink:href="#ArialMT-61" transform="translate(150.048828 0)"/>
      <use xlink:href="#ArialMT-74" transform="translate(205.664062 0)"/>
      <use xlink:href="#ArialMT-69" transform="translate(233.447266 0)"/>
      <use xlink:href="#ArialMT-76" transform="translate(255.664062 0)"/>
      <use xlink:href="#ArialMT-65" transform="translate(305.664062 0)"/>
      <use xlink:href="#ArialMT-20" transform="translate(361.279297 0)"/>
      <use xlink:href="#ArialMT-65" transform="translate(389.0625 0)"/>
      <use xlink:href="#ArialMT-71" transform="translate(444.677734 0)"/>
      <use xlink:href="#ArialMT-75" transform="translate(500.292969 0)"/>
      <use xlink:href="#ArialMT-69" transform="translate(555.908203 0)"/>
      <use xlink:href="#ArialMT-76" transform="translate(578.125 0)"/>
      <use xlink:href="#ArialMT-61" transform="translate(628.125 0)"/>
      <use xlink:href="#ArialMT-72" transform="translate(683.740234 0)"/>
      <use xlink:href="#ArialMT-69" transform="translate(717.041016 0)"/>
      <use xlink:href="#ArialMT-61" transform="translate(739.257812 0)"/>
      <use xlink:href="#ArialMT-6e" transform="translate(794.873047 0)"/>
      <use xlink:href="#ArialMT-63" transform="translate(850.488281 0)"/>
      <use xlink:href="#ArialMT-65" transform="translate(900.488281 0)"/>
      <use xlink:href="#ArialMT-20" transform="translate(956.103516 0)"/>
      <use xlink:href="#ArialMT-65" transform="translate(983.886719 0)"/>
      <use xlink:href="#ArialMT-72" transform="translate(1039.501953 0)"/>
      <use xlink:href="#ArialMT-72" transform="translate(1072.802734 0)"/>
      <use xlink:href="#ArialMT-6f" transform="translate(1106.103516 0)"/>
      <use xlink:href="#ArialMT-72" transform="translate(1161.71875 0)"/>
     </g>
    </g>
   </g>
   <g id="FillBetweenPolyCollection_1">
    <defs>
     <path id="mfa41109759" d="M 135.173068 -64.165929 
L 127.390057 -64.165929 
L 124.803393 -64.344611 
L 121.428609 -64.523293 
L 117.528922 -64.701974 
L 113.558005 -64.880656 
L 110.024309 -65.059338 
L 107.317103 -65.23802 
L 105.589196 -65.416702 
L 104.760896 -65.595384 
L 104.631096 -65.774066 
L 105.009873 -65.952747 
L 105.778237 -66.131429 
L 106.845524 -66.310111 
L 108.062241 -66.488793 
L 109.180874 -66.667475 
L 109.910528 -66.846157 
L 110.029461 -67.024839 
L 109.47615 -67.20352 
L 108.362913 -67.382202 
L 106.913402 -67.560884 
L 105.366907 -67.739566 
L 103.897359 -67.918248 
L 102.57466 -68.09693 
L 101.371599 -68.275612 
L 100.202747 -68.454293 
L 98.973746 -68.632975 
L 97.619323 -68.811657 
L 96.11726 -68.990339 
L 94.481012 -69.169021 
L 92.745744 -69.347703 
L 90.961555 -69.526385 
L 89.195521 -69.705066 
L 87.532823 -69.883748 
L 86.065912 -70.06243 
L 84.869323 -70.241112 
L 83.970389 -70.419794 
L 83.333744 -70.598476 
L 82.871609 -70.777158 
L 82.474486 -70.955839 
L 82.043785 -71.134521 
L 81.512025 -71.313203 
L 80.850713 -71.491885 
L 80.072596 -71.670567 
L 79.228865 -71.849249 
L 78.396605 -72.027931 
L 77.658628 -72.206612 
L 77.088816 -72.385294 
L 76.754766 -72.563976 
L 76.733563 -72.742658 
L 77.120954 -72.92134 
L 78.014734 -73.100022 
L 79.472783 -73.278704 
L 81.471761 -73.457385 
L 83.900541 -73.636067 
L 86.599333 -73.814749 
L 89.417499 -73.993431 
L 92.247845 -74.172113 
L 95.019393 -74.350795 
L 97.668988 -74.529477 
L 100.125961 -74.708158 
L 102.324117 -74.88684 
L 104.226968 -75.065522 
L 105.842809 -75.244204 
L 107.218454 -75.422886 
L 108.417102 -75.601568 
L 109.493841 -75.78025 
L 110.48124 -75.958931 
L 111.391171 -76.137613 
L 112.229661 -76.316295 
L 113.013559 -76.494977 
L 113.77733 -76.673659 
L 114.565973 -76.852341 
L 115.419613 -77.031023 
L 116.359805 -77.209704 
L 117.385039 -77.388386 
L 118.476313 -77.567068 
L 119.60794 -77.74575 
L 120.756833 -77.924432 
L 121.905364 -78.103114 
L 123.037757 -78.281796 
L 124.13528 -78.460477 
L 125.176374 -78.639159 
L 126.141742 -78.817841 
L 127.018219 -78.996523 
L 127.797578 -79.175205 
L 128.473878 -79.353887 
L 129.044396 -79.532569 
L 129.512986 -79.71125 
L 129.890729 -79.889932 
L 130.192379 -80.068614 
L 130.432084 -80.247296 
L 130.62164 -80.425978 
L 130.770971 -80.60466 
L 130.888838 -80.783342 
L 130.982719 -80.962023 
L 131.05819 -81.140705 
L 131.118626 -81.319387 
L 131.165796 -81.498069 
L 131.201089 -81.676751 
L 131.226468 -81.855433 
L 131.336657 -81.855433 
L 131.336657 -81.855433 
L 131.362036 -81.676751 
L 131.397329 -81.498069 
L 131.444499 -81.319387 
L 131.504935 -81.140705 
L 131.580406 -80.962023 
L 131.674287 -80.783342 
L 131.792154 -80.60466 
L 131.941485 -80.425978 
L 132.131041 -80.247296 
L 132.370746 -80.068614 
L 132.672396 -79.889932 
L 133.050139 -79.71125 
L 133.518729 -79.532569 
L 134.089247 -79.353887 
L 134.765547 -79.175205 
L 135.544906 -78.996523 
L 136.421383 -78.817841 
L 137.386751 -78.639159 
L 138.427845 -78.460477 
L 139.525368 -78.281796 
L 140.657761 -78.103114 
L 141.806292 -77.924432 
L 142.955185 -77.74575 
L 144.086812 -77.567068 
L 145.178086 -77.388386 
L 146.20332 -77.209704 
L 147.143512 -77.031023 
L 147.997152 -76.852341 
L 148.785795 -76.673659 
L 149.549566 -76.494977 
L 150.333464 -76.316295 
L 151.171954 -76.137613 
L 152.081885 -75.958931 
L 153.069284 -75.78025 
L 154.146023 -75.601568 
L 155.344671 -75.422886 
L 156.720316 -75.244204 
L 158.336157 -75.065522 
L 160.239008 -74.88684 
L 162.437164 -74.708158 
L 164.894137 -74.529477 
L 167.543732 -74.350795 
L 170.31528 -74.172113 
L 173.145626 -73.993431 
L 175.963792 -73.814749 
L 178.662584 -73.636067 
L 181.091364 -73.457385 
L 183.090342 -73.278704 
L 184.548391 -73.100022 
L 185.442171 -72.92134 
L 185.829563 -72.742658 
L 185.808359 -72.563976 
L 185.474309 -72.385294 
L 184.904497 -72.206612 
L 184.16652 -72.027931 
L 183.33426 -71.849249 
L 182.490529 -71.670567 
L 181.712412 -71.491885 
L 181.0511 -71.313203 
L 180.51934 -71.134521 
L 180.088639 -70.955839 
L 179.691516 -70.777158 
L 179.229381 -70.598476 
L 178.592736 -70.419794 
L 177.693802 -70.241112 
L 176.497213 -70.06243 
L 175.030302 -69.883748 
L 173.367604 -69.705066 
L 171.60157 -69.526385 
L 169.817381 -69.347703 
L 168.082113 -69.169021 
L 166.445865 -68.990339 
L 164.943802 -68.811657 
L 163.589379 -68.632975 
L 162.360378 -68.454293 
L 161.191526 -68.275612 
L 159.988465 -68.09693 
L 158.665766 -67.918248 
L 157.196218 -67.739566 
L 155.649723 -67.560884 
L 154.200212 -67.382202 
L 153.086975 -67.20352 
L 152.533664 -67.024839 
L 152.652597 -66.846157 
L 153.382251 -66.667475 
L 154.500884 -66.488793 
L 155.717601 -66.310111 
L 156.784888 -66.131429 
L 157.553252 -65.952747 
L 157.932029 -65.774066 
L 157.802229 -65.595384 
L 156.973929 -65.416702 
L 155.246022 -65.23802 
L 152.538816 -65.059338 
L 149.00512 -64.880656 
L 145.034203 -64.701974 
L 141.134516 -64.523293 
L 137.759732 -64.344611 
L 135.173068 -64.165929 
z
" style="stroke: #656565; stroke-width: 1.875"/>
    </defs>
    <g clip-path="url(#p4e81f62f91)">
     <use xlink:href="#mfa41109759" x="0" y="298.837266" style="fill: #f06292; stroke: #656565; stroke-width: 1.875"/>
    </g>
   </g>
   <g id="FillBetweenPolyCollection_2">
    <defs>
     <path id="md24c940d36" d="M 273.973971 -63.586811 
L 261.329154 -63.586811 
L 259.134604 -63.783234 
L 256.45812 -63.979657 
L 253.277429 -64.17608 
L 249.59462 -64.372502 
L 245.442069 -64.568925 
L 240.888121 -64.765348 
L 236.043456 -64.961771 
L 231.06818 -65.158194 
L 226.177354 -65.354617 
L 221.640075 -65.551039 
L 217.766146 -65.747462 
L 214.876237 -65.943885 
L 213.256304 -66.140308 
L 213.103563 -66.336731 
L 214.477216 -66.533154 
L 217.269571 -66.729576 
L 221.210175 -66.925999 
L 225.906791 -67.122422 
L 230.915025 -67.318845 
L 235.817778 -67.515268 
L 240.29164 -67.71169 
L 244.142117 -67.908113 
L 247.301434 -68.104536 
L 249.796355 -68.300959 
L 251.702807 -68.497382 
L 253.105655 -68.693805 
L 254.075864 -68.890227 
L 254.667324 -69.08665 
L 254.926656 -69.283073 
L 254.905112 -69.479496 
L 254.663144 -69.675919 
L 254.263835 -69.872342 
L 253.757986 -70.068764 
L 253.168328 -70.265187 
L 252.481526 -70.46161 
L 251.654171 -70.658033 
L 250.633791 -70.854456 
L 249.389656 -71.050879 
L 247.94279 -71.247301 
L 246.382483 -71.443724 
L 244.859473 -71.640147 
L 243.553838 -71.83657 
L 242.626059 -72.032993 
L 242.167922 -72.229416 
L 242.171731 -72.425838 
L 242.530101 -72.622261 
L 243.06696 -72.818684 
L 243.588713 -73.015107 
L 243.937969 -73.21153 
L 244.033005 -73.407953 
L 243.882769 -73.604375 
L 243.575952 -73.800798 
L 243.250052 -73.997221 
L 243.050596 -74.193644 
L 243.091747 -74.390067 
L 243.427977 -74.58649 
L 244.043016 -74.782912 
L 244.857499 -74.979335 
L 245.751887 -75.175758 
L 246.597524 -75.372181 
L 247.287383 -75.568604 
L 247.759086 -75.765026 
L 248.00555 -75.961449 
L 248.071977 -76.157872 
L 248.041114 -76.354295 
L 248.011282 -76.550718 
L 248.073078 -76.747141 
L 248.290562 -76.943563 
L 248.690956 -77.139986 
L 249.26402 -77.336409 
L 249.969319 -77.532832 
L 250.747735 -77.729255 
L 251.5332 -77.925678 
L 252.261676 -78.1221 
L 252.876181 -78.318523 
L 253.32852 -78.514946 
L 253.579701 -78.711369 
L 253.601388 -78.907792 
L 253.379912 -79.104215 
L 252.922725 -79.300637 
L 252.265249 -79.49706 
L 251.474876 -79.693483 
L 250.649018 -79.889906 
L 249.905738 -80.086329 
L 249.367995 -80.282752 
L 249.14484 -80.479174 
L 249.314128 -80.675597 
L 249.910839 -80.87202 
L 250.923341 -81.068443 
L 252.297595 -81.264866 
L 253.947376 -81.461289 
L 255.767678 -81.657711 
L 257.648536 -81.854134 
L 259.487232 -82.050557 
L 261.197721 -82.24698 
L 262.716746 -82.443403 
L 264.00653 -82.639825 
L 265.054174 -82.836248 
L 265.868213 -83.032671 
L 269.434912 -83.032671 
L 269.434912 -83.032671 
L 270.248951 -82.836248 
L 271.296595 -82.639825 
L 272.586379 -82.443403 
L 274.105404 -82.24698 
L 275.815893 -82.050557 
L 277.654589 -81.854134 
L 279.535447 -81.657711 
L 281.355749 -81.461289 
L 283.00553 -81.264866 
L 284.379784 -81.068443 
L 285.392286 -80.87202 
L 285.988997 -80.675597 
L 286.158285 -80.479174 
L 285.93513 -80.282752 
L 285.397387 -80.086329 
L 284.654107 -79.889906 
L 283.828249 -79.693483 
L 283.037876 -79.49706 
L 282.3804 -79.300637 
L 281.923213 -79.104215 
L 281.701737 -78.907792 
L 281.723424 -78.711369 
L 281.974605 -78.514946 
L 282.426944 -78.318523 
L 283.041449 -78.1221 
L 283.769925 -77.925678 
L 284.55539 -77.729255 
L 285.333806 -77.532832 
L 286.039105 -77.336409 
L 286.612169 -77.139986 
L 287.012563 -76.943563 
L 287.230047 -76.747141 
L 287.291843 -76.550718 
L 287.262011 -76.354295 
L 287.231148 -76.157872 
L 287.297575 -75.961449 
L 287.544039 -75.765026 
L 288.015742 -75.568604 
L 288.705601 -75.372181 
L 289.551238 -75.175758 
L 290.445626 -74.979335 
L 291.260109 -74.782912 
L 291.875148 -74.58649 
L 292.211378 -74.390067 
L 292.252529 -74.193644 
L 292.053073 -73.997221 
L 291.727173 -73.800798 
L 291.420356 -73.604375 
L 291.27012 -73.407953 
L 291.365156 -73.21153 
L 291.714412 -73.015107 
L 292.236165 -72.818684 
L 292.773024 -72.622261 
L 293.131394 -72.425838 
L 293.135203 -72.229416 
L 292.677066 -72.032993 
L 291.749287 -71.83657 
L 290.443652 -71.640147 
L 288.920642 -71.443724 
L 287.360335 -71.247301 
L 285.913469 -71.050879 
L 284.669334 -70.854456 
L 283.648954 -70.658033 
L 282.821599 -70.46161 
L 282.134797 -70.265187 
L 281.545139 -70.068764 
L 281.03929 -69.872342 
L 280.639981 -69.675919 
L 280.398013 -69.479496 
L 280.376469 -69.283073 
L 280.635801 -69.08665 
L 281.227261 -68.890227 
L 282.19747 -68.693805 
L 283.600318 -68.497382 
L 285.50677 -68.300959 
L 288.001691 -68.104536 
L 291.161008 -67.908113 
L 295.011485 -67.71169 
L 299.485347 -67.515268 
L 304.3881 -67.318845 
L 309.396334 -67.122422 
L 314.09295 -66.925999 
L 318.033554 -66.729576 
L 320.825909 -66.533154 
L 322.199563 -66.336731 
L 322.046821 -66.140308 
L 320.426888 -65.943885 
L 317.536979 -65.747462 
L 313.66305 -65.551039 
L 309.125771 -65.354617 
L 304.234945 -65.158194 
L 299.259669 -64.961771 
L 294.415004 -64.765348 
L 289.861056 -64.568925 
L 285.708505 -64.372502 
L 282.025696 -64.17608 
L 278.845005 -63.979657 
L 276.168521 -63.783234 
L 273.973971 -63.586811 
z
" style="stroke: #656565; stroke-width: 1.875"/>
    </defs>
    <g clip-path="url(#p4e81f62f91)">
     <use xlink:href="#md24c940d36" x="0" y="298.837266" style="fill: #f06292; stroke: #656565; stroke-width: 1.875"/>
    </g>
   </g>
   <g id="FillBetweenPolyCollection_3">
    <defs>
     <path id="m9cbef1d9c5" d="M 429.961211 -66.003214 
L 378.081914 -66.003214 
L 372.223729 -67.620129 
L 366.28535 -69.237043 
L 360.662638 -70.853957 
L 355.790944 -72.470871 
L 352.092342 -74.087785 
L 349.914645 -75.7047 
L 349.473563 -77.321614 
L 350.811188 -78.938528 
L 353.782164 -80.555442 
L 358.073116 -82.172356 
L 363.252636 -83.789271 
L 368.840972 -85.406185 
L 374.383426 -87.023099 
L 379.511159 -88.640013 
L 383.977628 -90.256927 
L 387.666437 -91.873842 
L 390.574181 -93.490756 
L 392.777403 -95.10767 
L 394.394687 -96.724584 
L 395.553352 -98.341498 
L 396.366504 -99.958413 
L 396.921976 -101.575327 
L 397.28135 -103.192241 
L 397.485461 -104.809155 
L 397.562473 -106.426069 
L 397.535332 -108.042984 
L 397.426582 -109.659898 
L 397.259753 -111.276812 
L 397.057573 -112.893726 
L 396.838144 -114.51064 
L 396.610762 -116.127555 
L 396.373281 -117.744469 
L 396.112541 -119.361383 
L 395.808403 -120.978297 
L 395.440567 -122.595211 
L 394.996064 -124.212126 
L 394.474724 -125.82904 
L 393.890418 -127.445954 
L 393.267451 -129.062868 
L 392.633523 -130.679782 
L 392.01228 -132.296697 
L 391.418831 -133.913611 
L 390.860308 -135.530525 
L 390.341153 -137.147439 
L 389.870262 -138.764353 
L 389.465795 -140.381268 
L 389.154105 -141.998182 
L 388.961774 -143.615096 
L 388.903105 -145.23201 
L 388.968037 -146.848924 
L 389.116026 -148.465839 
L 389.279604 -150.082753 
L 389.377758 -151.699667 
L 389.335507 -153.316581 
L 389.103627 -154.933495 
L 388.672292 -156.55041 
L 388.074491 -158.167324 
L 387.378457 -159.784238 
L 386.671835 -161.401152 
L 386.042553 -163.018066 
L 385.561868 -164.634981 
L 385.273686 -166.251895 
L 385.191886 -167.868809 
L 385.30477 -169.485723 
L 385.583995 -171.102637 
L 385.994703 -172.719552 
L 386.504063 -174.336466 
L 387.086602 -175.95338 
L 387.72586 -177.570294 
L 388.412842 -179.187208 
L 389.142179 -180.804123 
L 389.9071 -182.421037 
L 390.694401 -184.037951 
L 391.480635 -185.654865 
L 392.230672 -187.271779 
L 392.899557 -188.888694 
L 393.437908 -190.505608 
L 393.800221 -192.122522 
L 393.954378 -193.739436 
L 393.889914 -195.35635 
L 393.622507 -196.973265 
L 393.192985 -198.590179 
L 392.660716 -200.207093 
L 392.093162 -201.824007 
L 391.554756 -203.440921 
L 391.098494 -205.057836 
L 390.762513 -206.67475 
L 390.571767 -208.291664 
L 390.542847 -209.908578 
L 390.688798 -211.525492 
L 391.021217 -213.142407 
L 391.54852 -214.759321 
L 392.271332 -216.376235 
L 393.177386 -217.993149 
L 394.238486 -219.610063 
L 395.411139 -221.226978 
L 396.640929 -222.843892 
L 397.86936 -224.460806 
L 399.041287 -226.07772 
L 409.001838 -226.07772 
L 409.001838 -226.07772 
L 410.173765 -224.460806 
L 411.402196 -222.843892 
L 412.631986 -221.226978 
L 413.804639 -219.610063 
L 414.865739 -217.993149 
L 415.771793 -216.376235 
L 416.494605 -214.759321 
L 417.021908 -213.142407 
L 417.354327 -211.525492 
L 417.500278 -209.908578 
L 417.471358 -208.291664 
L 417.280612 -206.67475 
L 416.944631 -205.057836 
L 416.488369 -203.440921 
L 415.949963 -201.824007 
L 415.382409 -200.207093 
L 414.85014 -198.590179 
L 414.420618 -196.973265 
L 414.153211 -195.35635 
L 414.088747 -193.739436 
L 414.242904 -192.122522 
L 414.605217 -190.505608 
L 415.143568 -188.888694 
L 415.812453 -187.271779 
L 416.56249 -185.654865 
L 417.348724 -184.037951 
L 418.136025 -182.421037 
L 418.900946 -180.804123 
L 419.630283 -179.187208 
L 420.317265 -177.570294 
L 420.956523 -175.95338 
L 421.539062 -174.336466 
L 422.048422 -172.719552 
L 422.45913 -171.102637 
L 422.738355 -169.485723 
L 422.851239 -167.868809 
L 422.769439 -166.251895 
L 422.481257 -164.634981 
L 422.000572 -163.018066 
L 421.37129 -161.401152 
L 420.664668 -159.784238 
L 419.968634 -158.167324 
L 419.370833 -156.55041 
L 418.939498 -154.933495 
L 418.707618 -153.316581 
L 418.665367 -151.699667 
L 418.763521 -150.082753 
L 418.927099 -148.465839 
L 419.075088 -146.848924 
L 419.14002 -145.23201 
L 419.081351 -143.615096 
L 418.88902 -141.998182 
L 418.57733 -140.381268 
L 418.172863 -138.764353 
L 417.701972 -137.147439 
L 417.182817 -135.530525 
L 416.624294 -133.913611 
L 416.030845 -132.296697 
L 415.409602 -130.679782 
L 414.775674 -129.062868 
L 414.152707 -127.445954 
L 413.568401 -125.82904 
L 413.047061 -124.212126 
L 412.602558 -122.595211 
L 412.234722 -120.978297 
L 411.930584 -119.361383 
L 411.669844 -117.744469 
L 411.432363 -116.127555 
L 411.204981 -114.51064 
L 410.985552 -112.893726 
L 410.783372 -111.276812 
L 410.616543 -109.659898 
L 410.507793 -108.042984 
L 410.480652 -106.426069 
L 410.557664 -104.809155 
L 410.761775 -103.192241 
L 411.121149 -101.575327 
L 411.676621 -99.958413 
L 412.489773 -98.341498 
L 413.648438 -96.724584 
L 415.265722 -95.10767 
L 417.468944 -93.490756 
L 420.376688 -91.873842 
L 424.065497 -90.256927 
L 428.531966 -88.640013 
L 433.659699 -87.023099 
L 439.202153 -85.406185 
L 444.790489 -83.789271 
L 449.970009 -82.172356 
L 454.260961 -80.555442 
L 457.231937 -78.938528 
L 458.569563 -77.321614 
L 458.12848 -75.7047 
L 455.950783 -74.087785 
L 452.252181 -72.470871 
L 447.380487 -70.853957 
L 441.757775 -69.237043 
L 435.819396 -67.620129 
L 429.961211 -66.003214 
z
" style="stroke: #656565; stroke-width: 1.875"/>
    </defs>
    <g clip-path="url(#p4e81f62f91)">
     <use xlink:href="#m9cbef1d9c5" x="0" y="298.837266" style="fill: #f06292; stroke: #656565; stroke-width: 1.875"/>
    </g>
   </g>
   <g id="line2d_5">
    <path d="M 131.281563 234.671337 
L 131.281563 218.269965 
" clip-path="url(#p4e81f62f91)" style="fill: none; stroke: #656565; stroke-width: 2.8125; stroke-linecap: round"/>
   </g>
   <g id="line2d_6">
    <path d="M 131.281563 229.824809 
L 131.281563 225.199623 
" clip-path="url(#p4e81f62f91)" style="fill: none; stroke: #656565; stroke-width: 8.4375; stroke-linecap: round"/>
   </g>
   <g id="line2d_7">
    <path d="M 131.281563 227.318383 
" clip-path="url(#p4e81f62f91)" style="fill: none; stroke: #656565; stroke-width: 2.25; stroke-linecap: round"/>
    <defs>
     <path id="me86926c24c" d="M 3.515625 0 
L -3.515625 -0 
" style="stroke: #ffffff; stroke-width: 1.6875"/>
    </defs>
    <g clip-path="url(#p4e81f62f91)">
     <use xlink:href="#me86926c24c" x="131.281563" y="227.318383" style="fill: #ffffff; stroke: #ffffff; stroke-width: 1.6875"/>
    </g>
   </g>
   <g id="line2d_8">
    <path d="M 267.651563 235.250455 
L 267.651563 215.804594 
" clip-path="url(#p4e81f62f91)" style="fill: none; stroke: #656565; stroke-width: 2.8125; stroke-linecap: round"/>
   </g>
   <g id="line2d_9">
    <path d="M 267.651563 232.294806 
L 267.651563 222.87495 
" clip-path="url(#p4e81f62f91)" style="fill: none; stroke: #656565; stroke-width: 8.4375; stroke-linecap: round"/>
   </g>
   <g id="line2d_10">
    <path d="M 267.651563 227.1641 
" clip-path="url(#p4e81f62f91)" style="fill: none; stroke: #656565; stroke-width: 2.25; stroke-linecap: round"/>
    <g clip-path="url(#p4e81f62f91)">
     <use xlink:href="#me86926c24c" x="267.651563" y="227.1641" style="fill: #ffffff; stroke: #ffffff; stroke-width: 1.6875"/>
    </g>
   </g>
   <g id="line2d_11">
    <path d="M 404.021563 232.834051 
L 404.021563 72.759545 
" clip-path="url(#p4e81f62f91)" style="fill: none; stroke: #656565; stroke-width: 2.8125; stroke-linecap: round"/>
   </g>
   <g id="line2d_12">
    <path d="M 404.021563 220.809062 
L 404.021563 128.415183 
" clip-path="url(#p4e81f62f91)" style="fill: none; stroke: #656565; stroke-width: 8.4375; stroke-linecap: round"/>
   </g>
   <g id="line2d_13">
    <path d="M 404.021563 178.302352 
" clip-path="url(#p4e81f62f91)" style="fill: none; stroke: #656565; stroke-width: 2.25; stroke-linecap: round"/>
    <g clip-path="url(#p4e81f62f91)">
     <use xlink:href="#me86926c24c" x="404.021563" y="178.302352" style="fill: #ffffff; stroke: #ffffff; stroke-width: 1.6875"/>
    </g>
   </g>
   <g id="patch_3">
    <path d="M 63.096563 243.375 
L 63.096563 64.635 
" style="fill: none; stroke: #cccccc; stroke-width: 1.875; stroke-linejoin: miter; stroke-linecap: square"/>
   </g>
   <g id="patch_4">
    <path d="M 472.206563 243.375 
L 472.206563 64.635 
" style="fill: none; stroke: #cccccc; stroke-width: 1.875; stroke-linejoin: miter; stroke-linecap: square"/>
   </g>
   <g id="patch_5">
    <path d="M 63.096563 243.375 
L 472.206563 243.375 
" style="fill: none; stroke: #cccccc; stroke-width: 1.875; stroke-linejoin: miter; stroke-linecap: square"/>
   </g>
   <g id="patch_6">
    <path d="M 63.096563 64.635 
L 472.206563 64.635 
" style="fill: none; stroke: #cccccc; stroke-width: 1.875; stroke-linejoin: miter; stroke-linecap: square"/>
   </g>
   <g id="text_10">
    <!-- Equivariance over rotations: -->
    <g style="fill: #262626" transform="translate(156.099375 20.084062) scale(0.18 -0.18)">
     <defs>
      <path id="ArialMT-45" d="M 506 0 
L 506 4581 
L 3819 4581 
L 3819 4041 
L 1113 4041 
L 1113 2638 
L 3647 2638 
L 3647 2100 
L 1113 2100 
L 1113 541 
L 3925 541 
L 3925 0 
L 506 0 
z
" transform="scale(0.015625)"/>
      <path id="ArialMT-73" d="M 197 991 
L 753 1078 
Q 800 744 1014 566 
Q 1228 388 1613 388 
Q 2000 388 2187 545 
Q 2375 703 2375 916 
Q 2375 1106 2209 1216 
Q 2094 1291 1634 1406 
Q 1016 1563 777 1677 
Q 538 1791 414 1992 
Q 291 2194 291 2438 
Q 291 2659 392 2848 
Q 494 3038 669 3163 
Q 800 3259 1026 3326 
Q 1253 3394 1513 3394 
Q 1903 3394 2198 3281 
Q 2494 3169 2634 2976 
Q 2775 2784 2828 2463 
L 2278 2388 
Q 2241 2644 2061 2787 
Q 1881 2931 1553 2931 
Q 1166 2931 1000 2803 
Q 834 2675 834 2503 
Q 834 2394 903 2306 
Q 972 2216 1119 2156 
Q 1203 2125 1616 2013 
Q 2213 1853 2448 1751 
Q 2684 1650 2818 1456 
Q 2953 1263 2953 975 
Q 2953 694 2789 445 
Q 2625 197 2315 61 
Q 2006 -75 1616 -75 
Q 969 -75 630 194 
Q 291 463 197 991 
z
" transform="scale(0.015625)"/>
      <path id="ArialMT-3a" d="M 578 2678 
L 578 3319 
L 1219 3319 
L 1219 2678 
L 578 2678 
z
M 578 0 
L 578 641 
L 1219 641 
L 1219 0 
L 578 0 
z
" transform="scale(0.015625)"/>
     </defs>
     <use xlink:href="#ArialMT-45"/>
     <use xlink:href="#ArialMT-71" transform="translate(66.699219 0)"/>
     <use xlink:href="#ArialMT-75" transform="translate(122.314453 0)"/>
     <use xlink:href="#ArialMT-69" transform="translate(177.929688 0)"/>
     <use xlink:href="#ArialMT-76" transform="translate(200.146484 0)"/>
     <use xlink:href="#ArialMT-61" transform="translate(250.146484 0)"/>
     <use xlink:href="#ArialMT-72" transform="translate(305.761719 0)"/>
     <use xlink:href="#ArialMT-69" transform="translate(339.0625 0)"/>
     <use xlink:href="#ArialMT-61" transform="translate(361.279297 0)"/>
     <use xlink:href="#ArialMT-6e" transform="translate(416.894531 0)"/>
     <use xlink:href="#ArialMT-63" transform="translate(472.509766 0)"/>
     <use xlink:href="#ArialMT-65" transform="translate(522.509766 0)"/>
     <use xlink:href="#ArialMT-20" transform="translate(578.125 0)"/>
     <use xlink:href="#ArialMT-6f" transform="translate(605.908203 0)"/>
     <use xlink:href="#ArialMT-76" transform="translate(661.523438 0)"/>
     <use xlink:href="#ArialMT-65" transform="translate(711.523438 0)"/>
     <use xlink:href="#ArialMT-72" transform="translate(767.138672 0)"/>
     <use xlink:href="#ArialMT-20" transform="translate(800.439453 0)"/>
     <use xlink:href="#ArialMT-72" transform="translate(828.222656 0)"/>
     <use xlink:href="#ArialMT-6f" transform="translate(861.523438 0)"/>
     <use xlink:href="#ArialMT-74" transform="translate(917.138672 0)"/>
     <use xlink:href="#ArialMT-61" transform="translate(944.921875 0)"/>
     <use xlink:href="#ArialMT-74" transform="translate(1000.537109 0)"/>
     <use xlink:href="#ArialMT-69" transform="translate(1028.320312 0)"/>
     <use xlink:href="#ArialMT-6f" transform="translate(1050.537109 0)"/>
     <use xlink:href="#ArialMT-6e" transform="translate(1106.152344 0)"/>
     <use xlink:href="#ArialMT-73" transform="translate(1161.767578 0)"/>
     <use xlink:href="#ArialMT-3a" transform="translate(1211.767578 0)"/>
    </g>
    <!-- Strawberry with augmentation with -->
    <g style="fill: #262626" transform="translate(130.097813 39.385687) scale(0.18 -0.18)">
     <defs>
      <path id="ArialMT-53" d="M 288 1472 
L 859 1522 
Q 900 1178 1048 958 
Q 1197 738 1509 602 
Q 1822 466 2213 466 
Q 2559 466 2825 569 
Q 3091 672 3220 851 
Q 3350 1031 3350 1244 
Q 3350 1459 3225 1620 
Q 3100 1781 2813 1891 
Q 2628 1963 1997 2114 
Q 1366 2266 1113 2400 
Q 784 2572 623 2826 
Q 463 3081 463 3397 
Q 463 3744 659 4045 
Q 856 4347 1234 4503 
Q 1613 4659 2075 4659 
Q 2584 4659 2973 4495 
Q 3363 4331 3572 4012 
Q 3781 3694 3797 3291 
L 3216 3247 
Q 3169 3681 2898 3903 
Q 2628 4125 2100 4125 
Q 1550 4125 1298 3923 
Q 1047 3722 1047 3438 
Q 1047 3191 1225 3031 
Q 1400 2872 2139 2705 
Q 2878 2538 3153 2413 
Q 3553 2228 3743 1945 
Q 3934 1663 3934 1294 
Q 3934 928 3725 604 
Q 3516 281 3123 101 
Q 2731 -78 2241 -78 
Q 1619 -78 1198 103 
Q 778 284 539 648 
Q 300 1013 288 1472 
z
" transform="scale(0.015625)"/>
      <path id="ArialMT-77" d="M 1034 0 
L 19 3319 
L 600 3319 
L 1128 1403 
L 1325 691 
Q 1338 744 1497 1375 
L 2025 3319 
L 2603 3319 
L 3100 1394 
L 3266 759 
L 3456 1400 
L 4025 3319 
L 4572 3319 
L 3534 0 
L 2950 0 
L 2422 1988 
L 2294 2553 
L 1622 0 
L 1034 0 
z
" transform="scale(0.015625)"/>
      <path id="ArialMT-62" d="M 941 0 
L 419 0 
L 419 4581 
L 981 4581 
L 981 2947 
Q 1338 3394 1891 3394 
Q 2197 3394 2470 3270 
Q 2744 3147 2920 2923 
Q 3097 2700 3197 2384 
Q 3297 2069 3297 1709 
Q 3297 856 2875 390 
Q 2453 -75 1863 -75 
Q 1275 -75 941 416 
L 941 0 
z
M 934 1684 
Q 934 1088 1097 822 
Q 1363 388 1816 388 
Q 2184 388 2453 708 
Q 2722 1028 2722 1663 
Q 2722 2313 2464 2622 
Q 2206 2931 1841 2931 
Q 1472 2931 1203 2611 
Q 934 2291 934 1684 
z
" transform="scale(0.015625)"/>
      <path id="ArialMT-68" d="M 422 0 
L 422 4581 
L 984 4581 
L 984 2938 
Q 1378 3394 1978 3394 
Q 2347 3394 2619 3248 
Q 2891 3103 3008 2847 
Q 3125 2591 3125 2103 
L 3125 0 
L 2563 0 
L 2563 2103 
Q 2563 2525 2380 2717 
Q 2197 2909 1863 2909 
Q 1613 2909 1392 2779 
Q 1172 2650 1078 2428 
Q 984 2206 984 1816 
L 984 0 
L 422 0 
z
" transform="scale(0.015625)"/>
      <path id="ArialMT-67" d="M 319 -275 
L 866 -356 
Q 900 -609 1056 -725 
Q 1266 -881 1628 -881 
Q 2019 -881 2231 -725 
Q 2444 -569 2519 -288 
Q 2563 -116 2559 434 
Q 2191 0 1641 0 
Q 956 0 581 494 
Q 206 988 206 1678 
Q 206 2153 378 2554 
Q 550 2956 876 3175 
Q 1203 3394 1644 3394 
Q 2231 3394 2613 2919 
L 2613 3319 
L 3131 3319 
L 3131 450 
Q 3131 -325 2973 -648 
Q 2816 -972 2473 -1159 
Q 2131 -1347 1631 -1347 
Q 1038 -1347 672 -1080 
Q 306 -813 319 -275 
z
M 784 1719 
Q 784 1066 1043 766 
Q 1303 466 1694 466 
Q 2081 466 2343 764 
Q 2606 1063 2606 1700 
Q 2606 2309 2336 2618 
Q 2066 2928 1684 2928 
Q 1309 2928 1046 2623 
Q 784 2319 784 1719 
z
" transform="scale(0.015625)"/>
      <path id="ArialMT-6d" d="M 422 0 
L 422 3319 
L 925 3319 
L 925 2853 
Q 1081 3097 1340 3245 
Q 1600 3394 1931 3394 
Q 2300 3394 2536 3241 
Q 2772 3088 2869 2813 
Q 3263 3394 3894 3394 
Q 4388 3394 4653 3120 
Q 4919 2847 4919 2278 
L 4919 0 
L 4359 0 
L 4359 2091 
Q 4359 2428 4304 2576 
Q 4250 2725 4106 2815 
Q 3963 2906 3769 2906 
Q 3419 2906 3187 2673 
Q 2956 2441 2956 1928 
L 2956 0 
L 2394 0 
L 2394 2156 
Q 2394 2531 2256 2718 
Q 2119 2906 1806 2906 
Q 1569 2906 1367 2781 
Q 1166 2656 1075 2415 
Q 984 2175 984 1722 
L 984 0 
L 422 0 
z
" transform="scale(0.015625)"/>
     </defs>
     <use xlink:href="#ArialMT-53"/>
     <use xlink:href="#ArialMT-74" transform="translate(66.699219 0)"/>
     <use xlink:href="#ArialMT-72" transform="translate(94.482422 0)"/>
     <use xlink:href="#ArialMT-61" transform="translate(127.783203 0)"/>
     <use xlink:href="#ArialMT-77" transform="translate(183.398438 0)"/>
     <use xlink:href="#ArialMT-62" transform="translate(255.615234 0)"/>
     <use xlink:href="#ArialMT-65" transform="translate(311.230469 0)"/>
     <use xlink:href="#ArialMT-72" transform="translate(366.845703 0)"/>
     <use xlink:href="#ArialMT-72" transform="translate(400.146484 0)"/>
     <use xlink:href="#ArialMT-79" transform="translate(433.447266 0)"/>
     <use xlink:href="#ArialMT-20" transform="translate(483.447266 0)"/>
     <use xlink:href="#ArialMT-77" transform="translate(511.230469 0)"/>
     <use xlink:href="#ArialMT-69" transform="translate(583.447266 0)"/>
     <use xlink:href="#ArialMT-74" transform="translate(605.664062 0)"/>
     <use xlink:href="#ArialMT-68" transform="translate(633.447266 0)"/>
     <use xlink:href="#ArialMT-20" transform="translate(689.0625 0)"/>
     <use xlink:href="#ArialMT-61" transform="translate(716.845703 0)"/>
     <use xlink:href="#ArialMT-75" transform="translate(772.460938 0)"/>
     <use xlink:href="#ArialMT-67" transform="translate(828.076172 0)"/>
     <use xlink:href="#ArialMT-6d" transform="translate(883.691406 0)"/>
     <use xlink:href="#ArialMT-65" transform="translate(966.992188 0)"/>
     <use xlink:href="#ArialMT-6e" transform="translate(1022.607422 0)"/>
     <use xlink:href="#ArialMT-74" transform="translate(1078.222656 0)"/>
     <use xlink:href="#ArialMT-61" transform="translate(1106.005859 0)"/>
     <use xlink:href="#ArialMT-74" transform="translate(1161.621094 0)"/>
     <use xlink:href="#ArialMT-69" transform="translate(1189.404297 0)"/>
     <use xlink:href="#ArialMT-6f" transform="translate(1211.621094 0)"/>
     <use xlink:href="#ArialMT-6e" transform="translate(1267.236328 0)"/>
     <use xlink:href="#ArialMT-20" transform="translate(1322.851562 0)"/>
     <use xlink:href="#ArialMT-77" transform="translate(1350.634766 0)"/>
     <use xlink:href="#ArialMT-69" transform="translate(1422.851562 0)"/>
     <use xlink:href="#ArialMT-74" transform="translate(1445.068359 0)"/>
     <use xlink:href="#ArialMT-68" transform="translate(1472.851562 0)"/>
    </g>
    <!-- layerwise loss -->
    <g style="fill: #262626" transform="translate(211.636406 58.635) scale(0.18 -0.18)">
     <use xlink:href="#ArialMT-6c"/>
     <use xlink:href="#ArialMT-61" transform="translate(22.216797 0)"/>
     <use xlink:href="#ArialMT-79" transform="translate(77.832031 0)"/>
     <use xlink:href="#ArialMT-65" transform="translate(127.832031 0)"/>
     <use xlink:href="#ArialMT-72" transform="translate(183.447266 0)"/>
     <use xlink:href="#ArialMT-77" transform="translate(216.748047 0)"/>
     <use xlink:href="#ArialMT-69" transform="translate(288.964844 0)"/>
     <use xlink:href="#ArialMT-73" transform="translate(311.181641 0)"/>
     <use xlink:href="#ArialMT-65" transform="translate(361.181641 0)"/>
     <use xlink:href="#ArialMT-20" transform="translate(416.796875 0)"/>
     <use xlink:href="#ArialMT-6c" transform="translate(444.580078 0)"/>
     <use xlink:href="#ArialMT-6f" transform="translate(466.796875 0)"/>
     <use xlink:href="#ArialMT-73" transform="translate(522.412109 0)"/>
     <use xlink:href="#ArialMT-73" transform="translate(572.412109 0)"/>
    </g>
   </g>
  </g>
 </g>
 <defs>
  <clipPath id="p4e81f62f91">
   <rect x="63.096563" y="64.635" width="409.11" height="178.74"/>
  </clipPath>
 </defs>
</svg>
