<?xml version="1.0" encoding="utf-8" standalone="no"?>
<!DOCTYPE svg PUBLIC "-//W3C//DTD SVG 1.1//EN"
  "http://www.w3.org/Graphics/SVG/1.1/DTD/svg11.dtd">
<svg xmlns:xlink="http://www.w3.org/1999/xlink" width="479.402109pt" height="299.025703pt" viewBox="0 0 479.402109 299.025703" xmlns="http://www.w3.org/2000/svg" version="1.1">
 <metadata>
  <rdf:RDF xmlns:dc="http://purl.org/dc/elements/1.1/" xmlns:cc="http://creativecommons.org/ns#" xmlns:rdf="http://www.w3.org/1999/02/22-rdf-syntax-ns#">
   <cc:Work>
    <dc:type rdf:resource="http://purl.org/dc/dcmitype/StillImage"/>
    <dc:date>2025-12-09T18:12:52.507974</dc:date>
    <dc:format>image/svg+xml</dc:format>
    <dc:creator>
     <cc:Agent>
      <dc:title>Matplotlib v3.10.7, https://matplotlib.org/</dc:title>
     </cc:Agent>
    </dc:creator>
   </cc:Work>
  </rdf:RDF>
 </metadata>
 <defs>
  <style type="text/css">*{stroke-linejoin: round; stroke-linecap: butt}</style>
 </defs>
 <g id="figure_1">
  <g id="patch_1">
   <path d="M 0 299.025703 
L 479.402109 299.025703 
L 479.402109 0 
L 0 0 
z
" style="fill: #ffffff"/>
  </g>
  <g id="axes_1">
   <g id="patch_2">
    <path d="M 72.272109 243.563437 
L 472.202109 243.563437 
L 472.202109 26.303437 
L 72.272109 26.303437 
z
" style="fill: #ffffff"/>
   </g>
   <g id="matplotlib.axis_1">
    <g id="xtick_1">
     <g id="text_1">
      <!-- 0 -->
      <g style="fill: #262626" transform="translate(134.339336 267.873828) scale(0.165 -0.165)">
       <defs>
        <path id="ArialMT-30" d="M 266 2259 
Q 266 3072 433 3567 
Q 600 4063 929 4331 
Q 1259 4600 1759 4600 
Q 2128 4600 2406 4451 
Q 2684 4303 2865 4023 
Q 3047 3744 3150 3342 
Q 3253 2941 3253 2259 
Q 3253 1453 3087 958 
Q 2922 463 2592 192 
Q 2263 -78 1759 -78 
Q 1097 -78 719 397 
Q 266 969 266 2259 
z
M 844 2259 
Q 844 1131 1108 757 
Q 1372 384 1759 384 
Q 2147 384 2411 759 
Q 2675 1134 2675 2259 
Q 2675 3391 2411 3762 
Q 2147 4134 1753 4134 
Q 1366 4134 1134 3806 
Q 844 3388 844 2259 
z
" transform="scale(0.015625)"/>
       </defs>
       <use xlink:href="#ArialMT-30"/>
      </g>
     </g>
    </g>
    <g id="xtick_2">
     <g id="text_2">
      <!-- 1 -->
      <g style="fill: #262626" transform="translate(267.649336 267.873828) scale(0.165 -0.165)">
       <defs>
        <path id="ArialMT-31" d="M 2384 0 
L 1822 0 
L 1822 3584 
Q 1619 3391 1289 3197 
Q 959 3003 697 2906 
L 697 3450 
Q 1169 3672 1522 3987 
Q 1875 4303 2022 4600 
L 2384 4600 
L 2384 0 
z
" transform="scale(0.015625)"/>
       </defs>
       <use xlink:href="#ArialMT-31"/>
      </g>
     </g>
    </g>
    <g id="xtick_3">
     <g id="text_3">
      <!-- 2 -->
      <g style="fill: #262626" transform="translate(400.959336 267.873828) scale(0.165 -0.165)">
       <defs>
        <path id="ArialMT-32" d="M 3222 541 
L 3222 0 
L 194 0 
Q 188 203 259 391 
Q 375 700 629 1000 
Q 884 1300 1366 1694 
Q 2113 2306 2375 2664 
Q 2638 3022 2638 3341 
Q 2638 3675 2398 3904 
Q 2159 4134 1775 4134 
Q 1369 4134 1125 3890 
Q 881 3647 878 3216 
L 300 3275 
Q 359 3922 746 4261 
Q 1134 4600 1788 4600 
Q 2447 4600 2831 4234 
Q 3216 3869 3216 3328 
Q 3216 3053 3103 2787 
Q 2991 2522 2730 2228 
Q 2469 1934 1863 1422 
Q 1356 997 1212 845 
Q 1069 694 975 541 
L 3222 541 
z
" transform="scale(0.015625)"/>
       </defs>
       <use xlink:href="#ArialMT-32"/>
      </g>
     </g>
    </g>
    <g id="text_4">
     <!-- Layer -->
     <g style="fill: #262626" transform="translate(249.725859 288.037266) scale(0.18 -0.18)">
      <defs>
       <path id="ArialMT-4c" d="M 469 0 
L 469 4581 
L 1075 4581 
L 1075 541 
L 3331 541 
L 3331 0 
L 469 0 
z
" transform="scale(0.015625)"/>
       <path id="ArialMT-61" d="M 2588 409 
Q 2275 144 1986 34 
Q 1697 -75 1366 -75 
Q 819 -75 525 192 
Q 231 459 231 875 
Q 231 1119 342 1320 
Q 453 1522 633 1644 
Q 813 1766 1038 1828 
Q 1203 1872 1538 1913 
Q 2219 1994 2541 2106 
Q 2544 2222 2544 2253 
Q 2544 2597 2384 2738 
Q 2169 2928 1744 2928 
Q 1347 2928 1158 2789 
Q 969 2650 878 2297 
L 328 2372 
Q 403 2725 575 2942 
Q 747 3159 1072 3276 
Q 1397 3394 1825 3394 
Q 2250 3394 2515 3294 
Q 2781 3194 2906 3042 
Q 3031 2891 3081 2659 
Q 3109 2516 3109 2141 
L 3109 1391 
Q 3109 606 3145 398 
Q 3181 191 3288 0 
L 2700 0 
Q 2613 175 2588 409 
z
M 2541 1666 
Q 2234 1541 1622 1453 
Q 1275 1403 1131 1340 
Q 988 1278 909 1158 
Q 831 1038 831 891 
Q 831 666 1001 516 
Q 1172 366 1500 366 
Q 1825 366 2078 508 
Q 2331 650 2450 897 
Q 2541 1088 2541 1459 
L 2541 1666 
z
" transform="scale(0.015625)"/>
       <path id="ArialMT-79" d="M 397 -1278 
L 334 -750 
Q 519 -800 656 -800 
Q 844 -800 956 -737 
Q 1069 -675 1141 -563 
Q 1194 -478 1313 -144 
Q 1328 -97 1363 -6 
L 103 3319 
L 709 3319 
L 1400 1397 
Q 1534 1031 1641 628 
Q 1738 1016 1872 1384 
L 2581 3319 
L 3144 3319 
L 1881 -56 
Q 1678 -603 1566 -809 
Q 1416 -1088 1222 -1217 
Q 1028 -1347 759 -1347 
Q 597 -1347 397 -1278 
z
" transform="scale(0.015625)"/>
       <path id="ArialMT-65" d="M 2694 1069 
L 3275 997 
Q 3138 488 2766 206 
Q 2394 -75 1816 -75 
Q 1088 -75 661 373 
Q 234 822 234 1631 
Q 234 2469 665 2931 
Q 1097 3394 1784 3394 
Q 2450 3394 2872 2941 
Q 3294 2488 3294 1666 
Q 3294 1616 3291 1516 
L 816 1516 
Q 847 969 1125 678 
Q 1403 388 1819 388 
Q 2128 388 2347 550 
Q 2566 713 2694 1069 
z
M 847 1978 
L 2700 1978 
Q 2663 2397 2488 2606 
Q 2219 2931 1791 2931 
Q 1403 2931 1139 2672 
Q 875 2413 847 1978 
z
" transform="scale(0.015625)"/>
       <path id="ArialMT-72" d="M 416 0 
L 416 3319 
L 922 3319 
L 922 2816 
Q 1116 3169 1280 3281 
Q 1444 3394 1641 3394 
Q 1925 3394 2219 3213 
L 2025 2691 
Q 1819 2813 1613 2813 
Q 1428 2813 1281 2702 
Q 1134 2591 1072 2394 
Q 978 2094 978 1738 
L 978 0 
L 416 0 
z
" transform="scale(0.015625)"/>
      </defs>
      <use xlink:href="#ArialMT-4c"/>
      <use xlink:href="#ArialMT-61" transform="translate(55.615234 0)"/>
      <use xlink:href="#ArialMT-79" transform="translate(111.230469 0)"/>
      <use xlink:href="#ArialMT-65" transform="translate(161.230469 0)"/>
      <use xlink:href="#ArialMT-72" transform="translate(216.845703 0)"/>
     </g>
    </g>
   </g>
   <g id="matplotlib.axis_2">
    <g id="ytick_1">
     <g id="line2d_1">
      <path d="M 72.272109 208.60361 
L 472.202109 208.60361 
" clip-path="url(#pe65deed6bc)" style="fill: none; stroke: #cccccc; stroke-width: 1.5; stroke-linecap: round"/>
     </g>
     <g id="text_5">
      <!-- 0.50 -->
      <g style="fill: #262626" transform="translate(27.661563 214.508806) scale(0.165 -0.165)">
       <defs>
        <path id="ArialMT-2e" d="M 581 0 
L 581 641 
L 1222 641 
L 1222 0 
L 581 0 
z
" transform="scale(0.015625)"/>
        <path id="ArialMT-35" d="M 266 1200 
L 856 1250 
Q 922 819 1161 601 
Q 1400 384 1738 384 
Q 2144 384 2425 690 
Q 2706 997 2706 1503 
Q 2706 1984 2436 2262 
Q 2166 2541 1728 2541 
Q 1456 2541 1237 2417 
Q 1019 2294 894 2097 
L 366 2166 
L 809 4519 
L 3088 4519 
L 3088 3981 
L 1259 3981 
L 1013 2750 
Q 1425 3038 1878 3038 
Q 2478 3038 2890 2622 
Q 3303 2206 3303 1553 
Q 3303 931 2941 478 
Q 2500 -78 1738 -78 
Q 1113 -78 717 272 
Q 322 622 266 1200 
z
" transform="scale(0.015625)"/>
       </defs>
       <use xlink:href="#ArialMT-30"/>
       <use xlink:href="#ArialMT-2e" transform="translate(55.615234 0)"/>
       <use xlink:href="#ArialMT-35" transform="translate(83.398438 0)"/>
       <use xlink:href="#ArialMT-30" transform="translate(139.013672 0)"/>
      </g>
     </g>
    </g>
    <g id="ytick_2">
     <g id="line2d_2">
      <path d="M 72.272109 170.80802 
L 472.202109 170.80802 
" clip-path="url(#pe65deed6bc)" style="fill: none; stroke: #cccccc; stroke-width: 1.5; stroke-linecap: round"/>
     </g>
     <g id="text_6">
      <!-- 0.75 -->
      <g style="fill: #262626" transform="translate(27.661563 176.713216) scale(0.165 -0.165)">
       <defs>
        <path id="ArialMT-37" d="M 303 3981 
L 303 4522 
L 3269 4522 
L 3269 4084 
Q 2831 3619 2401 2847 
Q 1972 2075 1738 1259 
Q 1569 684 1522 0 
L 944 0 
Q 953 541 1156 1306 
Q 1359 2072 1739 2783 
Q 2119 3494 2547 3981 
L 303 3981 
z
" transform="scale(0.015625)"/>
       </defs>
       <use xlink:href="#ArialMT-30"/>
       <use xlink:href="#ArialMT-2e" transform="translate(55.615234 0)"/>
       <use xlink:href="#ArialMT-37" transform="translate(83.398438 0)"/>
       <use xlink:href="#ArialMT-35" transform="translate(139.013672 0)"/>
      </g>
     </g>
    </g>
    <g id="ytick_3">
     <g id="line2d_3">
      <path d="M 72.272109 133.01243 
L 472.202109 133.01243 
" clip-path="url(#pe65deed6bc)" style="fill: none; stroke: #cccccc; stroke-width: 1.5; stroke-linecap: round"/>
     </g>
     <g id="text_7">
      <!-- 1.00 -->
      <g style="fill: #262626" transform="translate(27.661563 138.917626) scale(0.165 -0.165)">
       <use xlink:href="#ArialMT-31"/>
       <use xlink:href="#ArialMT-2e" transform="translate(55.615234 0)"/>
       <use xlink:href="#ArialMT-30" transform="translate(83.398438 0)"/>
       <use xlink:href="#ArialMT-30" transform="translate(139.013672 0)"/>
      </g>
     </g>
    </g>
    <g id="ytick_4">
     <g id="line2d_4">
      <path d="M 72.272109 95.21684 
L 472.202109 95.21684 
" clip-path="url(#pe65deed6bc)" style="fill: none; stroke: #cccccc; stroke-width: 1.5; stroke-linecap: round"/>
     </g>
     <g id="text_8">
      <!-- 1.25 -->
      <g style="fill: #262626" transform="translate(27.661563 101.122036) scale(0.165 -0.165)">
       <use xlink:href="#ArialMT-31"/>
       <use xlink:href="#ArialMT-2e" transform="translate(55.615234 0)"/>
       <use xlink:href="#ArialMT-32" transform="translate(83.398438 0)"/>
       <use xlink:href="#ArialMT-35" transform="translate(139.013672 0)"/>
      </g>
     </g>
    </g>
    <g id="ytick_5">
     <g id="line2d_5">
      <path d="M 72.272109 57.42125 
L 472.202109 57.42125 
" clip-path="url(#pe65deed6bc)" style="fill: none; stroke: #cccccc; stroke-width: 1.5; stroke-linecap: round"/>
     </g>
     <g id="text_9">
      <!-- 1.50 -->
      <g style="fill: #262626" transform="translate(27.661563 63.326446) scale(0.165 -0.165)">
       <use xlink:href="#ArialMT-31"/>
       <use xlink:href="#ArialMT-2e" transform="translate(55.615234 0)"/>
       <use xlink:href="#ArialMT-35" transform="translate(83.398438 0)"/>
       <use xlink:href="#ArialMT-30" transform="translate(139.013672 0)"/>
      </g>
     </g>
    </g>
    <g id="text_10">
     <!-- Relative equivariance error -->
     <g style="fill: #262626" transform="translate(20.084063 242.477812) rotate(-90) scale(0.18 -0.18)">
      <defs>
       <path id="ArialMT-52" d="M 503 0 
L 503 4581 
L 2534 4581 
Q 3147 4581 3465 4457 
Q 3784 4334 3975 4021 
Q 4166 3709 4166 3331 
Q 4166 2844 3850 2509 
Q 3534 2175 2875 2084 
Q 3116 1969 3241 1856 
Q 3506 1613 3744 1247 
L 4541 0 
L 3778 0 
L 3172 953 
Q 2906 1366 2734 1584 
Q 2563 1803 2427 1890 
Q 2291 1978 2150 2013 
Q 2047 2034 1813 2034 
L 1109 2034 
L 1109 0 
L 503 0 
z
M 1109 2559 
L 2413 2559 
Q 2828 2559 3062 2645 
Q 3297 2731 3419 2920 
Q 3541 3109 3541 3331 
Q 3541 3656 3305 3865 
Q 3069 4075 2559 4075 
L 1109 4075 
L 1109 2559 
z
" transform="scale(0.015625)"/>
       <path id="ArialMT-6c" d="M 409 0 
L 409 4581 
L 972 4581 
L 972 0 
L 409 0 
z
" transform="scale(0.015625)"/>
       <path id="ArialMT-74" d="M 1650 503 
L 1731 6 
Q 1494 -44 1306 -44 
Q 1000 -44 831 53 
Q 663 150 594 308 
Q 525 466 525 972 
L 525 2881 
L 113 2881 
L 113 3319 
L 525 3319 
L 525 4141 
L 1084 4478 
L 1084 3319 
L 1650 3319 
L 1650 2881 
L 1084 2881 
L 1084 941 
Q 1084 700 1114 631 
Q 1144 563 1211 522 
Q 1278 481 1403 481 
Q 1497 481 1650 503 
z
" transform="scale(0.015625)"/>
       <path id="ArialMT-69" d="M 425 3934 
L 425 4581 
L 988 4581 
L 988 3934 
L 425 3934 
z
M 425 0 
L 425 3319 
L 988 3319 
L 988 0 
L 425 0 
z
" transform="scale(0.015625)"/>
       <path id="ArialMT-76" d="M 1344 0 
L 81 3319 
L 675 3319 
L 1388 1331 
Q 1503 1009 1600 663 
Q 1675 925 1809 1294 
L 2547 3319 
L 3125 3319 
L 1869 0 
L 1344 0 
z
" transform="scale(0.015625)"/>
       <path id="ArialMT-20" transform="scale(0.015625)"/>
       <path id="ArialMT-71" d="M 2538 -1272 
L 2538 353 
Q 2406 169 2170 47 
Q 1934 -75 1669 -75 
Q 1078 -75 651 397 
Q 225 869 225 1691 
Q 225 2191 398 2587 
Q 572 2984 901 3189 
Q 1231 3394 1625 3394 
Q 2241 3394 2594 2875 
L 2594 3319 
L 3100 3319 
L 3100 -1272 
L 2538 -1272 
z
M 803 1669 
Q 803 1028 1072 708 
Q 1341 388 1716 388 
Q 2075 388 2334 692 
Q 2594 997 2594 1619 
Q 2594 2281 2320 2615 
Q 2047 2950 1678 2950 
Q 1313 2950 1058 2639 
Q 803 2328 803 1669 
z
" transform="scale(0.015625)"/>
       <path id="ArialMT-75" d="M 2597 0 
L 2597 488 
Q 2209 -75 1544 -75 
Q 1250 -75 995 37 
Q 741 150 617 320 
Q 494 491 444 738 
Q 409 903 409 1263 
L 409 3319 
L 972 3319 
L 972 1478 
Q 972 1038 1006 884 
Q 1059 663 1231 536 
Q 1403 409 1656 409 
Q 1909 409 2131 539 
Q 2353 669 2445 892 
Q 2538 1116 2538 1541 
L 2538 3319 
L 3100 3319 
L 3100 0 
L 2597 0 
z
" transform="scale(0.015625)"/>
       <path id="ArialMT-6e" d="M 422 0 
L 422 3319 
L 928 3319 
L 928 2847 
Q 1294 3394 1984 3394 
Q 2284 3394 2536 3286 
Q 2788 3178 2913 3003 
Q 3038 2828 3088 2588 
Q 3119 2431 3119 2041 
L 3119 0 
L 2556 0 
L 2556 2019 
Q 2556 2363 2490 2533 
Q 2425 2703 2258 2804 
Q 2091 2906 1866 2906 
Q 1506 2906 1245 2678 
Q 984 2450 984 1813 
L 984 0 
L 422 0 
z
" transform="scale(0.015625)"/>
       <path id="ArialMT-63" d="M 2588 1216 
L 3141 1144 
Q 3050 572 2676 248 
Q 2303 -75 1759 -75 
Q 1078 -75 664 370 
Q 250 816 250 1647 
Q 250 2184 428 2587 
Q 606 2991 970 3192 
Q 1334 3394 1763 3394 
Q 2303 3394 2647 3120 
Q 2991 2847 3088 2344 
L 2541 2259 
Q 2463 2594 2264 2762 
Q 2066 2931 1784 2931 
Q 1359 2931 1093 2626 
Q 828 2322 828 1663 
Q 828 994 1084 691 
Q 1341 388 1753 388 
Q 2084 388 2306 591 
Q 2528 794 2588 1216 
z
" transform="scale(0.015625)"/>
       <path id="ArialMT-6f" d="M 213 1659 
Q 213 2581 725 3025 
Q 1153 3394 1769 3394 
Q 2453 3394 2887 2945 
Q 3322 2497 3322 1706 
Q 3322 1066 3130 698 
Q 2938 331 2570 128 
Q 2203 -75 1769 -75 
Q 1072 -75 642 372 
Q 213 819 213 1659 
z
M 791 1659 
Q 791 1022 1069 705 
Q 1347 388 1769 388 
Q 2188 388 2466 706 
Q 2744 1025 2744 1678 
Q 2744 2294 2464 2611 
Q 2184 2928 1769 2928 
Q 1347 2928 1069 2612 
Q 791 2297 791 1659 
z
" transform="scale(0.015625)"/>
      </defs>
      <use xlink:href="#ArialMT-52"/>
      <use xlink:href="#ArialMT-65" transform="translate(72.216797 0)"/>
      <use xlink:href="#ArialMT-6c" transform="translate(127.832031 0)"/>
      <use xlink:href="#ArialMT-61" transform="translate(150.048828 0)"/>
      <use xlink:href="#ArialMT-74" transform="translate(205.664062 0)"/>
      <use xlink:href="#ArialMT-69" transform="translate(233.447266 0)"/>
      <use xlink:href="#ArialMT-76" transform="translate(255.664062 0)"/>
      <use xlink:href="#ArialMT-65" transform="translate(305.664062 0)"/>
      <use xlink:href="#ArialMT-20" transform="translate(361.279297 0)"/>
      <use xlink:href="#ArialMT-65" transform="translate(389.0625 0)"/>
      <use xlink:href="#ArialMT-71" transform="translate(444.677734 0)"/>
      <use xlink:href="#ArialMT-75" transform="translate(500.292969 0)"/>
      <use xlink:href="#ArialMT-69" transform="translate(555.908203 0)"/>
      <use xlink:href="#ArialMT-76" transform="translate(578.125 0)"/>
      <use xlink:href="#ArialMT-61" transform="translate(628.125 0)"/>
      <use xlink:href="#ArialMT-72" transform="translate(683.740234 0)"/>
      <use xlink:href="#ArialMT-69" transform="translate(717.041016 0)"/>
      <use xlink:href="#ArialMT-61" transform="translate(739.257812 0)"/>
      <use xlink:href="#ArialMT-6e" transform="translate(794.873047 0)"/>
      <use xlink:href="#ArialMT-63" transform="translate(850.488281 0)"/>
      <use xlink:href="#ArialMT-65" transform="translate(900.488281 0)"/>
      <use xlink:href="#ArialMT-20" transform="translate(956.103516 0)"/>
      <use xlink:href="#ArialMT-65" transform="translate(983.886719 0)"/>
      <use xlink:href="#ArialMT-72" transform="translate(1039.501953 0)"/>
      <use xlink:href="#ArialMT-72" transform="translate(1072.802734 0)"/>
      <use xlink:href="#ArialMT-6f" transform="translate(1106.103516 0)"/>
      <use xlink:href="#ArialMT-72" transform="translate(1161.71875 0)"/>
     </g>
    </g>
    <g id="text_11">
     <!-- 1e−5 -->
     <g style="fill: #262626" transform="translate(72.272109 23.303437) scale(0.165 -0.165)">
      <defs>
       <path id="ArialMT-2212" d="M 3381 1997 
L 356 1997 
L 356 2522 
L 3381 2522 
L 3381 1997 
z
" transform="scale(0.015625)"/>
      </defs>
      <use xlink:href="#ArialMT-31"/>
      <use xlink:href="#ArialMT-65" transform="translate(55.615234 0)"/>
      <use xlink:href="#ArialMT-2212" transform="translate(111.230469 0)"/>
      <use xlink:href="#ArialMT-35" transform="translate(169.628906 0)"/>
     </g>
    </g>
   </g>
   <g id="FillBetweenPolyCollection_1">
    <defs>
     <path id="m3293161478" d="M 140.62071 -90.778364 
L 137.233509 -90.778364 
L 136.289331 -92.516429 
L 134.941564 -94.254494 
L 133.088633 -95.99256 
L 130.644101 -97.730625 
L 127.559284 -99.46869 
L 123.844326 -101.206755 
L 119.580229 -102.94482 
L 114.916098 -104.682885 
L 110.050633 -106.42095 
L 105.202969 -108.159015 
L 100.582396 -109.89708 
L 96.36702 -111.635146 
L 92.697555 -113.373211 
L 89.685852 -115.111276 
L 87.431385 -116.849341 
L 86.035386 -118.587406 
L 85.603109 -120.325471 
L 86.229422 -122.063536 
L 87.970082 -123.801601 
L 90.807913 -125.539666 
L 94.626884 -127.277732 
L 99.205639 -129.015797 
L 104.235611 -130.753862 
L 109.359754 -132.491927 
L 114.22042 -134.229992 
L 118.502413 -135.968057 
L 121.960854 -137.706122 
L 124.431132 -139.444187 
L 125.825885 -141.182252 
L 126.128004 -142.920318 
L 125.387392 -144.658383 
L 123.723837 -146.396448 
L 121.331666 -148.134513 
L 118.477438 -149.872578 
L 115.482306 -151.610643 
L 112.686192 -153.348708 
L 110.399333 -155.086773 
L 108.853935 -156.824839 
L 108.170828 -158.562904 
L 108.351746 -160.300969 
L 109.298929 -162.039034 
L 110.854075 -163.777099 
L 112.842353 -165.515164 
L 115.106608 -167.253229 
L 117.522215 -168.991294 
L 119.991839 -170.729359 
L 122.427788 -172.467425 
L 124.73406 -174.20549 
L 126.798544 -175.943555 
L 128.499417 -177.68162 
L 129.721875 -179.419685 
L 130.376204 -181.15775 
L 130.408182 -182.895815 
L 129.79772 -184.63388 
L 128.548539 -186.371945 
L 126.676871 -188.110011 
L 124.207853 -189.848076 
L 121.18416 -191.586141 
L 117.684504 -193.324206 
L 113.843235 -195.062271 
L 109.859383 -196.800336 
L 105.985813 -198.538401 
L 102.496293 -200.276466 
L 99.637718 -202.014531 
L 97.582311 -203.752597 
L 96.39643 -205.490662 
L 96.037103 -207.228727 
L 96.376964 -208.966792 
L 97.247821 -210.704857 
L 98.487539 -212.442922 
L 99.976002 -214.180987 
L 101.651761 -215.919052 
L 103.508348 -217.657117 
L 105.574907 -219.395183 
L 107.888923 -221.133248 
L 110.469325 -222.871313 
L 113.297016 -224.609378 
L 116.307329 -226.347443 
L 119.395623 -228.085508 
L 122.433716 -229.823573 
L 125.292079 -231.561638 
L 127.861421 -233.299703 
L 130.06804 -235.037769 
L 131.879848 -236.775834 
L 133.303338 -238.513899 
L 134.374494 -240.251964 
L 135.147655 -241.990029 
L 135.685519 -243.728094 
L 136.051677 -245.466159 
L 136.305438 -247.204224 
L 136.498163 -248.942289 
L 136.670538 -250.680355 
L 136.85083 -252.41842 
L 137.054383 -254.156485 
L 137.284557 -255.89455 
L 137.535004 -257.632615 
L 137.792909 -259.37068 
L 138.042709 -261.108745 
L 138.269702 -262.84681 
L 139.584517 -262.84681 
L 139.584517 -262.84681 
L 139.81151 -261.108745 
L 140.06131 -259.37068 
L 140.319215 -257.632615 
L 140.569662 -255.89455 
L 140.799836 -254.156485 
L 141.003388 -252.41842 
L 141.18368 -250.680355 
L 141.356056 -248.942289 
L 141.54878 -247.204224 
L 141.802542 -245.466159 
L 142.1687 -243.728094 
L 142.706564 -241.990029 
L 143.479725 -240.251964 
L 144.550881 -238.513899 
L 145.974371 -236.775834 
L 147.786178 -235.037769 
L 149.992797 -233.299703 
L 152.56214 -231.561638 
L 155.420503 -229.823573 
L 158.458595 -228.085508 
L 161.54689 -226.347443 
L 164.557203 -224.609378 
L 167.384893 -222.871313 
L 169.965296 -221.133248 
L 172.279312 -219.395183 
L 174.345871 -217.657117 
L 176.202457 -215.919052 
L 177.878217 -214.180987 
L 179.366679 -212.442922 
L 180.606398 -210.704857 
L 181.477254 -208.966792 
L 181.817116 -207.228727 
L 181.457789 -205.490662 
L 180.271907 -203.752597 
L 178.216501 -202.014531 
L 175.357926 -200.276466 
L 171.868406 -198.538401 
L 167.994836 -196.800336 
L 164.010984 -195.062271 
L 160.169715 -193.324206 
L 156.670059 -191.586141 
L 153.646365 -189.848076 
L 151.177348 -188.110011 
L 149.30568 -186.371945 
L 148.056499 -184.63388 
L 147.446037 -182.895815 
L 147.478015 -181.15775 
L 148.132343 -179.419685 
L 149.354802 -177.68162 
L 151.055675 -175.943555 
L 153.120159 -174.20549 
L 155.42643 -172.467425 
L 157.86238 -170.729359 
L 160.332003 -168.991294 
L 162.747611 -167.253229 
L 165.011865 -165.515164 
L 167.000144 -163.777099 
L 168.55529 -162.039034 
L 169.502473 -160.300969 
L 169.683391 -158.562904 
L 169.000284 -156.824839 
L 167.454885 -155.086773 
L 165.168027 -153.348708 
L 162.371913 -151.610643 
L 159.376781 -149.872578 
L 156.522553 -148.134513 
L 154.130381 -146.396448 
L 152.466827 -144.658383 
L 151.726215 -142.920318 
L 152.028334 -141.182252 
L 153.423087 -139.444187 
L 155.893364 -137.706122 
L 159.351805 -135.968057 
L 163.633798 -134.229992 
L 168.494464 -132.491927 
L 173.618608 -130.753862 
L 178.64858 -129.015797 
L 183.227335 -127.277732 
L 187.046305 -125.539666 
L 189.884137 -123.801601 
L 191.624796 -122.063536 
L 192.251109 -120.325471 
L 191.818833 -118.587406 
L 190.422834 -116.849341 
L 188.168366 -115.111276 
L 185.156664 -113.373211 
L 181.487199 -111.635146 
L 177.271823 -109.89708 
L 172.65125 -108.159015 
L 167.803586 -106.42095 
L 162.93812 -104.682885 
L 158.27399 -102.94482 
L 154.009893 -101.206755 
L 150.294934 -99.46869 
L 147.210118 -97.730625 
L 144.765585 -95.99256 
L 142.912654 -94.254494 
L 141.564888 -92.516429 
L 140.62071 -90.778364 
z
" style="stroke: #2f2f2f; stroke-width: 1.875"/>
    </defs>
    <g clip-path="url(#pe65deed6bc)">
     <use xlink:href="#m3293161478" x="0" y="299.025703" style="fill: #8b4513; stroke: #2f2f2f; stroke-width: 1.875"/>
    </g>
   </g>
   <g id="FillBetweenPolyCollection_2">
    <defs>
     <path id="m3d406dbdc6" d="M 273.623076 -85.025805 
L 270.851143 -85.025805 
L 270.029681 -86.628881 
L 268.826392 -88.231957 
L 267.125586 -89.835033 
L 264.818442 -91.438109 
L 261.830211 -93.041185 
L 258.148839 -94.644261 
L 253.844784 -96.247337 
L 249.072941 -97.850412 
L 244.053405 -99.453488 
L 239.036076 -101.056564 
L 234.260905 -102.65964 
L 229.927391 -104.262716 
L 226.182666 -105.865792 
L 223.129411 -107.468868 
L 220.846735 -109.071944 
L 219.412275 -110.67502 
L 218.913109 -112.278095 
L 219.436966 -113.881171 
L 221.042871 -115.484247 
L 223.71998 -117.087323 
L 227.350746 -118.690399 
L 231.695264 -120.293475 
L 236.406183 -121.896551 
L 241.071482 -123.499627 
L 245.272451 -125.102703 
L 248.641592 -126.705778 
L 250.910059 -128.308854 
L 251.941511 -129.91193 
L 251.752547 -131.515006 
L 250.517412 -133.118082 
L 248.550377 -134.721158 
L 246.260119 -136.324234 
L 244.07929 -137.92731 
L 242.384993 -139.530386 
L 241.433453 -141.133462 
L 241.328884 -142.736537 
L 242.033677 -144.339613 
L 243.411607 -145.942689 
L 245.284961 -147.545765 
L 247.484212 -149.148841 
L 249.87453 -150.751917 
L 252.354595 -152.354993 
L 254.835283 -153.958069 
L 257.214067 -155.561145 
L 259.361245 -157.16422 
L 261.126556 -158.767296 
L 262.363199 -160.370372 
L 262.957306 -161.973448 
L 262.848684 -163.576524 
L 262.034011 -165.1796 
L 260.553079 -166.782676 
L 258.467216 -168.385752 
L 255.842395 -169.988828 
L 252.746629 -171.591904 
L 249.263463 -173.194979 
L 245.514479 -174.798055 
L 241.677367 -176.401131 
L 237.985666 -178.004207 
L 234.702991 -179.607283 
L 232.076708 -181.210359 
L 230.287671 -182.813435 
L 229.416608 -184.416511 
L 229.440338 -186.019587 
L 230.256005 -187.622662 
L 231.718343 -189.225738 
L 233.672061 -190.828814 
L 235.969688 -192.43189 
L 238.477295 -194.034966 
L 241.077239 -195.638042 
L 243.674483 -197.241118 
L 246.205437 -198.844194 
L 248.642809 -200.44727 
L 250.990863 -202.050346 
L 253.270878 -203.653421 
L 255.502011 -205.256497 
L 257.684886 -206.859573 
L 259.794012 -208.462649 
L 261.781601 -210.065725 
L 263.59085 -211.668801 
L 265.17282 -213.271877 
L 266.499579 -214.874953 
L 267.568623 -216.478029 
L 268.398478 -218.081104 
L 269.01982 -219.68418 
L 269.467546 -221.287256 
L 269.776837 -222.890332 
L 269.982649 -224.493408 
L 270.119891 -226.096484 
L 270.222052 -227.69956 
L 270.318059 -229.302636 
L 270.428953 -230.905712 
L 270.566142 -232.508787 
L 270.731898 -234.111863 
L 270.921457 -235.714939 
L 271.125583 -237.318015 
L 271.332852 -238.921091 
L 271.531533 -240.524167 
L 271.711225 -242.127243 
L 271.864262 -243.730319 
L 272.609957 -243.730319 
L 272.609957 -243.730319 
L 272.762994 -242.127243 
L 272.942686 -240.524167 
L 273.141367 -238.921091 
L 273.348636 -237.318015 
L 273.552761 -235.714939 
L 273.742321 -234.111863 
L 273.908077 -232.508787 
L 274.045266 -230.905712 
L 274.15616 -229.302636 
L 274.252167 -227.69956 
L 274.354327 -226.096484 
L 274.491569 -224.493408 
L 274.697381 -222.890332 
L 275.006673 -221.287256 
L 275.454399 -219.68418 
L 276.075741 -218.081104 
L 276.905596 -216.478029 
L 277.97464 -214.874953 
L 279.301399 -213.271877 
L 280.883369 -211.668801 
L 282.692618 -210.065725 
L 284.680206 -208.462649 
L 286.789333 -206.859573 
L 288.972207 -205.256497 
L 291.20334 -203.653421 
L 293.483356 -202.050346 
L 295.831409 -200.44727 
L 298.268782 -198.844194 
L 300.799736 -197.241118 
L 303.396979 -195.638042 
L 305.996923 -194.034966 
L 308.504531 -192.43189 
L 310.802158 -190.828814 
L 312.755876 -189.225738 
L 314.218213 -187.622662 
L 315.033881 -186.019587 
L 315.057611 -184.416511 
L 314.186548 -182.813435 
L 312.397511 -181.210359 
L 309.771228 -179.607283 
L 306.488553 -178.004207 
L 302.796852 -176.401131 
L 298.95974 -174.798055 
L 295.210755 -173.194979 
L 291.72759 -171.591904 
L 288.631824 -169.988828 
L 286.007003 -168.385752 
L 283.921139 -166.782676 
L 282.440208 -165.1796 
L 281.625534 -163.576524 
L 281.516913 -161.973448 
L 282.11102 -160.370372 
L 283.347663 -158.767296 
L 285.112973 -157.16422 
L 287.260152 -155.561145 
L 289.638935 -153.958069 
L 292.119624 -152.354993 
L 294.599688 -150.751917 
L 296.990007 -149.148841 
L 299.189258 -147.545765 
L 301.062612 -145.942689 
L 302.440541 -144.339613 
L 303.145335 -142.736537 
L 303.040765 -141.133462 
L 302.089225 -139.530386 
L 300.394929 -137.92731 
L 298.2141 -136.324234 
L 295.923842 -134.721158 
L 293.956807 -133.118082 
L 292.721672 -131.515006 
L 292.532708 -129.91193 
L 293.564159 -128.308854 
L 295.832627 -126.705778 
L 299.201768 -125.102703 
L 303.402737 -123.499627 
L 308.068036 -121.896551 
L 312.778954 -120.293475 
L 317.123473 -118.690399 
L 320.754239 -117.087323 
L 323.431347 -115.484247 
L 325.037252 -113.881171 
L 325.561109 -112.278095 
L 325.061943 -110.67502 
L 323.627483 -109.071944 
L 321.344808 -107.468868 
L 318.291552 -105.865792 
L 314.546828 -104.262716 
L 310.213314 -102.65964 
L 305.438143 -101.056564 
L 300.420814 -99.453488 
L 295.401278 -97.850412 
L 290.629435 -96.247337 
L 286.325379 -94.644261 
L 282.644007 -93.041185 
L 279.655776 -91.438109 
L 277.348633 -89.835033 
L 275.647827 -88.231957 
L 274.444537 -86.628881 
L 273.623076 -85.025805 
z
" style="stroke: #2f2f2f; stroke-width: 1.875"/>
    </defs>
    <g clip-path="url(#pe65deed6bc)">
     <use xlink:href="#m3d406dbdc6" x="0" y="299.025703" style="fill: #8b4513; stroke: #2f2f2f; stroke-width: 1.875"/>
    </g>
   </g>
   <g id="FillBetweenPolyCollection_3">
    <defs>
     <path id="madd989ed58" d="M 412.8662 -65.337721 
L 398.228019 -65.337721 
L 394.682179 -65.950346 
L 390.143211 -66.562972 
L 384.670351 -67.175597 
L 378.475714 -67.788222 
L 371.930825 -68.400848 
L 365.539269 -69.013473 
L 359.875229 -69.626099 
L 355.497661 -70.238724 
L 352.858059 -70.851349 
L 352.223109 -71.463975 
L 353.630575 -72.0766 
L 356.888324 -72.689225 
L 361.61529 -73.301851 
L 367.312827 -73.914476 
L 373.448558 -74.527102 
L 379.533866 -75.139727 
L 385.180429 -75.752352 
L 390.128577 -76.364978 
L 394.248283 -76.977603 
L 397.519583 -77.590229 
L 400.002053 -78.202854 
L 401.80242 -78.815479 
L 403.046678 -79.428105 
L 403.85972 -80.04073 
L 404.352704 -80.653355 
L 404.616737 -81.265981 
L 404.721028 -81.878606 
L 404.713848 -82.491232 
L 404.625153 -83.103857 
L 404.470122 -83.716482 
L 404.253118 -84.329108 
L 403.971619 -84.941733 
L 403.619656 -85.554359 
L 403.190411 -86.166984 
L 402.677763 -86.779609 
L 402.07694 -87.392235 
L 401.384621 -88.00486 
L 400.598943 -88.617486 
L 399.719744 -89.230111 
L 398.749099 -89.842736 
L 397.691935 -90.455362 
L 396.556271 -91.067987 
L 395.352572 -91.680612 
L 394.091903 -92.293238 
L 392.782991 -92.905863 
L 391.428956 -93.518489 
L 390.024883 -94.131114 
L 388.55747 -94.743739 
L 387.007375 -95.356365 
L 385.35401 -95.96899 
L 383.581762 -96.581616 
L 381.686247 -97.194241 
L 379.679429 -97.806866 
L 377.592722 -98.419492 
L 375.477483 -99.032117 
L 373.402467 -99.644742 
L 371.448132 -100.257368 
L 369.698415 -100.869993 
L 368.231495 -101.482619 
L 367.111671 -102.095244 
L 366.384224 -102.707869 
L 366.073998 -103.320495 
L 366.186937 -103.93312 
L 366.71293 -104.545746 
L 367.628443 -105.158371 
L 368.898549 -105.770996 
L 370.478989 -106.383622 
L 372.319233 -106.996247 
L 374.366684 -107.608872 
L 376.571022 -108.221498 
L 378.88693 -108.834123 
L 381.273958 -109.446749 
L 383.693672 -110.059374 
L 386.105825 -110.671999 
L 388.465966 -111.284625 
L 390.726348 -111.89725 
L 392.840349 -112.509876 
L 394.768924 -113.122501 
L 396.486566 -113.735126 
L 397.984438 -114.347752 
L 399.269558 -114.960377 
L 400.360531 -115.573002 
L 401.281617 -116.185628 
L 402.05728 -116.798253 
L 402.708807 -117.410879 
L 403.253399 -118.023504 
L 403.70506 -118.636129 
L 404.076091 -119.248755 
L 404.378155 -119.86138 
L 404.622493 -120.474006 
L 404.819502 -121.086631 
L 404.978149 -121.699256 
L 405.105675 -122.311882 
L 405.207705 -122.924507 
L 405.28866 -123.537132 
L 405.352206 -124.149758 
L 405.401557 -124.762383 
L 405.439566 -125.375009 
L 405.468689 -125.987634 
L 405.62553 -125.987634 
L 405.62553 -125.987634 
L 405.654653 -125.375009 
L 405.692662 -124.762383 
L 405.742013 -124.149758 
L 405.805559 -123.537132 
L 405.886514 -122.924507 
L 405.988544 -122.311882 
L 406.11607 -121.699256 
L 406.274717 -121.086631 
L 406.471725 -120.474006 
L 406.716064 -119.86138 
L 407.018127 -119.248755 
L 407.389159 -118.636129 
L 407.84082 -118.023504 
L 408.385412 -117.410879 
L 409.036938 -116.798253 
L 409.812602 -116.185628 
L 410.733687 -115.573002 
L 411.824661 -114.960377 
L 413.109781 -114.347752 
L 414.607653 -113.735126 
L 416.325295 -113.122501 
L 418.25387 -112.509876 
L 420.367871 -111.89725 
L 422.628253 -111.284625 
L 424.988394 -110.671999 
L 427.400546 -110.059374 
L 429.820261 -109.446749 
L 432.207289 -108.834123 
L 434.523197 -108.221498 
L 436.727535 -107.608872 
L 438.774986 -106.996247 
L 440.615229 -106.383622 
L 442.19567 -105.770996 
L 443.465776 -105.158371 
L 444.381289 -104.545746 
L 444.907281 -103.93312 
L 445.020221 -103.320495 
L 444.709994 -102.707869 
L 443.982548 -102.095244 
L 442.862724 -101.482619 
L 441.395804 -100.869993 
L 439.646087 -100.257368 
L 437.691751 -99.644742 
L 435.616735 -99.032117 
L 433.501497 -98.419492 
L 431.41479 -97.806866 
L 429.407972 -97.194241 
L 427.512457 -96.581616 
L 425.740208 -95.96899 
L 424.086844 -95.356365 
L 422.536748 -94.743739 
L 421.069336 -94.131114 
L 419.665263 -93.518489 
L 418.311228 -92.905863 
L 417.002316 -92.293238 
L 415.741647 -91.680612 
L 414.537948 -91.067987 
L 413.402284 -90.455362 
L 412.34512 -89.842736 
L 411.374475 -89.230111 
L 410.495275 -88.617486 
L 409.709598 -88.00486 
L 409.017279 -87.392235 
L 408.416456 -86.779609 
L 407.903808 -86.166984 
L 407.474563 -85.554359 
L 407.1226 -84.941733 
L 406.8411 -84.329108 
L 406.624097 -83.716482 
L 406.469066 -83.103857 
L 406.38037 -82.491232 
L 406.373191 -81.878606 
L 406.477482 -81.265981 
L 406.741515 -80.653355 
L 407.234499 -80.04073 
L 408.047541 -79.428105 
L 409.291798 -78.815479 
L 411.092165 -78.202854 
L 413.574636 -77.590229 
L 416.845936 -76.977603 
L 420.965642 -76.364978 
L 425.91379 -75.752352 
L 431.560352 -75.139727 
L 437.645661 -74.527102 
L 443.781392 -73.914476 
L 449.478929 -73.301851 
L 454.205895 -72.689225 
L 457.463644 -72.0766 
L 458.871109 -71.463975 
L 458.23616 -70.851349 
L 455.596558 -70.238724 
L 451.21899 -69.626099 
L 445.554949 -69.013473 
L 439.163393 -68.400848 
L 432.618504 -67.788222 
L 426.423867 -67.175597 
L 420.951007 -66.562972 
L 416.41204 -65.950346 
L 412.8662 -65.337721 
z
" style="stroke: #2f2f2f; stroke-width: 1.875"/>
    </defs>
    <g clip-path="url(#pe65deed6bc)">
     <use xlink:href="#madd989ed58" x="0" y="299.025703" style="fill: #8b4513; stroke: #2f2f2f; stroke-width: 1.875"/>
    </g>
   </g>
   <g id="line2d_6">
    <path d="M 138.927109 208.247339 
L 138.927109 36.178893 
" clip-path="url(#pe65deed6bc)" style="fill: none; stroke: #2f2f2f; stroke-width: 2.8125; stroke-linecap: round"/>
   </g>
   <g id="line2d_7">
    <path d="M 138.927109 175.972302 
L 138.927109 93.571251 
" clip-path="url(#pe65deed6bc)" style="fill: none; stroke: #2f2f2f; stroke-width: 8.4375; stroke-linecap: round"/>
   </g>
   <g id="line2d_8">
    <path d="M 138.927109 139.163163 
" clip-path="url(#pe65deed6bc)" style="fill: none; stroke: #2f2f2f; stroke-width: 2.25; stroke-linecap: round"/>
    <defs>
     <path id="m224cd8ac10" d="M 3.515625 0 
L -3.515625 -0 
" style="stroke: #ffffff; stroke-width: 1.6875"/>
    </defs>
    <g clip-path="url(#pe65deed6bc)">
     <use xlink:href="#m224cd8ac10" x="138.927109" y="139.163163" style="fill: #ffffff; stroke: #ffffff; stroke-width: 1.6875"/>
    </g>
   </g>
   <g id="line2d_9">
    <path d="M 272.237109 213.999898 
L 272.237109 55.295384 
" clip-path="url(#pe65deed6bc)" style="fill: none; stroke: #2f2f2f; stroke-width: 2.8125; stroke-linecap: round"/>
   </g>
   <g id="line2d_10">
    <path d="M 272.237109 184.258764 
L 272.237109 115.486037 
" clip-path="url(#pe65deed6bc)" style="fill: none; stroke: #2f2f2f; stroke-width: 8.4375; stroke-linecap: round"/>
   </g>
   <g id="line2d_11">
    <path d="M 272.237109 156.071648 
" clip-path="url(#pe65deed6bc)" style="fill: none; stroke: #2f2f2f; stroke-width: 2.25; stroke-linecap: round"/>
    <g clip-path="url(#pe65deed6bc)">
     <use xlink:href="#m224cd8ac10" x="272.237109" y="156.071648" style="fill: #ffffff; stroke: #ffffff; stroke-width: 1.6875"/>
    </g>
   </g>
   <g id="line2d_12">
    <path d="M 405.547109 233.687982 
L 405.547109 173.038069 
" clip-path="url(#pe65deed6bc)" style="fill: none; stroke: #2f2f2f; stroke-width: 2.8125; stroke-linecap: round"/>
   </g>
   <g id="line2d_13">
    <path d="M 405.547109 226.934088 
L 405.547109 194.682668 
" clip-path="url(#pe65deed6bc)" style="fill: none; stroke: #2f2f2f; stroke-width: 8.4375; stroke-linecap: round"/>
   </g>
   <g id="line2d_14">
    <path d="M 405.547109 202.237389 
" clip-path="url(#pe65deed6bc)" style="fill: none; stroke: #2f2f2f; stroke-width: 2.25; stroke-linecap: round"/>
    <g clip-path="url(#pe65deed6bc)">
     <use xlink:href="#m224cd8ac10" x="405.547109" y="202.237389" style="fill: #ffffff; stroke: #ffffff; stroke-width: 1.6875"/>
    </g>
   </g>
   <g id="patch_3">
    <path d="M 72.272109 243.563437 
L 72.272109 26.303437 
" style="fill: none; stroke: #cccccc; stroke-width: 1.875; stroke-linejoin: miter; stroke-linecap: square"/>
   </g>
   <g id="patch_4">
    <path d="M 472.202109 243.563437 
L 472.202109 26.303437 
" style="fill: none; stroke: #cccccc; stroke-width: 1.875; stroke-linejoin: miter; stroke-linecap: square"/>
   </g>
   <g id="patch_5">
    <path d="M 72.272109 243.563437 
L 472.202109 243.563437 
" style="fill: none; stroke: #cccccc; stroke-width: 1.875; stroke-linejoin: miter; stroke-linecap: square"/>
   </g>
   <g id="patch_6">
    <path d="M 72.272109 26.303437 
L 472.202109 26.303437 
" style="fill: none; stroke: #cccccc; stroke-width: 1.875; stroke-linejoin: miter; stroke-linecap: square"/>
   </g>
   <g id="text_12">
    <!-- Equivariance over rotations: Chocolate -->
    <g style="fill: #262626" transform="translate(117.660703 20.303437) scale(0.18 -0.18)">
     <defs>
      <path id="ArialMT-45" d="M 506 0 
L 506 4581 
L 3819 4581 
L 3819 4041 
L 1113 4041 
L 1113 2638 
L 3647 2638 
L 3647 2100 
L 1113 2100 
L 1113 541 
L 3925 541 
L 3925 0 
L 506 0 
z
" transform="scale(0.015625)"/>
      <path id="ArialMT-73" d="M 197 991 
L 753 1078 
Q 800 744 1014 566 
Q 1228 388 1613 388 
Q 2000 388 2187 545 
Q 2375 703 2375 916 
Q 2375 1106 2209 1216 
Q 2094 1291 1634 1406 
Q 1016 1563 777 1677 
Q 538 1791 414 1992 
Q 291 2194 291 2438 
Q 291 2659 392 2848 
Q 494 3038 669 3163 
Q 800 3259 1026 3326 
Q 1253 3394 1513 3394 
Q 1903 3394 2198 3281 
Q 2494 3169 2634 2976 
Q 2775 2784 2828 2463 
L 2278 2388 
Q 2241 2644 2061 2787 
Q 1881 2931 1553 2931 
Q 1166 2931 1000 2803 
Q 834 2675 834 2503 
Q 834 2394 903 2306 
Q 972 2216 1119 2156 
Q 1203 2125 1616 2013 
Q 2213 1853 2448 1751 
Q 2684 1650 2818 1456 
Q 2953 1263 2953 975 
Q 2953 694 2789 445 
Q 2625 197 2315 61 
Q 2006 -75 1616 -75 
Q 969 -75 630 194 
Q 291 463 197 991 
z
" transform="scale(0.015625)"/>
      <path id="ArialMT-3a" d="M 578 2678 
L 578 3319 
L 1219 3319 
L 1219 2678 
L 578 2678 
z
M 578 0 
L 578 641 
L 1219 641 
L 1219 0 
L 578 0 
z
" transform="scale(0.015625)"/>
      <path id="ArialMT-43" d="M 3763 1606 
L 4369 1453 
Q 4178 706 3683 314 
Q 3188 -78 2472 -78 
Q 1731 -78 1267 223 
Q 803 525 561 1097 
Q 319 1669 319 2325 
Q 319 3041 592 3573 
Q 866 4106 1370 4382 
Q 1875 4659 2481 4659 
Q 3169 4659 3637 4309 
Q 4106 3959 4291 3325 
L 3694 3184 
Q 3534 3684 3231 3912 
Q 2928 4141 2469 4141 
Q 1941 4141 1586 3887 
Q 1231 3634 1087 3207 
Q 944 2781 944 2328 
Q 944 1744 1114 1308 
Q 1284 872 1643 656 
Q 2003 441 2422 441 
Q 2931 441 3284 734 
Q 3638 1028 3763 1606 
z
" transform="scale(0.015625)"/>
      <path id="ArialMT-68" d="M 422 0 
L 422 4581 
L 984 4581 
L 984 2938 
Q 1378 3394 1978 3394 
Q 2347 3394 2619 3248 
Q 2891 3103 3008 2847 
Q 3125 2591 3125 2103 
L 3125 0 
L 2563 0 
L 2563 2103 
Q 2563 2525 2380 2717 
Q 2197 2909 1863 2909 
Q 1613 2909 1392 2779 
Q 1172 2650 1078 2428 
Q 984 2206 984 1816 
L 984 0 
L 422 0 
z
" transform="scale(0.015625)"/>
     </defs>
     <use xlink:href="#ArialMT-45"/>
     <use xlink:href="#ArialMT-71" transform="translate(66.699219 0)"/>
     <use xlink:href="#ArialMT-75" transform="translate(122.314453 0)"/>
     <use xlink:href="#ArialMT-69" transform="translate(177.929688 0)"/>
     <use xlink:href="#ArialMT-76" transform="translate(200.146484 0)"/>
     <use xlink:href="#ArialMT-61" transform="translate(250.146484 0)"/>
     <use xlink:href="#ArialMT-72" transform="translate(305.761719 0)"/>
     <use xlink:href="#ArialMT-69" transform="translate(339.0625 0)"/>
     <use xlink:href="#ArialMT-61" transform="translate(361.279297 0)"/>
     <use xlink:href="#ArialMT-6e" transform="translate(416.894531 0)"/>
     <use xlink:href="#ArialMT-63" transform="translate(472.509766 0)"/>
     <use xlink:href="#ArialMT-65" transform="translate(522.509766 0)"/>
     <use xlink:href="#ArialMT-20" transform="translate(578.125 0)"/>
     <use xlink:href="#ArialMT-6f" transform="translate(605.908203 0)"/>
     <use xlink:href="#ArialMT-76" transform="translate(661.523438 0)"/>
     <use xlink:href="#ArialMT-65" transform="translate(711.523438 0)"/>
     <use xlink:href="#ArialMT-72" transform="translate(767.138672 0)"/>
     <use xlink:href="#ArialMT-20" transform="translate(800.439453 0)"/>
     <use xlink:href="#ArialMT-72" transform="translate(828.222656 0)"/>
     <use xlink:href="#ArialMT-6f" transform="translate(861.523438 0)"/>
     <use xlink:href="#ArialMT-74" transform="translate(917.138672 0)"/>
     <use xlink:href="#ArialMT-61" transform="translate(944.921875 0)"/>
     <use xlink:href="#ArialMT-74" transform="translate(1000.537109 0)"/>
     <use xlink:href="#ArialMT-69" transform="translate(1028.320312 0)"/>
     <use xlink:href="#ArialMT-6f" transform="translate(1050.537109 0)"/>
     <use xlink:href="#ArialMT-6e" transform="translate(1106.152344 0)"/>
     <use xlink:href="#ArialMT-73" transform="translate(1161.767578 0)"/>
     <use xlink:href="#ArialMT-3a" transform="translate(1211.767578 0)"/>
     <use xlink:href="#ArialMT-20" transform="translate(1239.550781 0)"/>
     <use xlink:href="#ArialMT-43" transform="translate(1267.333984 0)"/>
     <use xlink:href="#ArialMT-68" transform="translate(1339.550781 0)"/>
     <use xlink:href="#ArialMT-6f" transform="translate(1395.166016 0)"/>
     <use xlink:href="#ArialMT-63" transform="translate(1450.78125 0)"/>
     <use xlink:href="#ArialMT-6f" transform="translate(1500.78125 0)"/>
     <use xlink:href="#ArialMT-6c" transform="translate(1556.396484 0)"/>
     <use xlink:href="#ArialMT-61" transform="translate(1578.613281 0)"/>
     <use xlink:href="#ArialMT-74" transform="translate(1634.228516 0)"/>
     <use xlink:href="#ArialMT-65" transform="translate(1662.011719 0)"/>
    </g>
   </g>
  </g>
 </g>
 <defs>
  <clipPath id="pe65deed6bc">
   <rect x="72.272109" y="26.303437" width="399.93" height="217.26"/>
  </clipPath>
 </defs>
</svg>
