<?xml version="1.0" encoding="utf-8" standalone="no"?>
<!DOCTYPE svg PUBLIC "-//W3C//DTD SVG 1.1//EN"
  "http://www.w3.org/Graphics/SVG/1.1/DTD/svg11.dtd">
<svg xmlns:xlink="http://www.w3.org/1999/xlink" width="479.116875pt" height="298.986328pt" viewBox="0 0 479.116875 298.986328" xmlns="http://www.w3.org/2000/svg" version="1.1">
 <metadata>
  <rdf:RDF xmlns:dc="http://purl.org/dc/elements/1.1/" xmlns:cc="http://creativecommons.org/ns#" xmlns:rdf="http://www.w3.org/1999/02/22-rdf-syntax-ns#">
   <cc:Work>
    <dc:type rdf:resource="http://purl.org/dc/dcmitype/StillImage"/>
    <dc:date>2025-12-09T18:13:05.811743</dc:date>
    <dc:format>image/svg+xml</dc:format>
    <dc:creator>
     <cc:Agent>
      <dc:title>Matplotlib v3.10.7, https://matplotlib.org/</dc:title>
     </cc:Agent>
    </dc:creator>
   </cc:Work>
  </rdf:RDF>
 </metadata>
 <defs>
  <style type="text/css">*{stroke-linejoin: round; stroke-linecap: butt}</style>
 </defs>
 <g id="figure_1">
  <g id="patch_1">
   <path d="M 0 298.986328 
L 479.116875 298.986328 
L 479.116875 0 
L 0 0 
z
" style="fill: #ffffff"/>
  </g>
  <g id="axes_1">
   <g id="patch_2">
    <path d="M 63.526875 243.524063 
L 471.916875 243.524063 
L 471.916875 26.084062 
L 63.526875 26.084062 
z
" style="fill: #ffffff"/>
   </g>
   <g id="matplotlib.axis_1">
    <g id="xtick_1">
     <g id="text_1">
      <!-- 0 -->
      <g style="fill: #262626" transform="translate(127.004102 267.834453) scale(0.165 -0.165)">
       <defs>
        <path id="ArialMT-30" d="M 266 2259 
Q 266 3072 433 3567 
Q 600 4063 929 4331 
Q 1259 4600 1759 4600 
Q 2128 4600 2406 4451 
Q 2684 4303 2865 4023 
Q 3047 3744 3150 3342 
Q 3253 2941 3253 2259 
Q 3253 1453 3087 958 
Q 2922 463 2592 192 
Q 2263 -78 1759 -78 
Q 1097 -78 719 397 
Q 266 969 266 2259 
z
M 844 2259 
Q 844 1131 1108 757 
Q 1372 384 1759 384 
Q 2147 384 2411 759 
Q 2675 1134 2675 2259 
Q 2675 3391 2411 3762 
Q 2147 4134 1753 4134 
Q 1366 4134 1134 3806 
Q 844 3388 844 2259 
z
" transform="scale(0.015625)"/>
       </defs>
       <use xlink:href="#ArialMT-30"/>
      </g>
     </g>
    </g>
    <g id="xtick_2">
     <g id="text_2">
      <!-- 1 -->
      <g style="fill: #262626" transform="translate(263.134102 267.834453) scale(0.165 -0.165)">
       <defs>
        <path id="ArialMT-31" d="M 2384 0 
L 1822 0 
L 1822 3584 
Q 1619 3391 1289 3197 
Q 959 3003 697 2906 
L 697 3450 
Q 1169 3672 1522 3987 
Q 1875 4303 2022 4600 
L 2384 4600 
L 2384 0 
z
" transform="scale(0.015625)"/>
       </defs>
       <use xlink:href="#ArialMT-31"/>
      </g>
     </g>
    </g>
    <g id="xtick_3">
     <g id="text_3">
      <!-- 2 -->
      <g style="fill: #262626" transform="translate(399.264102 267.834453) scale(0.165 -0.165)">
       <defs>
        <path id="ArialMT-32" d="M 3222 541 
L 3222 0 
L 194 0 
Q 188 203 259 391 
Q 375 700 629 1000 
Q 884 1300 1366 1694 
Q 2113 2306 2375 2664 
Q 2638 3022 2638 3341 
Q 2638 3675 2398 3904 
Q 2159 4134 1775 4134 
Q 1369 4134 1125 3890 
Q 881 3647 878 3216 
L 300 3275 
Q 359 3922 746 4261 
Q 1134 4600 1788 4600 
Q 2447 4600 2831 4234 
Q 3216 3869 3216 3328 
Q 3216 3053 3103 2787 
Q 2991 2522 2730 2228 
Q 2469 1934 1863 1422 
Q 1356 997 1212 845 
Q 1069 694 975 541 
L 3222 541 
z
" transform="scale(0.015625)"/>
       </defs>
       <use xlink:href="#ArialMT-32"/>
      </g>
     </g>
    </g>
    <g id="text_4">
     <!-- Layer -->
     <g style="fill: #262626" transform="translate(245.210625 287.997891) scale(0.18 -0.18)">
      <defs>
       <path id="ArialMT-4c" d="M 469 0 
L 469 4581 
L 1075 4581 
L 1075 541 
L 3331 541 
L 3331 0 
L 469 0 
z
" transform="scale(0.015625)"/>
       <path id="ArialMT-61" d="M 2588 409 
Q 2275 144 1986 34 
Q 1697 -75 1366 -75 
Q 819 -75 525 192 
Q 231 459 231 875 
Q 231 1119 342 1320 
Q 453 1522 633 1644 
Q 813 1766 1038 1828 
Q 1203 1872 1538 1913 
Q 2219 1994 2541 2106 
Q 2544 2222 2544 2253 
Q 2544 2597 2384 2738 
Q 2169 2928 1744 2928 
Q 1347 2928 1158 2789 
Q 969 2650 878 2297 
L 328 2372 
Q 403 2725 575 2942 
Q 747 3159 1072 3276 
Q 1397 3394 1825 3394 
Q 2250 3394 2515 3294 
Q 2781 3194 2906 3042 
Q 3031 2891 3081 2659 
Q 3109 2516 3109 2141 
L 3109 1391 
Q 3109 606 3145 398 
Q 3181 191 3288 0 
L 2700 0 
Q 2613 175 2588 409 
z
M 2541 1666 
Q 2234 1541 1622 1453 
Q 1275 1403 1131 1340 
Q 988 1278 909 1158 
Q 831 1038 831 891 
Q 831 666 1001 516 
Q 1172 366 1500 366 
Q 1825 366 2078 508 
Q 2331 650 2450 897 
Q 2541 1088 2541 1459 
L 2541 1666 
z
" transform="scale(0.015625)"/>
       <path id="ArialMT-79" d="M 397 -1278 
L 334 -750 
Q 519 -800 656 -800 
Q 844 -800 956 -737 
Q 1069 -675 1141 -563 
Q 1194 -478 1313 -144 
Q 1328 -97 1363 -6 
L 103 3319 
L 709 3319 
L 1400 1397 
Q 1534 1031 1641 628 
Q 1738 1016 1872 1384 
L 2581 3319 
L 3144 3319 
L 1881 -56 
Q 1678 -603 1566 -809 
Q 1416 -1088 1222 -1217 
Q 1028 -1347 759 -1347 
Q 597 -1347 397 -1278 
z
" transform="scale(0.015625)"/>
       <path id="ArialMT-65" d="M 2694 1069 
L 3275 997 
Q 3138 488 2766 206 
Q 2394 -75 1816 -75 
Q 1088 -75 661 373 
Q 234 822 234 1631 
Q 234 2469 665 2931 
Q 1097 3394 1784 3394 
Q 2450 3394 2872 2941 
Q 3294 2488 3294 1666 
Q 3294 1616 3291 1516 
L 816 1516 
Q 847 969 1125 678 
Q 1403 388 1819 388 
Q 2128 388 2347 550 
Q 2566 713 2694 1069 
z
M 847 1978 
L 2700 1978 
Q 2663 2397 2488 2606 
Q 2219 2931 1791 2931 
Q 1403 2931 1139 2672 
Q 875 2413 847 1978 
z
" transform="scale(0.015625)"/>
       <path id="ArialMT-72" d="M 416 0 
L 416 3319 
L 922 3319 
L 922 2816 
Q 1116 3169 1280 3281 
Q 1444 3394 1641 3394 
Q 1925 3394 2219 3213 
L 2025 2691 
Q 1819 2813 1613 2813 
Q 1428 2813 1281 2702 
Q 1134 2591 1072 2394 
Q 978 2094 978 1738 
L 978 0 
L 416 0 
z
" transform="scale(0.015625)"/>
      </defs>
      <use xlink:href="#ArialMT-4c"/>
      <use xlink:href="#ArialMT-61" transform="translate(55.615234 0)"/>
      <use xlink:href="#ArialMT-79" transform="translate(111.230469 0)"/>
      <use xlink:href="#ArialMT-65" transform="translate(161.230469 0)"/>
      <use xlink:href="#ArialMT-72" transform="translate(216.845703 0)"/>
     </g>
    </g>
   </g>
   <g id="matplotlib.axis_2">
    <g id="ytick_1">
     <g id="line2d_1">
      <path d="M 63.526875 202.572374 
L 471.916875 202.572374 
" clip-path="url(#pa2e89f94b5)" style="fill: none; stroke: #cccccc; stroke-width: 1.5; stroke-linecap: round"/>
     </g>
     <g id="text_5">
      <!-- 1.5 -->
      <g style="fill: #262626" transform="translate(28.091875 208.47757) scale(0.165 -0.165)">
       <defs>
        <path id="ArialMT-2e" d="M 581 0 
L 581 641 
L 1222 641 
L 1222 0 
L 581 0 
z
" transform="scale(0.015625)"/>
        <path id="ArialMT-35" d="M 266 1200 
L 856 1250 
Q 922 819 1161 601 
Q 1400 384 1738 384 
Q 2144 384 2425 690 
Q 2706 997 2706 1503 
Q 2706 1984 2436 2262 
Q 2166 2541 1728 2541 
Q 1456 2541 1237 2417 
Q 1019 2294 894 2097 
L 366 2166 
L 809 4519 
L 3088 4519 
L 3088 3981 
L 1259 3981 
L 1013 2750 
Q 1425 3038 1878 3038 
Q 2478 3038 2890 2622 
Q 3303 2206 3303 1553 
Q 3303 931 2941 478 
Q 2500 -78 1738 -78 
Q 1113 -78 717 272 
Q 322 622 266 1200 
z
" transform="scale(0.015625)"/>
       </defs>
       <use xlink:href="#ArialMT-31"/>
       <use xlink:href="#ArialMT-2e" transform="translate(55.615234 0)"/>
       <use xlink:href="#ArialMT-35" transform="translate(83.398438 0)"/>
      </g>
     </g>
    </g>
    <g id="ytick_2">
     <g id="line2d_2">
      <path d="M 63.526875 159.191921 
L 471.916875 159.191921 
" clip-path="url(#pa2e89f94b5)" style="fill: none; stroke: #cccccc; stroke-width: 1.5; stroke-linecap: round"/>
     </g>
     <g id="text_6">
      <!-- 2.0 -->
      <g style="fill: #262626" transform="translate(28.091875 165.097116) scale(0.165 -0.165)">
       <use xlink:href="#ArialMT-32"/>
       <use xlink:href="#ArialMT-2e" transform="translate(55.615234 0)"/>
       <use xlink:href="#ArialMT-30" transform="translate(83.398438 0)"/>
      </g>
     </g>
    </g>
    <g id="ytick_3">
     <g id="line2d_3">
      <path d="M 63.526875 115.811467 
L 471.916875 115.811467 
" clip-path="url(#pa2e89f94b5)" style="fill: none; stroke: #cccccc; stroke-width: 1.5; stroke-linecap: round"/>
     </g>
     <g id="text_7">
      <!-- 2.5 -->
      <g style="fill: #262626" transform="translate(28.091875 121.716662) scale(0.165 -0.165)">
       <use xlink:href="#ArialMT-32"/>
       <use xlink:href="#ArialMT-2e" transform="translate(55.615234 0)"/>
       <use xlink:href="#ArialMT-35" transform="translate(83.398438 0)"/>
      </g>
     </g>
    </g>
    <g id="ytick_4">
     <g id="line2d_4">
      <path d="M 63.526875 72.431013 
L 471.916875 72.431013 
" clip-path="url(#pa2e89f94b5)" style="fill: none; stroke: #cccccc; stroke-width: 1.5; stroke-linecap: round"/>
     </g>
     <g id="text_8">
      <!-- 3.0 -->
      <g style="fill: #262626" transform="translate(28.091875 78.336208) scale(0.165 -0.165)">
       <defs>
        <path id="ArialMT-33" d="M 269 1209 
L 831 1284 
Q 928 806 1161 595 
Q 1394 384 1728 384 
Q 2125 384 2398 659 
Q 2672 934 2672 1341 
Q 2672 1728 2419 1979 
Q 2166 2231 1775 2231 
Q 1616 2231 1378 2169 
L 1441 2663 
Q 1497 2656 1531 2656 
Q 1891 2656 2178 2843 
Q 2466 3031 2466 3422 
Q 2466 3731 2256 3934 
Q 2047 4138 1716 4138 
Q 1388 4138 1169 3931 
Q 950 3725 888 3313 
L 325 3413 
Q 428 3978 793 4289 
Q 1159 4600 1703 4600 
Q 2078 4600 2393 4439 
Q 2709 4278 2876 4000 
Q 3044 3722 3044 3409 
Q 3044 3113 2884 2869 
Q 2725 2625 2413 2481 
Q 2819 2388 3044 2092 
Q 3269 1797 3269 1353 
Q 3269 753 2831 336 
Q 2394 -81 1725 -81 
Q 1122 -81 723 278 
Q 325 638 269 1209 
z
" transform="scale(0.015625)"/>
       </defs>
       <use xlink:href="#ArialMT-33"/>
       <use xlink:href="#ArialMT-2e" transform="translate(55.615234 0)"/>
       <use xlink:href="#ArialMT-30" transform="translate(83.398438 0)"/>
      </g>
     </g>
    </g>
    <g id="ytick_5">
     <g id="line2d_5">
      <path d="M 63.526875 29.050559 
L 471.916875 29.050559 
" clip-path="url(#pa2e89f94b5)" style="fill: none; stroke: #cccccc; stroke-width: 1.5; stroke-linecap: round"/>
     </g>
     <g id="text_9">
      <!-- 3.5 -->
      <g style="fill: #262626" transform="translate(28.091875 34.955754) scale(0.165 -0.165)">
       <use xlink:href="#ArialMT-33"/>
       <use xlink:href="#ArialMT-2e" transform="translate(55.615234 0)"/>
       <use xlink:href="#ArialMT-35" transform="translate(83.398438 0)"/>
      </g>
     </g>
    </g>
    <g id="text_10">
     <!-- Vector norm (mean |v|) -->
     <g style="fill: #262626" transform="translate(20.303438 226.005) rotate(-90) scale(0.18 -0.18)">
      <defs>
       <path id="ArialMT-56" d="M 1803 0 
L 28 4581 
L 684 4581 
L 1875 1253 
Q 2019 853 2116 503 
Q 2222 878 2363 1253 
L 3600 4581 
L 4219 4581 
L 2425 0 
L 1803 0 
z
" transform="scale(0.015625)"/>
       <path id="ArialMT-63" d="M 2588 1216 
L 3141 1144 
Q 3050 572 2676 248 
Q 2303 -75 1759 -75 
Q 1078 -75 664 370 
Q 250 816 250 1647 
Q 250 2184 428 2587 
Q 606 2991 970 3192 
Q 1334 3394 1763 3394 
Q 2303 3394 2647 3120 
Q 2991 2847 3088 2344 
L 2541 2259 
Q 2463 2594 2264 2762 
Q 2066 2931 1784 2931 
Q 1359 2931 1093 2626 
Q 828 2322 828 1663 
Q 828 994 1084 691 
Q 1341 388 1753 388 
Q 2084 388 2306 591 
Q 2528 794 2588 1216 
z
" transform="scale(0.015625)"/>
       <path id="ArialMT-74" d="M 1650 503 
L 1731 6 
Q 1494 -44 1306 -44 
Q 1000 -44 831 53 
Q 663 150 594 308 
Q 525 466 525 972 
L 525 2881 
L 113 2881 
L 113 3319 
L 525 3319 
L 525 4141 
L 1084 4478 
L 1084 3319 
L 1650 3319 
L 1650 2881 
L 1084 2881 
L 1084 941 
Q 1084 700 1114 631 
Q 1144 563 1211 522 
Q 1278 481 1403 481 
Q 1497 481 1650 503 
z
" transform="scale(0.015625)"/>
       <path id="ArialMT-6f" d="M 213 1659 
Q 213 2581 725 3025 
Q 1153 3394 1769 3394 
Q 2453 3394 2887 2945 
Q 3322 2497 3322 1706 
Q 3322 1066 3130 698 
Q 2938 331 2570 128 
Q 2203 -75 1769 -75 
Q 1072 -75 642 372 
Q 213 819 213 1659 
z
M 791 1659 
Q 791 1022 1069 705 
Q 1347 388 1769 388 
Q 2188 388 2466 706 
Q 2744 1025 2744 1678 
Q 2744 2294 2464 2611 
Q 2184 2928 1769 2928 
Q 1347 2928 1069 2612 
Q 791 2297 791 1659 
z
" transform="scale(0.015625)"/>
       <path id="ArialMT-20" transform="scale(0.015625)"/>
       <path id="ArialMT-6e" d="M 422 0 
L 422 3319 
L 928 3319 
L 928 2847 
Q 1294 3394 1984 3394 
Q 2284 3394 2536 3286 
Q 2788 3178 2913 3003 
Q 3038 2828 3088 2588 
Q 3119 2431 3119 2041 
L 3119 0 
L 2556 0 
L 2556 2019 
Q 2556 2363 2490 2533 
Q 2425 2703 2258 2804 
Q 2091 2906 1866 2906 
Q 1506 2906 1245 2678 
Q 984 2450 984 1813 
L 984 0 
L 422 0 
z
" transform="scale(0.015625)"/>
       <path id="ArialMT-6d" d="M 422 0 
L 422 3319 
L 925 3319 
L 925 2853 
Q 1081 3097 1340 3245 
Q 1600 3394 1931 3394 
Q 2300 3394 2536 3241 
Q 2772 3088 2869 2813 
Q 3263 3394 3894 3394 
Q 4388 3394 4653 3120 
Q 4919 2847 4919 2278 
L 4919 0 
L 4359 0 
L 4359 2091 
Q 4359 2428 4304 2576 
Q 4250 2725 4106 2815 
Q 3963 2906 3769 2906 
Q 3419 2906 3187 2673 
Q 2956 2441 2956 1928 
L 2956 0 
L 2394 0 
L 2394 2156 
Q 2394 2531 2256 2718 
Q 2119 2906 1806 2906 
Q 1569 2906 1367 2781 
Q 1166 2656 1075 2415 
Q 984 2175 984 1722 
L 984 0 
L 422 0 
z
" transform="scale(0.015625)"/>
       <path id="ArialMT-28" d="M 1497 -1347 
Q 1031 -759 709 28 
Q 388 816 388 1659 
Q 388 2403 628 3084 
Q 909 3875 1497 4659 
L 1900 4659 
Q 1522 4009 1400 3731 
Q 1209 3300 1100 2831 
Q 966 2247 966 1656 
Q 966 153 1900 -1347 
L 1497 -1347 
z
" transform="scale(0.015625)"/>
       <path id="ArialMT-7c" d="M 588 -1347 
L 588 4659 
L 1078 4659 
L 1078 -1347 
L 588 -1347 
z
" transform="scale(0.015625)"/>
       <path id="ArialMT-76" d="M 1344 0 
L 81 3319 
L 675 3319 
L 1388 1331 
Q 1503 1009 1600 663 
Q 1675 925 1809 1294 
L 2547 3319 
L 3125 3319 
L 1869 0 
L 1344 0 
z
" transform="scale(0.015625)"/>
       <path id="ArialMT-29" d="M 791 -1347 
L 388 -1347 
Q 1322 153 1322 1656 
Q 1322 2244 1188 2822 
Q 1081 3291 891 3722 
Q 769 4003 388 4659 
L 791 4659 
Q 1378 3875 1659 3084 
Q 1900 2403 1900 1659 
Q 1900 816 1576 28 
Q 1253 -759 791 -1347 
z
" transform="scale(0.015625)"/>
      </defs>
      <use xlink:href="#ArialMT-56"/>
      <use xlink:href="#ArialMT-65" transform="translate(61.199219 0)"/>
      <use xlink:href="#ArialMT-63" transform="translate(116.814453 0)"/>
      <use xlink:href="#ArialMT-74" transform="translate(166.814453 0)"/>
      <use xlink:href="#ArialMT-6f" transform="translate(194.597656 0)"/>
      <use xlink:href="#ArialMT-72" transform="translate(250.212891 0)"/>
      <use xlink:href="#ArialMT-20" transform="translate(283.513672 0)"/>
      <use xlink:href="#ArialMT-6e" transform="translate(311.296875 0)"/>
      <use xlink:href="#ArialMT-6f" transform="translate(366.912109 0)"/>
      <use xlink:href="#ArialMT-72" transform="translate(422.527344 0)"/>
      <use xlink:href="#ArialMT-6d" transform="translate(455.828125 0)"/>
      <use xlink:href="#ArialMT-20" transform="translate(539.128906 0)"/>
      <use xlink:href="#ArialMT-28" transform="translate(566.912109 0)"/>
      <use xlink:href="#ArialMT-6d" transform="translate(600.212891 0)"/>
      <use xlink:href="#ArialMT-65" transform="translate(683.513672 0)"/>
      <use xlink:href="#ArialMT-61" transform="translate(739.128906 0)"/>
      <use xlink:href="#ArialMT-6e" transform="translate(794.744141 0)"/>
      <use xlink:href="#ArialMT-20" transform="translate(850.359375 0)"/>
      <use xlink:href="#ArialMT-7c" transform="translate(878.142578 0)"/>
      <use xlink:href="#ArialMT-76" transform="translate(904.119141 0)"/>
      <use xlink:href="#ArialMT-7c" transform="translate(954.119141 0)"/>
      <use xlink:href="#ArialMT-29" transform="translate(980.095703 0)"/>
     </g>
    </g>
   </g>
   <g id="FillBetweenPolyCollection_1">
    <defs>
     <path id="m54679aaa31" d="M 184.92321 -65.345902 
L 78.26054 -65.345902 
L 77.640392 -67.342596 
L 77.266807 -69.33929 
L 77.139875 -71.335985 
L 77.255262 -73.332679 
L 77.604268 -75.329373 
L 78.173998 -77.326067 
L 78.947649 -79.322761 
L 79.904905 -81.319456 
L 81.022427 -83.31615 
L 82.274425 -85.312844 
L 83.633295 -87.309538 
L 85.070299 -89.306233 
L 86.556274 -91.302927 
L 88.062339 -93.299621 
L 89.560592 -95.296315 
L 91.024764 -97.293009 
L 92.430824 -99.289704 
L 93.757506 -101.286398 
L 94.986756 -103.283092 
L 96.10408 -105.279786 
L 97.098791 -107.276481 
L 97.964144 -109.273175 
L 98.697366 -111.269869 
L 99.299574 -113.266563 
L 99.775598 -115.263257 
L 100.133705 -117.259952 
L 100.385236 -119.256646 
L 100.544186 -121.25334 
L 100.626709 -123.250034 
L 100.650598 -125.246728 
L 100.634728 -127.243423 
L 100.598495 -129.240117 
L 100.561263 -131.236811 
L 100.541832 -133.233505 
L 100.557937 -135.2302 
L 100.625808 -137.226894 
L 100.759774 -139.223588 
L 100.97195 -141.220282 
L 101.271985 -143.216976 
L 101.666895 -145.213671 
L 102.160975 -147.210365 
L 102.755777 -149.207059 
L 103.450175 -151.203753 
L 104.240484 -153.200447 
L 105.120645 -155.197142 
L 106.082457 -157.193836 
L 107.11584 -159.19053 
L 108.209137 -161.187224 
L 109.349418 -163.183919 
L 110.5228 -165.180613 
L 111.71475 -167.177307 
L 112.91038 -169.174001 
L 114.094712 -171.170695 
L 115.252916 -173.16739 
L 116.370517 -175.164084 
L 117.433555 -177.160778 
L 118.428719 -179.157472 
L 119.343441 -181.154166 
L 120.165954 -183.150861 
L 120.88533 -185.147555 
L 121.491493 -187.144249 
L 121.975216 -189.140943 
L 122.328112 -191.137638 
L 122.542629 -193.134332 
L 122.612049 -195.131026 
L 122.530499 -197.12772 
L 122.292983 -199.124414 
L 121.895442 -201.121109 
L 121.334827 -203.117803 
L 120.609208 -205.114497 
L 119.7179 -207.111191 
L 118.661613 -209.107885 
L 117.442613 -211.10458 
L 116.064892 -213.101274 
L 114.534334 -215.097968 
L 112.858873 -217.094662 
L 111.048623 -219.091357 
L 109.115985 -221.088051 
L 107.075696 -223.084745 
L 104.944843 -225.081439 
L 102.742798 -227.078133 
L 100.491101 -229.074828 
L 98.213262 -231.071522 
L 95.934492 -233.068216 
L 93.681369 -235.06491 
L 91.48143 -237.061604 
L 89.362712 -239.058299 
L 87.353241 -241.054993 
L 85.480487 -243.051687 
L 83.770806 -245.048381 
L 82.24887 -247.045076 
L 80.937129 -249.04177 
L 79.855291 -251.038464 
L 79.019865 -253.035158 
L 78.443771 -255.031852 
L 78.136026 -257.028547 
L 78.101533 -259.025241 
L 78.340961 -261.021935 
L 78.850744 -263.018629 
L 184.333006 -263.018629 
L 184.333006 -263.018629 
L 184.842789 -261.021935 
L 185.082217 -259.025241 
L 185.047724 -257.028547 
L 184.739979 -255.031852 
L 184.163885 -253.035158 
L 183.328459 -251.038464 
L 182.246621 -249.04177 
L 180.93488 -247.045076 
L 179.412944 -245.048381 
L 177.703263 -243.051687 
L 175.830509 -241.054993 
L 173.821038 -239.058299 
L 171.70232 -237.061604 
L 169.502381 -235.06491 
L 167.249258 -233.068216 
L 164.970488 -231.071522 
L 162.692649 -229.074828 
L 160.440952 -227.078133 
L 158.238907 -225.081439 
L 156.108054 -223.084745 
L 154.067765 -221.088051 
L 152.135127 -219.091357 
L 150.324877 -217.094662 
L 148.649416 -215.097968 
L 147.118858 -213.101274 
L 145.741137 -211.10458 
L 144.522137 -209.107885 
L 143.46585 -207.111191 
L 142.574542 -205.114497 
L 141.848923 -203.117803 
L 141.288308 -201.121109 
L 140.890767 -199.124414 
L 140.653251 -197.12772 
L 140.571701 -195.131026 
L 140.641121 -193.134332 
L 140.855638 -191.137638 
L 141.208534 -189.140943 
L 141.692257 -187.144249 
L 142.29842 -185.147555 
L 143.017796 -183.150861 
L 143.840309 -181.154166 
L 144.755031 -179.157472 
L 145.750195 -177.160778 
L 146.813233 -175.164084 
L 147.930834 -173.16739 
L 149.089038 -171.170695 
L 150.27337 -169.174001 
L 151.469 -167.177307 
L 152.66095 -165.180613 
L 153.834332 -163.183919 
L 154.974613 -161.187224 
L 156.06791 -159.19053 
L 157.101293 -157.193836 
L 158.063105 -155.197142 
L 158.943266 -153.200447 
L 159.733575 -151.203753 
L 160.427973 -149.207059 
L 161.022775 -147.210365 
L 161.516855 -145.213671 
L 161.911765 -143.216976 
L 162.2118 -141.220282 
L 162.423976 -139.223588 
L 162.557942 -137.226894 
L 162.625813 -135.2302 
L 162.641918 -133.233505 
L 162.622487 -131.236811 
L 162.585255 -129.240117 
L 162.549022 -127.243423 
L 162.533152 -125.246728 
L 162.557041 -123.250034 
L 162.639564 -121.25334 
L 162.798514 -119.256646 
L 163.050045 -117.259952 
L 163.408152 -115.263257 
L 163.884176 -113.266563 
L 164.486384 -111.269869 
L 165.219606 -109.273175 
L 166.084959 -107.276481 
L 167.07967 -105.279786 
L 168.196994 -103.283092 
L 169.426244 -101.286398 
L 170.752926 -99.289704 
L 172.158986 -97.293009 
L 173.623158 -95.296315 
L 175.121411 -93.299621 
L 176.627476 -91.302927 
L 178.113451 -89.306233 
L 179.550455 -87.309538 
L 180.909325 -85.312844 
L 182.161323 -83.31615 
L 183.278845 -81.319456 
L 184.236101 -79.322761 
L 185.009752 -77.326067 
L 185.579482 -75.329373 
L 185.928488 -73.332679 
L 186.043875 -71.335985 
L 185.916943 -69.33929 
L 185.543358 -67.342596 
L 184.92321 -65.345902 
z
" style="stroke: #868686; stroke-width: 1.875"/>
    </defs>
    <g clip-path="url(#pa2e89f94b5)">
     <use xlink:href="#m54679aaa31" x="0" y="298.986328" style="fill: #f5e6c8; stroke: #868686; stroke-width: 1.875"/>
    </g>
   </g>
   <g id="FillBetweenPolyCollection_2">
    <defs>
     <path id="m0f8d2991c6" d="M 290.444327 -74.206085 
L 244.999423 -74.206085 
L 242.439973 -74.534858 
L 239.806501 -74.863631 
L 237.135105 -75.192405 
L 234.466931 -75.521178 
L 231.847334 -75.849951 
L 229.324775 -76.178725 
L 226.949452 -76.507498 
L 224.771726 -76.836271 
L 222.840395 -77.165045 
L 221.200894 -77.493818 
L 219.893508 -77.822591 
L 218.951688 -78.151364 
L 218.400565 -78.480138 
L 218.255745 -78.808911 
L 218.522454 -79.137684 
L 219.19508 -79.466458 
L 220.257153 -79.795231 
L 221.681741 -80.124004 
L 223.432256 -80.452778 
L 225.463615 -80.781551 
L 227.723669 -81.110324 
L 230.154843 -81.439098 
L 232.695877 -81.767871 
L 235.28357 -82.096644 
L 237.854471 -82.425418 
L 240.34642 -82.754191 
L 242.699911 -83.082964 
L 244.859236 -83.411738 
L 246.773429 -83.740511 
L 248.397 -84.069284 
L 249.69053 -84.398057 
L 250.621142 -84.726831 
L 251.16292 -85.055604 
L 251.297315 -85.384377 
L 251.01357 -85.713151 
L 250.309175 -86.041924 
L 249.190362 -86.370697 
L 247.672579 -86.699471 
L 245.780912 -87.028244 
L 243.550367 -87.357017 
L 241.025927 -87.685791 
L 238.262293 -88.014564 
L 235.323236 -88.343337 
L 232.280493 -88.672111 
L 229.212166 -89.000884 
L 226.20066 -89.329657 
L 223.330171 -89.658431 
L 220.683849 -89.987204 
L 218.340746 -90.315977 
L 216.372717 -90.64475 
L 214.841458 -90.973524 
L 213.795865 -91.302297 
L 213.269875 -91.63107 
L 213.280958 -91.959844 
L 213.829344 -92.288617 
L 214.898059 -92.61739 
L 216.453753 -92.946164 
L 218.448282 -93.274937 
L 220.820923 -93.60371 
L 223.50109 -93.932484 
L 226.411362 -94.261257 
L 229.470646 -94.59003 
L 232.597287 -94.918804 
L 235.711965 -95.247577 
L 238.740232 -95.57635 
L 241.614607 -95.905124 
L 244.276162 -96.233897 
L 246.6756 -96.56267 
L 248.773836 -96.891444 
L 250.542155 -97.220217 
L 251.962015 -97.54899 
L 253.024588 -97.877763 
L 253.730115 -98.206537 
L 254.087177 -98.53531 
L 254.111915 -98.864083 
L 253.827263 -99.192857 
L 253.262189 -99.52163 
L 252.450965 -99.850403 
L 251.432431 -100.179177 
L 250.249228 -100.50795 
L 248.94697 -100.836723 
L 247.573325 -101.165497 
L 246.17699 -101.49427 
L 244.806547 -101.823043 
L 243.509237 -102.151817 
L 242.329658 -102.48059 
L 241.308464 -102.809363 
L 240.481109 -103.138137 
L 239.876721 -103.46691 
L 239.517167 -103.795683 
L 239.416381 -104.124456 
L 239.579999 -104.45323 
L 240.005337 -104.782003 
L 240.681723 -105.110776 
L 241.591168 -105.43955 
L 242.709331 -105.768323 
L 244.00674 -106.097096 
L 245.450177 -106.42587 
L 247.00416 -106.754643 
L 288.43959 -106.754643 
L 288.43959 -106.754643 
L 289.993573 -106.42587 
L 291.43701 -106.097096 
L 292.734419 -105.768323 
L 293.852582 -105.43955 
L 294.762027 -105.110776 
L 295.438413 -104.782003 
L 295.863751 -104.45323 
L 296.027369 -104.124456 
L 295.926583 -103.795683 
L 295.567029 -103.46691 
L 294.962641 -103.138137 
L 294.135286 -102.809363 
L 293.114092 -102.48059 
L 291.934513 -102.151817 
L 290.637203 -101.823043 
L 289.26676 -101.49427 
L 287.870425 -101.165497 
L 286.49678 -100.836723 
L 285.194522 -100.50795 
L 284.011319 -100.179177 
L 282.992785 -99.850403 
L 282.181561 -99.52163 
L 281.616487 -99.192857 
L 281.331835 -98.864083 
L 281.356573 -98.53531 
L 281.713635 -98.206537 
L 282.419162 -97.877763 
L 283.481735 -97.54899 
L 284.901595 -97.220217 
L 286.669914 -96.891444 
L 288.76815 -96.56267 
L 291.167588 -96.233897 
L 293.829143 -95.905124 
L 296.703518 -95.57635 
L 299.731785 -95.247577 
L 302.846463 -94.918804 
L 305.973104 -94.59003 
L 309.032388 -94.261257 
L 311.94266 -93.932484 
L 314.622827 -93.60371 
L 316.995468 -93.274937 
L 318.989997 -92.946164 
L 320.545691 -92.61739 
L 321.614406 -92.288617 
L 322.162792 -91.959844 
L 322.173875 -91.63107 
L 321.647885 -91.302297 
L 320.602292 -90.973524 
L 319.071033 -90.64475 
L 317.103004 -90.315977 
L 314.759901 -89.987204 
L 312.113579 -89.658431 
L 309.24309 -89.329657 
L 306.231584 -89.000884 
L 303.163257 -88.672111 
L 300.120514 -88.343337 
L 297.181457 -88.014564 
L 294.417823 -87.685791 
L 291.893383 -87.357017 
L 289.662838 -87.028244 
L 287.771171 -86.699471 
L 286.253388 -86.370697 
L 285.134575 -86.041924 
L 284.43018 -85.713151 
L 284.146435 -85.384377 
L 284.28083 -85.055604 
L 284.822608 -84.726831 
L 285.75322 -84.398057 
L 287.04675 -84.069284 
L 288.670321 -83.740511 
L 290.584514 -83.411738 
L 292.743839 -83.082964 
L 295.09733 -82.754191 
L 297.589279 -82.425418 
L 300.16018 -82.096644 
L 302.747873 -81.767871 
L 305.288907 -81.439098 
L 307.720081 -81.110324 
L 309.980135 -80.781551 
L 312.011494 -80.452778 
L 313.762009 -80.124004 
L 315.186597 -79.795231 
L 316.24867 -79.466458 
L 316.921296 -79.137684 
L 317.188005 -78.808911 
L 317.043185 -78.480138 
L 316.492062 -78.151364 
L 315.550242 -77.822591 
L 314.242856 -77.493818 
L 312.603355 -77.165045 
L 310.672024 -76.836271 
L 308.494298 -76.507498 
L 306.118975 -76.178725 
L 303.596416 -75.849951 
L 300.976819 -75.521178 
L 298.308645 -75.192405 
L 295.637249 -74.863631 
L 293.003777 -74.534858 
L 290.444327 -74.206085 
z
" style="stroke: #868686; stroke-width: 1.875"/>
    </defs>
    <g clip-path="url(#pa2e89f94b5)">
     <use xlink:href="#m0f8d2991c6" x="0" y="298.986328" style="fill: #f5e6c8; stroke: #868686; stroke-width: 1.875"/>
    </g>
   </g>
   <g id="FillBetweenPolyCollection_3">
    <defs>
     <path id="ma983ef087f" d="M 445.454366 -105.808875 
L 362.249384 -105.808875 
L 360.122611 -106.034839 
L 358.142946 -106.260804 
L 356.339462 -106.486768 
L 354.739353 -106.712733 
L 353.367206 -106.938698 
L 352.244315 -107.164662 
L 351.388072 -107.390627 
L 350.811434 -107.616591 
L 350.522513 -107.842556 
L 350.524275 -108.06852 
L 350.814396 -108.294485 
L 351.385243 -108.520449 
L 352.224007 -108.746414 
L 353.312984 -108.972378 
L 354.629967 -109.198343 
L 356.148776 -109.424307 
L 357.839871 -109.650272 
L 359.671053 -109.876236 
L 361.60821 -110.102201 
L 363.616108 -110.328165 
L 365.659172 -110.55413 
L 367.702268 -110.780094 
L 369.71144 -111.006059 
L 371.654594 -111.232023 
L 373.502116 -111.457988 
L 375.227408 -111.683952 
L 376.80733 -111.909917 
L 378.22256 -112.135881 
L 379.457842 -112.361846 
L 380.502154 -112.587811 
L 381.348771 -112.813775 
L 381.995246 -113.03974 
L 382.44331 -113.265704 
L 382.698693 -113.491669 
L 382.770874 -113.717633 
L 382.672779 -113.943598 
L 382.420411 -114.169562 
L 382.032445 -114.395527 
L 381.529781 -114.621491 
L 380.935056 -114.847456 
L 380.272149 -115.07342 
L 379.565649 -115.299385 
L 378.840334 -115.525349 
L 378.120642 -115.751314 
L 377.430153 -115.977278 
L 376.791094 -116.203243 
L 376.223875 -116.429207 
L 375.746665 -116.655172 
L 375.375013 -116.881136 
L 375.12154 -117.107101 
L 374.995678 -117.333065 
L 375.003498 -117.55903 
L 375.1476 -117.784994 
L 375.427085 -118.010959 
L 375.837601 -118.236923 
L 376.371466 -118.462888 
L 377.017851 -118.688853 
L 377.763029 -118.914817 
L 378.590678 -119.140782 
L 379.482229 -119.366746 
L 380.417238 -119.592711 
L 381.373797 -119.818675 
L 382.328946 -120.04464 
L 383.259103 -120.270604 
L 384.140484 -120.496569 
L 384.949521 -120.722533 
L 385.663267 -120.948498 
L 386.259787 -121.174462 
L 386.718534 -121.400427 
L 387.020704 -121.626391 
L 387.149582 -121.852356 
L 387.090859 -122.07832 
L 386.83294 -122.304285 
L 386.367228 -122.530249 
L 385.688384 -122.756214 
L 384.79456 -122.982178 
L 383.6876 -123.208143 
L 382.373193 -123.434107 
L 380.860983 -123.660072 
L 379.164612 -123.886036 
L 377.301695 -124.112001 
L 375.293712 -124.337966 
L 373.165808 -124.56393 
L 370.946504 -124.789895 
L 368.667302 -125.015859 
L 366.362192 -125.241824 
L 364.067065 -125.467788 
L 361.819038 -125.693753 
L 359.655713 -125.919717 
L 357.614369 -126.145682 
L 355.731139 -126.371646 
L 354.040163 -126.597611 
L 352.572773 -126.823575 
L 351.356721 -127.04954 
L 350.415488 -127.275504 
L 349.767687 -127.501469 
L 349.426605 -127.727433 
L 349.399875 -127.953398 
L 349.689312 -128.179362 
L 458.014438 -128.179362 
L 458.014438 -128.179362 
L 458.303875 -127.953398 
L 458.277145 -127.727433 
L 457.936063 -127.501469 
L 457.288262 -127.275504 
L 456.347029 -127.04954 
L 455.130977 -126.823575 
L 453.663587 -126.597611 
L 451.972611 -126.371646 
L 450.089381 -126.145682 
L 448.048037 -125.919717 
L 445.884712 -125.693753 
L 443.636685 -125.467788 
L 441.341558 -125.241824 
L 439.036448 -125.015859 
L 436.757246 -124.789895 
L 434.537942 -124.56393 
L 432.410038 -124.337966 
L 430.402055 -124.112001 
L 428.539138 -123.886036 
L 426.842767 -123.660072 
L 425.330557 -123.434107 
L 424.01615 -123.208143 
L 422.90919 -122.982178 
L 422.015366 -122.756214 
L 421.336522 -122.530249 
L 420.87081 -122.304285 
L 420.612891 -122.07832 
L 420.554168 -121.852356 
L 420.683046 -121.626391 
L 420.985216 -121.400427 
L 421.443963 -121.174462 
L 422.040483 -120.948498 
L 422.754229 -120.722533 
L 423.563266 -120.496569 
L 424.444647 -120.270604 
L 425.374804 -120.04464 
L 426.329953 -119.818675 
L 427.286512 -119.592711 
L 428.221521 -119.366746 
L 429.113072 -119.140782 
L 429.940721 -118.914817 
L 430.685899 -118.688853 
L 431.332284 -118.462888 
L 431.866149 -118.236923 
L 432.276665 -118.010959 
L 432.55615 -117.784994 
L 432.700252 -117.55903 
L 432.708072 -117.333065 
L 432.58221 -117.107101 
L 432.328737 -116.881136 
L 431.957085 -116.655172 
L 431.479875 -116.429207 
L 430.912656 -116.203243 
L 430.273597 -115.977278 
L 429.583108 -115.751314 
L 428.863416 -115.525349 
L 428.138101 -115.299385 
L 427.431601 -115.07342 
L 426.768694 -114.847456 
L 426.173969 -114.621491 
L 425.671305 -114.395527 
L 425.283339 -114.169562 
L 425.030971 -113.943598 
L 424.932876 -113.717633 
L 425.005057 -113.491669 
L 425.26044 -113.265704 
L 425.708504 -113.03974 
L 426.354979 -112.813775 
L 427.201596 -112.587811 
L 428.245908 -112.361846 
L 429.48119 -112.135881 
L 430.89642 -111.909917 
L 432.476342 -111.683952 
L 434.201634 -111.457988 
L 436.049156 -111.232023 
L 437.99231 -111.006059 
L 440.001482 -110.780094 
L 442.044578 -110.55413 
L 444.087642 -110.328165 
L 446.09554 -110.102201 
L 448.032697 -109.876236 
L 449.863879 -109.650272 
L 451.554974 -109.424307 
L 453.073783 -109.198343 
L 454.390766 -108.972378 
L 455.479743 -108.746414 
L 456.318507 -108.520449 
L 456.889354 -108.294485 
L 457.179475 -108.06852 
L 457.181237 -107.842556 
L 456.892316 -107.616591 
L 456.315678 -107.390627 
L 455.459435 -107.164662 
L 454.336544 -106.938698 
L 452.964397 -106.712733 
L 451.364288 -106.486768 
L 449.560804 -106.260804 
L 447.581139 -106.034839 
L 445.454366 -105.808875 
z
" style="stroke: #868686; stroke-width: 1.875"/>
    </defs>
    <g clip-path="url(#pa2e89f94b5)">
     <use xlink:href="#ma983ef087f" x="0" y="298.986328" style="fill: #f5e6c8; stroke: #868686; stroke-width: 1.875"/>
    </g>
   </g>
   <g id="line2d_6">
    <path d="M 131.591875 233.640426 
L 131.591875 35.967699 
" clip-path="url(#pa2e89f94b5)" style="fill: none; stroke: #868686; stroke-width: 2.8125; stroke-linecap: round"/>
   </g>
   <g id="line2d_7">
    <path d="M 131.591875 228.455617 
L 131.591875 41.578901 
" clip-path="url(#pa2e89f94b5)" style="fill: none; stroke: #868686; stroke-width: 8.4375; stroke-linecap: round"/>
   </g>
   <g id="line2d_8">
    <path d="M 131.591875 156.15465 
" clip-path="url(#pa2e89f94b5)" style="fill: none; stroke: #868686; stroke-width: 2.25; stroke-linecap: round"/>
    <defs>
     <path id="m206e8e4e0d" d="M 3.515625 0 
L -3.515625 -0 
" style="stroke: #ffffff; stroke-width: 1.6875"/>
    </defs>
    <g clip-path="url(#pa2e89f94b5)">
     <use xlink:href="#m206e8e4e0d" x="131.591875" y="156.15465" style="fill: #ffffff; stroke: #ffffff; stroke-width: 1.6875"/>
    </g>
   </g>
   <g id="line2d_9">
    <path d="M 267.721875 224.780243 
L 267.721875 192.231685 
" clip-path="url(#pa2e89f94b5)" style="fill: none; stroke: #868686; stroke-width: 2.8125; stroke-linecap: round"/>
   </g>
   <g id="line2d_10">
    <path d="M 267.721875 219.649646 
L 267.721875 206.49346 
" clip-path="url(#pa2e89f94b5)" style="fill: none; stroke: #868686; stroke-width: 8.4375; stroke-linecap: round"/>
   </g>
   <g id="line2d_11">
    <path d="M 267.721875 207.522683 
" clip-path="url(#pa2e89f94b5)" style="fill: none; stroke: #868686; stroke-width: 2.25; stroke-linecap: round"/>
    <g clip-path="url(#pa2e89f94b5)">
     <use xlink:href="#m206e8e4e0d" x="267.721875" y="207.522683" style="fill: #ffffff; stroke: #ffffff; stroke-width: 1.6875"/>
    </g>
   </g>
   <g id="line2d_12">
    <path d="M 403.851875 193.177453 
L 403.851875 170.806966 
" clip-path="url(#pa2e89f94b5)" style="fill: none; stroke: #868686; stroke-width: 2.8125; stroke-linecap: round"/>
   </g>
   <g id="line2d_13">
    <path d="M 403.851875 190.811368 
L 403.851875 171.174054 
" clip-path="url(#pa2e89f94b5)" style="fill: none; stroke: #868686; stroke-width: 8.4375; stroke-linecap: round"/>
   </g>
   <g id="line2d_14">
    <path d="M 403.851875 181.477949 
" clip-path="url(#pa2e89f94b5)" style="fill: none; stroke: #868686; stroke-width: 2.25; stroke-linecap: round"/>
    <g clip-path="url(#pa2e89f94b5)">
     <use xlink:href="#m206e8e4e0d" x="403.851875" y="181.477949" style="fill: #ffffff; stroke: #ffffff; stroke-width: 1.6875"/>
    </g>
   </g>
   <g id="patch_3">
    <path d="M 63.526875 243.524063 
L 63.526875 26.084062 
" style="fill: none; stroke: #cccccc; stroke-width: 1.875; stroke-linejoin: miter; stroke-linecap: square"/>
   </g>
   <g id="patch_4">
    <path d="M 471.916875 243.524063 
L 471.916875 26.084062 
" style="fill: none; stroke: #cccccc; stroke-width: 1.875; stroke-linejoin: miter; stroke-linecap: square"/>
   </g>
   <g id="patch_5">
    <path d="M 63.526875 243.524063 
L 471.916875 243.524063 
" style="fill: none; stroke: #cccccc; stroke-width: 1.875; stroke-linejoin: miter; stroke-linecap: square"/>
   </g>
   <g id="patch_6">
    <path d="M 63.526875 26.084062 
L 471.916875 26.084062 
" style="fill: none; stroke: #cccccc; stroke-width: 1.875; stroke-linejoin: miter; stroke-linecap: square"/>
   </g>
   <g id="text_11">
    <!-- Layer vector norms: Vanilla -->
    <g style="fill: #262626" transform="translate(159.346406 20.084062) scale(0.18 -0.18)">
     <defs>
      <path id="ArialMT-73" d="M 197 991 
L 753 1078 
Q 800 744 1014 566 
Q 1228 388 1613 388 
Q 2000 388 2187 545 
Q 2375 703 2375 916 
Q 2375 1106 2209 1216 
Q 2094 1291 1634 1406 
Q 1016 1563 777 1677 
Q 538 1791 414 1992 
Q 291 2194 291 2438 
Q 291 2659 392 2848 
Q 494 3038 669 3163 
Q 800 3259 1026 3326 
Q 1253 3394 1513 3394 
Q 1903 3394 2198 3281 
Q 2494 3169 2634 2976 
Q 2775 2784 2828 2463 
L 2278 2388 
Q 2241 2644 2061 2787 
Q 1881 2931 1553 2931 
Q 1166 2931 1000 2803 
Q 834 2675 834 2503 
Q 834 2394 903 2306 
Q 972 2216 1119 2156 
Q 1203 2125 1616 2013 
Q 2213 1853 2448 1751 
Q 2684 1650 2818 1456 
Q 2953 1263 2953 975 
Q 2953 694 2789 445 
Q 2625 197 2315 61 
Q 2006 -75 1616 -75 
Q 969 -75 630 194 
Q 291 463 197 991 
z
" transform="scale(0.015625)"/>
      <path id="ArialMT-3a" d="M 578 2678 
L 578 3319 
L 1219 3319 
L 1219 2678 
L 578 2678 
z
M 578 0 
L 578 641 
L 1219 641 
L 1219 0 
L 578 0 
z
" transform="scale(0.015625)"/>
      <path id="ArialMT-69" d="M 425 3934 
L 425 4581 
L 988 4581 
L 988 3934 
L 425 3934 
z
M 425 0 
L 425 3319 
L 988 3319 
L 988 0 
L 425 0 
z
" transform="scale(0.015625)"/>
      <path id="ArialMT-6c" d="M 409 0 
L 409 4581 
L 972 4581 
L 972 0 
L 409 0 
z
" transform="scale(0.015625)"/>
     </defs>
     <use xlink:href="#ArialMT-4c"/>
     <use xlink:href="#ArialMT-61" transform="translate(55.615234 0)"/>
     <use xlink:href="#ArialMT-79" transform="translate(111.230469 0)"/>
     <use xlink:href="#ArialMT-65" transform="translate(161.230469 0)"/>
     <use xlink:href="#ArialMT-72" transform="translate(216.845703 0)"/>
     <use xlink:href="#ArialMT-20" transform="translate(250.146484 0)"/>
     <use xlink:href="#ArialMT-76" transform="translate(277.929688 0)"/>
     <use xlink:href="#ArialMT-65" transform="translate(327.929688 0)"/>
     <use xlink:href="#ArialMT-63" transform="translate(383.544922 0)"/>
     <use xlink:href="#ArialMT-74" transform="translate(433.544922 0)"/>
     <use xlink:href="#ArialMT-6f" transform="translate(461.328125 0)"/>
     <use xlink:href="#ArialMT-72" transform="translate(516.943359 0)"/>
     <use xlink:href="#ArialMT-20" transform="translate(550.244141 0)"/>
     <use xlink:href="#ArialMT-6e" transform="translate(578.027344 0)"/>
     <use xlink:href="#ArialMT-6f" transform="translate(633.642578 0)"/>
     <use xlink:href="#ArialMT-72" transform="translate(689.257812 0)"/>
     <use xlink:href="#ArialMT-6d" transform="translate(722.558594 0)"/>
     <use xlink:href="#ArialMT-73" transform="translate(805.859375 0)"/>
     <use xlink:href="#ArialMT-3a" transform="translate(855.859375 0)"/>
     <use xlink:href="#ArialMT-20" transform="translate(883.642578 0)"/>
     <use xlink:href="#ArialMT-56" transform="translate(911.425781 0)"/>
     <use xlink:href="#ArialMT-61" transform="translate(970.75 0)"/>
     <use xlink:href="#ArialMT-6e" transform="translate(1026.365234 0)"/>
     <use xlink:href="#ArialMT-69" transform="translate(1081.980469 0)"/>
     <use xlink:href="#ArialMT-6c" transform="translate(1104.197266 0)"/>
     <use xlink:href="#ArialMT-6c" transform="translate(1126.414062 0)"/>
     <use xlink:href="#ArialMT-61" transform="translate(1148.630859 0)"/>
    </g>
   </g>
  </g>
 </g>
 <defs>
  <clipPath id="pa2e89f94b5">
   <rect x="63.526875" y="26.084062" width="408.39" height="217.44"/>
  </clipPath>
 </defs>
</svg>
