<?xml version="1.0" encoding="utf-8" standalone="no"?>
<!DOCTYPE svg PUBLIC "-//W3C//DTD SVG 1.1//EN"
  "http://www.w3.org/Graphics/SVG/1.1/DTD/svg11.dtd">
<svg xmlns:xlink="http://www.w3.org/1999/xlink" width="479.067422pt" height="299.025703pt" viewBox="0 0 479.067422 299.025703" xmlns="http://www.w3.org/2000/svg" version="1.1">
 <metadata>
  <rdf:RDF xmlns:dc="http://purl.org/dc/elements/1.1/" xmlns:cc="http://creativecommons.org/ns#" xmlns:rdf="http://www.w3.org/1999/02/22-rdf-syntax-ns#">
   <cc:Work>
    <dc:type rdf:resource="http://purl.org/dc/dcmitype/StillImage"/>
    <dc:date>2025-12-09T18:12:52.593554</dc:date>
    <dc:format>image/svg+xml</dc:format>
    <dc:creator>
     <cc:Agent>
      <dc:title>Matplotlib v3.10.7, https://matplotlib.org/</dc:title>
     </cc:Agent>
    </dc:creator>
   </cc:Work>
  </rdf:RDF>
 </metadata>
 <defs>
  <style type="text/css">*{stroke-linejoin: round; stroke-linecap: butt}</style>
 </defs>
 <g id="figure_1">
  <g id="patch_1">
   <path d="M 0 299.025703 
L 479.067422 299.025703 
L 479.067422 0 
L 0 0 
z
" style="fill: #ffffff"/>
  </g>
  <g id="axes_1">
   <g id="patch_2">
    <path d="M 72.702422 243.563437 
L 471.867422 243.563437 
L 471.867422 26.303437 
L 72.702422 26.303437 
z
" style="fill: #ffffff"/>
   </g>
   <g id="matplotlib.axis_1">
    <g id="xtick_1">
     <g id="text_1">
      <!-- 0 -->
      <g style="fill: #262626" transform="translate(134.642148 267.873828) scale(0.165 -0.165)">
       <defs>
        <path id="ArialMT-30" d="M 266 2259 
Q 266 3072 433 3567 
Q 600 4063 929 4331 
Q 1259 4600 1759 4600 
Q 2128 4600 2406 4451 
Q 2684 4303 2865 4023 
Q 3047 3744 3150 3342 
Q 3253 2941 3253 2259 
Q 3253 1453 3087 958 
Q 2922 463 2592 192 
Q 2263 -78 1759 -78 
Q 1097 -78 719 397 
Q 266 969 266 2259 
z
M 844 2259 
Q 844 1131 1108 757 
Q 1372 384 1759 384 
Q 2147 384 2411 759 
Q 2675 1134 2675 2259 
Q 2675 3391 2411 3762 
Q 2147 4134 1753 4134 
Q 1366 4134 1134 3806 
Q 844 3388 844 2259 
z
" transform="scale(0.015625)"/>
       </defs>
       <use xlink:href="#ArialMT-30"/>
      </g>
     </g>
    </g>
    <g id="xtick_2">
     <g id="text_2">
      <!-- 1 -->
      <g style="fill: #262626" transform="translate(267.697148 267.873828) scale(0.165 -0.165)">
       <defs>
        <path id="ArialMT-31" d="M 2384 0 
L 1822 0 
L 1822 3584 
Q 1619 3391 1289 3197 
Q 959 3003 697 2906 
L 697 3450 
Q 1169 3672 1522 3987 
Q 1875 4303 2022 4600 
L 2384 4600 
L 2384 0 
z
" transform="scale(0.015625)"/>
       </defs>
       <use xlink:href="#ArialMT-31"/>
      </g>
     </g>
    </g>
    <g id="xtick_3">
     <g id="text_3">
      <!-- 2 -->
      <g style="fill: #262626" transform="translate(400.752148 267.873828) scale(0.165 -0.165)">
       <defs>
        <path id="ArialMT-32" d="M 3222 541 
L 3222 0 
L 194 0 
Q 188 203 259 391 
Q 375 700 629 1000 
Q 884 1300 1366 1694 
Q 2113 2306 2375 2664 
Q 2638 3022 2638 3341 
Q 2638 3675 2398 3904 
Q 2159 4134 1775 4134 
Q 1369 4134 1125 3890 
Q 881 3647 878 3216 
L 300 3275 
Q 359 3922 746 4261 
Q 1134 4600 1788 4600 
Q 2447 4600 2831 4234 
Q 3216 3869 3216 3328 
Q 3216 3053 3103 2787 
Q 2991 2522 2730 2228 
Q 2469 1934 1863 1422 
Q 1356 997 1212 845 
Q 1069 694 975 541 
L 3222 541 
z
" transform="scale(0.015625)"/>
       </defs>
       <use xlink:href="#ArialMT-32"/>
      </g>
     </g>
    </g>
    <g id="text_4">
     <!-- Layer -->
     <g style="fill: #262626" transform="translate(249.773672 288.037266) scale(0.18 -0.18)">
      <defs>
       <path id="ArialMT-4c" d="M 469 0 
L 469 4581 
L 1075 4581 
L 1075 541 
L 3331 541 
L 3331 0 
L 469 0 
z
" transform="scale(0.015625)"/>
       <path id="ArialMT-61" d="M 2588 409 
Q 2275 144 1986 34 
Q 1697 -75 1366 -75 
Q 819 -75 525 192 
Q 231 459 231 875 
Q 231 1119 342 1320 
Q 453 1522 633 1644 
Q 813 1766 1038 1828 
Q 1203 1872 1538 1913 
Q 2219 1994 2541 2106 
Q 2544 2222 2544 2253 
Q 2544 2597 2384 2738 
Q 2169 2928 1744 2928 
Q 1347 2928 1158 2789 
Q 969 2650 878 2297 
L 328 2372 
Q 403 2725 575 2942 
Q 747 3159 1072 3276 
Q 1397 3394 1825 3394 
Q 2250 3394 2515 3294 
Q 2781 3194 2906 3042 
Q 3031 2891 3081 2659 
Q 3109 2516 3109 2141 
L 3109 1391 
Q 3109 606 3145 398 
Q 3181 191 3288 0 
L 2700 0 
Q 2613 175 2588 409 
z
M 2541 1666 
Q 2234 1541 1622 1453 
Q 1275 1403 1131 1340 
Q 988 1278 909 1158 
Q 831 1038 831 891 
Q 831 666 1001 516 
Q 1172 366 1500 366 
Q 1825 366 2078 508 
Q 2331 650 2450 897 
Q 2541 1088 2541 1459 
L 2541 1666 
z
" transform="scale(0.015625)"/>
       <path id="ArialMT-79" d="M 397 -1278 
L 334 -750 
Q 519 -800 656 -800 
Q 844 -800 956 -737 
Q 1069 -675 1141 -563 
Q 1194 -478 1313 -144 
Q 1328 -97 1363 -6 
L 103 3319 
L 709 3319 
L 1400 1397 
Q 1534 1031 1641 628 
Q 1738 1016 1872 1384 
L 2581 3319 
L 3144 3319 
L 1881 -56 
Q 1678 -603 1566 -809 
Q 1416 -1088 1222 -1217 
Q 1028 -1347 759 -1347 
Q 597 -1347 397 -1278 
z
" transform="scale(0.015625)"/>
       <path id="ArialMT-65" d="M 2694 1069 
L 3275 997 
Q 3138 488 2766 206 
Q 2394 -75 1816 -75 
Q 1088 -75 661 373 
Q 234 822 234 1631 
Q 234 2469 665 2931 
Q 1097 3394 1784 3394 
Q 2450 3394 2872 2941 
Q 3294 2488 3294 1666 
Q 3294 1616 3291 1516 
L 816 1516 
Q 847 969 1125 678 
Q 1403 388 1819 388 
Q 2128 388 2347 550 
Q 2566 713 2694 1069 
z
M 847 1978 
L 2700 1978 
Q 2663 2397 2488 2606 
Q 2219 2931 1791 2931 
Q 1403 2931 1139 2672 
Q 875 2413 847 1978 
z
" transform="scale(0.015625)"/>
       <path id="ArialMT-72" d="M 416 0 
L 416 3319 
L 922 3319 
L 922 2816 
Q 1116 3169 1280 3281 
Q 1444 3394 1641 3394 
Q 1925 3394 2219 3213 
L 2025 2691 
Q 1819 2813 1613 2813 
Q 1428 2813 1281 2702 
Q 1134 2591 1072 2394 
Q 978 2094 978 1738 
L 978 0 
L 416 0 
z
" transform="scale(0.015625)"/>
      </defs>
      <use xlink:href="#ArialMT-4c"/>
      <use xlink:href="#ArialMT-61" transform="translate(55.615234 0)"/>
      <use xlink:href="#ArialMT-79" transform="translate(111.230469 0)"/>
      <use xlink:href="#ArialMT-65" transform="translate(161.230469 0)"/>
      <use xlink:href="#ArialMT-72" transform="translate(216.845703 0)"/>
     </g>
    </g>
   </g>
   <g id="matplotlib.axis_2">
    <g id="ytick_1">
     <g id="line2d_1">
      <path d="M 72.702422 237.107422 
L 471.867422 237.107422 
" clip-path="url(#pcdad1f68dc)" style="fill: none; stroke: #cccccc; stroke-width: 1.5; stroke-linecap: round"/>
     </g>
     <g id="text_5">
      <!-- 0.02 -->
      <g style="fill: #262626" transform="translate(28.091875 243.012617) scale(0.165 -0.165)">
       <defs>
        <path id="ArialMT-2e" d="M 581 0 
L 581 641 
L 1222 641 
L 1222 0 
L 581 0 
z
" transform="scale(0.015625)"/>
       </defs>
       <use xlink:href="#ArialMT-30"/>
       <use xlink:href="#ArialMT-2e" transform="translate(55.615234 0)"/>
       <use xlink:href="#ArialMT-30" transform="translate(83.398438 0)"/>
       <use xlink:href="#ArialMT-32" transform="translate(139.013672 0)"/>
      </g>
     </g>
    </g>
    <g id="ytick_2">
     <g id="line2d_2">
      <path d="M 72.702422 175.494361 
L 471.867422 175.494361 
" clip-path="url(#pcdad1f68dc)" style="fill: none; stroke: #cccccc; stroke-width: 1.5; stroke-linecap: round"/>
     </g>
     <g id="text_6">
      <!-- 0.04 -->
      <g style="fill: #262626" transform="translate(28.091875 181.399556) scale(0.165 -0.165)">
       <defs>
        <path id="ArialMT-34" d="M 2069 0 
L 2069 1097 
L 81 1097 
L 81 1613 
L 2172 4581 
L 2631 4581 
L 2631 1613 
L 3250 1613 
L 3250 1097 
L 2631 1097 
L 2631 0 
L 2069 0 
z
M 2069 1613 
L 2069 3678 
L 634 1613 
L 2069 1613 
z
" transform="scale(0.015625)"/>
       </defs>
       <use xlink:href="#ArialMT-30"/>
       <use xlink:href="#ArialMT-2e" transform="translate(55.615234 0)"/>
       <use xlink:href="#ArialMT-30" transform="translate(83.398438 0)"/>
       <use xlink:href="#ArialMT-34" transform="translate(139.013672 0)"/>
      </g>
     </g>
    </g>
    <g id="ytick_3">
     <g id="line2d_3">
      <path d="M 72.702422 113.881299 
L 471.867422 113.881299 
" clip-path="url(#pcdad1f68dc)" style="fill: none; stroke: #cccccc; stroke-width: 1.5; stroke-linecap: round"/>
     </g>
     <g id="text_7">
      <!-- 0.06 -->
      <g style="fill: #262626" transform="translate(28.091875 119.786495) scale(0.165 -0.165)">
       <defs>
        <path id="ArialMT-36" d="M 3184 3459 
L 2625 3416 
Q 2550 3747 2413 3897 
Q 2184 4138 1850 4138 
Q 1581 4138 1378 3988 
Q 1113 3794 959 3422 
Q 806 3050 800 2363 
Q 1003 2672 1297 2822 
Q 1591 2972 1913 2972 
Q 2475 2972 2870 2558 
Q 3266 2144 3266 1488 
Q 3266 1056 3080 686 
Q 2894 316 2569 119 
Q 2244 -78 1831 -78 
Q 1128 -78 684 439 
Q 241 956 241 2144 
Q 241 3472 731 4075 
Q 1159 4600 1884 4600 
Q 2425 4600 2770 4297 
Q 3116 3994 3184 3459 
z
M 888 1484 
Q 888 1194 1011 928 
Q 1134 663 1356 523 
Q 1578 384 1822 384 
Q 2178 384 2434 671 
Q 2691 959 2691 1453 
Q 2691 1928 2437 2201 
Q 2184 2475 1800 2475 
Q 1419 2475 1153 2201 
Q 888 1928 888 1484 
z
" transform="scale(0.015625)"/>
       </defs>
       <use xlink:href="#ArialMT-30"/>
       <use xlink:href="#ArialMT-2e" transform="translate(55.615234 0)"/>
       <use xlink:href="#ArialMT-30" transform="translate(83.398438 0)"/>
       <use xlink:href="#ArialMT-36" transform="translate(139.013672 0)"/>
      </g>
     </g>
    </g>
    <g id="ytick_4">
     <g id="line2d_4">
      <path d="M 72.702422 52.268238 
L 471.867422 52.268238 
" clip-path="url(#pcdad1f68dc)" style="fill: none; stroke: #cccccc; stroke-width: 1.5; stroke-linecap: round"/>
     </g>
     <g id="text_8">
      <!-- 0.08 -->
      <g style="fill: #262626" transform="translate(28.091875 58.173433) scale(0.165 -0.165)">
       <defs>
        <path id="ArialMT-38" d="M 1131 2484 
Q 781 2613 612 2850 
Q 444 3088 444 3419 
Q 444 3919 803 4259 
Q 1163 4600 1759 4600 
Q 2359 4600 2725 4251 
Q 3091 3903 3091 3403 
Q 3091 3084 2923 2848 
Q 2756 2613 2416 2484 
Q 2838 2347 3058 2040 
Q 3278 1734 3278 1309 
Q 3278 722 2862 322 
Q 2447 -78 1769 -78 
Q 1091 -78 675 323 
Q 259 725 259 1325 
Q 259 1772 486 2073 
Q 713 2375 1131 2484 
z
M 1019 3438 
Q 1019 3113 1228 2906 
Q 1438 2700 1772 2700 
Q 2097 2700 2305 2904 
Q 2513 3109 2513 3406 
Q 2513 3716 2298 3927 
Q 2084 4138 1766 4138 
Q 1444 4138 1231 3931 
Q 1019 3725 1019 3438 
z
M 838 1322 
Q 838 1081 952 856 
Q 1066 631 1291 507 
Q 1516 384 1775 384 
Q 2178 384 2440 643 
Q 2703 903 2703 1303 
Q 2703 1709 2433 1975 
Q 2163 2241 1756 2241 
Q 1359 2241 1098 1978 
Q 838 1716 838 1322 
z
" transform="scale(0.015625)"/>
       </defs>
       <use xlink:href="#ArialMT-30"/>
       <use xlink:href="#ArialMT-2e" transform="translate(55.615234 0)"/>
       <use xlink:href="#ArialMT-30" transform="translate(83.398438 0)"/>
       <use xlink:href="#ArialMT-38" transform="translate(139.013672 0)"/>
      </g>
     </g>
    </g>
    <g id="text_9">
     <!-- Vector norm (mean |v|) -->
     <g style="fill: #262626" transform="translate(20.303438 226.134375) rotate(-90) scale(0.18 -0.18)">
      <defs>
       <path id="ArialMT-56" d="M 1803 0 
L 28 4581 
L 684 4581 
L 1875 1253 
Q 2019 853 2116 503 
Q 2222 878 2363 1253 
L 3600 4581 
L 4219 4581 
L 2425 0 
L 1803 0 
z
" transform="scale(0.015625)"/>
       <path id="ArialMT-63" d="M 2588 1216 
L 3141 1144 
Q 3050 572 2676 248 
Q 2303 -75 1759 -75 
Q 1078 -75 664 370 
Q 250 816 250 1647 
Q 250 2184 428 2587 
Q 606 2991 970 3192 
Q 1334 3394 1763 3394 
Q 2303 3394 2647 3120 
Q 2991 2847 3088 2344 
L 2541 2259 
Q 2463 2594 2264 2762 
Q 2066 2931 1784 2931 
Q 1359 2931 1093 2626 
Q 828 2322 828 1663 
Q 828 994 1084 691 
Q 1341 388 1753 388 
Q 2084 388 2306 591 
Q 2528 794 2588 1216 
z
" transform="scale(0.015625)"/>
       <path id="ArialMT-74" d="M 1650 503 
L 1731 6 
Q 1494 -44 1306 -44 
Q 1000 -44 831 53 
Q 663 150 594 308 
Q 525 466 525 972 
L 525 2881 
L 113 2881 
L 113 3319 
L 525 3319 
L 525 4141 
L 1084 4478 
L 1084 3319 
L 1650 3319 
L 1650 2881 
L 1084 2881 
L 1084 941 
Q 1084 700 1114 631 
Q 1144 563 1211 522 
Q 1278 481 1403 481 
Q 1497 481 1650 503 
z
" transform="scale(0.015625)"/>
       <path id="ArialMT-6f" d="M 213 1659 
Q 213 2581 725 3025 
Q 1153 3394 1769 3394 
Q 2453 3394 2887 2945 
Q 3322 2497 3322 1706 
Q 3322 1066 3130 698 
Q 2938 331 2570 128 
Q 2203 -75 1769 -75 
Q 1072 -75 642 372 
Q 213 819 213 1659 
z
M 791 1659 
Q 791 1022 1069 705 
Q 1347 388 1769 388 
Q 2188 388 2466 706 
Q 2744 1025 2744 1678 
Q 2744 2294 2464 2611 
Q 2184 2928 1769 2928 
Q 1347 2928 1069 2612 
Q 791 2297 791 1659 
z
" transform="scale(0.015625)"/>
       <path id="ArialMT-20" transform="scale(0.015625)"/>
       <path id="ArialMT-6e" d="M 422 0 
L 422 3319 
L 928 3319 
L 928 2847 
Q 1294 3394 1984 3394 
Q 2284 3394 2536 3286 
Q 2788 3178 2913 3003 
Q 3038 2828 3088 2588 
Q 3119 2431 3119 2041 
L 3119 0 
L 2556 0 
L 2556 2019 
Q 2556 2363 2490 2533 
Q 2425 2703 2258 2804 
Q 2091 2906 1866 2906 
Q 1506 2906 1245 2678 
Q 984 2450 984 1813 
L 984 0 
L 422 0 
z
" transform="scale(0.015625)"/>
       <path id="ArialMT-6d" d="M 422 0 
L 422 3319 
L 925 3319 
L 925 2853 
Q 1081 3097 1340 3245 
Q 1600 3394 1931 3394 
Q 2300 3394 2536 3241 
Q 2772 3088 2869 2813 
Q 3263 3394 3894 3394 
Q 4388 3394 4653 3120 
Q 4919 2847 4919 2278 
L 4919 0 
L 4359 0 
L 4359 2091 
Q 4359 2428 4304 2576 
Q 4250 2725 4106 2815 
Q 3963 2906 3769 2906 
Q 3419 2906 3187 2673 
Q 2956 2441 2956 1928 
L 2956 0 
L 2394 0 
L 2394 2156 
Q 2394 2531 2256 2718 
Q 2119 2906 1806 2906 
Q 1569 2906 1367 2781 
Q 1166 2656 1075 2415 
Q 984 2175 984 1722 
L 984 0 
L 422 0 
z
" transform="scale(0.015625)"/>
       <path id="ArialMT-28" d="M 1497 -1347 
Q 1031 -759 709 28 
Q 388 816 388 1659 
Q 388 2403 628 3084 
Q 909 3875 1497 4659 
L 1900 4659 
Q 1522 4009 1400 3731 
Q 1209 3300 1100 2831 
Q 966 2247 966 1656 
Q 966 153 1900 -1347 
L 1497 -1347 
z
" transform="scale(0.015625)"/>
       <path id="ArialMT-7c" d="M 588 -1347 
L 588 4659 
L 1078 4659 
L 1078 -1347 
L 588 -1347 
z
" transform="scale(0.015625)"/>
       <path id="ArialMT-76" d="M 1344 0 
L 81 3319 
L 675 3319 
L 1388 1331 
Q 1503 1009 1600 663 
Q 1675 925 1809 1294 
L 2547 3319 
L 3125 3319 
L 1869 0 
L 1344 0 
z
" transform="scale(0.015625)"/>
       <path id="ArialMT-29" d="M 791 -1347 
L 388 -1347 
Q 1322 153 1322 1656 
Q 1322 2244 1188 2822 
Q 1081 3291 891 3722 
Q 769 4003 388 4659 
L 791 4659 
Q 1378 3875 1659 3084 
Q 1900 2403 1900 1659 
Q 1900 816 1576 28 
Q 1253 -759 791 -1347 
z
" transform="scale(0.015625)"/>
      </defs>
      <use xlink:href="#ArialMT-56"/>
      <use xlink:href="#ArialMT-65" transform="translate(61.199219 0)"/>
      <use xlink:href="#ArialMT-63" transform="translate(116.814453 0)"/>
      <use xlink:href="#ArialMT-74" transform="translate(166.814453 0)"/>
      <use xlink:href="#ArialMT-6f" transform="translate(194.597656 0)"/>
      <use xlink:href="#ArialMT-72" transform="translate(250.212891 0)"/>
      <use xlink:href="#ArialMT-20" transform="translate(283.513672 0)"/>
      <use xlink:href="#ArialMT-6e" transform="translate(311.296875 0)"/>
      <use xlink:href="#ArialMT-6f" transform="translate(366.912109 0)"/>
      <use xlink:href="#ArialMT-72" transform="translate(422.527344 0)"/>
      <use xlink:href="#ArialMT-6d" transform="translate(455.828125 0)"/>
      <use xlink:href="#ArialMT-20" transform="translate(539.128906 0)"/>
      <use xlink:href="#ArialMT-28" transform="translate(566.912109 0)"/>
      <use xlink:href="#ArialMT-6d" transform="translate(600.212891 0)"/>
      <use xlink:href="#ArialMT-65" transform="translate(683.513672 0)"/>
      <use xlink:href="#ArialMT-61" transform="translate(739.128906 0)"/>
      <use xlink:href="#ArialMT-6e" transform="translate(794.744141 0)"/>
      <use xlink:href="#ArialMT-20" transform="translate(850.359375 0)"/>
      <use xlink:href="#ArialMT-7c" transform="translate(878.142578 0)"/>
      <use xlink:href="#ArialMT-76" transform="translate(904.119141 0)"/>
      <use xlink:href="#ArialMT-7c" transform="translate(954.119141 0)"/>
      <use xlink:href="#ArialMT-29" transform="translate(980.095703 0)"/>
     </g>
    </g>
   </g>
   <g id="FillBetweenPolyCollection_1">
    <defs>
     <path id="m63076f0006" d="M 144.870885 -72.96001 
L 133.588958 -72.96001 
L 132.821431 -73.305138 
L 131.986624 -73.650266 
L 131.082297 -73.995394 
L 130.106331 -74.340523 
L 129.056754 -74.685651 
L 127.93177 -75.030779 
L 126.72979 -75.375908 
L 125.44946 -75.721036 
L 124.089705 -76.066164 
L 122.64978 -76.411292 
L 121.129339 -76.756421 
L 119.528551 -77.101549 
L 117.848249 -77.446677 
L 116.090152 -77.791806 
L 114.257145 -78.136934 
L 112.353618 -78.482062 
L 110.38587 -78.82719 
L 108.362528 -79.172319 
L 106.294973 -79.517447 
L 104.197709 -79.862575 
L 102.088648 -80.207703 
L 99.989243 -80.552832 
L 97.924443 -80.89796 
L 95.922433 -81.243088 
L 94.014134 -81.588217 
L 92.232479 -81.933345 
L 90.611483 -82.278473 
L 89.185139 -82.623601 
L 87.986209 -82.96873 
L 87.044969 -83.313858 
L 86.387989 -83.658986 
L 86.036996 -84.004115 
L 86.007922 -84.349243 
L 86.31014 -84.694371 
L 86.945966 -85.039499 
L 87.91042 -85.384628 
L 89.191261 -85.729756 
L 90.769277 -86.074884 
L 92.618816 -86.420012 
L 94.708518 -86.765141 
L 97.002208 -87.110269 
L 99.459916 -87.455397 
L 102.038967 -87.800526 
L 104.695098 -88.145654 
L 107.383563 -88.490782 
L 110.060174 -88.83591 
L 112.682243 -89.181039 
L 115.209398 -89.526167 
L 117.604233 -89.871295 
L 119.832806 -90.216424 
L 121.864952 -90.561552 
L 123.674442 -90.90668 
L 125.239013 -91.251808 
L 126.540283 -91.596937 
L 127.563623 -91.942065 
L 128.297993 -92.287193 
L 128.735821 -92.632321 
L 128.872939 -92.97745 
L 128.708605 -93.322578 
L 128.245628 -93.667706 
L 127.490596 -94.012835 
L 126.454161 -94.357963 
L 125.151381 -94.703091 
L 123.602036 -95.048219 
L 121.830892 -95.393348 
L 119.867826 -95.738476 
L 117.747791 -96.083604 
L 115.510545 -96.428732 
L 113.200138 -96.773861 
L 110.864134 -97.118989 
L 108.552577 -97.464117 
L 106.316735 -97.809246 
L 104.207667 -98.154374 
L 102.274678 -98.499502 
L 100.563744 -98.84463 
L 99.115981 -99.189759 
L 97.96626 -99.534887 
L 97.14202 -99.880015 
L 96.662372 -100.225144 
L 96.53753 -100.570272 
L 96.768591 -100.9154 
L 97.347694 -101.260528 
L 98.258519 -101.605657 
L 99.477107 -101.950785 
L 100.972939 -102.295913 
L 102.710217 -102.641041 
L 104.649271 -102.98617 
L 106.748026 -103.331298 
L 108.963443 -103.676426 
L 111.252894 -104.021555 
L 113.575402 -104.366683 
L 115.892704 -104.711811 
L 118.170131 -105.056939 
L 120.37726 -105.402068 
L 122.488361 -105.747196 
L 124.482626 -106.092324 
L 126.34421 -106.437453 
L 128.062093 -106.782581 
L 129.629799 -107.127709 
L 148.830045 -107.127709 
L 148.830045 -107.127709 
L 150.397751 -106.782581 
L 152.115634 -106.437453 
L 153.977218 -106.092324 
L 155.971483 -105.747196 
L 158.082583 -105.402068 
L 160.289712 -105.056939 
L 162.567139 -104.711811 
L 164.884442 -104.366683 
L 167.206949 -104.021555 
L 169.496401 -103.676426 
L 171.711818 -103.331298 
L 173.810573 -102.98617 
L 175.749627 -102.641041 
L 177.486904 -102.295913 
L 178.982736 -101.950785 
L 180.201325 -101.605657 
L 181.11215 -101.260528 
L 181.691253 -100.9154 
L 181.922314 -100.570272 
L 181.797471 -100.225144 
L 181.317824 -99.880015 
L 180.493584 -99.534887 
L 179.343862 -99.189759 
L 177.8961 -98.84463 
L 176.185166 -98.499502 
L 174.252177 -98.154374 
L 172.143109 -97.809246 
L 169.907267 -97.464117 
L 167.595709 -97.118989 
L 165.259705 -96.773861 
L 162.949299 -96.428732 
L 160.712053 -96.083604 
L 158.592018 -95.738476 
L 156.628952 -95.393348 
L 154.857808 -95.048219 
L 153.308463 -94.703091 
L 152.005683 -94.357963 
L 150.969248 -94.012835 
L 150.214215 -93.667706 
L 149.751239 -93.322578 
L 149.586904 -92.97745 
L 149.724022 -92.632321 
L 150.161851 -92.287193 
L 150.896221 -91.942065 
L 151.91956 -91.596937 
L 153.220831 -91.251808 
L 154.785401 -90.90668 
L 156.594892 -90.561552 
L 158.627037 -90.216424 
L 160.855611 -89.871295 
L 163.250446 -89.526167 
L 165.7776 -89.181039 
L 168.39967 -88.83591 
L 171.076281 -88.490782 
L 173.764746 -88.145654 
L 176.420877 -87.800526 
L 178.999928 -87.455397 
L 181.457636 -87.110269 
L 183.751326 -86.765141 
L 185.841027 -86.420012 
L 187.690567 -86.074884 
L 189.268583 -85.729756 
L 190.549424 -85.384628 
L 191.513878 -85.039499 
L 192.149704 -84.694371 
L 192.451922 -84.349243 
L 192.422847 -84.004115 
L 192.071855 -83.658986 
L 191.414874 -83.313858 
L 190.473635 -82.96873 
L 189.274705 -82.623601 
L 187.848361 -82.278473 
L 186.227365 -81.933345 
L 184.44571 -81.588217 
L 182.537411 -81.243088 
L 180.5354 -80.89796 
L 178.470601 -80.552832 
L 176.371196 -80.207703 
L 174.262134 -79.862575 
L 172.164871 -79.517447 
L 170.097316 -79.172319 
L 168.073974 -78.82719 
L 166.106226 -78.482062 
L 164.202699 -78.136934 
L 162.369691 -77.791806 
L 160.611595 -77.446677 
L 158.931293 -77.101549 
L 157.330504 -76.756421 
L 155.810064 -76.411292 
L 154.370138 -76.066164 
L 153.010384 -75.721036 
L 151.730054 -75.375908 
L 150.528073 -75.030779 
L 149.40309 -74.685651 
L 148.353513 -74.340523 
L 147.377546 -73.995394 
L 146.473219 -73.650266 
L 145.638413 -73.305138 
L 144.870885 -72.96001 
z
" style="stroke: #2f2f2f; stroke-width: 1.875"/>
    </defs>
    <g clip-path="url(#pcdad1f68dc)">
     <use xlink:href="#m63076f0006" x="0" y="299.025703" style="fill: #8b4513; stroke: #2f2f2f; stroke-width: 1.875"/>
    </g>
   </g>
   <g id="FillBetweenPolyCollection_2">
    <defs>
     <path id="mc97dc6918b" d="M 279.494089 -65.33772 
L 265.075755 -65.33772 
L 264.17704 -65.65076 
L 263.213566 -65.963799 
L 262.184783 -66.276838 
L 261.090842 -66.589878 
L 259.932897 -66.902917 
L 258.713398 -67.215957 
L 257.436343 -67.528996 
L 256.107457 -67.842036 
L 254.734253 -68.155075 
L 253.325959 -68.468114 
L 251.893318 -68.781154 
L 250.448246 -69.094193 
L 249.003398 -69.407233 
L 247.571664 -69.720272 
L 246.165636 -70.033312 
L 244.797095 -70.346351 
L 243.47655 -70.65939 
L 242.212863 -70.97243 
L 241.012978 -71.285469 
L 239.881761 -71.598509 
L 238.821958 -71.911548 
L 237.83425 -72.224587 
L 236.91742 -72.537627 
L 236.068588 -72.850666 
L 235.283533 -73.163706 
L 234.557065 -73.476745 
L 233.883447 -73.789785 
L 233.256835 -74.102824 
L 232.671733 -74.415863 
L 232.123407 -74.728903 
L 231.608253 -75.041942 
L 231.124068 -75.354982 
L 230.670197 -75.668021 
L 230.24755 -75.981061 
L 229.858459 -76.2941 
L 229.50641 -76.607139 
L 229.195656 -76.920179 
L 228.930766 -77.233218 
L 228.716161 -77.546258 
L 228.555678 -77.859297 
L 228.45222 -78.172337 
L 228.407506 -78.485376 
L 228.421946 -78.798415 
L 228.49461 -79.111455 
L 228.623277 -79.424494 
L 228.8045 -79.737534 
L 229.033658 -80.050573 
L 229.304954 -80.363613 
L 229.611325 -80.676652 
L 229.944289 -80.989691 
L 230.29374 -81.302731 
L 230.647751 -81.61577 
L 230.992446 -81.92881 
L 231.312012 -82.241849 
L 231.588906 -82.554888 
L 231.804302 -82.867928 
L 231.938792 -83.180967 
L 231.973316 -83.494007 
L 231.890284 -83.807046 
L 231.674801 -84.120086 
L 231.315919 -84.433125 
L 230.807795 -84.746164 
L 230.150675 -85.059204 
L 229.35159 -85.372243 
L 228.424723 -85.685283 
L 227.391367 -85.998322 
L 226.279482 -86.311362 
L 225.122848 -86.624401 
L 223.959842 -86.93744 
L 222.831925 -87.25048 
L 221.781904 -87.563519 
L 220.852078 -87.876559 
L 220.082382 -88.189598 
L 219.50864 -88.502638 
L 219.161042 -88.815677 
L 219.062922 -89.128716 
L 219.229932 -89.441756 
L 219.669637 -89.754795 
L 220.381547 -90.067835 
L 221.357562 -90.380874 
L 222.582785 -90.693913 
L 224.036613 -91.006953 
L 225.694019 -91.319992 
L 227.526925 -91.633032 
L 229.505562 -91.946071 
L 231.599727 -92.259111 
L 233.779873 -92.57215 
L 236.017977 -92.885189 
L 238.288166 -93.198229 
L 240.567094 -93.511268 
L 242.8341 -93.824308 
L 245.071177 -94.137347 
L 247.262797 -94.450387 
L 249.39565 -94.763426 
L 251.458338 -95.076465 
L 253.441087 -95.389505 
L 255.335486 -95.702544 
L 257.134303 -96.015584 
L 258.831374 -96.328623 
L 285.73847 -96.328623 
L 285.73847 -96.328623 
L 287.435541 -96.015584 
L 289.234358 -95.702544 
L 291.128757 -95.389505 
L 293.111505 -95.076465 
L 295.174194 -94.763426 
L 297.307047 -94.450387 
L 299.498667 -94.137347 
L 301.735744 -93.824308 
L 304.00275 -93.511268 
L 306.281678 -93.198229 
L 308.551867 -92.885189 
L 310.789971 -92.57215 
L 312.970117 -92.259111 
L 315.064282 -91.946071 
L 317.042919 -91.633032 
L 318.875825 -91.319992 
L 320.533231 -91.006953 
L 321.987059 -90.693913 
L 323.212282 -90.380874 
L 324.188297 -90.067835 
L 324.900206 -89.754795 
L 325.339912 -89.441756 
L 325.506922 -89.128716 
L 325.408802 -88.815677 
L 325.061203 -88.502638 
L 324.487462 -88.189598 
L 323.717766 -87.876559 
L 322.78794 -87.563519 
L 321.737919 -87.25048 
L 320.610002 -86.93744 
L 319.446996 -86.624401 
L 318.290361 -86.311362 
L 317.178477 -85.998322 
L 316.145121 -85.685283 
L 315.218254 -85.372243 
L 314.419169 -85.059204 
L 313.762049 -84.746164 
L 313.253925 -84.433125 
L 312.895043 -84.120086 
L 312.67956 -83.807046 
L 312.596527 -83.494007 
L 312.631052 -83.180967 
L 312.765542 -82.867928 
L 312.980938 -82.554888 
L 313.257832 -82.241849 
L 313.577398 -81.92881 
L 313.922093 -81.61577 
L 314.276104 -81.302731 
L 314.625554 -80.989691 
L 314.958518 -80.676652 
L 315.26489 -80.363613 
L 315.536186 -80.050573 
L 315.765344 -79.737534 
L 315.946567 -79.424494 
L 316.075234 -79.111455 
L 316.147898 -78.798415 
L 316.162338 -78.485376 
L 316.117624 -78.172337 
L 316.014166 -77.859297 
L 315.853683 -77.546258 
L 315.639078 -77.233218 
L 315.374188 -76.920179 
L 315.063434 -76.607139 
L 314.711385 -76.2941 
L 314.322294 -75.981061 
L 313.899647 -75.668021 
L 313.445776 -75.354982 
L 312.96159 -75.041942 
L 312.446437 -74.728903 
L 311.898111 -74.415863 
L 311.313008 -74.102824 
L 310.686397 -73.789785 
L 310.012778 -73.476745 
L 309.286311 -73.163706 
L 308.501256 -72.850666 
L 307.652424 -72.537627 
L 306.735594 -72.224587 
L 305.747886 -71.911548 
L 304.688083 -71.598509 
L 303.556866 -71.285469 
L 302.356981 -70.97243 
L 301.093294 -70.65939 
L 299.772749 -70.346351 
L 298.404207 -70.033312 
L 296.99818 -69.720272 
L 295.566446 -69.407233 
L 294.121598 -69.094193 
L 292.676526 -68.781154 
L 291.243884 -68.468114 
L 289.835591 -68.155075 
L 288.462387 -67.842036 
L 287.133501 -67.528996 
L 285.856446 -67.215957 
L 284.636946 -66.902917 
L 283.479002 -66.589878 
L 282.385061 -66.276838 
L 281.356278 -65.963799 
L 280.392804 -65.65076 
L 279.494089 -65.33772 
z
" style="stroke: #2f2f2f; stroke-width: 1.875"/>
    </defs>
    <g clip-path="url(#pcdad1f68dc)">
     <use xlink:href="#mc97dc6918b" x="0" y="299.025703" style="fill: #8b4513; stroke: #2f2f2f; stroke-width: 1.875"/>
    </g>
   </g>
   <g id="FillBetweenPolyCollection_3">
    <defs>
     <path id="m7d91b9ecfb" d="M 446.048711 -93.16538 
L 364.631133 -93.16538 
L 362.667554 -94.879334 
L 360.828584 -96.593288 
L 359.133639 -98.307242 
L 357.599748 -100.021196 
L 356.241106 -101.735149 
L 355.068712 -103.449103 
L 354.090109 -105.163057 
L 353.309237 -106.877011 
L 352.726411 -108.590965 
L 352.338419 -110.304919 
L 352.138749 -112.018872 
L 352.117922 -113.732826 
L 352.263929 -115.44678 
L 352.562748 -117.160734 
L 352.998914 -118.874688 
L 353.556131 -120.588642 
L 354.217879 -122.302596 
L 354.968006 -124.016549 
L 355.791268 -125.730503 
L 356.673808 -127.444457 
L 357.603532 -129.158411 
L 358.570388 -130.872365 
L 359.566537 -132.586319 
L 360.586392 -134.300272 
L 361.626562 -136.014226 
L 362.685674 -137.72818 
L 363.76411 -139.442134 
L 364.863674 -141.156088 
L 365.987193 -142.870042 
L 367.138095 -144.583996 
L 368.319981 -146.297949 
L 369.536198 -148.011903 
L 370.789463 -149.725857 
L 372.081525 -151.439811 
L 373.412904 -153.153765 
L 374.7827 -154.867719 
L 376.188486 -156.581673 
L 377.626279 -158.295626 
L 379.090599 -160.00958 
L 380.574583 -161.723534 
L 382.070176 -163.437488 
L 383.568353 -165.151442 
L 385.059386 -166.865396 
L 386.533113 -168.579349 
L 387.979224 -170.293303 
L 389.387519 -172.007257 
L 390.74815 -173.721211 
L 392.051821 -175.435165 
L 393.289946 -177.149119 
L 394.454762 -178.863073 
L 395.539385 -180.577026 
L 396.537822 -182.29098 
L 397.444929 -184.004934 
L 398.256343 -185.718888 
L 398.96836 -187.432842 
L 399.577808 -189.146796 
L 400.081893 -190.860749 
L 400.478048 -192.574703 
L 400.763785 -194.288657 
L 400.936566 -196.002611 
L 400.993694 -197.716565 
L 400.93225 -199.430519 
L 400.74906 -201.144473 
L 400.440715 -202.858426 
L 400.00364 -204.57238 
L 399.434211 -206.286334 
L 398.72893 -208.000288 
L 397.884641 -209.714242 
L 396.898789 -211.428196 
L 395.769715 -213.142149 
L 394.496974 -214.856103 
L 393.081662 -216.570057 
L 391.526745 -218.284011 
L 389.837365 -219.997965 
L 388.021117 -221.711919 
L 386.088275 -223.425873 
L 384.051953 -225.139826 
L 381.928186 -226.85378 
L 379.735922 -228.567734 
L 377.49691 -230.281688 
L 375.23549 -231.995642 
L 372.978267 -233.709596 
L 370.753688 -235.42355 
L 368.591518 -237.137503 
L 366.522241 -238.851457 
L 364.576382 -240.565411 
L 362.783796 -242.279365 
L 361.172931 -243.993319 
L 359.770088 -245.707273 
L 358.59873 -247.421226 
L 357.67883 -249.13518 
L 357.026317 -250.849134 
L 356.652622 -252.563088 
L 356.564348 -254.277042 
L 356.763081 -255.990996 
L 357.245341 -257.70495 
L 358.002691 -259.418903 
L 359.021982 -261.132857 
L 360.28573 -262.846811 
L 450.394114 -262.846811 
L 450.394114 -262.846811 
L 451.657862 -261.132857 
L 452.677152 -259.418903 
L 453.434503 -257.70495 
L 453.916763 -255.990996 
L 454.115495 -254.277042 
L 454.027222 -252.563088 
L 453.653527 -250.849134 
L 453.001014 -249.13518 
L 452.081114 -247.421226 
L 450.909756 -245.707273 
L 449.506913 -243.993319 
L 447.896047 -242.279365 
L 446.103462 -240.565411 
L 444.157603 -238.851457 
L 442.088325 -237.137503 
L 439.926156 -235.42355 
L 437.701577 -233.709596 
L 435.444354 -231.995642 
L 433.182934 -230.281688 
L 430.943922 -228.567734 
L 428.751658 -226.85378 
L 426.627891 -225.139826 
L 424.591569 -223.425873 
L 422.658727 -221.711919 
L 420.842479 -219.997965 
L 419.153099 -218.284011 
L 417.598181 -216.570057 
L 416.18287 -214.856103 
L 414.910129 -213.142149 
L 413.781055 -211.428196 
L 412.795203 -209.714242 
L 411.950914 -208.000288 
L 411.245633 -206.286334 
L 410.676204 -204.57238 
L 410.239129 -202.858426 
L 409.930784 -201.144473 
L 409.747594 -199.430519 
L 409.68615 -197.716565 
L 409.743278 -196.002611 
L 409.916058 -194.288657 
L 410.201796 -192.574703 
L 410.597951 -190.860749 
L 411.102036 -189.146796 
L 411.711484 -187.432842 
L 412.423501 -185.718888 
L 413.234914 -184.004934 
L 414.142022 -182.29098 
L 415.140458 -180.577026 
L 416.225082 -178.863073 
L 417.389898 -177.149119 
L 418.628023 -175.435165 
L 419.931693 -173.721211 
L 421.292324 -172.007257 
L 422.70062 -170.293303 
L 424.146731 -168.579349 
L 425.620458 -166.865396 
L 427.11149 -165.151442 
L 428.609668 -163.437488 
L 430.10526 -161.723534 
L 431.589245 -160.00958 
L 433.053564 -158.295626 
L 434.491358 -156.581673 
L 435.897144 -154.867719 
L 437.26694 -153.153765 
L 438.598319 -151.439811 
L 439.890381 -149.725857 
L 441.143645 -148.011903 
L 442.359863 -146.297949 
L 443.541748 -144.583996 
L 444.692651 -142.870042 
L 445.81617 -141.156088 
L 446.915733 -139.442134 
L 447.99417 -137.72818 
L 449.053281 -136.014226 
L 450.093452 -134.300272 
L 451.113307 -132.586319 
L 452.109456 -130.872365 
L 453.076312 -129.158411 
L 454.006035 -127.444457 
L 454.888575 -125.730503 
L 455.711838 -124.016549 
L 456.461965 -122.302596 
L 457.123712 -120.588642 
L 457.68093 -118.874688 
L 458.117096 -117.160734 
L 458.415915 -115.44678 
L 458.561922 -113.732826 
L 458.541095 -112.018872 
L 458.341425 -110.304919 
L 457.953433 -108.590965 
L 457.370607 -106.877011 
L 456.589735 -105.163057 
L 455.611132 -103.449103 
L 454.438738 -101.735149 
L 453.080096 -100.021196 
L 451.546204 -98.307242 
L 449.851259 -96.593288 
L 448.01229 -94.879334 
L 446.048711 -93.16538 
z
" style="stroke: #2f2f2f; stroke-width: 1.875"/>
    </defs>
    <g clip-path="url(#pcdad1f68dc)">
     <use xlink:href="#m7d91b9ecfb" x="0" y="299.025703" style="fill: #8b4513; stroke: #2f2f2f; stroke-width: 1.875"/>
    </g>
   </g>
   <g id="line2d_5">
    <path d="M 139.229922 226.065693 
L 139.229922 191.897994 
" clip-path="url(#pcdad1f68dc)" style="fill: none; stroke: #2f2f2f; stroke-width: 2.8125; stroke-linecap: round"/>
   </g>
   <g id="line2d_6">
    <path d="M 139.229922 215.788696 
L 139.229922 199.125914 
" clip-path="url(#pcdad1f68dc)" style="fill: none; stroke: #2f2f2f; stroke-width: 8.4375; stroke-linecap: round"/>
   </g>
   <g id="line2d_7">
    <path d="M 139.229922 212.207773 
" clip-path="url(#pcdad1f68dc)" style="fill: none; stroke: #2f2f2f; stroke-width: 2.25; stroke-linecap: round"/>
    <defs>
     <path id="me01f158153" d="M 3.515625 0 
L -3.515625 -0 
" style="stroke: #ffffff; stroke-width: 1.6875"/>
    </defs>
    <g clip-path="url(#pcdad1f68dc)">
     <use xlink:href="#me01f158153" x="139.229922" y="212.207773" style="fill: #ffffff; stroke: #ffffff; stroke-width: 1.6875"/>
    </g>
   </g>
   <g id="line2d_8">
    <path d="M 272.284922 233.687983 
L 272.284922 202.69708 
" clip-path="url(#pcdad1f68dc)" style="fill: none; stroke: #2f2f2f; stroke-width: 2.8125; stroke-linecap: round"/>
   </g>
   <g id="line2d_9">
    <path d="M 272.284922 223.24656 
L 272.284922 209.924483 
" clip-path="url(#pcdad1f68dc)" style="fill: none; stroke: #2f2f2f; stroke-width: 8.4375; stroke-linecap: round"/>
   </g>
   <g id="line2d_10">
    <path d="M 272.284922 216.842979 
" clip-path="url(#pcdad1f68dc)" style="fill: none; stroke: #2f2f2f; stroke-width: 2.25; stroke-linecap: round"/>
    <g clip-path="url(#pcdad1f68dc)">
     <use xlink:href="#me01f158153" x="272.284922" y="216.842979" style="fill: #ffffff; stroke: #ffffff; stroke-width: 1.6875"/>
    </g>
   </g>
   <g id="line2d_11">
    <path d="M 405.339922 205.860323 
L 405.339922 36.178892 
" clip-path="url(#pcdad1f68dc)" style="fill: none; stroke: #2f2f2f; stroke-width: 2.8125; stroke-linecap: round"/>
   </g>
   <g id="line2d_12">
    <path d="M 405.339922 188.858277 
L 405.339922 46.147735 
" clip-path="url(#pcdad1f68dc)" style="fill: none; stroke: #2f2f2f; stroke-width: 8.4375; stroke-linecap: round"/>
   </g>
   <g id="line2d_13">
    <path d="M 405.339922 150.973768 
" clip-path="url(#pcdad1f68dc)" style="fill: none; stroke: #2f2f2f; stroke-width: 2.25; stroke-linecap: round"/>
    <g clip-path="url(#pcdad1f68dc)">
     <use xlink:href="#me01f158153" x="405.339922" y="150.973768" style="fill: #ffffff; stroke: #ffffff; stroke-width: 1.6875"/>
    </g>
   </g>
   <g id="patch_3">
    <path d="M 72.702422 243.563437 
L 72.702422 26.303437 
" style="fill: none; stroke: #cccccc; stroke-width: 1.875; stroke-linejoin: miter; stroke-linecap: square"/>
   </g>
   <g id="patch_4">
    <path d="M 471.867422 243.563437 
L 471.867422 26.303437 
" style="fill: none; stroke: #cccccc; stroke-width: 1.875; stroke-linejoin: miter; stroke-linecap: square"/>
   </g>
   <g id="patch_5">
    <path d="M 72.702422 243.563437 
L 471.867422 243.563437 
" style="fill: none; stroke: #cccccc; stroke-width: 1.875; stroke-linejoin: miter; stroke-linecap: square"/>
   </g>
   <g id="patch_6">
    <path d="M 72.702422 26.303437 
L 471.867422 26.303437 
" style="fill: none; stroke: #cccccc; stroke-width: 1.875; stroke-linejoin: miter; stroke-linecap: square"/>
   </g>
   <g id="text_10">
    <!-- Layer vector norms: Chocolate -->
    <g style="fill: #262626" transform="translate(149.738672 20.303437) scale(0.18 -0.18)">
     <defs>
      <path id="ArialMT-73" d="M 197 991 
L 753 1078 
Q 800 744 1014 566 
Q 1228 388 1613 388 
Q 2000 388 2187 545 
Q 2375 703 2375 916 
Q 2375 1106 2209 1216 
Q 2094 1291 1634 1406 
Q 1016 1563 777 1677 
Q 538 1791 414 1992 
Q 291 2194 291 2438 
Q 291 2659 392 2848 
Q 494 3038 669 3163 
Q 800 3259 1026 3326 
Q 1253 3394 1513 3394 
Q 1903 3394 2198 3281 
Q 2494 3169 2634 2976 
Q 2775 2784 2828 2463 
L 2278 2388 
Q 2241 2644 2061 2787 
Q 1881 2931 1553 2931 
Q 1166 2931 1000 2803 
Q 834 2675 834 2503 
Q 834 2394 903 2306 
Q 972 2216 1119 2156 
Q 1203 2125 1616 2013 
Q 2213 1853 2448 1751 
Q 2684 1650 2818 1456 
Q 2953 1263 2953 975 
Q 2953 694 2789 445 
Q 2625 197 2315 61 
Q 2006 -75 1616 -75 
Q 969 -75 630 194 
Q 291 463 197 991 
z
" transform="scale(0.015625)"/>
      <path id="ArialMT-3a" d="M 578 2678 
L 578 3319 
L 1219 3319 
L 1219 2678 
L 578 2678 
z
M 578 0 
L 578 641 
L 1219 641 
L 1219 0 
L 578 0 
z
" transform="scale(0.015625)"/>
      <path id="ArialMT-43" d="M 3763 1606 
L 4369 1453 
Q 4178 706 3683 314 
Q 3188 -78 2472 -78 
Q 1731 -78 1267 223 
Q 803 525 561 1097 
Q 319 1669 319 2325 
Q 319 3041 592 3573 
Q 866 4106 1370 4382 
Q 1875 4659 2481 4659 
Q 3169 4659 3637 4309 
Q 4106 3959 4291 3325 
L 3694 3184 
Q 3534 3684 3231 3912 
Q 2928 4141 2469 4141 
Q 1941 4141 1586 3887 
Q 1231 3634 1087 3207 
Q 944 2781 944 2328 
Q 944 1744 1114 1308 
Q 1284 872 1643 656 
Q 2003 441 2422 441 
Q 2931 441 3284 734 
Q 3638 1028 3763 1606 
z
" transform="scale(0.015625)"/>
      <path id="ArialMT-68" d="M 422 0 
L 422 4581 
L 984 4581 
L 984 2938 
Q 1378 3394 1978 3394 
Q 2347 3394 2619 3248 
Q 2891 3103 3008 2847 
Q 3125 2591 3125 2103 
L 3125 0 
L 2563 0 
L 2563 2103 
Q 2563 2525 2380 2717 
Q 2197 2909 1863 2909 
Q 1613 2909 1392 2779 
Q 1172 2650 1078 2428 
Q 984 2206 984 1816 
L 984 0 
L 422 0 
z
" transform="scale(0.015625)"/>
      <path id="ArialMT-6c" d="M 409 0 
L 409 4581 
L 972 4581 
L 972 0 
L 409 0 
z
" transform="scale(0.015625)"/>
     </defs>
     <use xlink:href="#ArialMT-4c"/>
     <use xlink:href="#ArialMT-61" transform="translate(55.615234 0)"/>
     <use xlink:href="#ArialMT-79" transform="translate(111.230469 0)"/>
     <use xlink:href="#ArialMT-65" transform="translate(161.230469 0)"/>
     <use xlink:href="#ArialMT-72" transform="translate(216.845703 0)"/>
     <use xlink:href="#ArialMT-20" transform="translate(250.146484 0)"/>
     <use xlink:href="#ArialMT-76" transform="translate(277.929688 0)"/>
     <use xlink:href="#ArialMT-65" transform="translate(327.929688 0)"/>
     <use xlink:href="#ArialMT-63" transform="translate(383.544922 0)"/>
     <use xlink:href="#ArialMT-74" transform="translate(433.544922 0)"/>
     <use xlink:href="#ArialMT-6f" transform="translate(461.328125 0)"/>
     <use xlink:href="#ArialMT-72" transform="translate(516.943359 0)"/>
     <use xlink:href="#ArialMT-20" transform="translate(550.244141 0)"/>
     <use xlink:href="#ArialMT-6e" transform="translate(578.027344 0)"/>
     <use xlink:href="#ArialMT-6f" transform="translate(633.642578 0)"/>
     <use xlink:href="#ArialMT-72" transform="translate(689.257812 0)"/>
     <use xlink:href="#ArialMT-6d" transform="translate(722.558594 0)"/>
     <use xlink:href="#ArialMT-73" transform="translate(805.859375 0)"/>
     <use xlink:href="#ArialMT-3a" transform="translate(855.859375 0)"/>
     <use xlink:href="#ArialMT-20" transform="translate(883.642578 0)"/>
     <use xlink:href="#ArialMT-43" transform="translate(911.425781 0)"/>
     <use xlink:href="#ArialMT-68" transform="translate(983.642578 0)"/>
     <use xlink:href="#ArialMT-6f" transform="translate(1039.257812 0)"/>
     <use xlink:href="#ArialMT-63" transform="translate(1094.873047 0)"/>
     <use xlink:href="#ArialMT-6f" transform="translate(1144.873047 0)"/>
     <use xlink:href="#ArialMT-6c" transform="translate(1200.488281 0)"/>
     <use xlink:href="#ArialMT-61" transform="translate(1222.705078 0)"/>
     <use xlink:href="#ArialMT-74" transform="translate(1278.320312 0)"/>
     <use xlink:href="#ArialMT-65" transform="translate(1306.103516 0)"/>
    </g>
   </g>
  </g>
 </g>
 <defs>
  <clipPath id="pcdad1f68dc">
   <rect x="72.702422" y="26.303437" width="399.165" height="217.26"/>
  </clipPath>
 </defs>
</svg>
