<?xml version="1.0" encoding="utf-8" standalone="no"?>
<!DOCTYPE svg PUBLIC "-//W3C//DTD SVG 1.1//EN"
  "http://www.w3.org/Graphics/SVG/1.1/DTD/svg11.dtd">
<svg xmlns:xlink="http://www.w3.org/1999/xlink" width="479.116875pt" height="298.943016pt" viewBox="0 0 479.116875 298.943016" xmlns="http://www.w3.org/2000/svg" version="1.1">
 <metadata>
  <rdf:RDF xmlns:dc="http://purl.org/dc/elements/1.1/" xmlns:cc="http://creativecommons.org/ns#" xmlns:rdf="http://www.w3.org/1999/02/22-rdf-syntax-ns#">
   <cc:Work>
    <dc:type rdf:resource="http://purl.org/dc/dcmitype/StillImage"/>
    <dc:date>2025-12-09T18:13:19.010660</dc:date>
    <dc:format>image/svg+xml</dc:format>
    <dc:creator>
     <cc:Agent>
      <dc:title>Matplotlib v3.10.7, https://matplotlib.org/</dc:title>
     </cc:Agent>
    </dc:creator>
   </cc:Work>
  </rdf:RDF>
 </metadata>
 <defs>
  <style type="text/css">*{stroke-linejoin: round; stroke-linecap: butt}</style>
 </defs>
 <g id="figure_1">
  <g id="patch_1">
   <path d="M 0 298.943016 
L 479.116875 298.943016 
L 479.116875 0 
L 0 0 
z
" style="fill: #ffffff"/>
  </g>
  <g id="axes_1">
   <g id="patch_2">
    <path d="M 63.526875 243.48075 
L 471.916875 243.48075 
L 471.916875 45.55275 
L 63.526875 45.55275 
z
" style="fill: #ffffff"/>
   </g>
   <g id="matplotlib.axis_1">
    <g id="xtick_1">
     <g id="text_1">
      <!-- 0 -->
      <g style="fill: #262626" transform="translate(127.004102 267.791141) scale(0.165 -0.165)">
       <defs>
        <path id="ArialMT-30" d="M 266 2259 
Q 266 3072 433 3567 
Q 600 4063 929 4331 
Q 1259 4600 1759 4600 
Q 2128 4600 2406 4451 
Q 2684 4303 2865 4023 
Q 3047 3744 3150 3342 
Q 3253 2941 3253 2259 
Q 3253 1453 3087 958 
Q 2922 463 2592 192 
Q 2263 -78 1759 -78 
Q 1097 -78 719 397 
Q 266 969 266 2259 
z
M 844 2259 
Q 844 1131 1108 757 
Q 1372 384 1759 384 
Q 2147 384 2411 759 
Q 2675 1134 2675 2259 
Q 2675 3391 2411 3762 
Q 2147 4134 1753 4134 
Q 1366 4134 1134 3806 
Q 844 3388 844 2259 
z
" transform="scale(0.015625)"/>
       </defs>
       <use xlink:href="#ArialMT-30"/>
      </g>
     </g>
    </g>
    <g id="xtick_2">
     <g id="text_2">
      <!-- 1 -->
      <g style="fill: #262626" transform="translate(263.134102 267.791141) scale(0.165 -0.165)">
       <defs>
        <path id="ArialMT-31" d="M 2384 0 
L 1822 0 
L 1822 3584 
Q 1619 3391 1289 3197 
Q 959 3003 697 2906 
L 697 3450 
Q 1169 3672 1522 3987 
Q 1875 4303 2022 4600 
L 2384 4600 
L 2384 0 
z
" transform="scale(0.015625)"/>
       </defs>
       <use xlink:href="#ArialMT-31"/>
      </g>
     </g>
    </g>
    <g id="xtick_3">
     <g id="text_3">
      <!-- 2 -->
      <g style="fill: #262626" transform="translate(399.264102 267.791141) scale(0.165 -0.165)">
       <defs>
        <path id="ArialMT-32" d="M 3222 541 
L 3222 0 
L 194 0 
Q 188 203 259 391 
Q 375 700 629 1000 
Q 884 1300 1366 1694 
Q 2113 2306 2375 2664 
Q 2638 3022 2638 3341 
Q 2638 3675 2398 3904 
Q 2159 4134 1775 4134 
Q 1369 4134 1125 3890 
Q 881 3647 878 3216 
L 300 3275 
Q 359 3922 746 4261 
Q 1134 4600 1788 4600 
Q 2447 4600 2831 4234 
Q 3216 3869 3216 3328 
Q 3216 3053 3103 2787 
Q 2991 2522 2730 2228 
Q 2469 1934 1863 1422 
Q 1356 997 1212 845 
Q 1069 694 975 541 
L 3222 541 
z
" transform="scale(0.015625)"/>
       </defs>
       <use xlink:href="#ArialMT-32"/>
      </g>
     </g>
    </g>
    <g id="text_4">
     <!-- Layer -->
     <g style="fill: #262626" transform="translate(245.210625 287.954578) scale(0.18 -0.18)">
      <defs>
       <path id="ArialMT-4c" d="M 469 0 
L 469 4581 
L 1075 4581 
L 1075 541 
L 3331 541 
L 3331 0 
L 469 0 
z
" transform="scale(0.015625)"/>
       <path id="ArialMT-61" d="M 2588 409 
Q 2275 144 1986 34 
Q 1697 -75 1366 -75 
Q 819 -75 525 192 
Q 231 459 231 875 
Q 231 1119 342 1320 
Q 453 1522 633 1644 
Q 813 1766 1038 1828 
Q 1203 1872 1538 1913 
Q 2219 1994 2541 2106 
Q 2544 2222 2544 2253 
Q 2544 2597 2384 2738 
Q 2169 2928 1744 2928 
Q 1347 2928 1158 2789 
Q 969 2650 878 2297 
L 328 2372 
Q 403 2725 575 2942 
Q 747 3159 1072 3276 
Q 1397 3394 1825 3394 
Q 2250 3394 2515 3294 
Q 2781 3194 2906 3042 
Q 3031 2891 3081 2659 
Q 3109 2516 3109 2141 
L 3109 1391 
Q 3109 606 3145 398 
Q 3181 191 3288 0 
L 2700 0 
Q 2613 175 2588 409 
z
M 2541 1666 
Q 2234 1541 1622 1453 
Q 1275 1403 1131 1340 
Q 988 1278 909 1158 
Q 831 1038 831 891 
Q 831 666 1001 516 
Q 1172 366 1500 366 
Q 1825 366 2078 508 
Q 2331 650 2450 897 
Q 2541 1088 2541 1459 
L 2541 1666 
z
" transform="scale(0.015625)"/>
       <path id="ArialMT-79" d="M 397 -1278 
L 334 -750 
Q 519 -800 656 -800 
Q 844 -800 956 -737 
Q 1069 -675 1141 -563 
Q 1194 -478 1313 -144 
Q 1328 -97 1363 -6 
L 103 3319 
L 709 3319 
L 1400 1397 
Q 1534 1031 1641 628 
Q 1738 1016 1872 1384 
L 2581 3319 
L 3144 3319 
L 1881 -56 
Q 1678 -603 1566 -809 
Q 1416 -1088 1222 -1217 
Q 1028 -1347 759 -1347 
Q 597 -1347 397 -1278 
z
" transform="scale(0.015625)"/>
       <path id="ArialMT-65" d="M 2694 1069 
L 3275 997 
Q 3138 488 2766 206 
Q 2394 -75 1816 -75 
Q 1088 -75 661 373 
Q 234 822 234 1631 
Q 234 2469 665 2931 
Q 1097 3394 1784 3394 
Q 2450 3394 2872 2941 
Q 3294 2488 3294 1666 
Q 3294 1616 3291 1516 
L 816 1516 
Q 847 969 1125 678 
Q 1403 388 1819 388 
Q 2128 388 2347 550 
Q 2566 713 2694 1069 
z
M 847 1978 
L 2700 1978 
Q 2663 2397 2488 2606 
Q 2219 2931 1791 2931 
Q 1403 2931 1139 2672 
Q 875 2413 847 1978 
z
" transform="scale(0.015625)"/>
       <path id="ArialMT-72" d="M 416 0 
L 416 3319 
L 922 3319 
L 922 2816 
Q 1116 3169 1280 3281 
Q 1444 3394 1641 3394 
Q 1925 3394 2219 3213 
L 2025 2691 
Q 1819 2813 1613 2813 
Q 1428 2813 1281 2702 
Q 1134 2591 1072 2394 
Q 978 2094 978 1738 
L 978 0 
L 416 0 
z
" transform="scale(0.015625)"/>
      </defs>
      <use xlink:href="#ArialMT-4c"/>
      <use xlink:href="#ArialMT-61" transform="translate(55.615234 0)"/>
      <use xlink:href="#ArialMT-79" transform="translate(111.230469 0)"/>
      <use xlink:href="#ArialMT-65" transform="translate(161.230469 0)"/>
      <use xlink:href="#ArialMT-72" transform="translate(216.845703 0)"/>
     </g>
    </g>
   </g>
   <g id="matplotlib.axis_2">
    <g id="ytick_1">
     <g id="line2d_1">
      <path d="M 63.526875 206.980894 
L 471.916875 206.980894 
" clip-path="url(#pd78f912518)" style="fill: none; stroke: #cccccc; stroke-width: 1.5; stroke-linecap: round"/>
     </g>
     <g id="text_5">
      <!-- 0.5 -->
      <g style="fill: #262626" transform="translate(28.091875 212.886089) scale(0.165 -0.165)">
       <defs>
        <path id="ArialMT-2e" d="M 581 0 
L 581 641 
L 1222 641 
L 1222 0 
L 581 0 
z
" transform="scale(0.015625)"/>
        <path id="ArialMT-35" d="M 266 1200 
L 856 1250 
Q 922 819 1161 601 
Q 1400 384 1738 384 
Q 2144 384 2425 690 
Q 2706 997 2706 1503 
Q 2706 1984 2436 2262 
Q 2166 2541 1728 2541 
Q 1456 2541 1237 2417 
Q 1019 2294 894 2097 
L 366 2166 
L 809 4519 
L 3088 4519 
L 3088 3981 
L 1259 3981 
L 1013 2750 
Q 1425 3038 1878 3038 
Q 2478 3038 2890 2622 
Q 3303 2206 3303 1553 
Q 3303 931 2941 478 
Q 2500 -78 1738 -78 
Q 1113 -78 717 272 
Q 322 622 266 1200 
z
" transform="scale(0.015625)"/>
       </defs>
       <use xlink:href="#ArialMT-30"/>
       <use xlink:href="#ArialMT-2e" transform="translate(55.615234 0)"/>
       <use xlink:href="#ArialMT-35" transform="translate(83.398438 0)"/>
      </g>
     </g>
    </g>
    <g id="ytick_2">
     <g id="line2d_2">
      <path d="M 63.526875 160.129354 
L 471.916875 160.129354 
" clip-path="url(#pd78f912518)" style="fill: none; stroke: #cccccc; stroke-width: 1.5; stroke-linecap: round"/>
     </g>
     <g id="text_6">
      <!-- 1.0 -->
      <g style="fill: #262626" transform="translate(28.091875 166.034549) scale(0.165 -0.165)">
       <use xlink:href="#ArialMT-31"/>
       <use xlink:href="#ArialMT-2e" transform="translate(55.615234 0)"/>
       <use xlink:href="#ArialMT-30" transform="translate(83.398438 0)"/>
      </g>
     </g>
    </g>
    <g id="ytick_3">
     <g id="line2d_3">
      <path d="M 63.526875 113.277814 
L 471.916875 113.277814 
" clip-path="url(#pd78f912518)" style="fill: none; stroke: #cccccc; stroke-width: 1.5; stroke-linecap: round"/>
     </g>
     <g id="text_7">
      <!-- 1.5 -->
      <g style="fill: #262626" transform="translate(28.091875 119.18301) scale(0.165 -0.165)">
       <use xlink:href="#ArialMT-31"/>
       <use xlink:href="#ArialMT-2e" transform="translate(55.615234 0)"/>
       <use xlink:href="#ArialMT-35" transform="translate(83.398438 0)"/>
      </g>
     </g>
    </g>
    <g id="ytick_4">
     <g id="line2d_4">
      <path d="M 63.526875 66.426275 
L 471.916875 66.426275 
" clip-path="url(#pd78f912518)" style="fill: none; stroke: #cccccc; stroke-width: 1.5; stroke-linecap: round"/>
     </g>
     <g id="text_8">
      <!-- 2.0 -->
      <g style="fill: #262626" transform="translate(28.091875 72.33147) scale(0.165 -0.165)">
       <use xlink:href="#ArialMT-32"/>
       <use xlink:href="#ArialMT-2e" transform="translate(55.615234 0)"/>
       <use xlink:href="#ArialMT-30" transform="translate(83.398438 0)"/>
      </g>
     </g>
    </g>
    <g id="text_9">
     <!-- Vector norm (mean |v|) -->
     <g style="fill: #262626" transform="translate(20.303438 235.717687) rotate(-90) scale(0.18 -0.18)">
      <defs>
       <path id="ArialMT-56" d="M 1803 0 
L 28 4581 
L 684 4581 
L 1875 1253 
Q 2019 853 2116 503 
Q 2222 878 2363 1253 
L 3600 4581 
L 4219 4581 
L 2425 0 
L 1803 0 
z
" transform="scale(0.015625)"/>
       <path id="ArialMT-63" d="M 2588 1216 
L 3141 1144 
Q 3050 572 2676 248 
Q 2303 -75 1759 -75 
Q 1078 -75 664 370 
Q 250 816 250 1647 
Q 250 2184 428 2587 
Q 606 2991 970 3192 
Q 1334 3394 1763 3394 
Q 2303 3394 2647 3120 
Q 2991 2847 3088 2344 
L 2541 2259 
Q 2463 2594 2264 2762 
Q 2066 2931 1784 2931 
Q 1359 2931 1093 2626 
Q 828 2322 828 1663 
Q 828 994 1084 691 
Q 1341 388 1753 388 
Q 2084 388 2306 591 
Q 2528 794 2588 1216 
z
" transform="scale(0.015625)"/>
       <path id="ArialMT-74" d="M 1650 503 
L 1731 6 
Q 1494 -44 1306 -44 
Q 1000 -44 831 53 
Q 663 150 594 308 
Q 525 466 525 972 
L 525 2881 
L 113 2881 
L 113 3319 
L 525 3319 
L 525 4141 
L 1084 4478 
L 1084 3319 
L 1650 3319 
L 1650 2881 
L 1084 2881 
L 1084 941 
Q 1084 700 1114 631 
Q 1144 563 1211 522 
Q 1278 481 1403 481 
Q 1497 481 1650 503 
z
" transform="scale(0.015625)"/>
       <path id="ArialMT-6f" d="M 213 1659 
Q 213 2581 725 3025 
Q 1153 3394 1769 3394 
Q 2453 3394 2887 2945 
Q 3322 2497 3322 1706 
Q 3322 1066 3130 698 
Q 2938 331 2570 128 
Q 2203 -75 1769 -75 
Q 1072 -75 642 372 
Q 213 819 213 1659 
z
M 791 1659 
Q 791 1022 1069 705 
Q 1347 388 1769 388 
Q 2188 388 2466 706 
Q 2744 1025 2744 1678 
Q 2744 2294 2464 2611 
Q 2184 2928 1769 2928 
Q 1347 2928 1069 2612 
Q 791 2297 791 1659 
z
" transform="scale(0.015625)"/>
       <path id="ArialMT-20" transform="scale(0.015625)"/>
       <path id="ArialMT-6e" d="M 422 0 
L 422 3319 
L 928 3319 
L 928 2847 
Q 1294 3394 1984 3394 
Q 2284 3394 2536 3286 
Q 2788 3178 2913 3003 
Q 3038 2828 3088 2588 
Q 3119 2431 3119 2041 
L 3119 0 
L 2556 0 
L 2556 2019 
Q 2556 2363 2490 2533 
Q 2425 2703 2258 2804 
Q 2091 2906 1866 2906 
Q 1506 2906 1245 2678 
Q 984 2450 984 1813 
L 984 0 
L 422 0 
z
" transform="scale(0.015625)"/>
       <path id="ArialMT-6d" d="M 422 0 
L 422 3319 
L 925 3319 
L 925 2853 
Q 1081 3097 1340 3245 
Q 1600 3394 1931 3394 
Q 2300 3394 2536 3241 
Q 2772 3088 2869 2813 
Q 3263 3394 3894 3394 
Q 4388 3394 4653 3120 
Q 4919 2847 4919 2278 
L 4919 0 
L 4359 0 
L 4359 2091 
Q 4359 2428 4304 2576 
Q 4250 2725 4106 2815 
Q 3963 2906 3769 2906 
Q 3419 2906 3187 2673 
Q 2956 2441 2956 1928 
L 2956 0 
L 2394 0 
L 2394 2156 
Q 2394 2531 2256 2718 
Q 2119 2906 1806 2906 
Q 1569 2906 1367 2781 
Q 1166 2656 1075 2415 
Q 984 2175 984 1722 
L 984 0 
L 422 0 
z
" transform="scale(0.015625)"/>
       <path id="ArialMT-28" d="M 1497 -1347 
Q 1031 -759 709 28 
Q 388 816 388 1659 
Q 388 2403 628 3084 
Q 909 3875 1497 4659 
L 1900 4659 
Q 1522 4009 1400 3731 
Q 1209 3300 1100 2831 
Q 966 2247 966 1656 
Q 966 153 1900 -1347 
L 1497 -1347 
z
" transform="scale(0.015625)"/>
       <path id="ArialMT-7c" d="M 588 -1347 
L 588 4659 
L 1078 4659 
L 1078 -1347 
L 588 -1347 
z
" transform="scale(0.015625)"/>
       <path id="ArialMT-76" d="M 1344 0 
L 81 3319 
L 675 3319 
L 1388 1331 
Q 1503 1009 1600 663 
Q 1675 925 1809 1294 
L 2547 3319 
L 3125 3319 
L 1869 0 
L 1344 0 
z
" transform="scale(0.015625)"/>
       <path id="ArialMT-29" d="M 791 -1347 
L 388 -1347 
Q 1322 153 1322 1656 
Q 1322 2244 1188 2822 
Q 1081 3291 891 3722 
Q 769 4003 388 4659 
L 791 4659 
Q 1378 3875 1659 3084 
Q 1900 2403 1900 1659 
Q 1900 816 1576 28 
Q 1253 -759 791 -1347 
z
" transform="scale(0.015625)"/>
      </defs>
      <use xlink:href="#ArialMT-56"/>
      <use xlink:href="#ArialMT-65" transform="translate(61.199219 0)"/>
      <use xlink:href="#ArialMT-63" transform="translate(116.814453 0)"/>
      <use xlink:href="#ArialMT-74" transform="translate(166.814453 0)"/>
      <use xlink:href="#ArialMT-6f" transform="translate(194.597656 0)"/>
      <use xlink:href="#ArialMT-72" transform="translate(250.212891 0)"/>
      <use xlink:href="#ArialMT-20" transform="translate(283.513672 0)"/>
      <use xlink:href="#ArialMT-6e" transform="translate(311.296875 0)"/>
      <use xlink:href="#ArialMT-6f" transform="translate(366.912109 0)"/>
      <use xlink:href="#ArialMT-72" transform="translate(422.527344 0)"/>
      <use xlink:href="#ArialMT-6d" transform="translate(455.828125 0)"/>
      <use xlink:href="#ArialMT-20" transform="translate(539.128906 0)"/>
      <use xlink:href="#ArialMT-28" transform="translate(566.912109 0)"/>
      <use xlink:href="#ArialMT-6d" transform="translate(600.212891 0)"/>
      <use xlink:href="#ArialMT-65" transform="translate(683.513672 0)"/>
      <use xlink:href="#ArialMT-61" transform="translate(739.128906 0)"/>
      <use xlink:href="#ArialMT-6e" transform="translate(794.744141 0)"/>
      <use xlink:href="#ArialMT-20" transform="translate(850.359375 0)"/>
      <use xlink:href="#ArialMT-7c" transform="translate(878.142578 0)"/>
      <use xlink:href="#ArialMT-76" transform="translate(904.119141 0)"/>
      <use xlink:href="#ArialMT-7c" transform="translate(954.119141 0)"/>
      <use xlink:href="#ArialMT-29" transform="translate(980.095703 0)"/>
     </g>
    </g>
   </g>
   <g id="FillBetweenPolyCollection_1">
    <defs>
     <path id="m61aadaa86f" d="M 179.854668 -168.428033 
L 83.329082 -168.428033 
L 82.404766 -169.195362 
L 81.748801 -169.96269 
L 81.372297 -170.730018 
L 81.281666 -171.497347 
L 81.478445 -172.264675 
L 81.959246 -173.032003 
L 82.715852 -173.799332 
L 83.735448 -174.56666 
L 85.000975 -175.333988 
L 86.4916 -176.101317 
L 88.183276 -176.868645 
L 90.049382 -177.635973 
L 92.061398 -178.403302 
L 94.189618 -179.17063 
L 96.403849 -179.937958 
L 98.67409 -180.705287 
L 100.971163 -181.472615 
L 103.267279 -182.239943 
L 105.536518 -183.007272 
L 107.755221 -183.7746 
L 109.902286 -184.541928 
L 111.959353 -185.309257 
L 113.910903 -186.076585 
L 115.744254 -186.843913 
L 117.449475 -187.611242 
L 119.019228 -188.37857 
L 120.448552 -189.145898 
L 121.734595 -189.913227 
L 122.87632 -190.680555 
L 123.874195 -191.447883 
L 124.729881 -192.215212 
L 125.44593 -192.98254 
L 126.025503 -193.749868 
L 126.47213 -194.517197 
L 126.789492 -195.284525 
L 126.981266 -196.051853 
L 127.051002 -196.819182 
L 127.002061 -197.58651 
L 126.837585 -198.353838 
L 126.560528 -199.121167 
L 126.173712 -199.888495 
L 125.679922 -200.655823 
L 125.082026 -201.423152 
L 124.383108 -202.19048 
L 123.58661 -202.957808 
L 122.696475 -203.725137 
L 121.717268 -204.492465 
L 120.654284 -205.259793 
L 119.513622 -206.027122 
L 118.302225 -206.79445 
L 117.027868 -207.561778 
L 115.699114 -208.329107 
L 114.325208 -209.096435 
L 112.915931 -209.863763 
L 111.48141 -210.631092 
L 110.031891 -211.39842 
L 108.577481 -212.165748 
L 107.127875 -212.933077 
L 105.692079 -213.700405 
L 104.27814 -214.467733 
L 102.892902 -215.235062 
L 101.541797 -216.00239 
L 100.228695 -216.769718 
L 98.95581 -217.537047 
L 97.723686 -218.304375 
L 96.531254 -219.071703 
L 95.375982 -219.839032 
L 94.254096 -220.60636 
L 93.160878 -221.373688 
L 92.091029 -222.141017 
L 91.039084 -222.908345 
L 89.999849 -223.675673 
L 88.968866 -224.443002 
L 87.942856 -225.21033 
L 86.920134 -225.977658 
L 85.900968 -226.744987 
L 84.887872 -227.512315 
L 83.885793 -228.279643 
L 82.902203 -229.046972 
L 81.947077 -229.8143 
L 81.032744 -230.581628 
L 80.17363 -231.348957 
L 79.38589 -232.116285 
L 78.686943 -232.883613 
L 78.094928 -233.650942 
L 77.628105 -234.41827 
L 77.304221 -235.185598 
L 77.139875 -235.952927 
L 77.149898 -236.720255 
L 77.346781 -237.487583 
L 77.74018 -238.254912 
L 78.336501 -239.02224 
L 79.138601 -239.789568 
L 80.145605 -240.556897 
L 81.352849 -241.324225 
L 82.751948 -242.091553 
L 84.330987 -242.858882 
L 86.074819 -243.62621 
L 87.965468 -244.393538 
L 175.218282 -244.393538 
L 175.218282 -244.393538 
L 177.108931 -243.62621 
L 178.852763 -242.858882 
L 180.431802 -242.091553 
L 181.830901 -241.324225 
L 183.038145 -240.556897 
L 184.045149 -239.789568 
L 184.847249 -239.02224 
L 185.44357 -238.254912 
L 185.836969 -237.487583 
L 186.033852 -236.720255 
L 186.043875 -235.952927 
L 185.879529 -235.185598 
L 185.555645 -234.41827 
L 185.088822 -233.650942 
L 184.496807 -232.883613 
L 183.79786 -232.116285 
L 183.01012 -231.348957 
L 182.151006 -230.581628 
L 181.236673 -229.8143 
L 180.281547 -229.046972 
L 179.297957 -228.279643 
L 178.295878 -227.512315 
L 177.282782 -226.744987 
L 176.263616 -225.977658 
L 175.240894 -225.21033 
L 174.214884 -224.443002 
L 173.183901 -223.675673 
L 172.144666 -222.908345 
L 171.092721 -222.141017 
L 170.022872 -221.373688 
L 168.929654 -220.60636 
L 167.807768 -219.839032 
L 166.652496 -219.071703 
L 165.460064 -218.304375 
L 164.22794 -217.537047 
L 162.955055 -216.769718 
L 161.641953 -216.00239 
L 160.290848 -215.235062 
L 158.90561 -214.467733 
L 157.491671 -213.700405 
L 156.055875 -212.933077 
L 154.606269 -212.165748 
L 153.151859 -211.39842 
L 151.70234 -210.631092 
L 150.267819 -209.863763 
L 148.858542 -209.096435 
L 147.484636 -208.329107 
L 146.155882 -207.561778 
L 144.881525 -206.79445 
L 143.670128 -206.027122 
L 142.529466 -205.259793 
L 141.466482 -204.492465 
L 140.487275 -203.725137 
L 139.59714 -202.957808 
L 138.800642 -202.19048 
L 138.101724 -201.423152 
L 137.503828 -200.655823 
L 137.010038 -199.888495 
L 136.623222 -199.121167 
L 136.346165 -198.353838 
L 136.181689 -197.58651 
L 136.132748 -196.819182 
L 136.202484 -196.051853 
L 136.394258 -195.284525 
L 136.71162 -194.517197 
L 137.158247 -193.749868 
L 137.73782 -192.98254 
L 138.453869 -192.215212 
L 139.309555 -191.447883 
L 140.30743 -190.680555 
L 141.449155 -189.913227 
L 142.735198 -189.145898 
L 144.164522 -188.37857 
L 145.734275 -187.611242 
L 147.439496 -186.843913 
L 149.272847 -186.076585 
L 151.224397 -185.309257 
L 153.281464 -184.541928 
L 155.428529 -183.7746 
L 157.647232 -183.007272 
L 159.916471 -182.239943 
L 162.212587 -181.472615 
L 164.50966 -180.705287 
L 166.779901 -179.937958 
L 168.994132 -179.17063 
L 171.122352 -178.403302 
L 173.134368 -177.635973 
L 175.000474 -176.868645 
L 176.69215 -176.101317 
L 178.182775 -175.333988 
L 179.448302 -174.56666 
L 180.467898 -173.799332 
L 181.224504 -173.032003 
L 181.705305 -172.264675 
L 181.902084 -171.497347 
L 181.811453 -170.730018 
L 181.434949 -169.96269 
L 180.778984 -169.195362 
L 179.854668 -168.428033 
z
" style="stroke: #656565; stroke-width: 1.875"/>
    </defs>
    <g clip-path="url(#pd78f912518)">
     <use xlink:href="#m61aadaa86f" x="0" y="298.943016" style="fill: #f06292; stroke: #656565; stroke-width: 1.875"/>
    </g>
   </g>
   <g id="FillBetweenPolyCollection_2">
    <defs>
     <path id="m7749514837" d="M 270.850177 -64.458993 
L 264.593573 -64.458993 
L 264.0512 -64.556288 
L 263.429856 -64.653583 
L 262.722253 -64.750878 
L 261.921687 -64.848174 
L 261.022396 -64.945469 
L 260.019954 -65.042764 
L 258.91166 -65.140059 
L 257.696926 -65.237354 
L 256.377626 -65.33465 
L 254.958394 -65.431945 
L 253.446845 -65.52924 
L 251.853711 -65.626535 
L 250.192866 -65.72383 
L 248.481233 -65.821126 
L 246.738574 -65.918421 
L 244.987158 -66.015716 
L 243.251308 -66.113011 
L 241.556848 -66.210306 
L 239.93046 -66.307602 
L 238.398976 -66.404897 
L 236.988628 -66.502192 
L 235.72428 -66.599487 
L 234.628681 -66.696782 
L 233.721758 -66.794077 
L 233.019983 -66.891373 
L 232.535835 -66.988668 
L 232.277382 -67.085963 
L 232.247994 -67.183258 
L 232.446203 -67.280553 
L 232.865713 -67.377849 
L 233.495558 -67.475144 
L 234.320399 -67.572439 
L 235.320953 -67.669734 
L 236.474539 -67.767029 
L 237.755704 -67.864325 
L 239.136936 -67.96162 
L 240.589403 -68.058915 
L 242.083723 -68.15621 
L 243.590726 -68.253505 
L 245.082167 -68.350801 
L 246.531398 -68.448096 
L 247.913942 -68.545391 
L 249.207969 -68.642686 
L 250.394648 -68.739981 
L 251.458368 -68.837276 
L 252.386812 -68.934572 
L 253.170888 -69.031867 
L 253.804529 -69.129162 
L 254.284367 -69.226457 
L 254.609299 -69.323752 
L 254.779987 -69.421048 
L 254.798309 -69.518343 
L 254.666814 -69.615638 
L 254.388204 -69.712933 
L 253.964892 -69.810228 
L 253.398667 -69.907524 
L 252.690495 -70.004819 
L 251.840479 -70.102114 
L 250.847982 -70.199409 
L 249.711923 -70.296704 
L 248.431223 -70.394 
L 247.005382 -70.491295 
L 245.435156 -70.58859 
L 243.723291 -70.685885 
L 241.875255 -70.78318 
L 239.899941 -70.880475 
L 237.810259 -70.977771 
L 235.623598 -71.075066 
L 233.362095 -71.172361 
L 231.052693 -71.269656 
L 228.726947 -71.366951 
L 226.420589 -71.464247 
L 224.172836 -71.561542 
L 222.025463 -71.658837 
L 220.021672 -71.756132 
L 218.204793 -71.853427 
L 216.616878 -71.950723 
L 215.297228 -72.048018 
L 214.280947 -72.145313 
L 213.597575 -72.242608 
L 213.269875 -72.339903 
L 213.312838 -72.437199 
L 213.732971 -72.534494 
L 214.527905 -72.631789 
L 215.686354 -72.729084 
L 217.18844 -72.826379 
L 219.006364 -72.923674 
L 221.105407 -73.02097 
L 223.445197 -73.118265 
L 225.981176 -73.21556 
L 228.666201 -73.312855 
L 231.452183 -73.41015 
L 234.291674 -73.507446 
L 237.139339 -73.604741 
L 239.953234 -73.702036 
L 242.695837 -73.799331 
L 245.334811 -73.896626 
L 247.843474 -73.993922 
L 250.200991 -74.091217 
L 285.242759 -74.091217 
L 285.242759 -74.091217 
L 287.600276 -73.993922 
L 290.108939 -73.896626 
L 292.747913 -73.799331 
L 295.490516 -73.702036 
L 298.304411 -73.604741 
L 301.152076 -73.507446 
L 303.991567 -73.41015 
L 306.777549 -73.312855 
L 309.462574 -73.21556 
L 311.998553 -73.118265 
L 314.338343 -73.02097 
L 316.437386 -72.923674 
L 318.25531 -72.826379 
L 319.757396 -72.729084 
L 320.915845 -72.631789 
L 321.710779 -72.534494 
L 322.130912 -72.437199 
L 322.173875 -72.339903 
L 321.846175 -72.242608 
L 321.162803 -72.145313 
L 320.146522 -72.048018 
L 318.826872 -71.950723 
L 317.238957 -71.853427 
L 315.422078 -71.756132 
L 313.418287 -71.658837 
L 311.270914 -71.561542 
L 309.023161 -71.464247 
L 306.716803 -71.366951 
L 304.391057 -71.269656 
L 302.081655 -71.172361 
L 299.820152 -71.075066 
L 297.633491 -70.977771 
L 295.543809 -70.880475 
L 293.568495 -70.78318 
L 291.720459 -70.685885 
L 290.008594 -70.58859 
L 288.438368 -70.491295 
L 287.012527 -70.394 
L 285.731827 -70.296704 
L 284.595768 -70.199409 
L 283.603271 -70.102114 
L 282.753255 -70.004819 
L 282.045083 -69.907524 
L 281.478858 -69.810228 
L 281.055546 -69.712933 
L 280.776936 -69.615638 
L 280.645441 -69.518343 
L 280.663763 -69.421048 
L 280.834451 -69.323752 
L 281.159383 -69.226457 
L 281.639221 -69.129162 
L 282.272862 -69.031867 
L 283.056938 -68.934572 
L 283.985382 -68.837276 
L 285.049102 -68.739981 
L 286.235781 -68.642686 
L 287.529808 -68.545391 
L 288.912352 -68.448096 
L 290.361583 -68.350801 
L 291.853024 -68.253505 
L 293.360027 -68.15621 
L 294.854347 -68.058915 
L 296.306814 -67.96162 
L 297.688046 -67.864325 
L 298.969211 -67.767029 
L 300.122797 -67.669734 
L 301.123351 -67.572439 
L 301.948192 -67.475144 
L 302.578037 -67.377849 
L 302.997547 -67.280553 
L 303.195756 -67.183258 
L 303.166368 -67.085963 
L 302.907915 -66.988668 
L 302.423767 -66.891373 
L 301.721992 -66.794077 
L 300.815069 -66.696782 
L 299.71947 -66.599487 
L 298.455122 -66.502192 
L 297.044774 -66.404897 
L 295.51329 -66.307602 
L 293.886902 -66.210306 
L 292.192442 -66.113011 
L 290.456592 -66.015716 
L 288.705176 -65.918421 
L 286.962517 -65.821126 
L 285.250884 -65.72383 
L 283.590039 -65.626535 
L 281.996905 -65.52924 
L 280.485356 -65.431945 
L 279.066124 -65.33465 
L 277.746824 -65.237354 
L 276.53209 -65.140059 
L 275.423796 -65.042764 
L 274.421354 -64.945469 
L 273.522063 -64.848174 
L 272.721497 -64.750878 
L 272.013894 -64.653583 
L 271.39255 -64.556288 
L 270.850177 -64.458993 
z
" style="stroke: #656565; stroke-width: 1.875"/>
    </defs>
    <g clip-path="url(#pd78f912518)">
     <use xlink:href="#m7749514837" x="0" y="298.943016" style="fill: #f06292; stroke: #656565; stroke-width: 1.875"/>
    </g>
   </g>
   <g id="FillBetweenPolyCollection_3">
    <defs>
     <path id="m11923e7555" d="M 444.723129 -94.220434 
L 362.980621 -94.220434 
L 361.536811 -94.829918 
L 360.367598 -95.439402 
L 359.496421 -96.048886 
L 358.940373 -96.65837 
L 358.709625 -97.267854 
L 358.807122 -97.877338 
L 359.228534 -98.486822 
L 359.962496 -99.096306 
L 360.991084 -99.70579 
L 362.290534 -100.315274 
L 363.83214 -100.924758 
L 365.583286 -101.534242 
L 367.508575 -102.143726 
L 369.570979 -102.75321 
L 371.732974 -103.362694 
L 373.957605 -103.972178 
L 376.209433 -104.581662 
L 378.455349 -105.191146 
L 380.66521 -105.80063 
L 382.812311 -106.410114 
L 384.87366 -107.019598 
L 386.830093 -107.629082 
L 388.666219 -108.238566 
L 390.370232 -108.84805 
L 391.933604 -109.457534 
L 393.350694 -110.067018 
L 394.618293 -110.676502 
L 395.735141 -111.285986 
L 396.701437 -111.89547 
L 397.518366 -112.504954 
L 398.187661 -113.114438 
L 398.711229 -113.723922 
L 399.090834 -114.333406 
L 399.327864 -114.94289 
L 399.42318 -115.552374 
L 399.37705 -116.161859 
L 399.189167 -116.771343 
L 398.858744 -117.380827 
L 398.384689 -117.990311 
L 397.765827 -118.599795 
L 397.001181 -119.209279 
L 396.090278 -119.818763 
L 395.033466 -120.428247 
L 393.832232 -121.037731 
L 392.489488 -121.647215 
L 391.009821 -122.256699 
L 389.399674 -122.866183 
L 387.667467 -123.475667 
L 385.823628 -124.085151 
L 383.880538 -124.694635 
L 381.852396 -125.304119 
L 379.755004 -125.913603 
L 377.605482 -126.523087 
L 375.421939 -127.132571 
L 373.223109 -127.742055 
L 371.027984 -128.351539 
L 368.855459 -128.961023 
L 366.724007 -129.570507 
L 364.651421 -130.179991 
L 362.654602 -130.789475 
L 360.749433 -131.398959 
L 358.950718 -132.008443 
L 357.272187 -132.617927 
L 355.726548 -133.227411 
L 354.325579 -133.836895 
L 353.08023 -134.446379 
L 352.000714 -135.055863 
L 351.09657 -135.665347 
L 350.376675 -136.274831 
L 349.849198 -136.884315 
L 349.521485 -137.493799 
L 349.399875 -138.103283 
L 349.489456 -138.712767 
L 349.793779 -139.322251 
L 350.314546 -139.931735 
L 351.051293 -140.541219 
L 352.001105 -141.150703 
L 353.158375 -141.760187 
L 354.514641 -142.369671 
L 356.058519 -142.979155 
L 357.775736 -143.588639 
L 359.64928 -144.198123 
L 361.659665 -144.807607 
L 363.785297 -145.417091 
L 366.00293 -146.026576 
L 368.288195 -146.63606 
L 370.616171 -147.245544 
L 372.961979 -147.855028 
L 375.301365 -148.464512 
L 377.611258 -149.073996 
L 379.870266 -149.68348 
L 382.059096 -150.292964 
L 384.160898 -150.902448 
L 386.161493 -151.511932 
L 388.049522 -152.121416 
L 389.816476 -152.7309 
L 391.45665 -153.340384 
L 392.967002 -153.949868 
L 394.346955 -154.559352 
L 413.356795 -154.559352 
L 413.356795 -154.559352 
L 414.736748 -153.949868 
L 416.2471 -153.340384 
L 417.887274 -152.7309 
L 419.654228 -152.121416 
L 421.542257 -151.511932 
L 423.542852 -150.902448 
L 425.644654 -150.292964 
L 427.833484 -149.68348 
L 430.092492 -149.073996 
L 432.402385 -148.464512 
L 434.741771 -147.855028 
L 437.087579 -147.245544 
L 439.415555 -146.63606 
L 441.70082 -146.026576 
L 443.918453 -145.417091 
L 446.044085 -144.807607 
L 448.05447 -144.198123 
L 449.928014 -143.588639 
L 451.645231 -142.979155 
L 453.189109 -142.369671 
L 454.545375 -141.760187 
L 455.702645 -141.150703 
L 456.652457 -140.541219 
L 457.389204 -139.931735 
L 457.909971 -139.322251 
L 458.214294 -138.712767 
L 458.303875 -138.103283 
L 458.182265 -137.493799 
L 457.854552 -136.884315 
L 457.327075 -136.274831 
L 456.60718 -135.665347 
L 455.703036 -135.055863 
L 454.62352 -134.446379 
L 453.378171 -133.836895 
L 451.977202 -133.227411 
L 450.431563 -132.617927 
L 448.753032 -132.008443 
L 446.954317 -131.398959 
L 445.049148 -130.789475 
L 443.052329 -130.179991 
L 440.979743 -129.570507 
L 438.848291 -128.961023 
L 436.675766 -128.351539 
L 434.480641 -127.742055 
L 432.281811 -127.132571 
L 430.098268 -126.523087 
L 427.948746 -125.913603 
L 425.851354 -125.304119 
L 423.823212 -124.694635 
L 421.880122 -124.085151 
L 420.036283 -123.475667 
L 418.304076 -122.866183 
L 416.693929 -122.256699 
L 415.214262 -121.647215 
L 413.871518 -121.037731 
L 412.670284 -120.428247 
L 411.613472 -119.818763 
L 410.702569 -119.209279 
L 409.937923 -118.599795 
L 409.319061 -117.990311 
L 408.845006 -117.380827 
L 408.514583 -116.771343 
L 408.3267 -116.161859 
L 408.28057 -115.552374 
L 408.375886 -114.94289 
L 408.612916 -114.333406 
L 408.992521 -113.723922 
L 409.516089 -113.114438 
L 410.185384 -112.504954 
L 411.002313 -111.89547 
L 411.968609 -111.285986 
L 413.085457 -110.676502 
L 414.353056 -110.067018 
L 415.770146 -109.457534 
L 417.333518 -108.84805 
L 419.037531 -108.238566 
L 420.873657 -107.629082 
L 422.83009 -107.019598 
L 424.891439 -106.410114 
L 427.03854 -105.80063 
L 429.248401 -105.191146 
L 431.494317 -104.581662 
L 433.746145 -103.972178 
L 435.970776 -103.362694 
L 438.132771 -102.75321 
L 440.195175 -102.143726 
L 442.120464 -101.534242 
L 443.87161 -100.924758 
L 445.413216 -100.315274 
L 446.712666 -99.70579 
L 447.741254 -99.096306 
L 448.475216 -98.486822 
L 448.896628 -97.877338 
L 448.994125 -97.267854 
L 448.763377 -96.65837 
L 448.207329 -96.048886 
L 447.336152 -95.439402 
L 446.166939 -94.829918 
L 444.723129 -94.220434 
z
" style="stroke: #656565; stroke-width: 1.875"/>
    </defs>
    <g clip-path="url(#pd78f912518)">
     <use xlink:href="#m11923e7555" x="0" y="298.943016" style="fill: #f06292; stroke: #656565; stroke-width: 1.875"/>
    </g>
   </g>
   <g id="line2d_5">
    <path d="M 131.591875 130.514982 
L 131.591875 54.549477 
" clip-path="url(#pd78f912518)" style="fill: none; stroke: #656565; stroke-width: 2.8125; stroke-linecap: round"/>
   </g>
   <g id="line2d_6">
    <path d="M 131.591875 127.202492 
L 131.591875 60.605309 
" clip-path="url(#pd78f912518)" style="fill: none; stroke: #656565; stroke-width: 8.4375; stroke-linecap: round"/>
   </g>
   <g id="line2d_7">
    <path d="M 131.591875 79.681797 
" clip-path="url(#pd78f912518)" style="fill: none; stroke: #656565; stroke-width: 2.25; stroke-linecap: round"/>
    <defs>
     <path id="mdf408d2a9a" d="M 3.515625 0 
L -3.515625 -0 
" style="stroke: #ffffff; stroke-width: 1.6875"/>
    </defs>
    <g clip-path="url(#pd78f912518)">
     <use xlink:href="#mdf408d2a9a" x="131.591875" y="79.681797" style="fill: #ffffff; stroke: #ffffff; stroke-width: 1.6875"/>
    </g>
   </g>
   <g id="line2d_8">
    <path d="M 267.721875 234.484023 
L 267.721875 224.851799 
" clip-path="url(#pd78f912518)" style="fill: none; stroke: #656565; stroke-width: 2.8125; stroke-linecap: round"/>
   </g>
   <g id="line2d_9">
    <path d="M 267.721875 231.478332 
L 267.721875 226.461444 
" clip-path="url(#pd78f912518)" style="fill: none; stroke: #656565; stroke-width: 8.4375; stroke-linecap: round"/>
   </g>
   <g id="line2d_10">
    <path d="M 267.721875 227.523599 
" clip-path="url(#pd78f912518)" style="fill: none; stroke: #656565; stroke-width: 2.25; stroke-linecap: round"/>
    <g clip-path="url(#pd78f912518)">
     <use xlink:href="#mdf408d2a9a" x="267.721875" y="227.523599" style="fill: #ffffff; stroke: #ffffff; stroke-width: 1.6875"/>
    </g>
   </g>
   <g id="line2d_11">
    <path d="M 403.851875 204.722582 
L 403.851875 144.383664 
" clip-path="url(#pd78f912518)" style="fill: none; stroke: #656565; stroke-width: 2.8125; stroke-linecap: round"/>
   </g>
   <g id="line2d_12">
    <path d="M 403.851875 201.184907 
L 403.851875 159.237176 
" clip-path="url(#pd78f912518)" style="fill: none; stroke: #656565; stroke-width: 8.4375; stroke-linecap: round"/>
   </g>
   <g id="line2d_13">
    <path d="M 403.851875 167.741507 
" clip-path="url(#pd78f912518)" style="fill: none; stroke: #656565; stroke-width: 2.25; stroke-linecap: round"/>
    <g clip-path="url(#pd78f912518)">
     <use xlink:href="#mdf408d2a9a" x="403.851875" y="167.741507" style="fill: #ffffff; stroke: #ffffff; stroke-width: 1.6875"/>
    </g>
   </g>
   <g id="patch_3">
    <path d="M 63.526875 243.48075 
L 63.526875 45.55275 
" style="fill: none; stroke: #cccccc; stroke-width: 1.875; stroke-linejoin: miter; stroke-linecap: square"/>
   </g>
   <g id="patch_4">
    <path d="M 471.916875 243.48075 
L 471.916875 45.55275 
" style="fill: none; stroke: #cccccc; stroke-width: 1.875; stroke-linejoin: miter; stroke-linecap: square"/>
   </g>
   <g id="patch_5">
    <path d="M 63.526875 243.48075 
L 471.916875 243.48075 
" style="fill: none; stroke: #cccccc; stroke-width: 1.875; stroke-linejoin: miter; stroke-linecap: square"/>
   </g>
   <g id="patch_6">
    <path d="M 63.526875 45.55275 
L 471.916875 45.55275 
" style="fill: none; stroke: #cccccc; stroke-width: 1.875; stroke-linejoin: miter; stroke-linecap: square"/>
   </g>
   <g id="text_10">
    <!-- Layer vector norms: Strawberry with -->
    <g style="fill: #262626" transform="translate(123.686719 20.303437) scale(0.18 -0.18)">
     <defs>
      <path id="ArialMT-73" d="M 197 991 
L 753 1078 
Q 800 744 1014 566 
Q 1228 388 1613 388 
Q 2000 388 2187 545 
Q 2375 703 2375 916 
Q 2375 1106 2209 1216 
Q 2094 1291 1634 1406 
Q 1016 1563 777 1677 
Q 538 1791 414 1992 
Q 291 2194 291 2438 
Q 291 2659 392 2848 
Q 494 3038 669 3163 
Q 800 3259 1026 3326 
Q 1253 3394 1513 3394 
Q 1903 3394 2198 3281 
Q 2494 3169 2634 2976 
Q 2775 2784 2828 2463 
L 2278 2388 
Q 2241 2644 2061 2787 
Q 1881 2931 1553 2931 
Q 1166 2931 1000 2803 
Q 834 2675 834 2503 
Q 834 2394 903 2306 
Q 972 2216 1119 2156 
Q 1203 2125 1616 2013 
Q 2213 1853 2448 1751 
Q 2684 1650 2818 1456 
Q 2953 1263 2953 975 
Q 2953 694 2789 445 
Q 2625 197 2315 61 
Q 2006 -75 1616 -75 
Q 969 -75 630 194 
Q 291 463 197 991 
z
" transform="scale(0.015625)"/>
      <path id="ArialMT-3a" d="M 578 2678 
L 578 3319 
L 1219 3319 
L 1219 2678 
L 578 2678 
z
M 578 0 
L 578 641 
L 1219 641 
L 1219 0 
L 578 0 
z
" transform="scale(0.015625)"/>
      <path id="ArialMT-53" d="M 288 1472 
L 859 1522 
Q 900 1178 1048 958 
Q 1197 738 1509 602 
Q 1822 466 2213 466 
Q 2559 466 2825 569 
Q 3091 672 3220 851 
Q 3350 1031 3350 1244 
Q 3350 1459 3225 1620 
Q 3100 1781 2813 1891 
Q 2628 1963 1997 2114 
Q 1366 2266 1113 2400 
Q 784 2572 623 2826 
Q 463 3081 463 3397 
Q 463 3744 659 4045 
Q 856 4347 1234 4503 
Q 1613 4659 2075 4659 
Q 2584 4659 2973 4495 
Q 3363 4331 3572 4012 
Q 3781 3694 3797 3291 
L 3216 3247 
Q 3169 3681 2898 3903 
Q 2628 4125 2100 4125 
Q 1550 4125 1298 3923 
Q 1047 3722 1047 3438 
Q 1047 3191 1225 3031 
Q 1400 2872 2139 2705 
Q 2878 2538 3153 2413 
Q 3553 2228 3743 1945 
Q 3934 1663 3934 1294 
Q 3934 928 3725 604 
Q 3516 281 3123 101 
Q 2731 -78 2241 -78 
Q 1619 -78 1198 103 
Q 778 284 539 648 
Q 300 1013 288 1472 
z
" transform="scale(0.015625)"/>
      <path id="ArialMT-77" d="M 1034 0 
L 19 3319 
L 600 3319 
L 1128 1403 
L 1325 691 
Q 1338 744 1497 1375 
L 2025 3319 
L 2603 3319 
L 3100 1394 
L 3266 759 
L 3456 1400 
L 4025 3319 
L 4572 3319 
L 3534 0 
L 2950 0 
L 2422 1988 
L 2294 2553 
L 1622 0 
L 1034 0 
z
" transform="scale(0.015625)"/>
      <path id="ArialMT-62" d="M 941 0 
L 419 0 
L 419 4581 
L 981 4581 
L 981 2947 
Q 1338 3394 1891 3394 
Q 2197 3394 2470 3270 
Q 2744 3147 2920 2923 
Q 3097 2700 3197 2384 
Q 3297 2069 3297 1709 
Q 3297 856 2875 390 
Q 2453 -75 1863 -75 
Q 1275 -75 941 416 
L 941 0 
z
M 934 1684 
Q 934 1088 1097 822 
Q 1363 388 1816 388 
Q 2184 388 2453 708 
Q 2722 1028 2722 1663 
Q 2722 2313 2464 2622 
Q 2206 2931 1841 2931 
Q 1472 2931 1203 2611 
Q 934 2291 934 1684 
z
" transform="scale(0.015625)"/>
      <path id="ArialMT-69" d="M 425 3934 
L 425 4581 
L 988 4581 
L 988 3934 
L 425 3934 
z
M 425 0 
L 425 3319 
L 988 3319 
L 988 0 
L 425 0 
z
" transform="scale(0.015625)"/>
      <path id="ArialMT-68" d="M 422 0 
L 422 4581 
L 984 4581 
L 984 2938 
Q 1378 3394 1978 3394 
Q 2347 3394 2619 3248 
Q 2891 3103 3008 2847 
Q 3125 2591 3125 2103 
L 3125 0 
L 2563 0 
L 2563 2103 
Q 2563 2525 2380 2717 
Q 2197 2909 1863 2909 
Q 1613 2909 1392 2779 
Q 1172 2650 1078 2428 
Q 984 2206 984 1816 
L 984 0 
L 422 0 
z
" transform="scale(0.015625)"/>
     </defs>
     <use xlink:href="#ArialMT-4c"/>
     <use xlink:href="#ArialMT-61" transform="translate(55.615234 0)"/>
     <use xlink:href="#ArialMT-79" transform="translate(111.230469 0)"/>
     <use xlink:href="#ArialMT-65" transform="translate(161.230469 0)"/>
     <use xlink:href="#ArialMT-72" transform="translate(216.845703 0)"/>
     <use xlink:href="#ArialMT-20" transform="translate(250.146484 0)"/>
     <use xlink:href="#ArialMT-76" transform="translate(277.929688 0)"/>
     <use xlink:href="#ArialMT-65" transform="translate(327.929688 0)"/>
     <use xlink:href="#ArialMT-63" transform="translate(383.544922 0)"/>
     <use xlink:href="#ArialMT-74" transform="translate(433.544922 0)"/>
     <use xlink:href="#ArialMT-6f" transform="translate(461.328125 0)"/>
     <use xlink:href="#ArialMT-72" transform="translate(516.943359 0)"/>
     <use xlink:href="#ArialMT-20" transform="translate(550.244141 0)"/>
     <use xlink:href="#ArialMT-6e" transform="translate(578.027344 0)"/>
     <use xlink:href="#ArialMT-6f" transform="translate(633.642578 0)"/>
     <use xlink:href="#ArialMT-72" transform="translate(689.257812 0)"/>
     <use xlink:href="#ArialMT-6d" transform="translate(722.558594 0)"/>
     <use xlink:href="#ArialMT-73" transform="translate(805.859375 0)"/>
     <use xlink:href="#ArialMT-3a" transform="translate(855.859375 0)"/>
     <use xlink:href="#ArialMT-20" transform="translate(883.642578 0)"/>
     <use xlink:href="#ArialMT-53" transform="translate(911.425781 0)"/>
     <use xlink:href="#ArialMT-74" transform="translate(978.125 0)"/>
     <use xlink:href="#ArialMT-72" transform="translate(1005.908203 0)"/>
     <use xlink:href="#ArialMT-61" transform="translate(1039.208984 0)"/>
     <use xlink:href="#ArialMT-77" transform="translate(1094.824219 0)"/>
     <use xlink:href="#ArialMT-62" transform="translate(1167.041016 0)"/>
     <use xlink:href="#ArialMT-65" transform="translate(1222.65625 0)"/>
     <use xlink:href="#ArialMT-72" transform="translate(1278.271484 0)"/>
     <use xlink:href="#ArialMT-72" transform="translate(1311.572266 0)"/>
     <use xlink:href="#ArialMT-79" transform="translate(1344.873047 0)"/>
     <use xlink:href="#ArialMT-20" transform="translate(1394.873047 0)"/>
     <use xlink:href="#ArialMT-77" transform="translate(1422.65625 0)"/>
     <use xlink:href="#ArialMT-69" transform="translate(1494.873047 0)"/>
     <use xlink:href="#ArialMT-74" transform="translate(1517.089844 0)"/>
     <use xlink:href="#ArialMT-68" transform="translate(1544.873047 0)"/>
    </g>
    <!-- augmentation -->
    <g style="fill: #262626" transform="translate(213.186094 39.55275) scale(0.18 -0.18)">
     <defs>
      <path id="ArialMT-75" d="M 2597 0 
L 2597 488 
Q 2209 -75 1544 -75 
Q 1250 -75 995 37 
Q 741 150 617 320 
Q 494 491 444 738 
Q 409 903 409 1263 
L 409 3319 
L 972 3319 
L 972 1478 
Q 972 1038 1006 884 
Q 1059 663 1231 536 
Q 1403 409 1656 409 
Q 1909 409 2131 539 
Q 2353 669 2445 892 
Q 2538 1116 2538 1541 
L 2538 3319 
L 3100 3319 
L 3100 0 
L 2597 0 
z
" transform="scale(0.015625)"/>
      <path id="ArialMT-67" d="M 319 -275 
L 866 -356 
Q 900 -609 1056 -725 
Q 1266 -881 1628 -881 
Q 2019 -881 2231 -725 
Q 2444 -569 2519 -288 
Q 2563 -116 2559 434 
Q 2191 0 1641 0 
Q 956 0 581 494 
Q 206 988 206 1678 
Q 206 2153 378 2554 
Q 550 2956 876 3175 
Q 1203 3394 1644 3394 
Q 2231 3394 2613 2919 
L 2613 3319 
L 3131 3319 
L 3131 450 
Q 3131 -325 2973 -648 
Q 2816 -972 2473 -1159 
Q 2131 -1347 1631 -1347 
Q 1038 -1347 672 -1080 
Q 306 -813 319 -275 
z
M 784 1719 
Q 784 1066 1043 766 
Q 1303 466 1694 466 
Q 2081 466 2343 764 
Q 2606 1063 2606 1700 
Q 2606 2309 2336 2618 
Q 2066 2928 1684 2928 
Q 1309 2928 1046 2623 
Q 784 2319 784 1719 
z
" transform="scale(0.015625)"/>
     </defs>
     <use xlink:href="#ArialMT-61"/>
     <use xlink:href="#ArialMT-75" transform="translate(55.615234 0)"/>
     <use xlink:href="#ArialMT-67" transform="translate(111.230469 0)"/>
     <use xlink:href="#ArialMT-6d" transform="translate(166.845703 0)"/>
     <use xlink:href="#ArialMT-65" transform="translate(250.146484 0)"/>
     <use xlink:href="#ArialMT-6e" transform="translate(305.761719 0)"/>
     <use xlink:href="#ArialMT-74" transform="translate(361.376953 0)"/>
     <use xlink:href="#ArialMT-61" transform="translate(389.160156 0)"/>
     <use xlink:href="#ArialMT-74" transform="translate(444.775391 0)"/>
     <use xlink:href="#ArialMT-69" transform="translate(472.558594 0)"/>
     <use xlink:href="#ArialMT-6f" transform="translate(494.775391 0)"/>
     <use xlink:href="#ArialMT-6e" transform="translate(550.390625 0)"/>
    </g>
   </g>
  </g>
 </g>
 <defs>
  <clipPath id="pd78f912518">
   <rect x="63.526875" y="45.55275" width="408.39" height="197.928"/>
  </clipPath>
 </defs>
</svg>
