<?xml version="1.0" encoding="utf-8" standalone="no"?>
<!DOCTYPE svg PUBLIC "-//W3C//DTD SVG 1.1//EN"
  "http://www.w3.org/Graphics/SVG/1.1/DTD/svg11.dtd">
<svg xmlns:xlink="http://www.w3.org/1999/xlink" width="878.353436pt" height="623.444062pt" viewBox="0 0 878.353436 623.444062" xmlns="http://www.w3.org/2000/svg" version="1.1">
 <metadata>
  <rdf:RDF xmlns:dc="http://purl.org/dc/elements/1.1/" xmlns:cc="http://creativecommons.org/ns#" xmlns:rdf="http://www.w3.org/1999/02/22-rdf-syntax-ns#">
   <cc:Work>
    <dc:type rdf:resource="http://purl.org/dc/dcmitype/StillImage"/>
    <dc:date>2025-12-08T01:20:47.076215</dc:date>
    <dc:format>image/svg+xml</dc:format>
    <dc:creator>
     <cc:Agent>
      <dc:title>Matplotlib v3.10.7, https://matplotlib.org/</dc:title>
     </cc:Agent>
    </dc:creator>
   </cc:Work>
  </rdf:RDF>
 </metadata>
 <defs>
  <style type="text/css">*{stroke-linejoin: round; stroke-linecap: butt}</style>
 </defs>
 <g id="figure_1">
  <g id="patch_1">
   <path d="M 0 623.444062 
L 878.353436 623.444062 
L 878.353436 0 
L 0 0 
z
" style="fill: #ffffff"/>
  </g>
  <g id="axes_1">
   <g id="patch_2">
    <path d="M 81.447656 164.724062 
L 278.094528 164.724062 
L 278.094528 26.084062 
L 81.447656 26.084062 
z
" style="fill: #ffffff"/>
   </g>
   <g id="matplotlib.axis_1">
    <g id="xtick_1">
     <g id="line2d_1">
      <path d="M 169.839432 164.724062 
L 169.839432 26.084062 
" clip-path="url(#pa0174c25e8)" style="fill: none; stroke: #cccccc; stroke-width: 1.5; stroke-linecap: round"/>
     </g>
     <g id="text_1">
      <!-- 10 -->
      <g style="fill: #262626" transform="translate(160.663885 189.034453) scale(0.165 -0.165)">
       <defs>
        <path id="ArialMT-31" d="M 2384 0 
L 1822 0 
L 1822 3584 
Q 1619 3391 1289 3197 
Q 959 3003 697 2906 
L 697 3450 
Q 1169 3672 1522 3987 
Q 1875 4303 2022 4600 
L 2384 4600 
L 2384 0 
z
" transform="scale(0.015625)"/>
        <path id="ArialMT-30" d="M 266 2259 
Q 266 3072 433 3567 
Q 600 4063 929 4331 
Q 1259 4600 1759 4600 
Q 2128 4600 2406 4451 
Q 2684 4303 2865 4023 
Q 3047 3744 3150 3342 
Q 3253 2941 3253 2259 
Q 3253 1453 3087 958 
Q 2922 463 2592 192 
Q 2263 -78 1759 -78 
Q 1097 -78 719 397 
Q 266 969 266 2259 
z
M 844 2259 
Q 844 1131 1108 757 
Q 1372 384 1759 384 
Q 2147 384 2411 759 
Q 2675 1134 2675 2259 
Q 2675 3391 2411 3762 
Q 2147 4134 1753 4134 
Q 1366 4134 1134 3806 
Q 844 3388 844 2259 
z
" transform="scale(0.015625)"/>
       </defs>
       <use xlink:href="#ArialMT-31"/>
       <use xlink:href="#ArialMT-30" transform="translate(55.615234 0)"/>
      </g>
     </g>
    </g>
    <g id="xtick_2">
     <g id="line2d_2">
      <path d="M 269.156034 164.724062 
L 269.156034 26.084062 
" clip-path="url(#pa0174c25e8)" style="fill: none; stroke: #cccccc; stroke-width: 1.5; stroke-linecap: round"/>
     </g>
     <g id="text_2">
      <!-- 20 -->
      <g style="fill: #262626" transform="translate(259.980487 189.034453) scale(0.165 -0.165)">
       <defs>
        <path id="ArialMT-32" d="M 3222 541 
L 3222 0 
L 194 0 
Q 188 203 259 391 
Q 375 700 629 1000 
Q 884 1300 1366 1694 
Q 2113 2306 2375 2664 
Q 2638 3022 2638 3341 
Q 2638 3675 2398 3904 
Q 2159 4134 1775 4134 
Q 1369 4134 1125 3890 
Q 881 3647 878 3216 
L 300 3275 
Q 359 3922 746 4261 
Q 1134 4600 1788 4600 
Q 2447 4600 2831 4234 
Q 3216 3869 3216 3328 
Q 3216 3053 3103 2787 
Q 2991 2522 2730 2228 
Q 2469 1934 1863 1422 
Q 1356 997 1212 845 
Q 1069 694 975 541 
L 3222 541 
z
" transform="scale(0.015625)"/>
       </defs>
       <use xlink:href="#ArialMT-32"/>
       <use xlink:href="#ArialMT-30" transform="translate(55.615234 0)"/>
      </g>
     </g>
    </g>
    <g id="text_3">
     <!-- Epoch -->
     <g style="fill: #262626" transform="translate(154.25328 209.197891) scale(0.18 -0.18)">
      <defs>
       <path id="ArialMT-45" d="M 506 0 
L 506 4581 
L 3819 4581 
L 3819 4041 
L 1113 4041 
L 1113 2638 
L 3647 2638 
L 3647 2100 
L 1113 2100 
L 1113 541 
L 3925 541 
L 3925 0 
L 506 0 
z
" transform="scale(0.015625)"/>
       <path id="ArialMT-70" d="M 422 -1272 
L 422 3319 
L 934 3319 
L 934 2888 
Q 1116 3141 1344 3267 
Q 1572 3394 1897 3394 
Q 2322 3394 2647 3175 
Q 2972 2956 3137 2557 
Q 3303 2159 3303 1684 
Q 3303 1175 3120 767 
Q 2938 359 2589 142 
Q 2241 -75 1856 -75 
Q 1575 -75 1351 44 
Q 1128 163 984 344 
L 984 -1272 
L 422 -1272 
z
M 931 1641 
Q 931 1000 1190 694 
Q 1450 388 1819 388 
Q 2194 388 2461 705 
Q 2728 1022 2728 1688 
Q 2728 2322 2467 2637 
Q 2206 2953 1844 2953 
Q 1484 2953 1207 2617 
Q 931 2281 931 1641 
z
" transform="scale(0.015625)"/>
       <path id="ArialMT-6f" d="M 213 1659 
Q 213 2581 725 3025 
Q 1153 3394 1769 3394 
Q 2453 3394 2887 2945 
Q 3322 2497 3322 1706 
Q 3322 1066 3130 698 
Q 2938 331 2570 128 
Q 2203 -75 1769 -75 
Q 1072 -75 642 372 
Q 213 819 213 1659 
z
M 791 1659 
Q 791 1022 1069 705 
Q 1347 388 1769 388 
Q 2188 388 2466 706 
Q 2744 1025 2744 1678 
Q 2744 2294 2464 2611 
Q 2184 2928 1769 2928 
Q 1347 2928 1069 2612 
Q 791 2297 791 1659 
z
" transform="scale(0.015625)"/>
       <path id="ArialMT-63" d="M 2588 1216 
L 3141 1144 
Q 3050 572 2676 248 
Q 2303 -75 1759 -75 
Q 1078 -75 664 370 
Q 250 816 250 1647 
Q 250 2184 428 2587 
Q 606 2991 970 3192 
Q 1334 3394 1763 3394 
Q 2303 3394 2647 3120 
Q 2991 2847 3088 2344 
L 2541 2259 
Q 2463 2594 2264 2762 
Q 2066 2931 1784 2931 
Q 1359 2931 1093 2626 
Q 828 2322 828 1663 
Q 828 994 1084 691 
Q 1341 388 1753 388 
Q 2084 388 2306 591 
Q 2528 794 2588 1216 
z
" transform="scale(0.015625)"/>
       <path id="ArialMT-68" d="M 422 0 
L 422 4581 
L 984 4581 
L 984 2938 
Q 1378 3394 1978 3394 
Q 2347 3394 2619 3248 
Q 2891 3103 3008 2847 
Q 3125 2591 3125 2103 
L 3125 0 
L 2563 0 
L 2563 2103 
Q 2563 2525 2380 2717 
Q 2197 2909 1863 2909 
Q 1613 2909 1392 2779 
Q 1172 2650 1078 2428 
Q 984 2206 984 1816 
L 984 0 
L 422 0 
z
" transform="scale(0.015625)"/>
      </defs>
      <use xlink:href="#ArialMT-45"/>
      <use xlink:href="#ArialMT-70" transform="translate(66.699219 0)"/>
      <use xlink:href="#ArialMT-6f" transform="translate(122.314453 0)"/>
      <use xlink:href="#ArialMT-63" transform="translate(177.929688 0)"/>
      <use xlink:href="#ArialMT-68" transform="translate(227.929688 0)"/>
     </g>
    </g>
   </g>
   <g id="matplotlib.axis_2">
    <g id="ytick_1">
     <g id="line2d_3">
      <path d="M 81.447656 136.784416 
L 278.094528 136.784416 
" clip-path="url(#pa0174c25e8)" style="fill: none; stroke: #cccccc; stroke-width: 1.5; stroke-linecap: round"/>
     </g>
     <g id="text_4">
      <!-- 0.004 -->
      <g style="fill: #262626" transform="translate(27.661562 142.689611) scale(0.165 -0.165)">
       <defs>
        <path id="ArialMT-2e" d="M 581 0 
L 581 641 
L 1222 641 
L 1222 0 
L 581 0 
z
" transform="scale(0.015625)"/>
        <path id="ArialMT-34" d="M 2069 0 
L 2069 1097 
L 81 1097 
L 81 1613 
L 2172 4581 
L 2631 4581 
L 2631 1613 
L 3250 1613 
L 3250 1097 
L 2631 1097 
L 2631 0 
L 2069 0 
z
M 2069 1613 
L 2069 3678 
L 634 1613 
L 2069 1613 
z
" transform="scale(0.015625)"/>
       </defs>
       <use xlink:href="#ArialMT-30"/>
       <use xlink:href="#ArialMT-2e" transform="translate(55.615234 0)"/>
       <use xlink:href="#ArialMT-30" transform="translate(83.398438 0)"/>
       <use xlink:href="#ArialMT-30" transform="translate(139.013672 0)"/>
       <use xlink:href="#ArialMT-34" transform="translate(194.628906 0)"/>
      </g>
     </g>
    </g>
    <g id="ytick_2">
     <g id="line2d_4">
      <path d="M 81.447656 77.177566 
L 278.094528 77.177566 
" clip-path="url(#pa0174c25e8)" style="fill: none; stroke: #cccccc; stroke-width: 1.5; stroke-linecap: round"/>
     </g>
     <g id="text_5">
      <!-- 0.005 -->
      <g style="fill: #262626" transform="translate(27.661562 83.082762) scale(0.165 -0.165)">
       <defs>
        <path id="ArialMT-35" d="M 266 1200 
L 856 1250 
Q 922 819 1161 601 
Q 1400 384 1738 384 
Q 2144 384 2425 690 
Q 2706 997 2706 1503 
Q 2706 1984 2436 2262 
Q 2166 2541 1728 2541 
Q 1456 2541 1237 2417 
Q 1019 2294 894 2097 
L 366 2166 
L 809 4519 
L 3088 4519 
L 3088 3981 
L 1259 3981 
L 1013 2750 
Q 1425 3038 1878 3038 
Q 2478 3038 2890 2622 
Q 3303 2206 3303 1553 
Q 3303 931 2941 478 
Q 2500 -78 1738 -78 
Q 1113 -78 717 272 
Q 322 622 266 1200 
z
" transform="scale(0.015625)"/>
       </defs>
       <use xlink:href="#ArialMT-30"/>
       <use xlink:href="#ArialMT-2e" transform="translate(55.615234 0)"/>
       <use xlink:href="#ArialMT-30" transform="translate(83.398438 0)"/>
       <use xlink:href="#ArialMT-30" transform="translate(139.013672 0)"/>
       <use xlink:href="#ArialMT-35" transform="translate(194.628906 0)"/>
      </g>
     </g>
    </g>
    <g id="text_6">
     <!-- Loss -->
     <g style="fill: #262626" transform="translate(20.084062 114.41375) rotate(-90) scale(0.18 -0.18)">
      <defs>
       <path id="ArialMT-4c" d="M 469 0 
L 469 4581 
L 1075 4581 
L 1075 541 
L 3331 541 
L 3331 0 
L 469 0 
z
" transform="scale(0.015625)"/>
       <path id="ArialMT-73" d="M 197 991 
L 753 1078 
Q 800 744 1014 566 
Q 1228 388 1613 388 
Q 2000 388 2187 545 
Q 2375 703 2375 916 
Q 2375 1106 2209 1216 
Q 2094 1291 1634 1406 
Q 1016 1563 777 1677 
Q 538 1791 414 1992 
Q 291 2194 291 2438 
Q 291 2659 392 2848 
Q 494 3038 669 3163 
Q 800 3259 1026 3326 
Q 1253 3394 1513 3394 
Q 1903 3394 2198 3281 
Q 2494 3169 2634 2976 
Q 2775 2784 2828 2463 
L 2278 2388 
Q 2241 2644 2061 2787 
Q 1881 2931 1553 2931 
Q 1166 2931 1000 2803 
Q 834 2675 834 2503 
Q 834 2394 903 2306 
Q 972 2216 1119 2156 
Q 1203 2125 1616 2013 
Q 2213 1853 2448 1751 
Q 2684 1650 2818 1456 
Q 2953 1263 2953 975 
Q 2953 694 2789 445 
Q 2625 197 2315 61 
Q 2006 -75 1616 -75 
Q 969 -75 630 194 
Q 291 463 197 991 
z
" transform="scale(0.015625)"/>
      </defs>
      <use xlink:href="#ArialMT-4c"/>
      <use xlink:href="#ArialMT-6f" transform="translate(55.615234 0)"/>
      <use xlink:href="#ArialMT-73" transform="translate(111.230469 0)"/>
      <use xlink:href="#ArialMT-73" transform="translate(161.230469 0)"/>
     </g>
    </g>
   </g>
   <g id="FillBetweenPolyCollection_1"/>
   <g id="FillBetweenPolyCollection_2"/>
   <g id="line2d_5">
    <path d="M 90.38615 32.385881 
L 100.317811 79.521801 
L 110.249471 101.001391 
L 120.181131 108.79529 
L 130.112791 113.757621 
L 140.044451 117.766031 
L 149.976112 119.872729 
L 159.907772 121.213974 
L 169.839432 122.778235 
L 179.771092 135.549073 
L 189.702752 135.978204 
L 199.634412 137.109672 
L 209.566073 137.797715 
L 219.497733 138.495657 
L 229.429393 139.75707 
L 239.361053 140.037675 
L 249.292713 141.204905 
L 259.224374 141.791566 
L 269.156034 142.508656 
" clip-path="url(#pa0174c25e8)" style="fill: none; stroke: #0173b2; stroke-width: 2.25; stroke-linecap: round"/>
    <defs>
     <path id="m5601aa1b06" d="M 0 4.5 
C 1.193414 4.5 2.338109 4.025852 3.181981 3.181981 
C 4.025852 2.338109 4.5 1.193414 4.5 0 
C 4.5 -1.193414 4.025852 -2.338109 3.181981 -3.181981 
C 2.338109 -4.025852 1.193414 -4.5 0 -4.5 
C -1.193414 -4.5 -2.338109 -4.025852 -3.181981 -3.181981 
C -4.025852 -2.338109 -4.5 -1.193414 -4.5 0 
C -4.5 1.193414 -4.025852 2.338109 -3.181981 3.181981 
C -2.338109 4.025852 -1.193414 4.5 0 4.5 
z
" style="stroke: #ffffff; stroke-width: 0.75"/>
    </defs>
    <g clip-path="url(#pa0174c25e8)">
     <use xlink:href="#m5601aa1b06" x="90.38615" y="32.385881" style="fill: #0173b2; stroke: #ffffff; stroke-width: 0.75"/>
     <use xlink:href="#m5601aa1b06" x="100.317811" y="79.521801" style="fill: #0173b2; stroke: #ffffff; stroke-width: 0.75"/>
     <use xlink:href="#m5601aa1b06" x="110.249471" y="101.001391" style="fill: #0173b2; stroke: #ffffff; stroke-width: 0.75"/>
     <use xlink:href="#m5601aa1b06" x="120.181131" y="108.79529" style="fill: #0173b2; stroke: #ffffff; stroke-width: 0.75"/>
     <use xlink:href="#m5601aa1b06" x="130.112791" y="113.757621" style="fill: #0173b2; stroke: #ffffff; stroke-width: 0.75"/>
     <use xlink:href="#m5601aa1b06" x="140.044451" y="117.766031" style="fill: #0173b2; stroke: #ffffff; stroke-width: 0.75"/>
     <use xlink:href="#m5601aa1b06" x="149.976112" y="119.872729" style="fill: #0173b2; stroke: #ffffff; stroke-width: 0.75"/>
     <use xlink:href="#m5601aa1b06" x="159.907772" y="121.213974" style="fill: #0173b2; stroke: #ffffff; stroke-width: 0.75"/>
     <use xlink:href="#m5601aa1b06" x="169.839432" y="122.778235" style="fill: #0173b2; stroke: #ffffff; stroke-width: 0.75"/>
     <use xlink:href="#m5601aa1b06" x="179.771092" y="135.549073" style="fill: #0173b2; stroke: #ffffff; stroke-width: 0.75"/>
     <use xlink:href="#m5601aa1b06" x="189.702752" y="135.978204" style="fill: #0173b2; stroke: #ffffff; stroke-width: 0.75"/>
     <use xlink:href="#m5601aa1b06" x="199.634412" y="137.109672" style="fill: #0173b2; stroke: #ffffff; stroke-width: 0.75"/>
     <use xlink:href="#m5601aa1b06" x="209.566073" y="137.797715" style="fill: #0173b2; stroke: #ffffff; stroke-width: 0.75"/>
     <use xlink:href="#m5601aa1b06" x="219.497733" y="138.495657" style="fill: #0173b2; stroke: #ffffff; stroke-width: 0.75"/>
     <use xlink:href="#m5601aa1b06" x="229.429393" y="139.75707" style="fill: #0173b2; stroke: #ffffff; stroke-width: 0.75"/>
     <use xlink:href="#m5601aa1b06" x="239.361053" y="140.037675" style="fill: #0173b2; stroke: #ffffff; stroke-width: 0.75"/>
     <use xlink:href="#m5601aa1b06" x="249.292713" y="141.204905" style="fill: #0173b2; stroke: #ffffff; stroke-width: 0.75"/>
     <use xlink:href="#m5601aa1b06" x="259.224374" y="141.791566" style="fill: #0173b2; stroke: #ffffff; stroke-width: 0.75"/>
     <use xlink:href="#m5601aa1b06" x="269.156034" y="142.508656" style="fill: #0173b2; stroke: #ffffff; stroke-width: 0.75"/>
    </g>
   </g>
   <g id="line2d_6">
    <path d="M 90.38615 53.766001 
L 100.317811 71.679012 
L 110.249471 103.158521 
L 120.181131 119.177877 
L 130.112791 100.992797 
L 140.044451 136.527984 
L 149.976112 109.893208 
L 159.907772 134.863265 
L 169.839432 134.205352 
L 179.771092 133.519979 
L 189.702752 148.942409 
L 199.634412 150.786141 
L 209.566073 156.315916 
L 219.497733 151.868253 
L 229.429393 147.521833 
L 239.361053 158.422244 
L 249.292713 142.93032 
L 259.224374 119.684166 
L 269.156034 140.237729 
" clip-path="url(#pa0174c25e8)" style="fill: none; stroke: #de8f05; stroke-width: 2.25; stroke-linecap: round"/>
    <defs>
     <path id="m158bdfc67c" d="M 0 4.5 
C 1.193414 4.5 2.338109 4.025852 3.181981 3.181981 
C 4.025852 2.338109 4.5 1.193414 4.5 0 
C 4.5 -1.193414 4.025852 -2.338109 3.181981 -3.181981 
C 2.338109 -4.025852 1.193414 -4.5 0 -4.5 
C -1.193414 -4.5 -2.338109 -4.025852 -3.181981 -3.181981 
C -4.025852 -2.338109 -4.5 -1.193414 -4.5 0 
C -4.5 1.193414 -4.025852 2.338109 -3.181981 3.181981 
C -2.338109 4.025852 -1.193414 4.5 0 4.5 
z
" style="stroke: #ffffff; stroke-width: 0.75"/>
    </defs>
    <g clip-path="url(#pa0174c25e8)">
     <use xlink:href="#m158bdfc67c" x="90.38615" y="53.766001" style="fill: #de8f05; stroke: #ffffff; stroke-width: 0.75"/>
     <use xlink:href="#m158bdfc67c" x="100.317811" y="71.679012" style="fill: #de8f05; stroke: #ffffff; stroke-width: 0.75"/>
     <use xlink:href="#m158bdfc67c" x="110.249471" y="103.158521" style="fill: #de8f05; stroke: #ffffff; stroke-width: 0.75"/>
     <use xlink:href="#m158bdfc67c" x="120.181131" y="119.177877" style="fill: #de8f05; stroke: #ffffff; stroke-width: 0.75"/>
     <use xlink:href="#m158bdfc67c" x="130.112791" y="100.992797" style="fill: #de8f05; stroke: #ffffff; stroke-width: 0.75"/>
     <use xlink:href="#m158bdfc67c" x="140.044451" y="136.527984" style="fill: #de8f05; stroke: #ffffff; stroke-width: 0.75"/>
     <use xlink:href="#m158bdfc67c" x="149.976112" y="109.893208" style="fill: #de8f05; stroke: #ffffff; stroke-width: 0.75"/>
     <use xlink:href="#m158bdfc67c" x="159.907772" y="134.863265" style="fill: #de8f05; stroke: #ffffff; stroke-width: 0.75"/>
     <use xlink:href="#m158bdfc67c" x="169.839432" y="134.205352" style="fill: #de8f05; stroke: #ffffff; stroke-width: 0.75"/>
     <use xlink:href="#m158bdfc67c" x="179.771092" y="133.519979" style="fill: #de8f05; stroke: #ffffff; stroke-width: 0.75"/>
     <use xlink:href="#m158bdfc67c" x="189.702752" y="148.942409" style="fill: #de8f05; stroke: #ffffff; stroke-width: 0.75"/>
     <use xlink:href="#m158bdfc67c" x="199.634412" y="150.786141" style="fill: #de8f05; stroke: #ffffff; stroke-width: 0.75"/>
     <use xlink:href="#m158bdfc67c" x="209.566073" y="156.315916" style="fill: #de8f05; stroke: #ffffff; stroke-width: 0.75"/>
     <use xlink:href="#m158bdfc67c" x="219.497733" y="151.868253" style="fill: #de8f05; stroke: #ffffff; stroke-width: 0.75"/>
     <use xlink:href="#m158bdfc67c" x="229.429393" y="147.521833" style="fill: #de8f05; stroke: #ffffff; stroke-width: 0.75"/>
     <use xlink:href="#m158bdfc67c" x="239.361053" y="158.422244" style="fill: #de8f05; stroke: #ffffff; stroke-width: 0.75"/>
     <use xlink:href="#m158bdfc67c" x="249.292713" y="142.93032" style="fill: #de8f05; stroke: #ffffff; stroke-width: 0.75"/>
     <use xlink:href="#m158bdfc67c" x="259.224374" y="119.684166" style="fill: #de8f05; stroke: #ffffff; stroke-width: 0.75"/>
     <use xlink:href="#m158bdfc67c" x="269.156034" y="140.237729" style="fill: #de8f05; stroke: #ffffff; stroke-width: 0.75"/>
    </g>
   </g>
   <g id="patch_3">
    <path d="M 81.447656 164.724062 
L 81.447656 26.084063 
" style="fill: none; stroke: #cccccc; stroke-width: 1.875; stroke-linejoin: miter; stroke-linecap: square"/>
   </g>
   <g id="patch_4">
    <path d="M 81.447656 164.724062 
L 278.094528 164.724062 
" style="fill: none; stroke: #cccccc; stroke-width: 1.875; stroke-linejoin: miter; stroke-linecap: square"/>
   </g>
   <g id="text_7">
    <!-- Chocolate / none -->
    <g style="fill: #262626" transform="translate(111.726873 20.084062) scale(0.18 -0.18)">
     <defs>
      <path id="ArialMT-43" d="M 3763 1606 
L 4369 1453 
Q 4178 706 3683 314 
Q 3188 -78 2472 -78 
Q 1731 -78 1267 223 
Q 803 525 561 1097 
Q 319 1669 319 2325 
Q 319 3041 592 3573 
Q 866 4106 1370 4382 
Q 1875 4659 2481 4659 
Q 3169 4659 3637 4309 
Q 4106 3959 4291 3325 
L 3694 3184 
Q 3534 3684 3231 3912 
Q 2928 4141 2469 4141 
Q 1941 4141 1586 3887 
Q 1231 3634 1087 3207 
Q 944 2781 944 2328 
Q 944 1744 1114 1308 
Q 1284 872 1643 656 
Q 2003 441 2422 441 
Q 2931 441 3284 734 
Q 3638 1028 3763 1606 
z
" transform="scale(0.015625)"/>
      <path id="ArialMT-6c" d="M 409 0 
L 409 4581 
L 972 4581 
L 972 0 
L 409 0 
z
" transform="scale(0.015625)"/>
      <path id="ArialMT-61" d="M 2588 409 
Q 2275 144 1986 34 
Q 1697 -75 1366 -75 
Q 819 -75 525 192 
Q 231 459 231 875 
Q 231 1119 342 1320 
Q 453 1522 633 1644 
Q 813 1766 1038 1828 
Q 1203 1872 1538 1913 
Q 2219 1994 2541 2106 
Q 2544 2222 2544 2253 
Q 2544 2597 2384 2738 
Q 2169 2928 1744 2928 
Q 1347 2928 1158 2789 
Q 969 2650 878 2297 
L 328 2372 
Q 403 2725 575 2942 
Q 747 3159 1072 3276 
Q 1397 3394 1825 3394 
Q 2250 3394 2515 3294 
Q 2781 3194 2906 3042 
Q 3031 2891 3081 2659 
Q 3109 2516 3109 2141 
L 3109 1391 
Q 3109 606 3145 398 
Q 3181 191 3288 0 
L 2700 0 
Q 2613 175 2588 409 
z
M 2541 1666 
Q 2234 1541 1622 1453 
Q 1275 1403 1131 1340 
Q 988 1278 909 1158 
Q 831 1038 831 891 
Q 831 666 1001 516 
Q 1172 366 1500 366 
Q 1825 366 2078 508 
Q 2331 650 2450 897 
Q 2541 1088 2541 1459 
L 2541 1666 
z
" transform="scale(0.015625)"/>
      <path id="ArialMT-74" d="M 1650 503 
L 1731 6 
Q 1494 -44 1306 -44 
Q 1000 -44 831 53 
Q 663 150 594 308 
Q 525 466 525 972 
L 525 2881 
L 113 2881 
L 113 3319 
L 525 3319 
L 525 4141 
L 1084 4478 
L 1084 3319 
L 1650 3319 
L 1650 2881 
L 1084 2881 
L 1084 941 
Q 1084 700 1114 631 
Q 1144 563 1211 522 
Q 1278 481 1403 481 
Q 1497 481 1650 503 
z
" transform="scale(0.015625)"/>
      <path id="ArialMT-65" d="M 2694 1069 
L 3275 997 
Q 3138 488 2766 206 
Q 2394 -75 1816 -75 
Q 1088 -75 661 373 
Q 234 822 234 1631 
Q 234 2469 665 2931 
Q 1097 3394 1784 3394 
Q 2450 3394 2872 2941 
Q 3294 2488 3294 1666 
Q 3294 1616 3291 1516 
L 816 1516 
Q 847 969 1125 678 
Q 1403 388 1819 388 
Q 2128 388 2347 550 
Q 2566 713 2694 1069 
z
M 847 1978 
L 2700 1978 
Q 2663 2397 2488 2606 
Q 2219 2931 1791 2931 
Q 1403 2931 1139 2672 
Q 875 2413 847 1978 
z
" transform="scale(0.015625)"/>
      <path id="ArialMT-20" transform="scale(0.015625)"/>
      <path id="ArialMT-2f" d="M 0 -78 
L 1328 4659 
L 1778 4659 
L 453 -78 
L 0 -78 
z
" transform="scale(0.015625)"/>
      <path id="ArialMT-6e" d="M 422 0 
L 422 3319 
L 928 3319 
L 928 2847 
Q 1294 3394 1984 3394 
Q 2284 3394 2536 3286 
Q 2788 3178 2913 3003 
Q 3038 2828 3088 2588 
Q 3119 2431 3119 2041 
L 3119 0 
L 2556 0 
L 2556 2019 
Q 2556 2363 2490 2533 
Q 2425 2703 2258 2804 
Q 2091 2906 1866 2906 
Q 1506 2906 1245 2678 
Q 984 2450 984 1813 
L 984 0 
L 422 0 
z
" transform="scale(0.015625)"/>
     </defs>
     <use xlink:href="#ArialMT-43"/>
     <use xlink:href="#ArialMT-68" transform="translate(72.216797 0)"/>
     <use xlink:href="#ArialMT-6f" transform="translate(127.832031 0)"/>
     <use xlink:href="#ArialMT-63" transform="translate(183.447266 0)"/>
     <use xlink:href="#ArialMT-6f" transform="translate(233.447266 0)"/>
     <use xlink:href="#ArialMT-6c" transform="translate(289.0625 0)"/>
     <use xlink:href="#ArialMT-61" transform="translate(311.279297 0)"/>
     <use xlink:href="#ArialMT-74" transform="translate(366.894531 0)"/>
     <use xlink:href="#ArialMT-65" transform="translate(394.677734 0)"/>
     <use xlink:href="#ArialMT-20" transform="translate(450.292969 0)"/>
     <use xlink:href="#ArialMT-2f" transform="translate(478.076172 0)"/>
     <use xlink:href="#ArialMT-20" transform="translate(505.859375 0)"/>
     <use xlink:href="#ArialMT-6e" transform="translate(533.642578 0)"/>
     <use xlink:href="#ArialMT-6f" transform="translate(589.257812 0)"/>
     <use xlink:href="#ArialMT-6e" transform="translate(644.873047 0)"/>
     <use xlink:href="#ArialMT-65" transform="translate(700.488281 0)"/>
    </g>
   </g>
   <g id="legend_1">
    <g id="patch_5">
     <path d="M 186.021997 80.498226 
L 267.598728 80.498226 
Q 270.597528 80.498226 270.597528 77.499426 
L 270.597528 36.579862 
Q 270.597528 33.581062 267.598728 33.581062 
L 186.021997 33.581062 
Q 183.023197 33.581062 183.023197 36.579862 
L 183.023197 77.499426 
Q 183.023197 80.498226 186.021997 80.498226 
z
" style="fill: #ffffff; opacity: 0.8; stroke: #cccccc; stroke-width: 1.5; stroke-linejoin: miter"/>
    </g>
    <g id="line2d_7">
     <path d="M 189.020797 45.063187 
L 204.014797 45.063187 
L 219.008797 45.063187 
" style="fill: none; stroke: #0173b2; stroke-width: 2.25; stroke-linecap: round"/>
     <g>
      <use xlink:href="#m5601aa1b06" x="204.014797" y="45.063187" style="fill: #0173b2; stroke: #ffffff; stroke-width: 0.75"/>
     </g>
    </g>
    <g id="text_8">
     <!-- Train -->
     <g style="fill: #262626" transform="translate(231.003997 50.311087) scale(0.14994 -0.14994)">
      <defs>
       <path id="ArialMT-54" d="M 1659 0 
L 1659 4041 
L 150 4041 
L 150 4581 
L 3781 4581 
L 3781 4041 
L 2266 4041 
L 2266 0 
L 1659 0 
z
" transform="scale(0.015625)"/>
       <path id="ArialMT-72" d="M 416 0 
L 416 3319 
L 922 3319 
L 922 2816 
Q 1116 3169 1280 3281 
Q 1444 3394 1641 3394 
Q 1925 3394 2219 3213 
L 2025 2691 
Q 1819 2813 1613 2813 
Q 1428 2813 1281 2702 
Q 1134 2591 1072 2394 
Q 978 2094 978 1738 
L 978 0 
L 416 0 
z
" transform="scale(0.015625)"/>
       <path id="ArialMT-69" d="M 425 3934 
L 425 4581 
L 988 4581 
L 988 3934 
L 425 3934 
z
M 425 0 
L 425 3319 
L 988 3319 
L 988 0 
L 425 0 
z
" transform="scale(0.015625)"/>
      </defs>
      <use xlink:href="#ArialMT-54"/>
      <use xlink:href="#ArialMT-72" transform="translate(57.333984 0)"/>
      <use xlink:href="#ArialMT-61" transform="translate(90.634766 0)"/>
      <use xlink:href="#ArialMT-69" transform="translate(146.25 0)"/>
      <use xlink:href="#ArialMT-6e" transform="translate(168.466797 0)"/>
     </g>
    </g>
    <g id="line2d_8">
     <path d="M 189.020797 66.272668 
L 204.014797 66.272668 
L 219.008797 66.272668 
" style="fill: none; stroke: #de8f05; stroke-width: 2.25; stroke-linecap: round"/>
     <g>
      <use xlink:href="#m158bdfc67c" x="204.014797" y="66.272668" style="fill: #de8f05; stroke: #ffffff; stroke-width: 0.75"/>
     </g>
    </g>
    <g id="text_9">
     <!-- Val -->
     <g style="fill: #262626" transform="translate(231.003997 71.520568) scale(0.14994 -0.14994)">
      <defs>
       <path id="ArialMT-56" d="M 1803 0 
L 28 4581 
L 684 4581 
L 1875 1253 
Q 2019 853 2116 503 
Q 2222 878 2363 1253 
L 3600 4581 
L 4219 4581 
L 2425 0 
L 1803 0 
z
" transform="scale(0.015625)"/>
      </defs>
      <use xlink:href="#ArialMT-56"/>
      <use xlink:href="#ArialMT-61" transform="translate(59.324219 0)"/>
      <use xlink:href="#ArialMT-6c" transform="translate(114.939453 0)"/>
     </g>
    </g>
   </g>
  </g>
  <g id="axes_2">
   <g id="text_10">
    <!-- No data -->
    <g style="fill: #262626" transform="translate(425.166405 100.057344) scale(0.18 -0.18)">
     <defs>
      <path id="ArialMT-4e" d="M 488 0 
L 488 4581 
L 1109 4581 
L 3516 984 
L 3516 4581 
L 4097 4581 
L 4097 0 
L 3475 0 
L 1069 3600 
L 1069 0 
L 488 0 
z
" transform="scale(0.015625)"/>
      <path id="ArialMT-64" d="M 2575 0 
L 2575 419 
Q 2259 -75 1647 -75 
Q 1250 -75 917 144 
Q 584 363 401 755 
Q 219 1147 219 1656 
Q 219 2153 384 2558 
Q 550 2963 881 3178 
Q 1213 3394 1622 3394 
Q 1922 3394 2156 3267 
Q 2391 3141 2538 2938 
L 2538 4581 
L 3097 4581 
L 3097 0 
L 2575 0 
z
M 797 1656 
Q 797 1019 1065 703 
Q 1334 388 1700 388 
Q 2069 388 2326 689 
Q 2584 991 2584 1609 
Q 2584 2291 2321 2609 
Q 2059 2928 1675 2928 
Q 1300 2928 1048 2622 
Q 797 2316 797 1656 
z
" transform="scale(0.015625)"/>
     </defs>
     <use xlink:href="#ArialMT-4e"/>
     <use xlink:href="#ArialMT-6f" transform="translate(72.216797 0)"/>
     <use xlink:href="#ArialMT-20" transform="translate(127.832031 0)"/>
     <use xlink:href="#ArialMT-64" transform="translate(155.615234 0)"/>
     <use xlink:href="#ArialMT-61" transform="translate(211.230469 0)"/>
     <use xlink:href="#ArialMT-74" transform="translate(266.845703 0)"/>
     <use xlink:href="#ArialMT-61" transform="translate(294.628906 0)"/>
    </g>
   </g>
  </g>
  <g id="axes_3">
   <g id="text_11">
    <!-- No data -->
    <g style="fill: #262626" transform="translate(702.081405 100.057344) scale(0.18 -0.18)">
     <use xlink:href="#ArialMT-4e"/>
     <use xlink:href="#ArialMT-6f" transform="translate(72.216797 0)"/>
     <use xlink:href="#ArialMT-20" transform="translate(127.832031 0)"/>
     <use xlink:href="#ArialMT-64" transform="translate(155.615234 0)"/>
     <use xlink:href="#ArialMT-61" transform="translate(211.230469 0)"/>
     <use xlink:href="#ArialMT-74" transform="translate(266.845703 0)"/>
     <use xlink:href="#ArialMT-61" transform="translate(294.628906 0)"/>
    </g>
   </g>
  </g>
  <g id="axes_4">
   <g id="patch_6">
    <path d="M 81.447656 390.484062 
L 278.094528 390.484062 
L 278.094528 251.844062 
L 81.447656 251.844062 
z
" style="fill: #ffffff"/>
   </g>
   <g id="matplotlib.axis_3">
    <g id="xtick_3">
     <g id="line2d_9">
      <path d="M 169.839432 390.484062 
L 169.839432 251.844062 
" clip-path="url(#pc4c3a542f7)" style="fill: none; stroke: #cccccc; stroke-width: 1.5; stroke-linecap: round"/>
     </g>
     <g id="text_12">
      <!-- 10 -->
      <g style="fill: #262626" transform="translate(160.663885 414.794453) scale(0.165 -0.165)">
       <use xlink:href="#ArialMT-31"/>
       <use xlink:href="#ArialMT-30" transform="translate(55.615234 0)"/>
      </g>
     </g>
    </g>
    <g id="xtick_4">
     <g id="line2d_10">
      <path d="M 269.156034 390.484062 
L 269.156034 251.844062 
" clip-path="url(#pc4c3a542f7)" style="fill: none; stroke: #cccccc; stroke-width: 1.5; stroke-linecap: round"/>
     </g>
     <g id="text_13">
      <!-- 20 -->
      <g style="fill: #262626" transform="translate(259.980487 414.794453) scale(0.165 -0.165)">
       <use xlink:href="#ArialMT-32"/>
       <use xlink:href="#ArialMT-30" transform="translate(55.615234 0)"/>
      </g>
     </g>
    </g>
    <g id="text_14">
     <!-- Epoch -->
     <g style="fill: #262626" transform="translate(154.25328 434.957891) scale(0.18 -0.18)">
      <use xlink:href="#ArialMT-45"/>
      <use xlink:href="#ArialMT-70" transform="translate(66.699219 0)"/>
      <use xlink:href="#ArialMT-6f" transform="translate(122.314453 0)"/>
      <use xlink:href="#ArialMT-63" transform="translate(177.929688 0)"/>
      <use xlink:href="#ArialMT-68" transform="translate(227.929688 0)"/>
     </g>
    </g>
   </g>
   <g id="matplotlib.axis_4">
    <g id="ytick_3">
     <g id="line2d_11">
      <path d="M 81.447656 384.219345 
L 278.094528 384.219345 
" clip-path="url(#pc4c3a542f7)" style="fill: none; stroke: #cccccc; stroke-width: 1.5; stroke-linecap: round"/>
     </g>
     <g id="text_15">
      <!-- 0 -->
      <g style="fill: #262626" transform="translate(59.772109 390.12454) scale(0.165 -0.165)">
       <use xlink:href="#ArialMT-30"/>
      </g>
     </g>
    </g>
    <g id="ytick_4">
     <g id="line2d_12">
      <path d="M 81.447656 326.60602 
L 278.094528 326.60602 
" clip-path="url(#pc4c3a542f7)" style="fill: none; stroke: #cccccc; stroke-width: 1.5; stroke-linecap: round"/>
     </g>
     <g id="text_16">
      <!-- 10 -->
      <g style="fill: #262626" transform="translate(50.596562 332.511215) scale(0.165 -0.165)">
       <use xlink:href="#ArialMT-31"/>
       <use xlink:href="#ArialMT-30" transform="translate(55.615234 0)"/>
      </g>
     </g>
    </g>
    <g id="ytick_5">
     <g id="line2d_13">
      <path d="M 81.447656 268.992695 
L 278.094528 268.992695 
" clip-path="url(#pc4c3a542f7)" style="fill: none; stroke: #cccccc; stroke-width: 1.5; stroke-linecap: round"/>
     </g>
     <g id="text_17">
      <!-- 20 -->
      <g style="fill: #262626" transform="translate(50.596562 274.89789) scale(0.165 -0.165)">
       <use xlink:href="#ArialMT-32"/>
       <use xlink:href="#ArialMT-30" transform="translate(55.615234 0)"/>
      </g>
     </g>
    </g>
    <g id="text_18">
     <!-- Loss -->
     <g style="fill: #262626" transform="translate(43.019062 340.17375) rotate(-90) scale(0.18 -0.18)">
      <use xlink:href="#ArialMT-4c"/>
      <use xlink:href="#ArialMT-6f" transform="translate(55.615234 0)"/>
      <use xlink:href="#ArialMT-73" transform="translate(111.230469 0)"/>
      <use xlink:href="#ArialMT-73" transform="translate(161.230469 0)"/>
     </g>
    </g>
   </g>
   <g id="FillBetweenPolyCollection_3"/>
   <g id="FillBetweenPolyCollection_4"/>
   <g id="line2d_14">
    <path d="M 90.38615 362.845345 
L 100.317811 258.145881 
L 110.249471 384.020242 
L 120.181131 384.151918 
L 130.112791 384.159324 
L 140.044451 384.162267 
L 149.976112 384.16405 
L 159.907772 384.164949 
L 169.839432 384.165606 
L 179.771092 384.173245 
L 189.702752 384.174153 
L 199.634412 384.175222 
L 209.566073 384.175951 
L 219.497733 384.176523 
L 229.429393 384.17716 
L 239.361053 384.177712 
L 249.292713 384.178109 
L 259.224374 384.178739 
L 269.156034 384.179196 
" clip-path="url(#pc4c3a542f7)" style="fill: none; stroke: #0173b2; stroke-width: 2.25; stroke-linecap: round"/>
    <g clip-path="url(#pc4c3a542f7)">
     <use xlink:href="#m5601aa1b06" x="90.38615" y="362.845345" style="fill: #0173b2; stroke: #ffffff; stroke-width: 0.75"/>
     <use xlink:href="#m5601aa1b06" x="100.317811" y="258.145881" style="fill: #0173b2; stroke: #ffffff; stroke-width: 0.75"/>
     <use xlink:href="#m5601aa1b06" x="110.249471" y="384.020242" style="fill: #0173b2; stroke: #ffffff; stroke-width: 0.75"/>
     <use xlink:href="#m5601aa1b06" x="120.181131" y="384.151918" style="fill: #0173b2; stroke: #ffffff; stroke-width: 0.75"/>
     <use xlink:href="#m5601aa1b06" x="130.112791" y="384.159324" style="fill: #0173b2; stroke: #ffffff; stroke-width: 0.75"/>
     <use xlink:href="#m5601aa1b06" x="140.044451" y="384.162267" style="fill: #0173b2; stroke: #ffffff; stroke-width: 0.75"/>
     <use xlink:href="#m5601aa1b06" x="149.976112" y="384.16405" style="fill: #0173b2; stroke: #ffffff; stroke-width: 0.75"/>
     <use xlink:href="#m5601aa1b06" x="159.907772" y="384.164949" style="fill: #0173b2; stroke: #ffffff; stroke-width: 0.75"/>
     <use xlink:href="#m5601aa1b06" x="169.839432" y="384.165606" style="fill: #0173b2; stroke: #ffffff; stroke-width: 0.75"/>
     <use xlink:href="#m5601aa1b06" x="179.771092" y="384.173245" style="fill: #0173b2; stroke: #ffffff; stroke-width: 0.75"/>
     <use xlink:href="#m5601aa1b06" x="189.702752" y="384.174153" style="fill: #0173b2; stroke: #ffffff; stroke-width: 0.75"/>
     <use xlink:href="#m5601aa1b06" x="199.634412" y="384.175222" style="fill: #0173b2; stroke: #ffffff; stroke-width: 0.75"/>
     <use xlink:href="#m5601aa1b06" x="209.566073" y="384.175951" style="fill: #0173b2; stroke: #ffffff; stroke-width: 0.75"/>
     <use xlink:href="#m5601aa1b06" x="219.497733" y="384.176523" style="fill: #0173b2; stroke: #ffffff; stroke-width: 0.75"/>
     <use xlink:href="#m5601aa1b06" x="229.429393" y="384.17716" style="fill: #0173b2; stroke: #ffffff; stroke-width: 0.75"/>
     <use xlink:href="#m5601aa1b06" x="239.361053" y="384.177712" style="fill: #0173b2; stroke: #ffffff; stroke-width: 0.75"/>
     <use xlink:href="#m5601aa1b06" x="249.292713" y="384.178109" style="fill: #0173b2; stroke: #ffffff; stroke-width: 0.75"/>
     <use xlink:href="#m5601aa1b06" x="259.224374" y="384.178739" style="fill: #0173b2; stroke: #ffffff; stroke-width: 0.75"/>
     <use xlink:href="#m5601aa1b06" x="269.156034" y="384.179196" style="fill: #0173b2; stroke: #ffffff; stroke-width: 0.75"/>
    </g>
   </g>
   <g id="line2d_15">
    <path d="M 90.38615 378.980803 
L 100.317811 380.769717 
L 110.249471 384.129721 
L 120.181131 384.132419 
L 130.112791 384.163037 
L 140.044451 384.142011 
L 149.976112 384.160951 
L 159.907772 384.05541 
L 169.839432 384.160355 
L 179.771092 384.170961 
L 189.702752 384.160597 
L 199.634412 384.145767 
L 209.566073 384.151333 
L 219.497733 384.178832 
L 229.429393 384.170527 
L 239.361053 384.172487 
L 249.292713 384.171922 
L 259.224374 384.135731 
L 269.156034 384.182244 
" clip-path="url(#pc4c3a542f7)" style="fill: none; stroke: #de8f05; stroke-width: 2.25; stroke-linecap: round"/>
    <g clip-path="url(#pc4c3a542f7)">
     <use xlink:href="#m158bdfc67c" x="90.38615" y="378.980803" style="fill: #de8f05; stroke: #ffffff; stroke-width: 0.75"/>
     <use xlink:href="#m158bdfc67c" x="100.317811" y="380.769717" style="fill: #de8f05; stroke: #ffffff; stroke-width: 0.75"/>
     <use xlink:href="#m158bdfc67c" x="110.249471" y="384.129721" style="fill: #de8f05; stroke: #ffffff; stroke-width: 0.75"/>
     <use xlink:href="#m158bdfc67c" x="120.181131" y="384.132419" style="fill: #de8f05; stroke: #ffffff; stroke-width: 0.75"/>
     <use xlink:href="#m158bdfc67c" x="130.112791" y="384.163037" style="fill: #de8f05; stroke: #ffffff; stroke-width: 0.75"/>
     <use xlink:href="#m158bdfc67c" x="140.044451" y="384.142011" style="fill: #de8f05; stroke: #ffffff; stroke-width: 0.75"/>
     <use xlink:href="#m158bdfc67c" x="149.976112" y="384.160951" style="fill: #de8f05; stroke: #ffffff; stroke-width: 0.75"/>
     <use xlink:href="#m158bdfc67c" x="159.907772" y="384.05541" style="fill: #de8f05; stroke: #ffffff; stroke-width: 0.75"/>
     <use xlink:href="#m158bdfc67c" x="169.839432" y="384.160355" style="fill: #de8f05; stroke: #ffffff; stroke-width: 0.75"/>
     <use xlink:href="#m158bdfc67c" x="179.771092" y="384.170961" style="fill: #de8f05; stroke: #ffffff; stroke-width: 0.75"/>
     <use xlink:href="#m158bdfc67c" x="189.702752" y="384.160597" style="fill: #de8f05; stroke: #ffffff; stroke-width: 0.75"/>
     <use xlink:href="#m158bdfc67c" x="199.634412" y="384.145767" style="fill: #de8f05; stroke: #ffffff; stroke-width: 0.75"/>
     <use xlink:href="#m158bdfc67c" x="209.566073" y="384.151333" style="fill: #de8f05; stroke: #ffffff; stroke-width: 0.75"/>
     <use xlink:href="#m158bdfc67c" x="219.497733" y="384.178832" style="fill: #de8f05; stroke: #ffffff; stroke-width: 0.75"/>
     <use xlink:href="#m158bdfc67c" x="229.429393" y="384.170527" style="fill: #de8f05; stroke: #ffffff; stroke-width: 0.75"/>
     <use xlink:href="#m158bdfc67c" x="239.361053" y="384.172487" style="fill: #de8f05; stroke: #ffffff; stroke-width: 0.75"/>
     <use xlink:href="#m158bdfc67c" x="249.292713" y="384.171922" style="fill: #de8f05; stroke: #ffffff; stroke-width: 0.75"/>
     <use xlink:href="#m158bdfc67c" x="259.224374" y="384.135731" style="fill: #de8f05; stroke: #ffffff; stroke-width: 0.75"/>
     <use xlink:href="#m158bdfc67c" x="269.156034" y="384.182244" style="fill: #de8f05; stroke: #ffffff; stroke-width: 0.75"/>
    </g>
   </g>
   <g id="patch_7">
    <path d="M 81.447656 390.484062 
L 81.447656 251.844062 
" style="fill: none; stroke: #cccccc; stroke-width: 1.875; stroke-linejoin: miter; stroke-linecap: square"/>
   </g>
   <g id="patch_8">
    <path d="M 81.447656 390.484062 
L 278.094528 390.484062 
" style="fill: none; stroke: #cccccc; stroke-width: 1.875; stroke-linejoin: miter; stroke-linecap: square"/>
   </g>
   <g id="text_19">
    <!-- Strawberry / none -->
    <g style="fill: #262626" transform="translate(108.742811 245.844062) scale(0.18 -0.18)">
     <defs>
      <path id="ArialMT-53" d="M 288 1472 
L 859 1522 
Q 900 1178 1048 958 
Q 1197 738 1509 602 
Q 1822 466 2213 466 
Q 2559 466 2825 569 
Q 3091 672 3220 851 
Q 3350 1031 3350 1244 
Q 3350 1459 3225 1620 
Q 3100 1781 2813 1891 
Q 2628 1963 1997 2114 
Q 1366 2266 1113 2400 
Q 784 2572 623 2826 
Q 463 3081 463 3397 
Q 463 3744 659 4045 
Q 856 4347 1234 4503 
Q 1613 4659 2075 4659 
Q 2584 4659 2973 4495 
Q 3363 4331 3572 4012 
Q 3781 3694 3797 3291 
L 3216 3247 
Q 3169 3681 2898 3903 
Q 2628 4125 2100 4125 
Q 1550 4125 1298 3923 
Q 1047 3722 1047 3438 
Q 1047 3191 1225 3031 
Q 1400 2872 2139 2705 
Q 2878 2538 3153 2413 
Q 3553 2228 3743 1945 
Q 3934 1663 3934 1294 
Q 3934 928 3725 604 
Q 3516 281 3123 101 
Q 2731 -78 2241 -78 
Q 1619 -78 1198 103 
Q 778 284 539 648 
Q 300 1013 288 1472 
z
" transform="scale(0.015625)"/>
      <path id="ArialMT-77" d="M 1034 0 
L 19 3319 
L 600 3319 
L 1128 1403 
L 1325 691 
Q 1338 744 1497 1375 
L 2025 3319 
L 2603 3319 
L 3100 1394 
L 3266 759 
L 3456 1400 
L 4025 3319 
L 4572 3319 
L 3534 0 
L 2950 0 
L 2422 1988 
L 2294 2553 
L 1622 0 
L 1034 0 
z
" transform="scale(0.015625)"/>
      <path id="ArialMT-62" d="M 941 0 
L 419 0 
L 419 4581 
L 981 4581 
L 981 2947 
Q 1338 3394 1891 3394 
Q 2197 3394 2470 3270 
Q 2744 3147 2920 2923 
Q 3097 2700 3197 2384 
Q 3297 2069 3297 1709 
Q 3297 856 2875 390 
Q 2453 -75 1863 -75 
Q 1275 -75 941 416 
L 941 0 
z
M 934 1684 
Q 934 1088 1097 822 
Q 1363 388 1816 388 
Q 2184 388 2453 708 
Q 2722 1028 2722 1663 
Q 2722 2313 2464 2622 
Q 2206 2931 1841 2931 
Q 1472 2931 1203 2611 
Q 934 2291 934 1684 
z
" transform="scale(0.015625)"/>
      <path id="ArialMT-79" d="M 397 -1278 
L 334 -750 
Q 519 -800 656 -800 
Q 844 -800 956 -737 
Q 1069 -675 1141 -563 
Q 1194 -478 1313 -144 
Q 1328 -97 1363 -6 
L 103 3319 
L 709 3319 
L 1400 1397 
Q 1534 1031 1641 628 
Q 1738 1016 1872 1384 
L 2581 3319 
L 3144 3319 
L 1881 -56 
Q 1678 -603 1566 -809 
Q 1416 -1088 1222 -1217 
Q 1028 -1347 759 -1347 
Q 597 -1347 397 -1278 
z
" transform="scale(0.015625)"/>
     </defs>
     <use xlink:href="#ArialMT-53"/>
     <use xlink:href="#ArialMT-74" transform="translate(66.699219 0)"/>
     <use xlink:href="#ArialMT-72" transform="translate(94.482422 0)"/>
     <use xlink:href="#ArialMT-61" transform="translate(127.783203 0)"/>
     <use xlink:href="#ArialMT-77" transform="translate(183.398438 0)"/>
     <use xlink:href="#ArialMT-62" transform="translate(255.615234 0)"/>
     <use xlink:href="#ArialMT-65" transform="translate(311.230469 0)"/>
     <use xlink:href="#ArialMT-72" transform="translate(366.845703 0)"/>
     <use xlink:href="#ArialMT-72" transform="translate(400.146484 0)"/>
     <use xlink:href="#ArialMT-79" transform="translate(433.447266 0)"/>
     <use xlink:href="#ArialMT-20" transform="translate(483.447266 0)"/>
     <use xlink:href="#ArialMT-2f" transform="translate(511.230469 0)"/>
     <use xlink:href="#ArialMT-20" transform="translate(539.013672 0)"/>
     <use xlink:href="#ArialMT-6e" transform="translate(566.796875 0)"/>
     <use xlink:href="#ArialMT-6f" transform="translate(622.412109 0)"/>
     <use xlink:href="#ArialMT-6e" transform="translate(678.027344 0)"/>
     <use xlink:href="#ArialMT-65" transform="translate(733.642578 0)"/>
    </g>
   </g>
   <g id="legend_2">
    <g id="patch_9">
     <path d="M 186.021997 306.258226 
L 267.598728 306.258226 
Q 270.597528 306.258226 270.597528 303.259426 
L 270.597528 262.339862 
Q 270.597528 259.341062 267.598728 259.341062 
L 186.021997 259.341062 
Q 183.023197 259.341062 183.023197 262.339862 
L 183.023197 303.259426 
Q 183.023197 306.258226 186.021997 306.258226 
z
" style="fill: #ffffff; opacity: 0.8; stroke: #cccccc; stroke-width: 1.5; stroke-linejoin: miter"/>
    </g>
    <g id="line2d_16">
     <path d="M 189.020797 270.823187 
L 204.014797 270.823187 
L 219.008797 270.823187 
" style="fill: none; stroke: #0173b2; stroke-width: 2.25; stroke-linecap: round"/>
     <g>
      <use xlink:href="#m5601aa1b06" x="204.014797" y="270.823187" style="fill: #0173b2; stroke: #ffffff; stroke-width: 0.75"/>
     </g>
    </g>
    <g id="text_20">
     <!-- Train -->
     <g style="fill: #262626" transform="translate(231.003997 276.071087) scale(0.14994 -0.14994)">
      <use xlink:href="#ArialMT-54"/>
      <use xlink:href="#ArialMT-72" transform="translate(57.333984 0)"/>
      <use xlink:href="#ArialMT-61" transform="translate(90.634766 0)"/>
      <use xlink:href="#ArialMT-69" transform="translate(146.25 0)"/>
      <use xlink:href="#ArialMT-6e" transform="translate(168.466797 0)"/>
     </g>
    </g>
    <g id="line2d_17">
     <path d="M 189.020797 292.032668 
L 204.014797 292.032668 
L 219.008797 292.032668 
" style="fill: none; stroke: #de8f05; stroke-width: 2.25; stroke-linecap: round"/>
     <g>
      <use xlink:href="#m158bdfc67c" x="204.014797" y="292.032668" style="fill: #de8f05; stroke: #ffffff; stroke-width: 0.75"/>
     </g>
    </g>
    <g id="text_21">
     <!-- Val -->
     <g style="fill: #262626" transform="translate(231.003997 297.280568) scale(0.14994 -0.14994)">
      <use xlink:href="#ArialMT-56"/>
      <use xlink:href="#ArialMT-61" transform="translate(59.324219 0)"/>
      <use xlink:href="#ArialMT-6c" transform="translate(114.939453 0)"/>
     </g>
    </g>
   </g>
  </g>
  <g id="axes_5">
   <g id="patch_10">
    <path d="M 358.362656 390.484062 
L 555.009528 390.484062 
L 555.009528 251.844062 
L 358.362656 251.844062 
z
" style="fill: #ffffff"/>
   </g>
   <g id="matplotlib.axis_5">
    <g id="xtick_5">
     <g id="line2d_18">
      <path d="M 446.754432 390.484062 
L 446.754432 251.844062 
" clip-path="url(#p9224dc7cd6)" style="fill: none; stroke: #cccccc; stroke-width: 1.5; stroke-linecap: round"/>
     </g>
     <g id="text_22">
      <!-- 10 -->
      <g style="fill: #262626" transform="translate(437.578885 414.794453) scale(0.165 -0.165)">
       <use xlink:href="#ArialMT-31"/>
       <use xlink:href="#ArialMT-30" transform="translate(55.615234 0)"/>
      </g>
     </g>
    </g>
    <g id="xtick_6">
     <g id="line2d_19">
      <path d="M 546.071034 390.484062 
L 546.071034 251.844062 
" clip-path="url(#p9224dc7cd6)" style="fill: none; stroke: #cccccc; stroke-width: 1.5; stroke-linecap: round"/>
     </g>
     <g id="text_23">
      <!-- 20 -->
      <g style="fill: #262626" transform="translate(536.895487 414.794453) scale(0.165 -0.165)">
       <use xlink:href="#ArialMT-32"/>
       <use xlink:href="#ArialMT-30" transform="translate(55.615234 0)"/>
      </g>
     </g>
    </g>
    <g id="text_24">
     <!-- Epoch -->
     <g style="fill: #262626" transform="translate(431.16828 434.957891) scale(0.18 -0.18)">
      <use xlink:href="#ArialMT-45"/>
      <use xlink:href="#ArialMT-70" transform="translate(66.699219 0)"/>
      <use xlink:href="#ArialMT-6f" transform="translate(122.314453 0)"/>
      <use xlink:href="#ArialMT-63" transform="translate(177.929688 0)"/>
      <use xlink:href="#ArialMT-68" transform="translate(227.929688 0)"/>
     </g>
    </g>
   </g>
   <g id="matplotlib.axis_6">
    <g id="ytick_6">
     <g id="line2d_20">
      <path d="M 358.362656 384.266892 
L 555.009528 384.266892 
" clip-path="url(#p9224dc7cd6)" style="fill: none; stroke: #cccccc; stroke-width: 1.5; stroke-linecap: round"/>
     </g>
     <g id="text_25">
      <!-- 0 -->
      <g style="fill: #262626" transform="translate(336.687109 390.172088) scale(0.165 -0.165)">
       <use xlink:href="#ArialMT-30"/>
      </g>
     </g>
    </g>
    <g id="ytick_7">
     <g id="line2d_21">
      <path d="M 358.362656 327.540523 
L 555.009528 327.540523 
" clip-path="url(#p9224dc7cd6)" style="fill: none; stroke: #cccccc; stroke-width: 1.5; stroke-linecap: round"/>
     </g>
     <g id="text_26">
      <!-- 5 -->
      <g style="fill: #262626" transform="translate(336.687109 333.445719) scale(0.165 -0.165)">
       <use xlink:href="#ArialMT-35"/>
      </g>
     </g>
    </g>
    <g id="ytick_8">
     <g id="line2d_22">
      <path d="M 358.362656 270.814155 
L 555.009528 270.814155 
" clip-path="url(#p9224dc7cd6)" style="fill: none; stroke: #cccccc; stroke-width: 1.5; stroke-linecap: round"/>
     </g>
     <g id="text_27">
      <!-- 10 -->
      <g style="fill: #262626" transform="translate(327.511563 276.71935) scale(0.165 -0.165)">
       <use xlink:href="#ArialMT-31"/>
       <use xlink:href="#ArialMT-30" transform="translate(55.615234 0)"/>
      </g>
     </g>
    </g>
    <g id="text_28">
     <!-- Loss -->
     <g style="fill: #262626" transform="translate(319.934063 340.17375) rotate(-90) scale(0.18 -0.18)">
      <use xlink:href="#ArialMT-4c"/>
      <use xlink:href="#ArialMT-6f" transform="translate(55.615234 0)"/>
      <use xlink:href="#ArialMT-73" transform="translate(111.230469 0)"/>
      <use xlink:href="#ArialMT-73" transform="translate(161.230469 0)"/>
     </g>
    </g>
   </g>
   <g id="FillBetweenPolyCollection_5"/>
   <g id="FillBetweenPolyCollection_6"/>
   <g id="line2d_23">
    <path d="M 367.30115 378.427384 
L 377.232811 258.145881 
L 387.164471 380.201007 
L 397.096131 384.102114 
L 407.027791 384.129931 
L 416.959451 384.14198 
L 426.891112 384.151425 
L 436.822772 384.156582 
L 446.754432 384.158933 
L 456.686092 384.171641 
L 466.617752 384.173036 
L 476.549412 384.174309 
L 486.481073 384.175212 
L 496.412733 384.175968 
L 506.344393 384.176592 
L 516.276053 384.177356 
L 526.207713 384.177856 
L 536.139374 384.178072 
L 546.071034 384.178525 
" clip-path="url(#p9224dc7cd6)" style="fill: none; stroke: #0173b2; stroke-width: 2.25; stroke-linecap: round"/>
    <g clip-path="url(#p9224dc7cd6)">
     <use xlink:href="#m5601aa1b06" x="367.30115" y="378.427384" style="fill: #0173b2; stroke: #ffffff; stroke-width: 0.75"/>
     <use xlink:href="#m5601aa1b06" x="377.232811" y="258.145881" style="fill: #0173b2; stroke: #ffffff; stroke-width: 0.75"/>
     <use xlink:href="#m5601aa1b06" x="387.164471" y="380.201007" style="fill: #0173b2; stroke: #ffffff; stroke-width: 0.75"/>
     <use xlink:href="#m5601aa1b06" x="397.096131" y="384.102114" style="fill: #0173b2; stroke: #ffffff; stroke-width: 0.75"/>
     <use xlink:href="#m5601aa1b06" x="407.027791" y="384.129931" style="fill: #0173b2; stroke: #ffffff; stroke-width: 0.75"/>
     <use xlink:href="#m5601aa1b06" x="416.959451" y="384.14198" style="fill: #0173b2; stroke: #ffffff; stroke-width: 0.75"/>
     <use xlink:href="#m5601aa1b06" x="426.891112" y="384.151425" style="fill: #0173b2; stroke: #ffffff; stroke-width: 0.75"/>
     <use xlink:href="#m5601aa1b06" x="436.822772" y="384.156582" style="fill: #0173b2; stroke: #ffffff; stroke-width: 0.75"/>
     <use xlink:href="#m5601aa1b06" x="446.754432" y="384.158933" style="fill: #0173b2; stroke: #ffffff; stroke-width: 0.75"/>
     <use xlink:href="#m5601aa1b06" x="456.686092" y="384.171641" style="fill: #0173b2; stroke: #ffffff; stroke-width: 0.75"/>
     <use xlink:href="#m5601aa1b06" x="466.617752" y="384.173036" style="fill: #0173b2; stroke: #ffffff; stroke-width: 0.75"/>
     <use xlink:href="#m5601aa1b06" x="476.549412" y="384.174309" style="fill: #0173b2; stroke: #ffffff; stroke-width: 0.75"/>
     <use xlink:href="#m5601aa1b06" x="486.481073" y="384.175212" style="fill: #0173b2; stroke: #ffffff; stroke-width: 0.75"/>
     <use xlink:href="#m5601aa1b06" x="496.412733" y="384.175968" style="fill: #0173b2; stroke: #ffffff; stroke-width: 0.75"/>
     <use xlink:href="#m5601aa1b06" x="506.344393" y="384.176592" style="fill: #0173b2; stroke: #ffffff; stroke-width: 0.75"/>
     <use xlink:href="#m5601aa1b06" x="516.276053" y="384.177356" style="fill: #0173b2; stroke: #ffffff; stroke-width: 0.75"/>
     <use xlink:href="#m5601aa1b06" x="526.207713" y="384.177856" style="fill: #0173b2; stroke: #ffffff; stroke-width: 0.75"/>
     <use xlink:href="#m5601aa1b06" x="536.139374" y="384.178072" style="fill: #0173b2; stroke: #ffffff; stroke-width: 0.75"/>
     <use xlink:href="#m5601aa1b06" x="546.071034" y="384.178525" style="fill: #0173b2; stroke: #ffffff; stroke-width: 0.75"/>
    </g>
   </g>
   <g id="line2d_24">
    <path d="M 367.30115 383.015134 
L 377.232811 383.747979 
L 387.164471 384.085637 
L 397.096131 383.874665 
L 407.027791 384.060447 
L 416.959451 384.147763 
L 426.891112 384.053268 
L 436.822772 383.79406 
L 446.754432 384.146569 
L 456.686092 384.173575 
L 466.617752 384.168034 
L 476.549412 384.132134 
L 486.481073 384.052012 
L 496.412733 384.175795 
L 506.344393 384.135806 
L 516.276053 384.182244 
L 526.207713 384.104763 
L 536.139374 384.121954 
L 546.071034 384.175031 
" clip-path="url(#p9224dc7cd6)" style="fill: none; stroke: #de8f05; stroke-width: 2.25; stroke-linecap: round"/>
    <g clip-path="url(#p9224dc7cd6)">
     <use xlink:href="#m158bdfc67c" x="367.30115" y="383.015134" style="fill: #de8f05; stroke: #ffffff; stroke-width: 0.75"/>
     <use xlink:href="#m158bdfc67c" x="377.232811" y="383.747979" style="fill: #de8f05; stroke: #ffffff; stroke-width: 0.75"/>
     <use xlink:href="#m158bdfc67c" x="387.164471" y="384.085637" style="fill: #de8f05; stroke: #ffffff; stroke-width: 0.75"/>
     <use xlink:href="#m158bdfc67c" x="397.096131" y="383.874665" style="fill: #de8f05; stroke: #ffffff; stroke-width: 0.75"/>
     <use xlink:href="#m158bdfc67c" x="407.027791" y="384.060447" style="fill: #de8f05; stroke: #ffffff; stroke-width: 0.75"/>
     <use xlink:href="#m158bdfc67c" x="416.959451" y="384.147763" style="fill: #de8f05; stroke: #ffffff; stroke-width: 0.75"/>
     <use xlink:href="#m158bdfc67c" x="426.891112" y="384.053268" style="fill: #de8f05; stroke: #ffffff; stroke-width: 0.75"/>
     <use xlink:href="#m158bdfc67c" x="436.822772" y="383.79406" style="fill: #de8f05; stroke: #ffffff; stroke-width: 0.75"/>
     <use xlink:href="#m158bdfc67c" x="446.754432" y="384.146569" style="fill: #de8f05; stroke: #ffffff; stroke-width: 0.75"/>
     <use xlink:href="#m158bdfc67c" x="456.686092" y="384.173575" style="fill: #de8f05; stroke: #ffffff; stroke-width: 0.75"/>
     <use xlink:href="#m158bdfc67c" x="466.617752" y="384.168034" style="fill: #de8f05; stroke: #ffffff; stroke-width: 0.75"/>
     <use xlink:href="#m158bdfc67c" x="476.549412" y="384.132134" style="fill: #de8f05; stroke: #ffffff; stroke-width: 0.75"/>
     <use xlink:href="#m158bdfc67c" x="486.481073" y="384.052012" style="fill: #de8f05; stroke: #ffffff; stroke-width: 0.75"/>
     <use xlink:href="#m158bdfc67c" x="496.412733" y="384.175795" style="fill: #de8f05; stroke: #ffffff; stroke-width: 0.75"/>
     <use xlink:href="#m158bdfc67c" x="506.344393" y="384.135806" style="fill: #de8f05; stroke: #ffffff; stroke-width: 0.75"/>
     <use xlink:href="#m158bdfc67c" x="516.276053" y="384.182244" style="fill: #de8f05; stroke: #ffffff; stroke-width: 0.75"/>
     <use xlink:href="#m158bdfc67c" x="526.207713" y="384.104763" style="fill: #de8f05; stroke: #ffffff; stroke-width: 0.75"/>
     <use xlink:href="#m158bdfc67c" x="536.139374" y="384.121954" style="fill: #de8f05; stroke: #ffffff; stroke-width: 0.75"/>
     <use xlink:href="#m158bdfc67c" x="546.071034" y="384.175031" style="fill: #de8f05; stroke: #ffffff; stroke-width: 0.75"/>
    </g>
   </g>
   <g id="patch_11">
    <path d="M 358.362656 390.484062 
L 358.362656 251.844062 
" style="fill: none; stroke: #cccccc; stroke-width: 1.875; stroke-linejoin: miter; stroke-linecap: square"/>
   </g>
   <g id="patch_12">
    <path d="M 358.362656 390.484062 
L 555.009528 390.484062 
" style="fill: none; stroke: #cccccc; stroke-width: 1.875; stroke-linejoin: miter; stroke-linecap: square"/>
   </g>
   <g id="text_29">
    <!-- Strawberry / superfib_end -->
    <g style="fill: #262626" transform="translate(353.641717 245.844062) scale(0.18 -0.18)">
     <defs>
      <path id="ArialMT-75" d="M 2597 0 
L 2597 488 
Q 2209 -75 1544 -75 
Q 1250 -75 995 37 
Q 741 150 617 320 
Q 494 491 444 738 
Q 409 903 409 1263 
L 409 3319 
L 972 3319 
L 972 1478 
Q 972 1038 1006 884 
Q 1059 663 1231 536 
Q 1403 409 1656 409 
Q 1909 409 2131 539 
Q 2353 669 2445 892 
Q 2538 1116 2538 1541 
L 2538 3319 
L 3100 3319 
L 3100 0 
L 2597 0 
z
" transform="scale(0.015625)"/>
      <path id="ArialMT-66" d="M 556 0 
L 556 2881 
L 59 2881 
L 59 3319 
L 556 3319 
L 556 3672 
Q 556 4006 616 4169 
Q 697 4388 901 4523 
Q 1106 4659 1475 4659 
Q 1713 4659 2000 4603 
L 1916 4113 
Q 1741 4144 1584 4144 
Q 1328 4144 1222 4034 
Q 1116 3925 1116 3625 
L 1116 3319 
L 1763 3319 
L 1763 2881 
L 1116 2881 
L 1116 0 
L 556 0 
z
" transform="scale(0.015625)"/>
      <path id="ArialMT-5f" d="M -97 -1272 
L -97 -866 
L 3631 -866 
L 3631 -1272 
L -97 -1272 
z
" transform="scale(0.015625)"/>
     </defs>
     <use xlink:href="#ArialMT-53"/>
     <use xlink:href="#ArialMT-74" transform="translate(66.699219 0)"/>
     <use xlink:href="#ArialMT-72" transform="translate(94.482422 0)"/>
     <use xlink:href="#ArialMT-61" transform="translate(127.783203 0)"/>
     <use xlink:href="#ArialMT-77" transform="translate(183.398438 0)"/>
     <use xlink:href="#ArialMT-62" transform="translate(255.615234 0)"/>
     <use xlink:href="#ArialMT-65" transform="translate(311.230469 0)"/>
     <use xlink:href="#ArialMT-72" transform="translate(366.845703 0)"/>
     <use xlink:href="#ArialMT-72" transform="translate(400.146484 0)"/>
     <use xlink:href="#ArialMT-79" transform="translate(433.447266 0)"/>
     <use xlink:href="#ArialMT-20" transform="translate(483.447266 0)"/>
     <use xlink:href="#ArialMT-2f" transform="translate(511.230469 0)"/>
     <use xlink:href="#ArialMT-20" transform="translate(539.013672 0)"/>
     <use xlink:href="#ArialMT-73" transform="translate(566.796875 0)"/>
     <use xlink:href="#ArialMT-75" transform="translate(616.796875 0)"/>
     <use xlink:href="#ArialMT-70" transform="translate(672.412109 0)"/>
     <use xlink:href="#ArialMT-65" transform="translate(728.027344 0)"/>
     <use xlink:href="#ArialMT-72" transform="translate(783.642578 0)"/>
     <use xlink:href="#ArialMT-66" transform="translate(816.943359 0)"/>
     <use xlink:href="#ArialMT-69" transform="translate(844.726562 0)"/>
     <use xlink:href="#ArialMT-62" transform="translate(866.943359 0)"/>
     <use xlink:href="#ArialMT-5f" transform="translate(922.558594 0)"/>
     <use xlink:href="#ArialMT-65" transform="translate(978.173828 0)"/>
     <use xlink:href="#ArialMT-6e" transform="translate(1033.789062 0)"/>
     <use xlink:href="#ArialMT-64" transform="translate(1089.404297 0)"/>
    </g>
   </g>
   <g id="legend_3">
    <g id="patch_13">
     <path d="M 462.936997 306.258226 
L 544.513728 306.258226 
Q 547.512528 306.258226 547.512528 303.259426 
L 547.512528 262.339862 
Q 547.512528 259.341062 544.513728 259.341062 
L 462.936997 259.341062 
Q 459.938197 259.341062 459.938197 262.339862 
L 459.938197 303.259426 
Q 459.938197 306.258226 462.936997 306.258226 
z
" style="fill: #ffffff; opacity: 0.8; stroke: #cccccc; stroke-width: 1.5; stroke-linejoin: miter"/>
    </g>
    <g id="line2d_25">
     <path d="M 465.935797 270.823187 
L 480.929797 270.823187 
L 495.923797 270.823187 
" style="fill: none; stroke: #0173b2; stroke-width: 2.25; stroke-linecap: round"/>
     <g>
      <use xlink:href="#m5601aa1b06" x="480.929797" y="270.823187" style="fill: #0173b2; stroke: #ffffff; stroke-width: 0.75"/>
     </g>
    </g>
    <g id="text_30">
     <!-- Train -->
     <g style="fill: #262626" transform="translate(507.918997 276.071087) scale(0.14994 -0.14994)">
      <use xlink:href="#ArialMT-54"/>
      <use xlink:href="#ArialMT-72" transform="translate(57.333984 0)"/>
      <use xlink:href="#ArialMT-61" transform="translate(90.634766 0)"/>
      <use xlink:href="#ArialMT-69" transform="translate(146.25 0)"/>
      <use xlink:href="#ArialMT-6e" transform="translate(168.466797 0)"/>
     </g>
    </g>
    <g id="line2d_26">
     <path d="M 465.935797 292.032668 
L 480.929797 292.032668 
L 495.923797 292.032668 
" style="fill: none; stroke: #de8f05; stroke-width: 2.25; stroke-linecap: round"/>
     <g>
      <use xlink:href="#m158bdfc67c" x="480.929797" y="292.032668" style="fill: #de8f05; stroke: #ffffff; stroke-width: 0.75"/>
     </g>
    </g>
    <g id="text_31">
     <!-- Val -->
     <g style="fill: #262626" transform="translate(507.918997 297.280568) scale(0.14994 -0.14994)">
      <use xlink:href="#ArialMT-56"/>
      <use xlink:href="#ArialMT-61" transform="translate(59.324219 0)"/>
      <use xlink:href="#ArialMT-6c" transform="translate(114.939453 0)"/>
     </g>
    </g>
   </g>
  </g>
  <g id="axes_6">
   <g id="patch_14">
    <path d="M 635.277656 390.484062 
L 831.924528 390.484062 
L 831.924528 251.844062 
L 635.277656 251.844062 
z
" style="fill: #ffffff"/>
   </g>
   <g id="matplotlib.axis_7">
    <g id="xtick_7">
     <g id="line2d_27">
      <path d="M 723.669432 390.484062 
L 723.669432 251.844062 
" clip-path="url(#p942ae668c7)" style="fill: none; stroke: #cccccc; stroke-width: 1.5; stroke-linecap: round"/>
     </g>
     <g id="text_32">
      <!-- 10 -->
      <g style="fill: #262626" transform="translate(714.493885 414.794453) scale(0.165 -0.165)">
       <use xlink:href="#ArialMT-31"/>
       <use xlink:href="#ArialMT-30" transform="translate(55.615234 0)"/>
      </g>
     </g>
    </g>
    <g id="xtick_8">
     <g id="line2d_28">
      <path d="M 822.986034 390.484062 
L 822.986034 251.844062 
" clip-path="url(#p942ae668c7)" style="fill: none; stroke: #cccccc; stroke-width: 1.5; stroke-linecap: round"/>
     </g>
     <g id="text_33">
      <!-- 20 -->
      <g style="fill: #262626" transform="translate(813.810487 414.794453) scale(0.165 -0.165)">
       <use xlink:href="#ArialMT-32"/>
       <use xlink:href="#ArialMT-30" transform="translate(55.615234 0)"/>
      </g>
     </g>
    </g>
    <g id="text_34">
     <!-- Epoch -->
     <g style="fill: #262626" transform="translate(708.08328 434.957891) scale(0.18 -0.18)">
      <use xlink:href="#ArialMT-45"/>
      <use xlink:href="#ArialMT-70" transform="translate(66.699219 0)"/>
      <use xlink:href="#ArialMT-6f" transform="translate(122.314453 0)"/>
      <use xlink:href="#ArialMT-63" transform="translate(177.929688 0)"/>
      <use xlink:href="#ArialMT-68" transform="translate(227.929688 0)"/>
     </g>
    </g>
   </g>
   <g id="matplotlib.axis_8">
    <g id="ytick_9">
     <g id="line2d_29">
      <path d="M 635.277656 384.185962 
L 831.924528 384.185962 
" clip-path="url(#p942ae668c7)" style="fill: none; stroke: #cccccc; stroke-width: 1.5; stroke-linecap: round"/>
     </g>
     <g id="text_35">
      <!-- 0 -->
      <g style="fill: #262626" transform="translate(613.602109 390.091157) scale(0.165 -0.165)">
       <use xlink:href="#ArialMT-30"/>
      </g>
     </g>
    </g>
    <g id="ytick_10">
     <g id="line2d_30">
      <path d="M 635.277656 341.272538 
L 831.924528 341.272538 
" clip-path="url(#p942ae668c7)" style="fill: none; stroke: #cccccc; stroke-width: 1.5; stroke-linecap: round"/>
     </g>
     <g id="text_36">
      <!-- 100 -->
      <g style="fill: #262626" transform="translate(595.251016 347.177733) scale(0.165 -0.165)">
       <use xlink:href="#ArialMT-31"/>
       <use xlink:href="#ArialMT-30" transform="translate(55.615234 0)"/>
       <use xlink:href="#ArialMT-30" transform="translate(111.230469 0)"/>
      </g>
     </g>
    </g>
    <g id="ytick_11">
     <g id="line2d_31">
      <path d="M 635.277656 298.359114 
L 831.924528 298.359114 
" clip-path="url(#p942ae668c7)" style="fill: none; stroke: #cccccc; stroke-width: 1.5; stroke-linecap: round"/>
     </g>
     <g id="text_37">
      <!-- 200 -->
      <g style="fill: #262626" transform="translate(595.251016 304.264309) scale(0.165 -0.165)">
       <use xlink:href="#ArialMT-32"/>
       <use xlink:href="#ArialMT-30" transform="translate(55.615234 0)"/>
       <use xlink:href="#ArialMT-30" transform="translate(111.230469 0)"/>
      </g>
     </g>
    </g>
    <g id="ytick_12">
     <g id="line2d_32">
      <path d="M 635.277656 255.44569 
L 831.924528 255.44569 
" clip-path="url(#p942ae668c7)" style="fill: none; stroke: #cccccc; stroke-width: 1.5; stroke-linecap: round"/>
     </g>
     <g id="text_38">
      <!-- 300 -->
      <g style="fill: #262626" transform="translate(595.251016 261.350886) scale(0.165 -0.165)">
       <defs>
        <path id="ArialMT-33" d="M 269 1209 
L 831 1284 
Q 928 806 1161 595 
Q 1394 384 1728 384 
Q 2125 384 2398 659 
Q 2672 934 2672 1341 
Q 2672 1728 2419 1979 
Q 2166 2231 1775 2231 
Q 1616 2231 1378 2169 
L 1441 2663 
Q 1497 2656 1531 2656 
Q 1891 2656 2178 2843 
Q 2466 3031 2466 3422 
Q 2466 3731 2256 3934 
Q 2047 4138 1716 4138 
Q 1388 4138 1169 3931 
Q 950 3725 888 3313 
L 325 3413 
Q 428 3978 793 4289 
Q 1159 4600 1703 4600 
Q 2078 4600 2393 4439 
Q 2709 4278 2876 4000 
Q 3044 3722 3044 3409 
Q 3044 3113 2884 2869 
Q 2725 2625 2413 2481 
Q 2819 2388 3044 2092 
Q 3269 1797 3269 1353 
Q 3269 753 2831 336 
Q 2394 -81 1725 -81 
Q 1122 -81 723 278 
Q 325 638 269 1209 
z
" transform="scale(0.015625)"/>
       </defs>
       <use xlink:href="#ArialMT-33"/>
       <use xlink:href="#ArialMT-30" transform="translate(55.615234 0)"/>
       <use xlink:href="#ArialMT-30" transform="translate(111.230469 0)"/>
      </g>
     </g>
    </g>
    <g id="text_39">
     <!-- Loss -->
     <g style="fill: #262626" transform="translate(587.673516 340.17375) rotate(-90) scale(0.18 -0.18)">
      <use xlink:href="#ArialMT-4c"/>
      <use xlink:href="#ArialMT-6f" transform="translate(55.615234 0)"/>
      <use xlink:href="#ArialMT-73" transform="translate(111.230469 0)"/>
      <use xlink:href="#ArialMT-73" transform="translate(161.230469 0)"/>
     </g>
    </g>
   </g>
   <g id="FillBetweenPolyCollection_7"/>
   <g id="FillBetweenPolyCollection_8"/>
   <g id="line2d_33">
    <path d="M 644.21615 258.145881 
L 654.147811 383.306889 
L 664.079471 384.16293 
L 674.011131 384.177951 
L 683.942791 384.178939 
L 693.874451 384.179913 
L 703.806112 384.180765 
L 713.737772 384.181162 
L 723.669432 384.181306 
L 733.601092 384.181805 
L 743.532752 384.181833 
L 753.464412 384.18187 
L 763.396073 384.1819 
L 773.327733 384.181926 
L 783.259393 384.18194 
L 793.191053 384.18196 
L 803.122713 384.181966 
L 813.054374 384.181991 
L 822.986034 384.182005 
" clip-path="url(#p942ae668c7)" style="fill: none; stroke: #0173b2; stroke-width: 2.25; stroke-linecap: round"/>
    <g clip-path="url(#p942ae668c7)">
     <use xlink:href="#m5601aa1b06" x="644.21615" y="258.145881" style="fill: #0173b2; stroke: #ffffff; stroke-width: 0.75"/>
     <use xlink:href="#m5601aa1b06" x="654.147811" y="383.306889" style="fill: #0173b2; stroke: #ffffff; stroke-width: 0.75"/>
     <use xlink:href="#m5601aa1b06" x="664.079471" y="384.16293" style="fill: #0173b2; stroke: #ffffff; stroke-width: 0.75"/>
     <use xlink:href="#m5601aa1b06" x="674.011131" y="384.177951" style="fill: #0173b2; stroke: #ffffff; stroke-width: 0.75"/>
     <use xlink:href="#m5601aa1b06" x="683.942791" y="384.178939" style="fill: #0173b2; stroke: #ffffff; stroke-width: 0.75"/>
     <use xlink:href="#m5601aa1b06" x="693.874451" y="384.179913" style="fill: #0173b2; stroke: #ffffff; stroke-width: 0.75"/>
     <use xlink:href="#m5601aa1b06" x="703.806112" y="384.180765" style="fill: #0173b2; stroke: #ffffff; stroke-width: 0.75"/>
     <use xlink:href="#m5601aa1b06" x="713.737772" y="384.181162" style="fill: #0173b2; stroke: #ffffff; stroke-width: 0.75"/>
     <use xlink:href="#m5601aa1b06" x="723.669432" y="384.181306" style="fill: #0173b2; stroke: #ffffff; stroke-width: 0.75"/>
     <use xlink:href="#m5601aa1b06" x="733.601092" y="384.181805" style="fill: #0173b2; stroke: #ffffff; stroke-width: 0.75"/>
     <use xlink:href="#m5601aa1b06" x="743.532752" y="384.181833" style="fill: #0173b2; stroke: #ffffff; stroke-width: 0.75"/>
     <use xlink:href="#m5601aa1b06" x="753.464412" y="384.18187" style="fill: #0173b2; stroke: #ffffff; stroke-width: 0.75"/>
     <use xlink:href="#m5601aa1b06" x="763.396073" y="384.1819" style="fill: #0173b2; stroke: #ffffff; stroke-width: 0.75"/>
     <use xlink:href="#m5601aa1b06" x="773.327733" y="384.181926" style="fill: #0173b2; stroke: #ffffff; stroke-width: 0.75"/>
     <use xlink:href="#m5601aa1b06" x="783.259393" y="384.18194" style="fill: #0173b2; stroke: #ffffff; stroke-width: 0.75"/>
     <use xlink:href="#m5601aa1b06" x="793.191053" y="384.18196" style="fill: #0173b2; stroke: #ffffff; stroke-width: 0.75"/>
     <use xlink:href="#m5601aa1b06" x="803.122713" y="384.181966" style="fill: #0173b2; stroke: #ffffff; stroke-width: 0.75"/>
     <use xlink:href="#m5601aa1b06" x="813.054374" y="384.181991" style="fill: #0173b2; stroke: #ffffff; stroke-width: 0.75"/>
     <use xlink:href="#m5601aa1b06" x="822.986034" y="384.182005" style="fill: #0173b2; stroke: #ffffff; stroke-width: 0.75"/>
    </g>
   </g>
   <g id="line2d_34">
    <path d="M 644.21615 380.964807 
L 654.147811 384.14098 
L 664.079471 384.17796 
L 674.011131 384.17592 
L 683.942791 384.178469 
L 693.874451 384.180765 
L 703.806112 384.17836 
L 713.737772 384.171545 
L 723.669432 384.180889 
L 733.601092 384.182152 
L 743.532752 384.181169 
L 753.464412 384.180012 
L 763.396073 384.178974 
L 773.327733 384.182244 
L 783.259393 384.179648 
L 793.191053 384.181674 
L 803.122713 384.178816 
L 813.054374 384.180049 
L 822.986034 384.181747 
" clip-path="url(#p942ae668c7)" style="fill: none; stroke: #de8f05; stroke-width: 2.25; stroke-linecap: round"/>
    <g clip-path="url(#p942ae668c7)">
     <use xlink:href="#m158bdfc67c" x="644.21615" y="380.964807" style="fill: #de8f05; stroke: #ffffff; stroke-width: 0.75"/>
     <use xlink:href="#m158bdfc67c" x="654.147811" y="384.14098" style="fill: #de8f05; stroke: #ffffff; stroke-width: 0.75"/>
     <use xlink:href="#m158bdfc67c" x="664.079471" y="384.17796" style="fill: #de8f05; stroke: #ffffff; stroke-width: 0.75"/>
     <use xlink:href="#m158bdfc67c" x="674.011131" y="384.17592" style="fill: #de8f05; stroke: #ffffff; stroke-width: 0.75"/>
     <use xlink:href="#m158bdfc67c" x="683.942791" y="384.178469" style="fill: #de8f05; stroke: #ffffff; stroke-width: 0.75"/>
     <use xlink:href="#m158bdfc67c" x="693.874451" y="384.180765" style="fill: #de8f05; stroke: #ffffff; stroke-width: 0.75"/>
     <use xlink:href="#m158bdfc67c" x="703.806112" y="384.17836" style="fill: #de8f05; stroke: #ffffff; stroke-width: 0.75"/>
     <use xlink:href="#m158bdfc67c" x="713.737772" y="384.171545" style="fill: #de8f05; stroke: #ffffff; stroke-width: 0.75"/>
     <use xlink:href="#m158bdfc67c" x="723.669432" y="384.180889" style="fill: #de8f05; stroke: #ffffff; stroke-width: 0.75"/>
     <use xlink:href="#m158bdfc67c" x="733.601092" y="384.182152" style="fill: #de8f05; stroke: #ffffff; stroke-width: 0.75"/>
     <use xlink:href="#m158bdfc67c" x="743.532752" y="384.181169" style="fill: #de8f05; stroke: #ffffff; stroke-width: 0.75"/>
     <use xlink:href="#m158bdfc67c" x="753.464412" y="384.180012" style="fill: #de8f05; stroke: #ffffff; stroke-width: 0.75"/>
     <use xlink:href="#m158bdfc67c" x="763.396073" y="384.178974" style="fill: #de8f05; stroke: #ffffff; stroke-width: 0.75"/>
     <use xlink:href="#m158bdfc67c" x="773.327733" y="384.182244" style="fill: #de8f05; stroke: #ffffff; stroke-width: 0.75"/>
     <use xlink:href="#m158bdfc67c" x="783.259393" y="384.179648" style="fill: #de8f05; stroke: #ffffff; stroke-width: 0.75"/>
     <use xlink:href="#m158bdfc67c" x="793.191053" y="384.181674" style="fill: #de8f05; stroke: #ffffff; stroke-width: 0.75"/>
     <use xlink:href="#m158bdfc67c" x="803.122713" y="384.178816" style="fill: #de8f05; stroke: #ffffff; stroke-width: 0.75"/>
     <use xlink:href="#m158bdfc67c" x="813.054374" y="384.180049" style="fill: #de8f05; stroke: #ffffff; stroke-width: 0.75"/>
     <use xlink:href="#m158bdfc67c" x="822.986034" y="384.181747" style="fill: #de8f05; stroke: #ffffff; stroke-width: 0.75"/>
    </g>
   </g>
   <g id="patch_15">
    <path d="M 635.277656 390.484062 
L 635.277656 251.844062 
" style="fill: none; stroke: #cccccc; stroke-width: 1.875; stroke-linejoin: miter; stroke-linecap: square"/>
   </g>
   <g id="patch_16">
    <path d="M 635.277656 390.484062 
L 831.924528 390.484062 
" style="fill: none; stroke: #cccccc; stroke-width: 1.875; stroke-linejoin: miter; stroke-linecap: square"/>
   </g>
   <g id="text_40">
    <!-- Strawberry / superfib_intermediate -->
    <g style="fill: #262626" transform="translate(596.048748 245.844062) scale(0.18 -0.18)">
     <defs>
      <path id="ArialMT-6d" d="M 422 0 
L 422 3319 
L 925 3319 
L 925 2853 
Q 1081 3097 1340 3245 
Q 1600 3394 1931 3394 
Q 2300 3394 2536 3241 
Q 2772 3088 2869 2813 
Q 3263 3394 3894 3394 
Q 4388 3394 4653 3120 
Q 4919 2847 4919 2278 
L 4919 0 
L 4359 0 
L 4359 2091 
Q 4359 2428 4304 2576 
Q 4250 2725 4106 2815 
Q 3963 2906 3769 2906 
Q 3419 2906 3187 2673 
Q 2956 2441 2956 1928 
L 2956 0 
L 2394 0 
L 2394 2156 
Q 2394 2531 2256 2718 
Q 2119 2906 1806 2906 
Q 1569 2906 1367 2781 
Q 1166 2656 1075 2415 
Q 984 2175 984 1722 
L 984 0 
L 422 0 
z
" transform="scale(0.015625)"/>
     </defs>
     <use xlink:href="#ArialMT-53"/>
     <use xlink:href="#ArialMT-74" transform="translate(66.699219 0)"/>
     <use xlink:href="#ArialMT-72" transform="translate(94.482422 0)"/>
     <use xlink:href="#ArialMT-61" transform="translate(127.783203 0)"/>
     <use xlink:href="#ArialMT-77" transform="translate(183.398438 0)"/>
     <use xlink:href="#ArialMT-62" transform="translate(255.615234 0)"/>
     <use xlink:href="#ArialMT-65" transform="translate(311.230469 0)"/>
     <use xlink:href="#ArialMT-72" transform="translate(366.845703 0)"/>
     <use xlink:href="#ArialMT-72" transform="translate(400.146484 0)"/>
     <use xlink:href="#ArialMT-79" transform="translate(433.447266 0)"/>
     <use xlink:href="#ArialMT-20" transform="translate(483.447266 0)"/>
     <use xlink:href="#ArialMT-2f" transform="translate(511.230469 0)"/>
     <use xlink:href="#ArialMT-20" transform="translate(539.013672 0)"/>
     <use xlink:href="#ArialMT-73" transform="translate(566.796875 0)"/>
     <use xlink:href="#ArialMT-75" transform="translate(616.796875 0)"/>
     <use xlink:href="#ArialMT-70" transform="translate(672.412109 0)"/>
     <use xlink:href="#ArialMT-65" transform="translate(728.027344 0)"/>
     <use xlink:href="#ArialMT-72" transform="translate(783.642578 0)"/>
     <use xlink:href="#ArialMT-66" transform="translate(816.943359 0)"/>
     <use xlink:href="#ArialMT-69" transform="translate(844.726562 0)"/>
     <use xlink:href="#ArialMT-62" transform="translate(866.943359 0)"/>
     <use xlink:href="#ArialMT-5f" transform="translate(922.558594 0)"/>
     <use xlink:href="#ArialMT-69" transform="translate(978.173828 0)"/>
     <use xlink:href="#ArialMT-6e" transform="translate(1000.390625 0)"/>
     <use xlink:href="#ArialMT-74" transform="translate(1056.005859 0)"/>
     <use xlink:href="#ArialMT-65" transform="translate(1083.789062 0)"/>
     <use xlink:href="#ArialMT-72" transform="translate(1139.404297 0)"/>
     <use xlink:href="#ArialMT-6d" transform="translate(1172.705078 0)"/>
     <use xlink:href="#ArialMT-65" transform="translate(1256.005859 0)"/>
     <use xlink:href="#ArialMT-64" transform="translate(1311.621094 0)"/>
     <use xlink:href="#ArialMT-69" transform="translate(1367.236328 0)"/>
     <use xlink:href="#ArialMT-61" transform="translate(1389.453125 0)"/>
     <use xlink:href="#ArialMT-74" transform="translate(1445.068359 0)"/>
     <use xlink:href="#ArialMT-65" transform="translate(1472.851562 0)"/>
    </g>
   </g>
   <g id="legend_4">
    <g id="patch_17">
     <path d="M 739.851997 306.258226 
L 821.428728 306.258226 
Q 824.427528 306.258226 824.427528 303.259426 
L 824.427528 262.339862 
Q 824.427528 259.341062 821.428728 259.341062 
L 739.851997 259.341062 
Q 736.853197 259.341062 736.853197 262.339862 
L 736.853197 303.259426 
Q 736.853197 306.258226 739.851997 306.258226 
z
" style="fill: #ffffff; opacity: 0.8; stroke: #cccccc; stroke-width: 1.5; stroke-linejoin: miter"/>
    </g>
    <g id="line2d_35">
     <path d="M 742.850797 270.823187 
L 757.844797 270.823187 
L 772.838797 270.823187 
" style="fill: none; stroke: #0173b2; stroke-width: 2.25; stroke-linecap: round"/>
     <g>
      <use xlink:href="#m5601aa1b06" x="757.844797" y="270.823187" style="fill: #0173b2; stroke: #ffffff; stroke-width: 0.75"/>
     </g>
    </g>
    <g id="text_41">
     <!-- Train -->
     <g style="fill: #262626" transform="translate(784.833997 276.071087) scale(0.14994 -0.14994)">
      <use xlink:href="#ArialMT-54"/>
      <use xlink:href="#ArialMT-72" transform="translate(57.333984 0)"/>
      <use xlink:href="#ArialMT-61" transform="translate(90.634766 0)"/>
      <use xlink:href="#ArialMT-69" transform="translate(146.25 0)"/>
      <use xlink:href="#ArialMT-6e" transform="translate(168.466797 0)"/>
     </g>
    </g>
    <g id="line2d_36">
     <path d="M 742.850797 292.032668 
L 757.844797 292.032668 
L 772.838797 292.032668 
" style="fill: none; stroke: #de8f05; stroke-width: 2.25; stroke-linecap: round"/>
     <g>
      <use xlink:href="#m158bdfc67c" x="757.844797" y="292.032668" style="fill: #de8f05; stroke: #ffffff; stroke-width: 0.75"/>
     </g>
    </g>
    <g id="text_42">
     <!-- Val -->
     <g style="fill: #262626" transform="translate(784.833997 297.280568) scale(0.14994 -0.14994)">
      <use xlink:href="#ArialMT-56"/>
      <use xlink:href="#ArialMT-61" transform="translate(59.324219 0)"/>
      <use xlink:href="#ArialMT-6c" transform="translate(114.939453 0)"/>
     </g>
    </g>
   </g>
  </g>
  <g id="axes_7">
   <g id="text_43">
    <!-- No data -->
    <g style="fill: #262626" transform="translate(148.251405 551.577344) scale(0.18 -0.18)">
     <use xlink:href="#ArialMT-4e"/>
     <use xlink:href="#ArialMT-6f" transform="translate(72.216797 0)"/>
     <use xlink:href="#ArialMT-20" transform="translate(127.832031 0)"/>
     <use xlink:href="#ArialMT-64" transform="translate(155.615234 0)"/>
     <use xlink:href="#ArialMT-61" transform="translate(211.230469 0)"/>
     <use xlink:href="#ArialMT-74" transform="translate(266.845703 0)"/>
     <use xlink:href="#ArialMT-61" transform="translate(294.628906 0)"/>
    </g>
   </g>
  </g>
  <g id="axes_8">
   <g id="text_44">
    <!-- No data -->
    <g style="fill: #262626" transform="translate(425.166405 551.577344) scale(0.18 -0.18)">
     <use xlink:href="#ArialMT-4e"/>
     <use xlink:href="#ArialMT-6f" transform="translate(72.216797 0)"/>
     <use xlink:href="#ArialMT-20" transform="translate(127.832031 0)"/>
     <use xlink:href="#ArialMT-64" transform="translate(155.615234 0)"/>
     <use xlink:href="#ArialMT-61" transform="translate(211.230469 0)"/>
     <use xlink:href="#ArialMT-74" transform="translate(266.845703 0)"/>
     <use xlink:href="#ArialMT-61" transform="translate(294.628906 0)"/>
    </g>
   </g>
  </g>
  <g id="axes_9">
   <g id="text_45">
    <!-- No data -->
    <g style="fill: #262626" transform="translate(702.081405 551.577344) scale(0.18 -0.18)">
     <use xlink:href="#ArialMT-4e"/>
     <use xlink:href="#ArialMT-6f" transform="translate(72.216797 0)"/>
     <use xlink:href="#ArialMT-20" transform="translate(127.832031 0)"/>
     <use xlink:href="#ArialMT-64" transform="translate(155.615234 0)"/>
     <use xlink:href="#ArialMT-61" transform="translate(211.230469 0)"/>
     <use xlink:href="#ArialMT-74" transform="translate(266.845703 0)"/>
     <use xlink:href="#ArialMT-61" transform="translate(294.628906 0)"/>
    </g>
   </g>
  </g>
 </g>
 <defs>
  <clipPath id="pa0174c25e8">
   <rect x="81.447656" y="26.084062" width="196.646872" height="138.64"/>
  </clipPath>
  <clipPath id="pc4c3a542f7">
   <rect x="81.447656" y="251.844062" width="196.646872" height="138.64"/>
  </clipPath>
  <clipPath id="p9224dc7cd6">
   <rect x="358.362656" y="251.844062" width="196.646872" height="138.64"/>
  </clipPath>
  <clipPath id="p942ae668c7">
   <rect x="635.277656" y="251.844062" width="196.646872" height="138.64"/>
  </clipPath>
 </defs>
</svg>
